<svg width="121" height="20" viewBox="0 0 121 20" fill="none" xmlns="http://www.w3.org/2000/svg">
<mask id="path-1-outside-1_18_48" maskUnits="userSpaceOnUse" x="0" y="0" width="121" height="20" fill="black">
<rect fill="white" width="121" height="20"/>
<path d="M8.664 9.088C9.24 9.136 9.92 9.312 10.704 9.616C11.504 9.904 12.208 10.36 12.816 10.984C13.424 11.608 13.728 12.384 13.728 13.312C13.728 14.592 13.408 15.664 12.768 16.528C12.144 17.376 11.328 18 10.32 18.4C9.328 18.8 8.28 19 7.176 19H0.96V18.4C1.264 18.496 1.536 18.544 1.776 18.544C2.4 18.544 2.728 18.216 2.76 17.56V2.68C2.728 2.024 2.4 1.696 1.776 1.696C1.536 1.696 1.264 1.744 0.96 1.84V1.24H6.792C8.312 1.24 9.624 1.544 10.728 2.152C11.848 2.76 12.408 3.784 12.408 5.224C12.408 5.912 12.192 6.544 11.76 7.12C11.344 7.68 10.84 8.136 10.248 8.488C9.656 8.824 9.128 9.008 8.664 9.04C8.632 9.04 8.616 9.048 8.616 9.064C8.616 9.08 8.632 9.088 8.664 9.088ZM4.56 8.8H7.776C8.416 8.8 9.072 8.584 9.744 8.152C10.416 7.72 10.752 6.84 10.752 5.512C10.768 4.152 10.392 3.144 9.624 2.488C8.872 1.816 7.944 1.48 6.84 1.48C6.024 1.48 5.264 1.544 4.56 1.672V8.8ZM6.552 18.76C7.688 18.76 8.648 18.536 9.432 18.088C10.216 17.624 10.8 17.008 11.184 16.24C11.584 15.456 11.784 14.592 11.784 13.648C11.784 12.624 11.576 11.784 11.16 11.128C10.744 10.472 10.232 10 9.624 9.712C9.016 9.424 8.4 9.28 7.776 9.28H4.56V16.264C4.56 16.984 4.648 17.528 4.824 17.896C5.016 18.264 5.248 18.504 5.52 18.616C5.808 18.712 6.152 18.76 6.552 18.76ZM28.7861 19.48C27.8901 19.48 27.1701 19.296 26.6261 18.928C26.0981 18.544 25.6901 18.088 25.4021 17.56C25.1301 17.016 24.8341 16.272 24.5141 15.328C24.1941 14.352 23.8821 13.584 23.5781 13.024C23.2901 12.448 22.8501 11.96 22.2581 11.56C21.6821 11.16 20.8981 10.96 19.9061 10.96V10.744C21.9541 10.744 23.4261 10.384 24.3221 9.664C25.2181 8.944 25.6661 7.888 25.6661 6.496C25.6661 5.104 25.2661 3.92 24.4661 2.944C23.6821 1.968 22.4101 1.48 20.6501 1.48C20.1701 1.48 19.6741 1.544 19.1621 1.672L19.1381 17.56C19.1381 17.864 19.2821 18.104 19.5701 18.28C19.8581 18.456 20.2181 18.544 20.6501 18.544C20.9701 18.544 21.2821 18.496 21.5861 18.4V19H15.5381V18.4C15.8421 18.496 16.1221 18.544 16.3781 18.544C16.6821 18.544 16.9141 18.464 17.0741 18.304C17.2501 18.128 17.3381 17.88 17.3381 17.56V2.68C17.3381 2.36 17.2501 2.12 17.0741 1.96C16.9141 1.784 16.6821 1.696 16.3781 1.696C16.1221 1.696 15.8421 1.744 15.5381 1.84V1.24H21.7061C23.4181 1.24 24.8421 1.656 25.9781 2.488C27.1141 3.32 27.6821 4.608 27.6821 6.352C27.6821 7.472 27.2661 8.408 26.4341 9.16C25.6181 9.912 24.5701 10.432 23.2901 10.72C23.7381 10.736 24.1301 10.92 24.4661 11.272C24.8181 11.624 25.1221 12.064 25.3781 12.592C25.6341 13.104 25.9301 13.784 26.2661 14.632C26.6341 15.56 26.9541 16.304 27.2261 16.864C27.4981 17.424 27.8341 17.896 28.2341 18.28C28.6341 18.664 29.1061 18.856 29.6501 18.856C30.0821 18.856 30.4981 18.672 30.8981 18.304C31.3141 17.92 31.6341 17.528 31.8581 17.128L32.0501 17.44C31.6181 18.16 31.1541 18.68 30.6581 19C30.1781 19.32 29.5541 19.48 28.7861 19.48ZM44.7576 18.04C44.8696 18.456 45.1576 18.664 45.6216 18.664C45.9256 18.664 46.3256 18.576 46.8216 18.4V19H41.0376V18.4C41.5016 18.56 41.9016 18.64 42.2376 18.64C42.6216 18.64 42.8136 18.504 42.8136 18.232C42.8136 18.152 42.8056 18.088 42.7896 18.04L40.6296 11.2H35.5416C34.9656 13.12 34.4136 15.04 33.8856 16.96L33.7176 17.56C33.6856 17.656 33.6696 17.776 33.6696 17.92C33.6696 18.384 33.9576 18.616 34.5336 18.616C34.8536 18.616 35.2216 18.544 35.6376 18.4V19H30.6216V18.4C31.0056 18.544 31.3736 18.616 31.7256 18.616C32.2056 18.616 32.5496 18.424 32.7576 18.04C32.8696 17.816 32.9656 17.584 33.0456 17.344L38.1336 0.759999H39.5256L44.7576 18.04ZM35.6616 10.768H40.4856L37.9896 2.896L35.6616 10.768ZM63.1727 1.216V1.816C62.8527 1.72 62.5487 1.672 62.2607 1.672C61.8607 1.672 61.5327 1.76 61.2767 1.936C61.0367 2.112 60.9167 2.352 60.9167 2.656V19.48H60.3647L49.7567 2.992L49.7807 17.56C49.7807 17.864 49.9247 18.104 50.2127 18.28C50.5167 18.456 50.8847 18.544 51.3167 18.544C51.6527 18.544 51.9727 18.496 52.2767 18.4V19H47.0447V18.4C47.3487 18.496 47.6527 18.544 47.9567 18.544C48.3407 18.544 48.6447 18.456 48.8687 18.28C49.1087 18.104 49.2287 17.864 49.2287 17.56V2.68C49.2287 2.376 49.1087 2.136 48.8687 1.96C48.6287 1.784 48.3167 1.696 47.9327 1.696C47.6607 1.696 47.3647 1.744 47.0447 1.84V1.24H50.8127L60.3647 15.712V2.656C60.3647 2.352 60.2287 2.112 59.9567 1.936C59.6847 1.76 59.3407 1.672 58.9247 1.672C58.6047 1.672 58.2927 1.72 57.9887 1.816V1.216H63.1727ZM64.6163 18.4C64.9203 18.496 65.2003 18.544 65.4563 18.544C65.7603 18.544 65.9923 18.464 66.1523 18.304C66.3283 18.128 66.4163 17.88 66.4163 17.56V2.68C66.4163 2.36 66.3283 2.12 66.1523 1.96C65.9923 1.784 65.7603 1.696 65.4563 1.696C65.2003 1.696 64.9203 1.744 64.6163 1.84V1.24H72.0323C73.4083 1.24 74.6723 1.592 75.8243 2.296C76.9923 3 77.9123 3.992 78.5843 5.272C79.2563 6.552 79.5923 8.008 79.5923 9.64C79.5923 11.288 79.2483 12.832 78.5603 14.272C77.8883 15.712 76.9683 16.864 75.8003 17.728C74.6483 18.576 73.3923 19 72.0323 19H64.6163V18.4ZM71.5043 18.592C72.4163 18.592 73.3443 18.288 74.2883 17.68C75.2483 17.072 76.0563 16.128 76.7123 14.848C77.3683 13.552 77.6963 11.944 77.6963 10.024C77.6963 8.536 77.4083 7.152 76.8323 5.872C76.2723 4.576 75.5123 3.544 74.5523 2.776C73.6083 2.008 72.5923 1.624 71.5043 1.624H69.3443C69.0563 1.624 68.7923 1.712 68.5523 1.888C68.3283 2.048 68.2163 2.312 68.2163 2.68V17.56C68.2163 17.928 68.3283 18.192 68.5523 18.352C68.7923 18.512 69.0563 18.592 69.3443 18.592H71.5043ZM81.5147 18.4C81.8187 18.496 82.0987 18.544 82.3547 18.544C82.6587 18.544 82.8907 18.464 83.0507 18.304C83.2267 18.128 83.3147 17.88 83.3147 17.56V2.68C83.3147 2.36 83.2267 2.12 83.0507 1.96C82.8907 1.784 82.6587 1.696 82.3547 1.696C82.0987 1.696 81.8187 1.744 81.5147 1.84V1.24H86.9147V1.84C86.6107 1.744 86.3307 1.696 86.0747 1.696C85.7707 1.696 85.5307 1.784 85.3547 1.96C85.1947 2.12 85.1147 2.36 85.1147 2.68V17.56C85.1147 17.88 85.1947 18.128 85.3547 18.304C85.5307 18.464 85.7707 18.544 86.0747 18.544C86.3307 18.544 86.6107 18.496 86.9147 18.4V19H81.5147V18.4ZM104.235 1.216V1.816C103.915 1.72 103.611 1.672 103.323 1.672C102.923 1.672 102.595 1.76 102.339 1.936C102.099 2.112 101.979 2.352 101.979 2.656V19.48H101.427L90.8192 2.992L90.8432 17.56C90.8432 17.864 90.9872 18.104 91.2752 18.28C91.5792 18.456 91.9472 18.544 92.3792 18.544C92.7152 18.544 93.0352 18.496 93.3392 18.4V19H88.1072V18.4C88.4112 18.496 88.7152 18.544 89.0192 18.544C89.4032 18.544 89.7072 18.456 89.9312 18.28C90.1712 18.104 90.2912 17.864 90.2912 17.56V2.68C90.2912 2.376 90.1712 2.136 89.9312 1.96C89.6912 1.784 89.3792 1.696 88.9952 1.696C88.7232 1.696 88.4272 1.744 88.1072 1.84V1.24H91.8752L101.427 15.712V2.656C101.427 2.352 101.291 2.112 101.019 1.936C100.747 1.76 100.403 1.672 99.9872 1.672C99.6672 1.672 99.3552 1.72 99.0512 1.816V1.216H104.235ZM113.49 19.48C112.002 19.48 110.642 19.056 109.41 18.208C108.194 17.344 107.226 16.2 106.506 14.776C105.802 13.336 105.45 11.784 105.45 10.12C105.45 8.44 105.778 6.888 106.434 5.464C107.106 4.024 108.034 2.88 109.218 2.032C110.418 1.184 111.77 0.759999 113.274 0.759999C114.346 0.759999 115.378 1.048 116.37 1.624C117.378 2.2 118.138 2.832 118.65 3.52L119.01 1.168H119.418V6.52H118.65C118.65 5.64 118.442 4.8 118.026 4C117.61 3.184 116.978 2.52 116.13 2.008C115.298 1.496 114.266 1.24 113.034 1.24C111.93 1.24 110.954 1.648 110.106 2.464C109.258 3.28 108.61 4.36 108.162 5.704C107.714 7.048 107.49 8.488 107.49 10.024C107.49 11.64 107.698 13.128 108.114 14.488C108.53 15.832 109.194 16.92 110.106 17.752C111.034 18.584 112.202 19 113.61 19C114.634 19 115.514 18.72 116.25 18.16C116.986 17.6 117.538 16.896 117.906 16.048C118.29 15.184 118.482 14.312 118.482 13.432C118.482 12.712 118.426 12.16 118.314 11.776C118.218 11.392 118.026 11.2 117.738 11.2L115.986 11.176C115.01 11.176 114.434 11.224 114.258 11.32C114.082 11.416 113.994 11.608 113.994 11.896C114.01 12.184 114.018 12.384 114.018 12.496C114.018 12.848 114.05 13.12 114.114 13.312C114.178 13.488 114.322 13.584 114.546 13.6V13.912H113.61V10.72H120.066V16.648C119.778 16.648 119.426 16.76 119.01 16.984C118.738 17.144 118.45 17.328 118.146 17.536C117.298 18.112 116.506 18.584 115.77 18.952C115.034 19.304 114.274 19.48 113.49 19.48Z"/>
</mask>
<path d="M8.664 9.088L8.70552 8.58973L8.6848 8.588H8.664V9.088ZM10.704 9.616L10.5232 10.0823L10.5346 10.0864L10.704 9.616ZM12.816 10.984L13.1741 10.6351L13.1741 10.6351L12.816 10.984ZM12.768 16.528L12.3662 16.2304L12.3653 16.2317L12.768 16.528ZM10.32 18.4L10.1356 17.9352L10.133 17.9363L10.32 18.4ZM0.96 19H0.46V19.5H0.96V19ZM0.96 18.4L1.11057 17.9232L0.46 17.7178V18.4H0.96ZM2.76 17.56L3.25941 17.5844L3.26 17.5722V17.56H2.76ZM2.76 2.68H3.26V2.66781L3.25941 2.65564L2.76 2.68ZM0.96 1.84H0.46V2.52223L1.11057 2.31679L0.96 1.84ZM0.96 1.24V0.74H0.46V1.24H0.96ZM10.728 2.152L10.4868 2.58998L10.4895 2.59143L10.728 2.152ZM11.76 7.12L11.36 6.82L11.3586 6.82184L11.76 7.12ZM10.248 8.488L10.4949 8.92293L10.5035 8.91777L10.248 8.488ZM8.664 9.04V9.54H8.68122L8.6984 9.53881L8.664 9.04ZM4.56 8.8H4.06V9.3H4.56V8.8ZM10.752 5.512L10.252 5.50612V5.512H10.752ZM9.624 2.488L9.29075 2.86092L9.29926 2.86819L9.624 2.488ZM4.56 1.672L4.47056 1.18006L4.06 1.25471V1.672H4.56ZM9.432 18.088L9.6801 18.5222L9.68666 18.5183L9.432 18.088ZM11.184 16.24L10.7386 16.0128L10.7368 16.0164L11.184 16.24ZM11.16 11.128L11.5823 10.8602L11.5823 10.8602L11.16 11.128ZM9.624 9.712L9.83804 9.26013L9.83804 9.26013L9.624 9.712ZM4.56 9.28V8.78H4.06V9.28H4.56ZM4.824 17.896L4.37293 18.1117L4.37669 18.1196L4.38071 18.1273L4.824 17.896ZM5.52 18.616L5.32963 19.0783L5.34555 19.0849L5.36189 19.0903L5.52 18.616ZM8.664 9.088L8.62248 9.58627C9.13448 9.62894 9.76553 9.78837 10.5232 10.0822L10.704 9.616L10.8848 9.14982C10.0745 8.83562 9.34552 8.64306 8.70552 8.58973L8.664 9.088ZM10.704 9.616L10.5346 10.0864C11.2615 10.3481 11.9014 10.7618 12.4579 11.3329L12.816 10.984L13.1741 10.6351C12.5146 9.95816 11.7465 9.45988 10.8734 9.14556L10.704 9.616ZM12.816 10.984L12.4579 11.3329C12.9686 11.8571 13.228 12.505 13.228 13.312H13.728H14.228C14.228 12.263 13.8794 11.3589 13.1741 10.6351L12.816 10.984ZM13.728 13.312H13.228C13.228 14.5058 12.931 15.468 12.3662 16.2304L12.768 16.528L13.1698 16.8256C13.885 15.86 14.228 14.6782 14.228 13.312H13.728ZM12.768 16.528L12.3653 16.2317C11.7986 17.0018 11.0592 17.5687 10.1356 17.9353L10.32 18.4L10.5044 18.8647C11.5968 18.4313 12.4894 17.7502 13.1707 16.8243L12.768 16.528ZM10.32 18.4L10.133 17.9363C9.20236 18.3115 8.21802 18.5 7.176 18.5V19V19.5C8.34198 19.5 9.45364 19.2885 10.507 18.8637L10.32 18.4ZM7.176 19V18.5H0.96V19V19.5H7.176V19ZM0.96 19H1.46V18.4H0.96H0.46V19H0.96ZM0.96 18.4L0.809434 18.8768C1.14718 18.9834 1.4713 19.044 1.776 19.044V18.544V18.044C1.6007 18.044 1.38082 18.0086 1.11057 17.9232L0.96 18.4ZM1.776 18.544V19.044C2.17346 19.044 2.55701 18.9381 2.84355 18.6516C3.12598 18.3691 3.23986 17.985 3.25941 17.5844L2.76 17.56L2.26059 17.5356C2.24814 17.791 2.18202 17.8989 2.13645 17.9444C2.09499 17.9859 2.00254 18.044 1.776 18.044V18.544ZM2.76 17.56H3.26V2.68H2.76H2.26V17.56H2.76ZM2.76 2.68L3.25941 2.65564C3.23986 2.25499 3.12598 1.87087 2.84355 1.58845C2.55701 1.30191 2.17346 1.196 1.776 1.196V1.696V2.196C2.00254 2.196 2.09499 2.25409 2.13645 2.29555C2.18202 2.34112 2.24814 2.44901 2.26059 2.70436L2.76 2.68ZM1.776 1.696V1.196C1.4713 1.196 1.14718 1.25655 0.809435 1.36321L0.96 1.84L1.11057 2.31679C1.38082 2.23145 1.6007 2.196 1.776 2.196V1.696ZM0.96 1.84H1.46V1.24H0.96H0.46V1.84H0.96ZM0.96 1.24V1.74H6.792V1.24V0.74H0.96V1.24ZM6.792 1.24V1.74C8.24495 1.74 9.47048 2.03026 10.4868 2.58997L10.728 2.152L10.9692 1.71403C9.77752 1.05774 8.37905 0.74 6.792 0.74V1.24ZM10.728 2.152L10.4895 2.59143C11.4244 3.09894 11.908 3.93833 11.908 5.224H12.408H12.908C12.908 3.62967 12.2716 2.42106 10.9665 1.71257L10.728 2.152ZM12.408 5.224H11.908C11.908 5.79855 11.7303 6.32624 11.36 6.82L11.76 7.12L12.16 7.42C12.6537 6.76176 12.908 6.02545 12.908 5.224H12.408ZM11.76 7.12L11.3586 6.82184C10.9815 7.32946 10.5269 7.74047 9.99246 8.05823L10.248 8.488L10.5035 8.91777C11.1531 8.53153 11.7065 8.03054 12.1614 7.41816L11.76 7.12ZM10.248 8.488L10.0012 8.05316C9.44649 8.36799 8.99247 8.51616 8.6296 8.54118L8.664 9.04L8.6984 9.53881C9.26353 9.49984 9.86551 9.28001 10.4948 8.92284L10.248 8.488ZM8.664 9.04V8.54C8.62246 8.54 8.51688 8.54255 8.4044 8.59878C8.34108 8.63044 8.26356 8.68528 8.20298 8.77615C8.14031 8.87014 8.116 8.97251 8.116 9.064H8.616H9.116C9.116 9.14749 9.09369 9.24285 9.03502 9.33085C8.97844 9.41572 8.90692 9.46556 8.8516 9.49321C8.75512 9.54145 8.67354 9.54 8.664 9.54V9.04ZM8.616 9.064H8.116C8.116 9.15549 8.14031 9.25785 8.20297 9.35185C8.26355 9.44271 8.34108 9.49755 8.40439 9.52921C8.51687 9.58545 8.62246 9.588 8.664 9.588V9.088V8.588C8.67354 8.588 8.75513 8.58655 8.85161 8.63479C8.90693 8.66245 8.97845 8.71228 9.03503 8.79715C9.09369 8.88515 9.116 8.98051 9.116 9.064H8.616ZM4.56 8.8V9.3H7.776V8.8V8.3H4.56V8.8ZM7.776 8.8V9.3C8.53315 9.3 9.28172 9.04358 10.0144 8.57259L9.744 8.152L9.47362 7.73141C8.86228 8.12442 8.29885 8.3 7.776 8.3V8.8ZM9.744 8.152L10.0144 8.57259C10.9048 8.00015 11.252 6.89525 11.252 5.512H10.752H10.252C10.252 6.78475 9.92717 7.43984 9.47362 7.73141L9.744 8.152ZM10.752 5.512L11.252 5.51788C11.2691 4.06409 10.8653 2.89069 9.94874 2.10781L9.624 2.488L9.29926 2.86819C9.91872 3.39731 10.2669 4.23991 10.252 5.50612L10.752 5.512ZM9.624 2.488L9.95717 2.11517C9.10454 1.35325 8.05432 0.98 6.84 0.98V1.48V1.98C7.83368 1.98 8.63946 2.27874 9.29084 2.86083L9.624 2.488ZM6.84 1.48V0.98C5.99809 0.98 5.20784 1.04601 4.47056 1.18006L4.56 1.672L4.64944 2.16393C5.32016 2.04198 6.04991 1.98 6.84 1.98V1.48ZM4.56 1.672H4.06V8.8H4.56H5.06V1.672H4.56ZM6.552 18.76V19.26C7.75289 19.26 8.80339 19.0231 9.68007 18.5221L9.432 18.088L9.18393 17.6539C8.49261 18.0489 7.62311 18.26 6.552 18.26V18.76ZM9.432 18.088L9.68666 18.5183C10.5481 18.0085 11.2016 17.3229 11.6312 16.4636L11.184 16.24L10.7368 16.0164C10.3984 16.6931 9.88391 17.2395 9.17734 17.6577L9.432 18.088ZM11.184 16.24L11.6294 16.4672C12.0679 15.6078 12.284 14.6651 12.284 13.648H11.784H11.284C11.284 14.5189 11.1001 15.3042 10.7386 16.0128L11.184 16.24ZM11.784 13.648H12.284C12.284 12.5587 12.0628 11.6181 11.5823 10.8602L11.16 11.128L10.7377 11.3958C11.0892 11.9499 11.284 12.6893 11.284 13.648H11.784ZM11.16 11.128L11.5823 10.8602C11.1236 10.137 10.544 9.59453 9.83804 9.26013L9.624 9.712L9.40996 10.1639C9.92 10.4055 10.3644 10.807 10.7377 11.3958L11.16 11.128ZM9.624 9.712L9.83804 9.26013C9.16846 8.94296 8.4797 8.78 7.776 8.78V9.28V9.78C8.3203 9.78 8.86354 9.90504 9.40996 10.1639L9.624 9.712ZM7.776 9.28V8.78H4.56V9.28V9.78H7.776V9.28ZM4.56 9.28H4.06V16.264H4.56H5.06V9.28H4.56ZM4.56 16.264H4.06C4.06 17.0099 4.1488 17.6431 4.37293 18.1117L4.824 17.896L5.27507 17.6803C5.1472 17.4129 5.06 16.9581 5.06 16.264H4.56ZM4.824 17.896L4.38071 18.1273C4.60508 18.5573 4.9115 18.9062 5.32963 19.0783L5.52 18.616L5.71038 18.1537C5.5845 18.1018 5.42693 17.9707 5.26729 17.6647L4.824 17.896ZM5.52 18.616L5.36189 19.0903C5.71414 19.2078 6.1143 19.26 6.552 19.26V18.76V18.26C6.1897 18.26 5.90186 18.2162 5.67811 18.1417L5.52 18.616ZM26.6261 18.928L26.332 19.3324L26.3389 19.3374L26.346 19.3421L26.6261 18.928ZM25.4021 17.56L24.9549 17.7836L24.9589 17.7916L24.9632 17.7994L25.4021 17.56ZM24.5141 15.328L24.039 15.4838L24.0406 15.4885L24.5141 15.328ZM23.5781 13.024L23.1309 13.2476L23.1347 13.2551L23.1387 13.2625L23.5781 13.024ZM22.2581 11.56L21.9729 11.9707L21.9782 11.9743L22.2581 11.56ZM19.9061 10.96H19.4061V11.46H19.9061V10.96ZM19.9061 10.744V10.244H19.4061V10.744H19.9061ZM24.3221 9.664L24.0089 9.27424L24.0089 9.27424L24.3221 9.664ZM24.4661 2.944L24.0763 3.25714L24.0794 3.26096L24.4661 2.944ZM19.1621 1.672L19.0409 1.18693L18.6627 1.28146L18.6621 1.67124L19.1621 1.672ZM19.1381 17.56L18.6381 17.5592V17.56H19.1381ZM19.5701 18.28L19.3094 18.7066L19.3094 18.7066L19.5701 18.28ZM21.5861 18.4H22.0861V17.7178L21.4356 17.9232L21.5861 18.4ZM21.5861 19V19.5H22.0861V19H21.5861ZM15.5381 19H15.0381V19.5H15.5381V19ZM15.5381 18.4L15.6887 17.9232L15.0381 17.7178V18.4H15.5381ZM17.0741 18.304L16.7206 17.9504L17.0741 18.304ZM17.0741 1.96L16.7042 2.29634L16.7202 2.31395L16.7378 2.32997L17.0741 1.96ZM15.5381 1.84H15.0381V2.52223L15.6887 2.31679L15.5381 1.84ZM15.5381 1.24V0.74H15.0381V1.24H15.5381ZM25.9781 2.488L26.2736 2.08462L26.2736 2.08462L25.9781 2.488ZM26.4341 9.16L26.0988 8.78905L26.0953 8.79232L26.4341 9.16ZM23.2901 10.72L23.1804 10.2322L23.2723 11.2197L23.2901 10.72ZM24.4661 11.272L24.1044 11.6173L24.1126 11.6256L24.4661 11.272ZM25.3781 12.592L24.9282 12.8102L24.9309 12.8156L25.3781 12.592ZM26.2661 14.632L25.8013 14.8162L25.8013 14.8163L26.2661 14.632ZM27.2261 16.864L26.7764 17.0825L26.7764 17.0825L27.2261 16.864ZM28.2341 18.28L27.8879 18.6407L27.8879 18.6407L28.2341 18.28ZM30.8981 18.304L31.2367 18.672L31.2373 18.6714L30.8981 18.304ZM31.8581 17.128L32.284 16.866L31.8378 16.141L31.4219 16.8837L31.8581 17.128ZM32.0501 17.44L32.4789 17.6972L32.6352 17.4367L32.476 17.178L32.0501 17.44ZM30.6581 19L30.387 18.5798L30.3808 18.584L30.6581 19ZM28.7861 19.48V18.98C27.9546 18.98 27.3424 18.8089 26.9063 18.5139L26.6261 18.928L26.346 19.3421C26.9978 19.7831 27.8257 19.98 28.7861 19.98V19.48ZM26.6261 18.928L26.9202 18.5236C26.4469 18.1794 26.0906 17.7781 25.8411 17.3206L25.4021 17.56L24.9632 17.7994C25.2896 18.3979 25.7493 18.9086 26.332 19.3324L26.6261 18.928ZM25.4021 17.56L25.8493 17.3364C25.5919 16.8215 25.3043 16.1016 24.9877 15.1675L24.5141 15.328L24.0406 15.4885C24.3639 16.4424 24.6684 17.2105 24.9549 17.7836L25.4021 17.56ZM24.5141 15.328L24.9892 15.1722C24.6648 14.1827 24.3419 13.3829 24.0176 12.7855L23.5781 13.024L23.1387 13.2625C23.4224 13.7851 23.7235 14.5213 24.039 15.4838L24.5141 15.328ZM23.5781 13.024L24.0253 12.8004C23.6948 12.1393 23.1933 11.5884 22.5381 11.1457L22.2581 11.56L21.9782 11.9743C22.5069 12.3316 22.8854 12.7567 23.1309 13.2476L23.5781 13.024ZM22.2581 11.56L22.5433 11.1493C21.8554 10.6716 20.9593 10.46 19.9061 10.46V10.96V11.46C20.8369 11.46 21.5088 11.6484 21.9729 11.9707L22.2581 11.56ZM19.9061 10.96H20.4061V10.744H19.9061H19.4061V10.96H19.9061ZM19.9061 10.744V11.244C21.9887 11.244 23.6039 10.8826 24.6353 10.0538L24.3221 9.664L24.0089 9.27424C23.2484 9.88542 21.9195 10.244 19.9061 10.244V10.744ZM24.3221 9.664L24.6353 10.0538C25.6745 9.2187 26.1661 8.00412 26.1661 6.496H25.6661H25.1661C25.1661 7.77188 24.7617 8.6693 24.0089 9.27424L24.3221 9.664ZM25.6661 6.496H26.1661C26.1661 5.00113 25.7338 3.70177 24.8528 2.62704L24.4661 2.944L24.0794 3.26096C24.7985 4.13823 25.1661 5.20687 25.1661 6.496H25.6661ZM24.4661 2.944L24.8559 2.63087C23.9429 1.49418 22.4971 0.98 20.6501 0.98V1.48V1.98C22.3232 1.98 23.4214 2.44182 24.0763 3.25713L24.4661 2.944ZM20.6501 1.48V0.98C20.1254 0.98 19.5886 1.04999 19.0409 1.18693L19.1621 1.672L19.2834 2.15707C19.7596 2.03801 20.2148 1.98 20.6501 1.98V1.48ZM19.1621 1.672L18.6621 1.67124L18.6381 17.5592L19.1381 17.56L19.6381 17.5608L19.6621 1.67275L19.1621 1.672ZM19.1381 17.56H18.6381C18.6381 18.06 18.8924 18.4518 19.3094 18.7066L19.5701 18.28L19.8309 17.8534C19.6719 17.7562 19.6381 17.668 19.6381 17.56H19.1381ZM19.5701 18.28L19.3094 18.7066C19.6951 18.9423 20.1515 19.044 20.6501 19.044V18.544V18.044C20.2848 18.044 20.0212 17.9697 19.8309 17.8534L19.5701 18.28ZM20.6501 18.544V19.044C21.021 19.044 21.3838 18.9882 21.7367 18.8768L21.5861 18.4L21.4356 17.9232C21.1805 18.0038 20.9192 18.044 20.6501 18.044V18.544ZM21.5861 18.4H21.0861V19H21.5861H22.0861V18.4H21.5861ZM21.5861 19V18.5H15.5381V19V19.5H21.5861V19ZM15.5381 19H16.0381V18.4H15.5381H15.0381V19H15.5381ZM15.5381 18.4L15.3876 18.8768C15.7288 18.9846 16.0603 19.044 16.3781 19.044V18.544V18.044C16.1839 18.044 15.9554 18.0074 15.6887 17.9232L15.5381 18.4ZM16.3781 18.544V19.044C16.7678 19.044 17.1453 18.94 17.4277 18.6576L17.0741 18.304L16.7206 17.9504C16.683 17.988 16.5964 18.044 16.3781 18.044V18.544ZM17.0741 18.304L17.4277 18.6576C17.7222 18.3631 17.8381 17.973 17.8381 17.56H17.3381H16.8381C16.8381 17.787 16.7781 17.8929 16.7206 17.9504L17.0741 18.304ZM17.3381 17.56H17.8381V2.68H17.3381H16.8381V17.56H17.3381ZM17.3381 2.68H17.8381C17.8381 2.27 17.7232 1.87432 17.4105 1.59003L17.0741 1.96L16.7378 2.32997C16.7771 2.36568 16.8381 2.45 16.8381 2.68H17.3381ZM17.0741 1.96L17.4441 1.62366C17.1645 1.31611 16.7813 1.196 16.3781 1.196V1.696V2.196C16.583 2.196 16.6637 2.25188 16.7042 2.29634L17.0741 1.96ZM16.3781 1.696V1.196C16.0603 1.196 15.7288 1.25543 15.3876 1.36321L15.5381 1.84L15.6887 2.31679C15.9554 2.23257 16.1839 2.196 16.3781 2.196V1.696ZM15.5381 1.84H16.0381V1.24H15.5381H15.0381V1.84H15.5381ZM15.5381 1.24V1.74H21.7061V1.24V0.74H15.5381V1.24ZM21.7061 1.24V1.74C23.3353 1.74 24.6495 2.13471 25.6827 2.89138L25.9781 2.488L26.2736 2.08462C25.0347 1.17729 23.5009 0.74 21.7061 0.74V1.24ZM25.9781 2.488L25.6827 2.89138C26.6593 3.60664 27.1821 4.72489 27.1821 6.352H27.6821H28.1821C28.1821 4.49111 27.569 3.03335 26.2736 2.08462L25.9781 2.488ZM27.6821 6.352H27.1821C27.1821 7.33041 26.8261 8.13172 26.0989 8.78906L26.4341 9.16L26.7694 9.53094C27.7061 8.68428 28.1821 7.61359 28.1821 6.352H27.6821ZM26.4341 9.16L26.0953 8.79232C25.3547 9.47485 24.3905 9.95992 23.1804 10.2322L23.2901 10.72L23.3999 11.2078C24.7498 10.9041 25.8816 10.3491 26.773 9.52768L26.4341 9.16ZM23.2901 10.72L23.2723 11.2197C23.5782 11.2306 23.8501 11.3507 24.1044 11.6172L24.4661 11.272L24.8278 10.9268C24.4102 10.4893 23.8981 10.2414 23.308 10.2203L23.2901 10.72ZM24.4661 11.272L24.1126 11.6256C24.4188 11.9318 24.6923 12.3236 24.9282 12.8101L25.3781 12.592L25.828 12.3739C25.5519 11.8044 25.2175 11.3162 24.8197 10.9184L24.4661 11.272ZM25.3781 12.592L24.9309 12.8156C25.1779 13.3095 25.4679 13.9747 25.8013 14.8162L26.2661 14.632L26.731 14.4478C26.3924 13.5933 26.0904 12.8985 25.8253 12.3684L25.3781 12.592ZM26.2661 14.632L25.8013 14.8163C26.1715 15.7499 26.4967 16.5067 26.7764 17.0825L27.2261 16.864L27.6759 16.6455C27.4115 16.1013 27.0967 15.3701 26.7309 14.4477L26.2661 14.632ZM27.2261 16.864L26.7764 17.0825C27.071 17.6891 27.4403 18.2111 27.8879 18.6407L28.2341 18.28L28.5804 17.9193C28.2279 17.5809 27.9252 17.1589 27.6759 16.6455L27.2261 16.864ZM28.2341 18.28L27.8879 18.6407C28.379 19.1122 28.9743 19.356 29.6501 19.356V18.856V18.356C29.2379 18.356 28.8893 18.2158 28.5804 17.9193L28.2341 18.28ZM29.6501 18.856V19.356C30.2376 19.356 30.7692 19.1021 31.2367 18.672L30.8981 18.304L30.5596 17.936C30.2271 18.2419 29.9267 18.356 29.6501 18.356V18.856ZM30.8981 18.304L31.2373 18.6714C31.6832 18.2598 32.0395 17.8275 32.2944 17.3723L31.8581 17.128L31.4219 16.8837C31.2288 17.2285 30.9451 17.5802 30.559 17.9366L30.8981 18.304ZM31.8581 17.128L31.4323 17.39L31.6243 17.702L32.0501 17.44L32.476 17.178L32.284 16.866L31.8581 17.128ZM32.0501 17.44L31.6214 17.1828C31.2132 17.863 30.7974 18.3151 30.3871 18.5799L30.6581 19L30.9292 19.4201C31.5108 19.0449 32.023 18.457 32.4789 17.6972L32.0501 17.44ZM30.6581 19L30.3808 18.584C30.0061 18.8338 29.4875 18.98 28.7861 18.98V19.48V19.98C29.6208 19.98 30.3502 19.8062 30.9355 19.416L30.6581 19ZM44.7576 18.04L45.2404 17.91L45.2384 17.9025L45.2361 17.8951L44.7576 18.04ZM46.8216 18.4H47.3216V17.692L46.6544 17.9288L46.8216 18.4ZM46.8216 19V19.5H47.3216V19H46.8216ZM41.0376 19H40.5376V19.5H41.0376V19ZM41.0376 18.4L41.2006 17.9273L40.5376 17.6987V18.4H41.0376ZM42.7896 18.04L42.3127 18.1906L42.3152 18.1981L42.7896 18.04ZM40.6296 11.2L41.1064 11.0494L40.996 10.7H40.6296V11.2ZM35.5416 11.2V10.7H35.1695L35.0626 11.0563L35.5416 11.2ZM33.8856 16.96L34.367 17.0948L34.3677 17.0926L33.8856 16.96ZM33.7176 17.56L34.1919 17.7181L34.1958 17.7066L34.199 17.6948L33.7176 17.56ZM35.6376 18.4H36.1376V17.6978L35.474 17.9275L35.6376 18.4ZM35.6376 19V19.5H36.1376V19H35.6376ZM30.6216 19H30.1216V19.5H30.6216V19ZM30.6216 18.4L30.7971 17.9318L30.1216 17.6785V18.4H30.6216ZM32.7576 18.04L33.1972 18.2781L33.2011 18.2709L33.2048 18.2636L32.7576 18.04ZM33.0456 17.344L33.52 17.5022L33.5236 17.4907L33.0456 17.344ZM38.1336 0.759999V0.259999H37.764L37.6556 0.613345L38.1336 0.759999ZM39.5256 0.759999L40.0041 0.615106L39.8966 0.259999H39.5256V0.759999ZM35.6616 10.768L35.1821 10.6262L34.9923 11.268H35.6616V10.768ZM40.4856 10.768V11.268H41.1686L40.9622 10.6169L40.4856 10.768ZM37.9896 2.896L38.4662 2.74488L37.9729 1.1892L37.5101 2.7542L37.9896 2.896ZM44.7576 18.04L44.2748 18.17C44.354 18.4645 44.5091 18.7287 44.7648 18.9133C45.0168 19.0953 45.3165 19.164 45.6216 19.164V18.664V18.164C45.4626 18.164 45.3864 18.1287 45.3503 18.1027C45.318 18.0793 45.2731 18.0315 45.2404 17.91L44.7576 18.04ZM45.6216 18.664V19.164C46.0095 19.164 46.4724 19.0545 46.9888 18.8712L46.8216 18.4L46.6544 17.9288C46.1788 18.0975 45.8416 18.164 45.6216 18.164V18.664ZM46.8216 18.4H46.3216V19H46.8216H47.3216V18.4H46.8216ZM46.8216 19V18.5H41.0376V19V19.5H46.8216V19ZM41.0376 19H41.5376V18.4H41.0376H40.5376V19H41.0376ZM41.0376 18.4L40.8746 18.8727C41.3691 19.0432 41.8269 19.14 42.2376 19.14V18.64V18.14C41.9762 18.14 41.634 18.0768 41.2006 17.9273L41.0376 18.4ZM42.2376 18.64V19.14C42.4734 19.14 42.7398 19.101 42.9586 18.946C43.209 18.7686 43.3136 18.5011 43.3136 18.232H42.8136H42.3136C42.3136 18.2413 42.312 18.2255 42.3252 18.1976C42.3395 18.1671 42.3614 18.1436 42.3806 18.13C42.3966 18.1186 42.3996 18.122 42.3747 18.1279C42.3495 18.1338 42.3057 18.14 42.2376 18.14V18.64ZM42.8136 18.232H43.3136C43.3136 18.1257 43.3038 18.0016 43.2639 17.8819L42.7896 18.04L42.3152 18.1981C42.3104 18.1837 42.3105 18.1783 42.3114 18.186C42.3123 18.1933 42.3136 18.208 42.3136 18.232H42.8136ZM42.7896 18.04L43.2664 17.8894L41.1064 11.0494L40.6296 11.2L40.1528 11.3506L42.3128 18.1906L42.7896 18.04ZM40.6296 11.2V10.7H35.5416V11.2V11.7H40.6296V11.2ZM35.5416 11.2L35.0626 11.0563C34.4856 12.98 33.9325 14.9037 33.4035 16.8274L33.8856 16.96L34.3677 17.0926C34.8946 15.1763 35.4456 13.26 36.0205 11.3437L35.5416 11.2ZM33.8856 16.96L33.4041 16.8252L33.2361 17.4252L33.7176 17.56L34.199 17.6948L34.367 17.0948L33.8856 16.96ZM33.7176 17.56L33.2432 17.4019C33.1887 17.5654 33.1696 17.7431 33.1696 17.92H33.6696H34.1696C34.1696 17.8089 34.1824 17.7466 34.1919 17.7181L33.7176 17.56ZM33.6696 17.92H33.1696C33.1696 18.2612 33.2808 18.5969 33.5719 18.8314C33.8424 19.0493 34.1915 19.116 34.5336 19.116V18.616V18.116C34.2996 18.116 34.2168 18.0667 34.1992 18.0526C34.1937 18.0482 34.1901 18.0444 34.1856 18.0333C34.1797 18.0192 34.1696 17.9852 34.1696 17.92H33.6696ZM34.5336 18.616V19.116C34.9258 19.116 35.3508 19.0284 35.8011 18.8725L35.6376 18.4L35.474 17.9275C35.0923 18.0596 34.7813 18.116 34.5336 18.116V18.616ZM35.6376 18.4H35.1376V19H35.6376H36.1376V18.4H35.6376ZM35.6376 19V18.5H30.6216V19V19.5H35.6376V19ZM30.6216 19H31.1216V18.4H30.6216H30.1216V19H30.6216ZM30.6216 18.4L30.446 18.8682C30.877 19.0298 31.3046 19.116 31.7256 19.116V18.616V18.116C31.4425 18.116 31.1341 18.0582 30.7971 17.9318L30.6216 18.4ZM31.7256 18.616V19.116C32.0324 19.116 32.3261 19.0543 32.5872 18.9086C32.8509 18.7614 33.0531 18.5442 33.1972 18.2781L32.7576 18.04L32.3179 17.8019C32.254 17.9198 32.1802 17.9906 32.0999 18.0354C32.017 18.0817 31.8988 18.116 31.7256 18.116V18.616ZM32.7576 18.04L33.2048 18.2636C33.3275 18.0182 33.4325 17.7643 33.5199 17.5021L33.0456 17.344L32.5712 17.1859C32.4986 17.4037 32.4117 17.6138 32.3103 17.8164L32.7576 18.04ZM33.0456 17.344L33.5236 17.4907L38.6116 0.906653L38.1336 0.759999L37.6556 0.613345L32.5676 17.1973L33.0456 17.344ZM38.1336 0.759999V1.26H39.5256V0.759999V0.259999H38.1336V0.759999ZM39.5256 0.759999L39.047 0.904892L44.279 18.1849L44.7576 18.04L45.2361 17.8951L40.0041 0.615106L39.5256 0.759999ZM35.6616 10.768V11.268H40.4856V10.768V10.268H35.6616V10.768ZM40.4856 10.768L40.9622 10.6169L38.4662 2.74488L37.9896 2.896L37.5129 3.04712L40.0089 10.9191L40.4856 10.768ZM37.9896 2.896L37.5101 2.7542L35.1821 10.6262L35.6616 10.768L36.141 10.9098L38.469 3.0378L37.9896 2.896ZM63.1727 1.216H63.6727V0.715999H63.1727V1.216ZM63.1727 1.816L63.029 2.29491L63.6727 2.48802V1.816H63.1727ZM61.2767 1.936L60.9934 1.52398L60.9871 1.52829L60.981 1.5328L61.2767 1.936ZM60.9167 19.48V19.98H61.4167V19.48H60.9167ZM60.3647 19.48L59.9442 19.7505L60.0918 19.98H60.3647V19.48ZM49.7567 2.992L50.1772 2.72147L49.2539 1.28638L49.2567 2.99282L49.7567 2.992ZM49.7807 17.56L50.2807 17.56L50.2807 17.5592L49.7807 17.56ZM50.2127 18.28L49.9519 18.7068L49.9622 18.7127L50.2127 18.28ZM52.2767 18.4H52.7767V17.7178L52.1261 17.9232L52.2767 18.4ZM52.2767 19V19.5H52.7767V19H52.2767ZM47.0447 19H46.5447V19.5H47.0447V19ZM47.0447 18.4L47.1953 17.9232L46.5447 17.7178V18.4H47.0447ZM48.8687 18.28L48.573 17.8768L48.5663 17.8817L48.5598 17.8868L48.8687 18.28ZM47.0447 1.84H46.5447V2.51201L47.1884 2.31891L47.0447 1.84ZM47.0447 1.24V0.74H46.5447V1.24H47.0447ZM50.8127 1.24L51.23 0.964569L51.0818 0.74H50.8127V1.24ZM60.3647 15.712L59.9474 15.9874L60.8647 17.3772V15.712H60.3647ZM59.9567 1.936L59.6851 2.35578L59.6851 2.35578L59.9567 1.936ZM57.9887 1.816H57.4887V2.49823L58.1393 2.29279L57.9887 1.816ZM57.9887 1.216V0.715999H57.4887V1.216H57.9887ZM63.1727 1.216H62.6727V1.816H63.1727H63.6727V1.216H63.1727ZM63.1727 1.816L63.3164 1.33709C62.957 1.22929 62.6044 1.172 62.2607 1.172V1.672V2.172C62.493 2.172 62.7483 2.21071 63.029 2.29491L63.1727 1.816ZM62.2607 1.672V1.172C61.7885 1.172 61.3538 1.27622 60.9934 1.52398L61.2767 1.936L61.56 2.34802C61.7116 2.24378 61.9329 2.172 62.2607 2.172V1.672ZM61.2767 1.936L60.981 1.5328C60.6093 1.80535 60.4167 2.19677 60.4167 2.656H60.9167H61.4167C61.4167 2.50723 61.464 2.41865 61.5724 2.3392L61.2767 1.936ZM60.9167 2.656H60.4167V19.48H60.9167H61.4167V2.656H60.9167ZM60.9167 19.48V18.98H60.3647V19.48V19.98H60.9167V19.48ZM60.3647 19.48L60.7852 19.2095L50.1772 2.72147L49.7567 2.992L49.3362 3.26253L59.9442 19.7505L60.3647 19.48ZM49.7567 2.992L49.2567 2.99282L49.2807 17.5608L49.7807 17.56L50.2807 17.5592L50.2567 2.99117L49.7567 2.992ZM49.7807 17.56H49.2807C49.2807 18.06 49.5349 18.4518 49.952 18.7066L50.2127 18.28L50.4734 17.8534C50.3144 17.7562 50.2807 17.668 50.2807 17.56H49.7807ZM50.2127 18.28L49.9622 18.7127C50.358 18.9419 50.8168 19.044 51.3167 19.044V18.544V18.044C50.9526 18.044 50.6754 17.9701 50.4632 17.8473L50.2127 18.28ZM51.3167 18.544V19.044C51.701 19.044 52.072 18.989 52.4273 18.8768L52.2767 18.4L52.1261 17.9232C51.8734 18.003 51.6044 18.044 51.3167 18.044V18.544ZM52.2767 18.4H51.7767V19H52.2767H52.7767V18.4H52.2767ZM52.2767 19V18.5H47.0447V19V19.5H52.2767V19ZM47.0447 19H47.5447V18.4H47.0447H46.5447V19H47.0447ZM47.0447 18.4L46.8941 18.8768C47.2444 18.9874 47.5992 19.044 47.9567 19.044V18.544V18.044C47.7062 18.044 47.4529 18.0046 47.1953 17.9232L47.0447 18.4ZM47.9567 18.544V19.044C48.4139 19.044 48.8392 18.939 49.1776 18.6732L48.8687 18.28L48.5598 17.8868C48.4502 17.973 48.2674 18.044 47.9567 18.044V18.544ZM48.8687 18.28L49.1644 18.6832C49.536 18.4107 49.7287 18.0192 49.7287 17.56H49.2287H48.7287C48.7287 17.7088 48.6813 17.7973 48.573 17.8768L48.8687 18.28ZM49.2287 17.56H49.7287V2.68H49.2287H48.7287V17.56H49.2287ZM49.2287 2.68H49.7287C49.7287 2.22077 49.536 1.82935 49.1644 1.5568L48.8687 1.96L48.573 2.3632C48.6813 2.44265 48.7287 2.53123 48.7287 2.68H49.2287ZM48.8687 1.96L49.1644 1.5568C48.8166 1.3018 48.3921 1.196 47.9327 1.196V1.696V2.196C48.2413 2.196 48.4407 2.2662 48.573 2.3632L48.8687 1.96ZM47.9327 1.696V1.196C47.6024 1.196 47.2574 1.25416 46.901 1.36109L47.0447 1.84L47.1884 2.31891C47.472 2.23384 47.719 2.196 47.9327 2.196V1.696ZM47.0447 1.84H47.5447V1.24H47.0447H46.5447V1.84H47.0447ZM47.0447 1.24V1.74H50.8127V1.24V0.74H47.0447V1.24ZM50.8127 1.24L50.3954 1.51543L59.9474 15.9874L60.3647 15.712L60.782 15.4366L51.23 0.964569L50.8127 1.24ZM60.3647 15.712H60.8647V2.656H60.3647H59.8647V15.712H60.3647ZM60.3647 2.656H60.8647C60.8647 2.16947 60.6315 1.77711 60.2283 1.51621L59.9567 1.936L59.6851 2.35578C59.8259 2.44689 59.8647 2.53453 59.8647 2.656H60.3647ZM59.9567 1.936L60.2283 1.51621C59.8553 1.27486 59.41 1.172 58.9247 1.172V1.672V2.172C59.2714 2.172 59.5141 2.24514 59.6851 2.35578L59.9567 1.936ZM58.9247 1.672V1.172C58.5538 1.172 58.191 1.22777 57.8381 1.33921L57.9887 1.816L58.1393 2.29279C58.3944 2.21223 58.6556 2.172 58.9247 2.172V1.672ZM57.9887 1.816H58.4887V1.216H57.9887H57.4887V1.816H57.9887ZM57.9887 1.216V1.716H63.1727V1.216V0.715999H57.9887V1.216ZM64.6163 18.4L64.7668 17.9232L64.1163 17.7178V18.4H64.6163ZM66.1523 18.304L65.7987 17.9504L66.1523 18.304ZM66.1523 1.96L65.7823 2.29634L65.7983 2.31395L65.8159 2.32997L66.1523 1.96ZM64.6163 1.84H64.1163V2.52223L64.7668 2.31679L64.6163 1.84ZM64.6163 1.24V0.74H64.1163V1.24H64.6163ZM75.8243 2.296L75.5635 2.72265L75.5661 2.72423L75.8243 2.296ZM78.5843 5.272L79.0269 5.03958L79.0269 5.03958L78.5843 5.272ZM78.5603 14.272L78.1091 14.0564L78.1072 14.0606L78.5603 14.272ZM75.8003 17.728L76.0967 18.1307L76.0976 18.13L75.8003 17.728ZM64.6163 19H64.1163V19.5H64.6163V19ZM74.2883 17.68L74.0207 17.2576L74.0175 17.2596L74.2883 17.68ZM76.7123 14.848L77.1572 15.076L77.1584 15.0738L76.7123 14.848ZM76.8323 5.872L76.3732 6.07035L76.3763 6.07718L76.8323 5.872ZM74.5523 2.776L74.2367 3.16387L74.2399 3.16643L74.5523 2.776ZM68.5523 1.888L68.8429 2.2949L68.8479 2.2912L68.5523 1.888ZM68.5523 18.352L68.2616 18.7589L68.2682 18.7636L68.2749 18.768L68.5523 18.352ZM64.6163 18.4L64.4657 18.8768C64.807 18.9846 65.1384 19.044 65.4563 19.044V18.544V18.044C65.2621 18.044 65.0335 18.0074 64.7668 17.9232L64.6163 18.4ZM65.4563 18.544V19.044C65.8459 19.044 66.2234 18.94 66.5058 18.6576L66.1523 18.304L65.7987 17.9504C65.7611 17.988 65.6746 18.044 65.4563 18.044V18.544ZM66.1523 18.304L66.5058 18.6576C66.8003 18.3631 66.9163 17.973 66.9163 17.56H66.4163H65.9163C65.9163 17.787 65.8562 17.8929 65.7987 17.9504L66.1523 18.304ZM66.4163 17.56H66.9163V2.68H66.4163H65.9163V17.56H66.4163ZM66.4163 2.68H66.9163C66.9163 2.27 66.8013 1.87432 66.4886 1.59003L66.1523 1.96L65.8159 2.32997C65.8552 2.36568 65.9163 2.45 65.9163 2.68H66.4163ZM66.1523 1.96L66.5222 1.62366C66.2426 1.31611 65.8594 1.196 65.4563 1.196V1.696V2.196C65.6611 2.196 65.7419 2.25188 65.7823 2.29634L66.1523 1.96ZM65.4563 1.696V1.196C65.1384 1.196 64.807 1.25543 64.4657 1.36321L64.6163 1.84L64.7668 2.31679C65.0335 2.23257 65.2621 2.196 65.4563 2.196V1.696ZM64.6163 1.84H65.1163V1.24H64.6163H64.1163V1.84H64.6163ZM64.6163 1.24V1.74H72.0323V1.24V0.74H64.6163V1.24ZM72.0323 1.24V1.74C73.3181 1.74 74.4916 2.06758 75.5635 2.72264L75.8243 2.296L76.085 1.86936C74.8529 1.11642 73.4984 0.74 72.0323 0.74V1.24ZM75.8243 2.296L75.5661 2.72423C76.6511 3.37818 77.5094 4.30026 78.1416 5.50442L78.5843 5.272L79.0269 5.03958C78.3151 3.68374 77.3334 2.62182 76.0824 1.86777L75.8243 2.296ZM78.5843 5.272L78.1416 5.50442C78.7713 6.70393 79.0923 8.07841 79.0923 9.64H79.5923H80.0923C80.0923 7.93759 79.7412 6.40007 79.0269 5.03958L78.5843 5.272ZM79.5923 9.64H79.0923C79.0923 11.2159 78.7639 12.686 78.1091 14.0564L78.5603 14.272L79.0114 14.4876C79.7326 12.978 80.0923 11.3601 80.0923 9.64H79.5923ZM78.5603 14.272L78.1072 14.0606C77.467 15.4323 76.5978 16.5161 75.5029 17.326L75.8003 17.728L76.0976 18.13C77.3387 17.2119 78.3095 15.9917 79.0133 14.4834L78.5603 14.272ZM75.8003 17.728L75.5038 17.3253C74.433 18.1136 73.2799 18.5 72.0323 18.5V19V19.5C73.5046 19.5 74.8635 19.0384 76.0967 18.1307L75.8003 17.728ZM72.0323 19V18.5H64.6163V19V19.5H72.0323V19ZM64.6163 19H65.1163V18.4H64.6163H64.1163V19H64.6163ZM71.5043 18.592V19.092C72.5323 19.092 73.553 18.7483 74.559 18.1004L74.2883 17.68L74.0175 17.2596C73.1355 17.8277 72.3002 18.092 71.5043 18.092V18.592ZM74.2883 17.68L74.5558 18.1024C75.6088 17.4355 76.4712 16.4147 77.1572 15.076L76.7123 14.848L76.2673 14.62C75.6413 15.8413 74.8877 16.7085 74.0207 17.2576L74.2883 17.68ZM76.7123 14.848L77.1584 15.0738C77.8593 13.689 78.1963 11.9982 78.1963 10.024H77.6963H77.1963C77.1963 11.8898 76.8772 13.415 76.2661 14.6222L76.7123 14.848ZM77.6963 10.024H78.1963C78.1963 8.46959 77.895 7.01516 77.2882 5.66682L76.8323 5.872L76.3763 6.07718C76.9215 7.28884 77.1963 8.60241 77.1963 10.024H77.6963ZM76.8323 5.872L77.2912 5.67367C76.7036 4.31383 75.8974 3.21177 74.8646 2.38556L74.5523 2.776L74.2399 3.16643C75.1271 3.87623 75.8409 4.83817 76.3733 6.07033L76.8323 5.872ZM74.5523 2.776L74.8678 2.38814C73.8458 1.55673 72.7209 1.124 71.5043 1.124V1.624V2.124C72.4636 2.124 73.3707 2.45927 74.2367 3.16385L74.5523 2.776ZM71.5043 1.624V1.124H69.3443V1.624V2.124H71.5043V1.624ZM69.3443 1.624V1.124C68.9462 1.124 68.5793 1.24816 68.2566 1.4848L68.5523 1.888L68.8479 2.2912C69.0052 2.17584 69.1663 2.124 69.3443 2.124V1.624ZM68.5523 1.888L68.2616 1.48113C67.8643 1.76491 67.7163 2.20998 67.7163 2.68H68.2163H68.7163C68.7163 2.41402 68.7922 2.33109 68.8429 2.29486L68.5523 1.888ZM68.2163 2.68H67.7163V17.56H68.2163H68.7163V2.68H68.2163ZM68.2163 17.56H67.7163C67.7163 18.03 67.8643 18.4751 68.2616 18.7589L68.5523 18.352L68.8429 17.9451C68.7922 17.9089 68.7163 17.826 68.7163 17.56H68.2163ZM68.5523 18.352L68.2749 18.768C68.5969 18.9827 68.9574 19.092 69.3443 19.092V18.592V18.092C69.1551 18.092 68.9876 18.0413 68.8296 17.936L68.5523 18.352ZM69.3443 18.592V19.092H71.5043V18.592V18.092H69.3443V18.592ZM81.5147 18.4L81.6653 17.9232L81.0147 17.7178V18.4H81.5147ZM83.0507 18.304L82.6971 17.9504L83.0507 18.304ZM83.0507 1.96L82.6807 2.29634L82.6967 2.31395L82.7144 2.32997L83.0507 1.96ZM81.5147 1.84H81.0147V2.52223L81.6653 2.31679L81.5147 1.84ZM81.5147 1.24V0.74H81.0147V1.24H81.5147ZM86.9147 1.24H87.4147V0.74H86.9147V1.24ZM86.9147 1.84L86.7641 2.31679L87.4147 2.52223V1.84H86.9147ZM85.3547 1.96L85.0011 1.60645L85.0011 1.60645L85.3547 1.96ZM85.3547 18.304L84.9847 18.6403L85.0007 18.658L85.0184 18.674L85.3547 18.304ZM86.9147 18.4H87.4147V17.7178L86.7641 17.9232L86.9147 18.4ZM86.9147 19V19.5H87.4147V19H86.9147ZM81.5147 19H81.0147V19.5H81.5147V19ZM81.5147 18.4L81.3641 18.8768C81.7054 18.9846 82.0369 19.044 82.3547 19.044V18.544V18.044C82.1605 18.044 81.932 18.0074 81.6653 17.9232L81.5147 18.4ZM82.3547 18.544V19.044C82.7444 19.044 83.1218 18.94 83.4042 18.6576L83.0507 18.304L82.6971 17.9504C82.6596 17.988 82.573 18.044 82.3547 18.044V18.544ZM83.0507 18.304L83.4042 18.6576C83.6987 18.3631 83.8147 17.973 83.8147 17.56H83.3147H82.8147C82.8147 17.787 82.7546 17.8929 82.6971 17.9504L83.0507 18.304ZM83.3147 17.56H83.8147V2.68H83.3147H82.8147V17.56H83.3147ZM83.3147 2.68H83.8147C83.8147 2.27 83.6997 1.87432 83.387 1.59003L83.0507 1.96L82.7144 2.32997C82.7536 2.36568 82.8147 2.45 82.8147 2.68H83.3147ZM83.0507 1.96L83.4207 1.62366C83.1411 1.31611 82.7579 1.196 82.3547 1.196V1.696V2.196C82.5595 2.196 82.6403 2.25188 82.6807 2.29634L83.0507 1.96ZM82.3547 1.696V1.196C82.0369 1.196 81.7054 1.25543 81.3641 1.36321L81.5147 1.84L81.6653 2.31679C81.932 2.23257 82.1605 2.196 82.3547 2.196V1.696ZM81.5147 1.84H82.0147V1.24H81.5147H81.0147V1.84H81.5147ZM81.5147 1.24V1.74H86.9147V1.24V0.74H81.5147V1.24ZM86.9147 1.24H86.4147V1.84H86.9147H87.4147V1.24H86.9147ZM86.9147 1.84L87.0653 1.36321C86.724 1.25543 86.3925 1.196 86.0747 1.196V1.696V2.196C86.2689 2.196 86.4974 2.23257 86.7641 2.31679L86.9147 1.84ZM86.0747 1.696V1.196C85.6693 1.196 85.2909 1.31668 85.0011 1.60645L85.3547 1.96L85.7082 2.31355C85.7705 2.25132 85.8721 2.196 86.0747 2.196V1.696ZM85.3547 1.96L85.0011 1.60645C84.7143 1.89329 84.6147 2.28293 84.6147 2.68H85.1147H85.6147C85.6147 2.43707 85.6751 2.34671 85.7082 2.31355L85.3547 1.96ZM85.1147 2.68H84.6147V17.56H85.1147H85.6147V2.68H85.1147ZM85.1147 17.56H84.6147C84.6147 17.9608 84.7157 18.3445 84.9847 18.6403L85.3547 18.304L85.7247 17.9677C85.6736 17.9115 85.6147 17.7992 85.6147 17.56H85.1147ZM85.3547 18.304L85.0184 18.674C85.3098 18.9389 85.6821 19.044 86.0747 19.044V18.544V18.044C85.8593 18.044 85.7516 17.9891 85.691 17.934L85.3547 18.304ZM86.0747 18.544V19.044C86.3925 19.044 86.724 18.9846 87.0653 18.8768L86.9147 18.4L86.7641 17.9232C86.4974 18.0074 86.2689 18.044 86.0747 18.044V18.544ZM86.9147 18.4H86.4147V19H86.9147H87.4147V18.4H86.9147ZM86.9147 19V18.5H81.5147V19V19.5H86.9147V19ZM81.5147 19H82.0147V18.4H81.5147H81.0147V19H81.5147ZM104.235 1.216H104.735V0.715999H104.235V1.216ZM104.235 1.816L104.092 2.29491L104.735 2.48802V1.816H104.235ZM102.339 1.936L102.056 1.52398L102.05 1.52829L102.044 1.5328L102.339 1.936ZM101.979 19.48V19.98H102.479V19.48H101.979ZM101.427 19.48L101.007 19.7505L101.154 19.98H101.427V19.48ZM90.8192 2.992L91.2397 2.72147L90.3164 1.28638L90.3192 2.99282L90.8192 2.992ZM90.8432 17.56L91.3432 17.56L91.3432 17.5592L90.8432 17.56ZM91.2752 18.28L91.0144 18.7068L91.0247 18.7127L91.2752 18.28ZM93.3392 18.4H93.8392V17.7178L93.1886 17.9232L93.3392 18.4ZM93.3392 19V19.5H93.8392V19H93.3392ZM88.1072 19H87.6072V19.5H88.1072V19ZM88.1072 18.4L88.2578 17.9232L87.6072 17.7178V18.4H88.1072ZM89.9312 18.28L89.6355 17.8768L89.6288 17.8817L89.6223 17.8868L89.9312 18.28ZM88.1072 1.84H87.6072V2.51201L88.2509 2.31891L88.1072 1.84ZM88.1072 1.24V0.74H87.6072V1.24H88.1072ZM91.8752 1.24L92.2925 0.964569L92.1443 0.74H91.8752V1.24ZM101.427 15.712L101.01 15.9874L101.927 17.3772V15.712H101.427ZM101.019 1.936L100.748 2.35578L100.748 2.35578L101.019 1.936ZM99.0512 1.816H98.5512V2.49823L99.2018 2.29279L99.0512 1.816ZM99.0512 1.216V0.715999H98.5512V1.216H99.0512ZM104.235 1.216H103.735V1.816H104.235H104.735V1.216H104.235ZM104.235 1.816L104.379 1.33709C104.02 1.22929 103.667 1.172 103.323 1.172V1.672V2.172C103.555 2.172 103.811 2.21071 104.092 2.29491L104.235 1.816ZM103.323 1.672V1.172C102.851 1.172 102.416 1.27622 102.056 1.52398L102.339 1.936L102.622 2.34802C102.774 2.24378 102.995 2.172 103.323 2.172V1.672ZM102.339 1.936L102.044 1.5328C101.672 1.80535 101.479 2.19677 101.479 2.656H101.979H102.479C102.479 2.50723 102.527 2.41865 102.635 2.3392L102.339 1.936ZM101.979 2.656H101.479V19.48H101.979H102.479V2.656H101.979ZM101.979 19.48V18.98H101.427V19.48V19.98H101.979V19.48ZM101.427 19.48L101.848 19.2095L91.2397 2.72147L90.8192 2.992L90.3987 3.26253L101.007 19.7505L101.427 19.48ZM90.8192 2.992L90.3192 2.99282L90.3432 17.5608L90.8432 17.56L91.3432 17.5592L91.3192 2.99117L90.8192 2.992ZM90.8432 17.56H90.3432C90.3432 18.06 90.5974 18.4518 91.0145 18.7066L91.2752 18.28L91.5359 17.8534C91.3769 17.7562 91.3432 17.668 91.3432 17.56H90.8432ZM91.2752 18.28L91.0247 18.7127C91.4205 18.9419 91.8793 19.044 92.3792 19.044V18.544V18.044C92.0151 18.044 91.7379 17.9701 91.5257 17.8473L91.2752 18.28ZM92.3792 18.544V19.044C92.7635 19.044 93.1345 18.989 93.4898 18.8768L93.3392 18.4L93.1886 17.9232C92.9359 18.003 92.6669 18.044 92.3792 18.044V18.544ZM93.3392 18.4H92.8392V19H93.3392H93.8392V18.4H93.3392ZM93.3392 19V18.5H88.1072V19V19.5H93.3392V19ZM88.1072 19H88.6072V18.4H88.1072H87.6072V19H88.1072ZM88.1072 18.4L87.9566 18.8768C88.3069 18.9874 88.6617 19.044 89.0192 19.044V18.544V18.044C88.7687 18.044 88.5154 18.0046 88.2578 17.9232L88.1072 18.4ZM89.0192 18.544V19.044C89.4764 19.044 89.9017 18.939 90.2401 18.6732L89.9312 18.28L89.6223 17.8868C89.5127 17.973 89.3299 18.044 89.0192 18.044V18.544ZM89.9312 18.28L90.2269 18.6832C90.5985 18.4107 90.7912 18.0192 90.7912 17.56H90.2912H89.7912C89.7912 17.7088 89.7438 17.7973 89.6355 17.8768L89.9312 18.28ZM90.2912 17.56H90.7912V2.68H90.2912H89.7912V17.56H90.2912ZM90.2912 2.68H90.7912C90.7912 2.22077 90.5985 1.82935 90.2269 1.5568L89.9312 1.96L89.6355 2.3632C89.7438 2.44265 89.7912 2.53123 89.7912 2.68H90.2912ZM89.9312 1.96L90.2269 1.5568C89.8791 1.3018 89.4546 1.196 88.9952 1.196V1.696V2.196C89.3038 2.196 89.5032 2.2662 89.6355 2.3632L89.9312 1.96ZM88.9952 1.696V1.196C88.6649 1.196 88.3199 1.25416 87.9635 1.36109L88.1072 1.84L88.2509 2.31891C88.5345 2.23384 88.7815 2.196 88.9952 2.196V1.696ZM88.1072 1.84H88.6072V1.24H88.1072H87.6072V1.84H88.1072ZM88.1072 1.24V1.74H91.8752V1.24V0.74H88.1072V1.24ZM91.8752 1.24L91.4579 1.51543L101.01 15.9874L101.427 15.712L101.844 15.4366L92.2925 0.964569L91.8752 1.24ZM101.427 15.712H101.927V2.656H101.427H100.927V15.712H101.427ZM101.427 2.656H101.927C101.927 2.16947 101.694 1.77711 101.291 1.51621L101.019 1.936L100.748 2.35578C100.888 2.44689 100.927 2.53453 100.927 2.656H101.427ZM101.019 1.936L101.291 1.51621C100.918 1.27486 100.472 1.172 99.9872 1.172V1.672V2.172C100.334 2.172 100.577 2.24514 100.748 2.35578L101.019 1.936ZM99.9872 1.672V1.172C99.6163 1.172 99.2535 1.22777 98.9006 1.33921L99.0512 1.816L99.2018 2.29279C99.4569 2.21223 99.7181 2.172 99.9872 2.172V1.672ZM99.0512 1.816H99.5512V1.216H99.0512H98.5512V1.816H99.0512ZM99.0512 1.216V1.716H104.235V1.216V0.715999H99.0512V1.216ZM109.41 18.208L109.12 18.6156L109.127 18.6199L109.41 18.208ZM106.506 14.776L106.057 14.9956L106.06 15.0016L106.506 14.776ZM106.434 5.464L105.981 5.25255L105.98 5.25479L106.434 5.464ZM109.218 2.032L108.929 1.62366L108.927 1.6255L109.218 2.032ZM116.37 1.624L116.119 2.0564L116.122 2.05812L116.37 1.624ZM118.65 3.52L118.249 3.8185L118.963 4.77838L119.144 3.59565L118.65 3.52ZM119.01 1.168V0.667999H118.581L118.516 1.09235L119.01 1.168ZM119.418 1.168H119.918V0.667999H119.418V1.168ZM119.418 6.52V7.02H119.918V6.52H119.418ZM118.65 6.52H118.15V7.02H118.65V6.52ZM118.026 4L117.581 4.2271L117.582 4.23068L118.026 4ZM116.13 2.008L115.868 2.43384L115.872 2.43603L116.13 2.008ZM108.162 5.704L107.688 5.54589L107.688 5.54589L108.162 5.704ZM108.114 14.488L107.636 14.6343L107.636 14.6358L108.114 14.488ZM110.106 17.752L109.769 18.1214L109.772 18.1243L110.106 17.752ZM116.25 18.16L115.947 17.7621L115.947 17.7621L116.25 18.16ZM117.906 16.048L117.449 15.8449L117.447 15.849L117.906 16.048ZM118.314 11.776L117.829 11.8973L117.831 11.9067L117.834 11.916L118.314 11.776ZM117.738 11.2L117.731 11.7H117.738V11.2ZM115.986 11.176L115.993 10.676H115.986V11.176ZM114.258 11.32L114.019 10.8811L114.019 10.8811L114.258 11.32ZM113.994 11.896H113.494V11.9099L113.495 11.9237L113.994 11.896ZM114.114 13.312L113.639 13.4702L113.644 13.4829L114.114 13.312ZM114.546 13.6H115.046V13.1344L114.582 13.1013L114.546 13.6ZM114.546 13.912V14.412H115.046V13.912H114.546ZM113.61 13.912H113.11V14.412H113.61V13.912ZM113.61 10.72V10.22H113.11V10.72H113.61ZM120.066 10.72H120.566V10.22H120.066V10.72ZM120.066 16.648V17.148H120.566V16.648H120.066ZM119.01 16.984L118.773 16.5438L118.765 16.5482L118.756 16.553L119.01 16.984ZM118.146 17.536L118.427 17.9496L118.428 17.9487L118.146 17.536ZM115.77 18.952L115.986 19.4031L115.994 19.3992L115.77 18.952ZM113.49 19.48V18.98C112.104 18.98 110.843 18.587 109.693 17.7961L109.41 18.208L109.127 18.6199C110.441 19.525 111.9 19.98 113.49 19.98V19.48ZM109.41 18.208L109.7 17.8004C108.554 16.9867 107.638 15.9071 106.952 14.5504L106.506 14.776L106.06 15.0016C106.814 16.4929 107.834 17.7013 109.12 18.6156L109.41 18.208ZM106.506 14.776L106.955 14.5564C106.286 13.1874 105.95 11.7109 105.95 10.12H105.45H104.95C104.95 11.8571 105.318 13.4846 106.057 14.9956L106.506 14.776ZM105.45 10.12H105.95C105.95 8.50697 106.264 7.02699 106.888 5.67321L106.434 5.464L105.98 5.25479C105.292 6.74901 104.95 8.37303 104.95 10.12H105.45ZM106.434 5.464L106.887 5.67544C107.526 4.306 108.401 3.23199 109.509 2.43849L109.218 2.032L108.927 1.6255C107.667 2.52801 106.686 3.74199 105.981 5.25256L106.434 5.464ZM109.218 2.032L109.507 2.44033C110.62 1.65346 111.871 1.26 113.274 1.26V0.759999V0.259999C111.669 0.259999 110.216 0.714539 108.929 1.62367L109.218 2.032ZM113.274 0.759999V1.26C114.252 1.26 115.198 1.52146 116.119 2.05639L116.37 1.624L116.621 1.1916C115.558 0.574535 114.44 0.259999 113.274 0.259999V0.759999ZM116.37 1.624L116.122 2.05812C117.09 2.61134 117.79 3.20163 118.249 3.8185L118.65 3.52L119.051 3.22149C118.486 2.46237 117.666 1.78866 116.618 1.18988L116.37 1.624ZM118.65 3.52L119.144 3.59565L119.504 1.24365L119.01 1.168L118.516 1.09235L118.156 3.44435L118.65 3.52ZM119.01 1.168V1.668H119.418V1.168V0.667999H119.01V1.168ZM119.418 1.168H118.918V6.52H119.418H119.918V1.168H119.418ZM119.418 6.52V6.02H118.65V6.52V7.02H119.418V6.52ZM118.65 6.52H119.15C119.15 5.55766 118.922 4.63875 118.47 3.76932L118.026 4L117.582 4.23068C117.962 4.96125 118.15 5.72233 118.15 6.52H118.65ZM118.026 4L118.471 3.77291C118.01 2.86702 117.31 2.1361 116.388 1.57997L116.13 2.008L115.872 2.43603C116.646 2.9039 117.21 3.50098 117.581 4.22709L118.026 4ZM116.13 2.008L116.392 1.58217C115.463 1.0105 114.335 0.74 113.034 0.74V1.24V1.74C114.197 1.74 115.133 1.9815 115.868 2.43383L116.13 2.008ZM113.034 1.24V0.74C111.792 0.74 110.694 1.20459 109.759 2.10371L110.106 2.464L110.453 2.82429C111.214 2.09141 112.068 1.74 113.034 1.74V1.24ZM110.106 2.464L109.759 2.10371C108.842 2.98613 108.156 4.14068 107.688 5.54589L108.162 5.704L108.636 5.86211C109.064 4.57932 109.674 3.57387 110.453 2.82429L110.106 2.464ZM108.162 5.704L107.688 5.54589C107.221 6.94498 106.99 8.43878 106.99 10.024H107.49H107.99C107.99 8.53722 108.207 7.15101 108.636 5.86211L108.162 5.704ZM107.49 10.024H106.99C106.99 11.6829 107.204 13.2209 107.636 14.6343L108.114 14.488L108.592 14.3417C108.192 13.0351 107.99 11.5971 107.99 10.024H107.49ZM108.114 14.488L107.636 14.6358C108.075 16.0528 108.782 17.2214 109.769 18.1214L110.106 17.752L110.443 17.3826C109.606 16.6186 108.985 15.6112 108.592 14.3402L108.114 14.488ZM110.106 17.752L109.772 18.1243C110.804 19.0493 112.096 19.5 113.61 19.5V19V18.5C112.308 18.5 111.264 18.1187 110.44 17.3797L110.106 17.752ZM113.61 19V19.5C114.731 19.5 115.72 19.1913 116.553 18.5579L116.25 18.16L115.947 17.7621C115.308 18.2487 114.537 18.5 113.61 18.5V19ZM116.25 18.16L116.553 18.5579C117.357 17.9461 117.963 17.1736 118.365 16.247L117.906 16.048L117.447 15.849C117.113 16.6184 116.615 17.2539 115.947 17.7621L116.25 18.16ZM117.906 16.048L118.363 16.2511C118.773 15.328 118.982 14.3871 118.982 13.432H118.482H117.982C117.982 14.2369 117.807 15.04 117.449 15.8449L117.906 16.048ZM118.482 13.432H118.982C118.982 12.696 118.926 12.0881 118.794 11.636L118.314 11.776L117.834 11.916C117.926 12.2319 117.982 12.728 117.982 13.432H118.482ZM118.314 11.776L118.799 11.6547C118.739 11.4126 118.634 11.1734 118.452 10.9904C118.256 10.7945 118.006 10.7 117.738 10.7V11.2V11.7C117.754 11.7 117.756 11.7024 117.75 11.7002C117.744 11.6978 117.742 11.695 117.744 11.6976C117.754 11.7066 117.793 11.7554 117.829 11.8973L118.314 11.776ZM117.738 11.2L117.745 10.7L115.993 10.676L115.986 11.176L115.979 11.676L117.731 11.7L117.738 11.2ZM115.986 11.176V10.676C115.492 10.676 115.088 10.6881 114.78 10.7137C114.627 10.7265 114.489 10.7434 114.371 10.7659C114.263 10.7865 114.132 10.8189 114.019 10.8811L114.258 11.32L114.497 11.7589C114.472 11.7731 114.479 11.7635 114.559 11.7481C114.629 11.7346 114.729 11.7215 114.864 11.7103C115.132 11.6879 115.504 11.676 115.986 11.676V11.176ZM114.258 11.32L114.019 10.8811C113.616 11.1004 113.494 11.5144 113.494 11.896H113.994H114.494C114.494 11.7992 114.509 11.7557 114.515 11.7443C114.517 11.7399 114.516 11.7424 114.511 11.7479C114.506 11.7535 114.5 11.7573 114.497 11.7589L114.258 11.32ZM113.994 11.896L113.495 11.9237C113.511 12.2124 113.518 12.3996 113.518 12.496H114.018H114.518C114.518 12.3684 114.509 12.1556 114.493 11.8683L113.994 11.896ZM114.018 12.496H113.518C113.518 12.8682 113.551 13.2029 113.64 13.4701L114.114 13.312L114.588 13.1539C114.549 13.0371 114.518 12.8278 114.518 12.496H114.018ZM114.114 13.312L113.644 13.4829C113.709 13.6623 113.825 13.82 113.993 13.932C114.155 14.0403 114.337 14.0863 114.51 14.0987L114.546 13.6L114.582 13.1013C114.531 13.0977 114.529 13.0877 114.547 13.1C114.557 13.1062 114.566 13.115 114.574 13.1253C114.582 13.1352 114.584 13.1419 114.584 13.1411L114.114 13.312ZM114.546 13.6H114.046V13.912H114.546H115.046V13.6H114.546ZM114.546 13.912V13.412H113.61V13.912V14.412H114.546V13.912ZM113.61 13.912H114.11V10.72H113.61H113.11V13.912H113.61ZM113.61 10.72V11.22H120.066V10.72V10.22H113.61V10.72ZM120.066 10.72H119.566V16.648H120.066H120.566V10.72H120.066ZM120.066 16.648V16.148C119.658 16.148 119.22 16.3028 118.773 16.5438L119.01 16.984L119.247 17.4242C119.632 17.2172 119.898 17.148 120.066 17.148V16.648ZM119.01 16.984L118.756 16.553C118.473 16.7197 118.176 16.9099 117.864 17.1233L118.146 17.536L118.428 17.9487C118.724 17.7461 119.003 17.5683 119.264 17.415L119.01 16.984ZM118.146 17.536L117.865 17.1224C117.031 17.6888 116.258 18.1488 115.546 18.5048L115.77 18.952L115.994 19.3992C116.754 19.0192 117.565 18.5352 118.427 17.9496L118.146 17.536ZM115.77 18.952L115.554 18.5009C114.883 18.8221 114.196 18.98 113.49 18.98V19.48V19.98C114.352 19.98 115.185 19.7859 115.986 19.4031L115.77 18.952Z" fill="black" mask="url(#path-1-outside-1_18_48)"/>
</svg>
