<svg width="116" height="20" viewBox="0 0 116 20" fill="none" xmlns="http://www.w3.org/2000/svg">
<mask id="path-1-outside-1_17_42" maskUnits="userSpaceOnUse" x="0" y="0" width="116" height="20" fill="black">
<rect fill="white" width="116" height="20"/>
<path d="M13.68 13.576C13.456 13.784 13.304 14.112 13.224 14.56C13.16 15.008 13.128 15.672 13.128 16.552V19H0.96V18.4C1.264 18.496 1.544 18.544 1.8 18.544C2.104 18.544 2.336 18.464 2.496 18.304C2.672 18.128 2.76 17.88 2.76 17.56V2.68C2.76 2.36 2.672 2.12 2.496 1.96C2.336 1.784 2.104 1.696 1.8 1.696C1.544 1.696 1.264 1.744 0.96 1.84V1.24H12.12L12.048 1.936C12 2.24 11.976 2.632 11.976 3.112C11.976 4.056 12.088 4.792 12.312 5.32H11.928C11.752 4.984 11.624 4.544 11.544 4C11.432 3.424 11.28 2.976 11.088 2.656C10.896 2.32 10.504 2.04 9.912 1.816C9.32 1.592 8.432 1.48 7.248 1.48C6.4 1.48 5.784 1.624 5.4 1.912C5.016 2.2 4.784 2.512 4.704 2.848C4.64 3.168 4.592 3.632 4.56 4.24V8.8H7.872C8.336 8.8 8.656 8.792 8.832 8.776C9.024 8.744 9.168 8.672 9.264 8.56C9.36 8.448 9.408 8.256 9.408 7.984C9.408 7.504 9.376 7.144 9.312 6.904C9.264 6.664 9.104 6.544 8.832 6.544V6.232H9.768V11.8H8.832V11.464C9.104 11.464 9.264 11.336 9.312 11.08C9.376 10.808 9.408 10.424 9.408 9.928C9.408 9.672 9.296 9.504 9.072 9.424C8.864 9.328 8.464 9.272 7.872 9.256H4.56V16C4.592 16.544 4.656 17 4.752 17.368C4.848 17.72 5.096 18.04 5.496 18.328C5.912 18.616 6.544 18.76 7.392 18.76C8.768 18.76 9.816 18.616 10.536 18.328C11.256 18.024 11.744 17.656 12 17.224C12.256 16.776 12.48 16.176 12.672 15.424C12.864 14.608 13.088 13.992 13.344 13.576H13.68ZM25.2443 13.576C25.0203 13.784 24.8683 14.112 24.7883 14.56C24.7243 15.008 24.6923 15.672 24.6923 16.552V19H15.1163V18.4C15.4203 18.496 15.7003 18.544 15.9563 18.544C16.2603 18.544 16.4923 18.464 16.6523 18.304C16.8283 18.128 16.9163 17.88 16.9163 17.56V2.68C16.9163 2.36 16.8283 2.12 16.6523 1.96C16.4923 1.784 16.2603 1.696 15.9563 1.696C15.7003 1.696 15.4203 1.744 15.1163 1.84V1.24H20.5163V1.84C20.2123 1.744 19.9323 1.696 19.6763 1.696C19.3723 1.696 19.1323 1.784 18.9563 1.96C18.7963 2.12 18.7163 2.36 18.7163 2.68V16C18.7163 16.944 18.8763 17.64 19.1963 18.088C19.5163 18.536 20.0763 18.76 20.8763 18.76C21.7723 18.76 22.4443 18.64 22.8923 18.4C23.3403 18.144 23.6363 17.832 23.7803 17.464C23.9243 17.08 24.0443 16.544 24.1403 15.856C24.2043 15.328 24.2763 14.896 24.3563 14.56C24.4363 14.224 24.5803 13.896 24.7883 13.576H25.2443ZM38.9222 13.576C38.6982 13.784 38.5462 14.112 38.4662 14.56C38.4022 15.008 38.3702 15.672 38.3702 16.552V19H26.2022V18.4C26.5062 18.496 26.7862 18.544 27.0422 18.544C27.3462 18.544 27.5782 18.464 27.7382 18.304C27.9142 18.128 28.0022 17.88 28.0022 17.56V2.68C28.0022 2.36 27.9142 2.12 27.7382 1.96C27.5782 1.784 27.3462 1.696 27.0422 1.696C26.7862 1.696 26.5062 1.744 26.2022 1.84V1.24H37.3622L37.2902 1.936C37.2422 2.24 37.2182 2.632 37.2182 3.112C37.2182 4.056 37.3302 4.792 37.5542 5.32H37.1702C36.9942 4.984 36.8662 4.544 36.7862 4C36.6742 3.424 36.5222 2.976 36.3302 2.656C36.1382 2.32 35.7462 2.04 35.1542 1.816C34.5622 1.592 33.6742 1.48 32.4902 1.48C31.6422 1.48 31.0262 1.624 30.6422 1.912C30.2582 2.2 30.0262 2.512 29.9462 2.848C29.8822 3.168 29.8342 3.632 29.8022 4.24V8.8H33.1142C33.5782 8.8 33.8982 8.792 34.0742 8.776C34.2662 8.744 34.4102 8.672 34.5062 8.56C34.6022 8.448 34.6502 8.256 34.6502 7.984C34.6502 7.504 34.6182 7.144 34.5542 6.904C34.5062 6.664 34.3462 6.544 34.0742 6.544V6.232H35.0102V11.8H34.0742V11.464C34.3462 11.464 34.5062 11.336 34.5542 11.08C34.6182 10.808 34.6502 10.424 34.6502 9.928C34.6502 9.672 34.5382 9.504 34.3142 9.424C34.1062 9.328 33.7062 9.272 33.1142 9.256H29.8022V16C29.8342 16.544 29.8982 17 29.9942 17.368C30.0902 17.72 30.3382 18.04 30.7382 18.328C31.1542 18.616 31.7862 18.76 32.6342 18.76C34.0102 18.76 35.0582 18.616 35.7782 18.328C36.4982 18.024 36.9862 17.656 37.2422 17.224C37.4982 16.776 37.7222 16.176 37.9142 15.424C38.1062 14.608 38.3302 13.992 38.5862 13.576H38.9222ZM58.8384 1.84C58.5344 1.744 58.2544 1.696 57.9984 1.696C57.6944 1.696 57.4544 1.784 57.2784 1.96C57.1184 2.12 57.0384 2.36 57.0384 2.68V17.56C57.0384 17.88 57.1184 18.128 57.2784 18.304C57.4544 18.464 57.6944 18.544 57.9984 18.544C58.2544 18.544 58.5344 18.496 58.8384 18.4V19H53.4384V18.4C53.7584 18.496 54.0384 18.544 54.2784 18.544C54.5824 18.544 54.8144 18.464 54.9744 18.304C55.1504 18.128 55.2384 17.88 55.2384 17.56V2.176L49.3344 19.48H48.9744L42.5424 3.712L42.5664 17.56C42.5664 17.864 42.7104 18.104 42.9984 18.28C43.3024 18.456 43.6704 18.544 44.1024 18.544C44.4224 18.544 44.7424 18.496 45.0624 18.4V19H39.6384V18.4C39.9424 18.496 40.2544 18.544 40.5744 18.544C40.9904 18.544 41.3344 18.456 41.6064 18.28C41.8784 18.104 42.0144 17.864 42.0144 17.56V2.68C42.0144 2.376 41.9024 2.136 41.6784 1.96C41.4544 1.784 41.1504 1.696 40.7664 1.696C40.4944 1.696 40.1984 1.744 39.8784 1.84V1.24H43.5984L49.7904 16.552L54.7584 1.24H58.8384V1.84ZM73.4691 13.576C73.2451 13.784 73.0931 14.112 73.0131 14.56C72.9491 15.008 72.9171 15.672 72.9171 16.552V19H60.7491V18.4C61.0531 18.496 61.3331 18.544 61.5891 18.544C61.8931 18.544 62.1251 18.464 62.2851 18.304C62.4611 18.128 62.5491 17.88 62.5491 17.56V2.68C62.5491 2.36 62.4611 2.12 62.2851 1.96C62.1251 1.784 61.8931 1.696 61.5891 1.696C61.3331 1.696 61.0531 1.744 60.7491 1.84V1.24H71.9091L71.8371 1.936C71.7891 2.24 71.7651 2.632 71.7651 3.112C71.7651 4.056 71.8771 4.792 72.1011 5.32H71.7171C71.5411 4.984 71.4131 4.544 71.3331 4C71.2211 3.424 71.0691 2.976 70.8771 2.656C70.6851 2.32 70.2931 2.04 69.7011 1.816C69.1091 1.592 68.2211 1.48 67.0371 1.48C66.1891 1.48 65.5731 1.624 65.1891 1.912C64.8051 2.2 64.5731 2.512 64.4931 2.848C64.4291 3.168 64.3811 3.632 64.3491 4.24V8.8H67.6611C68.1251 8.8 68.4451 8.792 68.6211 8.776C68.8131 8.744 68.9571 8.672 69.0531 8.56C69.1491 8.448 69.1971 8.256 69.1971 7.984C69.1971 7.504 69.1651 7.144 69.1011 6.904C69.0531 6.664 68.8931 6.544 68.6211 6.544V6.232H69.5571V11.8H68.6211V11.464C68.8931 11.464 69.0531 11.336 69.1011 11.08C69.1651 10.808 69.1971 10.424 69.1971 9.928C69.1971 9.672 69.0851 9.504 68.8611 9.424C68.6531 9.328 68.2531 9.272 67.6611 9.256H64.3491V16C64.3811 16.544 64.4451 17 64.5411 17.368C64.6371 17.72 64.8851 18.04 65.2851 18.328C65.7011 18.616 66.3331 18.76 67.1811 18.76C68.5571 18.76 69.6051 18.616 70.3251 18.328C71.0451 18.024 71.5331 17.656 71.7891 17.224C72.0451 16.776 72.2691 16.176 72.4611 15.424C72.6531 14.608 72.8771 13.992 73.1331 13.576H73.4691ZM90.3133 1.216V1.816C89.9933 1.72 89.6893 1.672 89.4013 1.672C89.0013 1.672 88.6733 1.76 88.4173 1.936C88.1773 2.112 88.0573 2.352 88.0573 2.656V19.48H87.5053L76.8973 2.992L76.9213 17.56C76.9213 17.864 77.0653 18.104 77.3533 18.28C77.6573 18.456 78.0253 18.544 78.4573 18.544C78.7933 18.544 79.1133 18.496 79.4173 18.4V19H74.1853V18.4C74.4893 18.496 74.7933 18.544 75.0973 18.544C75.4813 18.544 75.7853 18.456 76.0093 18.28C76.2493 18.104 76.3693 17.864 76.3693 17.56V2.68C76.3693 2.376 76.2493 2.136 76.0093 1.96C75.7693 1.784 75.4573 1.696 75.0733 1.696C74.8013 1.696 74.5053 1.744 74.1853 1.84V1.24H77.9533L87.5053 15.712V2.656C87.5053 2.352 87.3693 2.112 87.0973 1.936C86.8253 1.76 86.4813 1.672 86.0653 1.672C85.7453 1.672 85.4333 1.72 85.1293 1.816V1.216H90.3133ZM103.589 1.936C103.541 2.24 103.517 2.632 103.517 3.112C103.517 4.056 103.629 4.792 103.853 5.32H103.469C103.293 4.984 103.165 4.544 103.085 4C102.973 3.424 102.821 2.976 102.629 2.656C102.437 2.32 102.045 2.04 101.453 1.816C100.861 1.592 99.9729 1.48 98.7889 1.48C98.5809 1.48 98.3489 1.496 98.0929 1.528V17.56C98.0929 17.88 98.1729 18.128 98.3329 18.304C98.5089 18.464 98.7489 18.544 99.0529 18.544C99.3089 18.544 99.5889 18.496 99.8929 18.4V19H94.4929V18.4C94.8129 18.496 95.0929 18.544 95.3329 18.544C95.6369 18.544 95.8689 18.464 96.0289 18.304C96.2049 18.128 96.2929 17.88 96.2929 17.56V1.528C96.0369 1.496 95.8129 1.48 95.6209 1.48C94.4369 1.48 93.5489 1.592 92.9569 1.816C92.3649 2.04 91.9729 2.32 91.7809 2.656C91.5889 2.976 91.4369 3.424 91.3249 4C91.2449 4.544 91.1169 4.984 90.9409 5.32H90.5569C90.7809 4.792 90.8929 4.056 90.8929 3.112C90.8929 2.632 90.8689 2.24 90.8209 1.936L90.7489 1.24H103.661L103.589 1.936ZM110.289 19.48C109.121 19.48 108.185 19.288 107.481 18.904C106.793 18.504 106.193 17.912 105.681 17.128L105.345 18.544H104.865V12.016H105.513C105.513 14.192 105.889 15.912 106.641 17.176C107.409 18.44 108.545 19.072 110.049 19.072C110.753 19.072 111.369 18.88 111.897 18.496C112.425 18.096 112.825 17.576 113.097 16.936C113.369 16.296 113.505 15.616 113.505 14.896C113.505 14.016 113.305 13.288 112.905 12.712C112.521 12.12 112.041 11.656 111.465 11.32C110.889 10.984 110.129 10.616 109.185 10.216C108.209 9.8 107.433 9.424 106.857 9.088C106.281 8.736 105.793 8.272 105.393 7.696C105.009 7.104 104.817 6.36 104.817 5.464C104.817 4.568 105.025 3.76 105.441 3.04C105.873 2.32 106.449 1.76 107.169 1.36C107.905 0.959999 108.729 0.759999 109.641 0.759999C110.201 0.759999 110.753 0.855999 111.297 1.048C111.857 1.24 112.329 1.488 112.713 1.792C113.097 2.08 113.329 2.368 113.409 2.656L113.673 0.808H114.129V5.584H113.577C113.577 4.864 113.449 4.176 113.193 3.52C112.937 2.864 112.537 2.328 111.993 1.912C111.465 1.496 110.809 1.288 110.025 1.288C109.017 1.288 108.193 1.624 107.553 2.296C106.929 2.968 106.617 3.904 106.617 5.104C106.617 5.792 106.793 6.376 107.145 6.856C107.497 7.32 107.929 7.704 108.441 8.008C108.969 8.312 109.673 8.664 110.553 9.064C111.577 9.528 112.401 9.96 113.025 10.36C113.665 10.744 114.201 11.272 114.633 11.944C115.081 12.6 115.305 13.424 115.305 14.416C115.305 15.216 115.073 16.016 114.609 16.816C114.145 17.6 113.529 18.24 112.761 18.736C111.993 19.232 111.169 19.48 110.289 19.48Z"/>
</mask>
<path d="M13.68 13.576L14.0202 13.9424L14.9533 13.076H13.68V13.576ZM13.224 14.56L12.7318 14.4721L12.7303 14.4807L12.729 14.4893L13.224 14.56ZM13.128 19V19.5H13.628V19H13.128ZM0.96 19H0.46V19.5H0.96V19ZM0.96 18.4L1.11057 17.9232L0.46 17.7178V18.4H0.96ZM2.496 18.304L2.14245 17.9504L2.496 18.304ZM2.496 1.96L2.12603 2.29634L2.14205 2.31395L2.15966 2.32997L2.496 1.96ZM0.96 1.84H0.46V2.52223L1.11057 2.31679L0.96 1.84ZM0.96 1.24V0.74H0.46V1.24H0.96ZM12.12 1.24L12.6173 1.29145L12.6744 0.74H12.12V1.24ZM12.048 1.936L12.5419 2.01398L12.544 2.00076L12.5453 1.98745L12.048 1.936ZM12.312 5.32V5.82H13.0673L12.7723 5.12472L12.312 5.32ZM11.928 5.32L11.4851 5.552L11.6255 5.82H11.928V5.32ZM11.544 4L12.0387 3.92725L12.037 3.91586L12.0348 3.90456L11.544 4ZM11.088 2.656L10.6538 2.90412L10.6593 2.91325L11.088 2.656ZM4.704 2.848L4.2176 2.73219L4.21549 2.74103L4.21371 2.74994L4.704 2.848ZM4.56 4.24L4.06069 4.21372L4.06 4.22685V4.24H4.56ZM4.56 8.8H4.06V9.3H4.56V8.8ZM8.832 8.776L8.87727 9.27395L8.89582 9.27226L8.9142 9.2692L8.832 8.776ZM9.264 8.56L8.88437 8.2346V8.2346L9.264 8.56ZM9.312 6.904L8.82171 7.00206L8.82481 7.01756L8.82888 7.03283L9.312 6.904ZM8.832 6.544H8.332V7.044H8.832V6.544ZM8.832 6.232V5.732H8.332V6.232H8.832ZM9.768 6.232H10.268V5.732H9.768V6.232ZM9.768 11.8V12.3H10.268V11.8H9.768ZM8.832 11.8H8.332V12.3H8.832V11.8ZM8.832 11.464V10.964H8.332V11.464H8.832ZM9.312 11.08L8.82529 10.9655L8.82267 10.9766L8.82056 10.9879L9.312 11.08ZM9.072 9.424L8.86247 9.87798L8.88277 9.88735L8.90383 9.89487L9.072 9.424ZM7.872 9.256L7.88551 8.756H7.872V9.256ZM4.56 9.256V8.756H4.06V9.256H4.56ZM4.56 16H4.06V16.0147L4.06086 16.0294L4.56 16ZM4.752 17.368L4.26816 17.4942L4.26962 17.4996L4.752 17.368ZM5.496 18.328L5.2038 18.7338L5.2114 18.7391L5.496 18.328ZM10.536 18.328L10.7217 18.7923L10.7305 18.7886L10.536 18.328ZM12 17.224L12.4302 17.4789L12.4341 17.4721L12 17.224ZM12.672 15.424L13.1565 15.5477L13.1587 15.5385L12.672 15.424ZM13.344 13.576V13.076H13.0646L12.9182 13.314L13.344 13.576ZM13.3398 13.2096C13.0058 13.5198 12.822 13.9671 12.7318 14.4721L13.7162 14.6479C13.786 14.2569 13.9062 14.0482 14.0202 13.9424L13.3398 13.2096ZM12.729 14.4893C12.6599 14.9734 12.628 15.666 12.628 16.552H13.628C13.628 15.678 13.6601 15.0426 13.719 14.6307L12.729 14.4893ZM12.628 16.552V19H13.628V16.552H12.628ZM13.128 18.5H0.96V19.5H13.128V18.5ZM1.46 19V18.4H0.46V19H1.46ZM0.809434 18.8768C1.15072 18.9846 1.48218 19.044 1.8 19.044V18.044C1.60582 18.044 1.37728 18.0074 1.11057 17.9232L0.809434 18.8768ZM1.8 19.044C2.18968 19.044 2.56713 18.94 2.84955 18.6576L2.14245 17.9504C2.10487 17.988 2.01832 18.044 1.8 18.044V19.044ZM2.84955 18.6576C3.14405 18.3631 3.26 17.973 3.26 17.56H2.26C2.26 17.787 2.19995 17.8929 2.14245 17.9504L2.84955 18.6576ZM3.26 17.56V2.68H2.26V17.56H3.26ZM3.26 2.68C3.26 2.27 3.14506 1.87432 2.83234 1.59003L2.15966 2.32997C2.19894 2.36568 2.26 2.45 2.26 2.68H3.26ZM2.86597 1.62366C2.58638 1.31611 2.20317 1.196 1.8 1.196V2.196C2.00483 2.196 2.08562 2.25188 2.12603 2.29634L2.86597 1.62366ZM1.8 1.196C1.48218 1.196 1.15072 1.25543 0.809435 1.36321L1.11057 2.31679C1.37728 2.23257 1.60582 2.196 1.8 2.196V1.196ZM1.46 1.84V1.24H0.46V1.84H1.46ZM0.96 1.74H12.12V0.74H0.96V1.74ZM11.6227 1.18855L11.5507 1.88455L12.5453 1.98745L12.6173 1.29145L11.6227 1.18855ZM11.5541 1.85802C11.5005 2.1979 11.476 2.61861 11.476 3.112H12.476C12.476 2.64539 12.4995 2.2821 12.5419 2.01398L11.5541 1.85802ZM11.476 3.112C11.476 4.08525 11.5899 4.89824 11.8517 5.51527L12.7723 5.12472C12.5861 4.68575 12.476 4.02675 12.476 3.112H11.476ZM12.312 4.82H11.928V5.82H12.312V4.82ZM12.3709 5.088C12.2299 4.81875 12.1138 4.4384 12.0387 3.92725L11.0493 4.07275C11.1342 4.6496 11.2741 5.14925 11.4851 5.552L12.3709 5.088ZM12.0348 3.90456C11.9173 3.30031 11.7508 2.78885 11.5167 2.39875L10.6593 2.91325C10.8092 3.16315 10.9467 3.54768 11.0532 4.09544L12.0348 3.90456ZM11.5221 2.40793C11.2458 1.92438 10.7255 1.58921 10.0889 1.34836L9.73505 2.28364C10.2825 2.49079 10.5462 2.71562 10.6539 2.90407L11.5221 2.40793ZM10.0889 1.34836C9.41063 1.09169 8.44924 0.98 7.248 0.98V1.98C8.41476 1.98 9.22938 2.09231 9.73505 2.28364L10.0889 1.34836ZM7.248 0.98C6.36539 0.98 5.61511 1.12567 5.1 1.512L5.7 2.312C5.95289 2.12233 6.43461 1.98 7.248 1.98V0.98ZM5.1 1.512C4.65867 1.843 4.33351 2.24533 4.2176 2.73219L5.1904 2.96381C5.23449 2.77866 5.37333 2.557 5.7 2.312L5.1 1.512ZM4.21371 2.74994C4.14254 3.10581 4.09307 3.59844 4.06069 4.21372L5.05931 4.26628C5.09093 3.66556 5.13746 3.23019 5.19429 2.94606L4.21371 2.74994ZM4.06 4.24V8.8H5.06V4.24H4.06ZM4.56 9.3H7.872V8.3H4.56V9.3ZM7.872 9.3C8.3345 9.3 8.67573 9.29227 8.87727 9.27395L8.78673 8.27805C8.63627 8.29173 8.3375 8.3 7.872 8.3V9.3ZM8.9142 9.2692C9.18458 9.22413 9.44976 9.11157 9.64363 8.88539L8.88437 8.2346C8.88356 8.23555 8.87827 8.24185 8.86039 8.25079C8.84115 8.26041 8.80655 8.27334 8.7498 8.2828L8.9142 9.2692ZM9.64363 8.8854C9.86031 8.6326 9.908 8.28632 9.908 7.984H8.908C8.908 8.09318 8.8981 8.16604 8.88693 8.21073C8.87562 8.25597 8.86763 8.25414 8.88437 8.2346L9.64363 8.8854ZM9.908 7.984C9.908 7.49295 9.87639 7.07994 9.79512 6.77517L8.82888 7.03283C8.87561 7.20806 8.908 7.51505 8.908 7.984H9.908ZM9.80229 6.80594C9.75981 6.59355 9.65525 6.38343 9.456 6.234C9.26308 6.08931 9.03778 6.044 8.832 6.044V7.044C8.86404 7.044 8.87886 7.04761 8.88118 7.04826C8.8824 7.0486 8.87148 7.04561 8.856 7.034C8.84858 7.02844 8.84158 7.02196 8.83539 7.01494C8.82924 7.00795 8.8249 7.00154 8.82207 6.99664C8.81643 6.98688 8.81856 6.98629 8.82171 7.00206L9.80229 6.80594ZM9.332 6.544V6.232H8.332V6.544H9.332ZM8.832 6.732H9.768V5.732H8.832V6.732ZM9.268 6.232V11.8H10.268V6.232H9.268ZM9.768 11.3H8.832V12.3H9.768V11.3ZM9.332 11.8V11.464H8.332V11.8H9.332ZM8.832 11.964C9.04426 11.964 9.27441 11.9136 9.46835 11.7584C9.66494 11.6012 9.76352 11.385 9.80344 11.1721L8.82056 10.9879C8.81635 11.0103 8.81238 11.0154 8.81535 11.0099C8.81691 11.007 8.81999 11.002 8.82506 10.9958C8.83019 10.9896 8.83646 10.9833 8.84365 10.9776C8.85083 10.9718 8.85767 10.9676 8.86336 10.9647C8.86896 10.9618 8.87248 10.9607 8.87296 10.9606C8.87345 10.9605 8.86152 10.964 8.832 10.964V11.964ZM9.79871 11.1945C9.87582 10.8668 9.908 10.4378 9.908 9.928H8.908C8.908 10.4102 8.87618 10.7492 8.82529 10.9655L9.79871 11.1945ZM9.908 9.928C9.908 9.72765 9.86378 9.51827 9.74003 9.33265C9.61426 9.14399 9.43482 9.02265 9.24017 8.95313L8.90383 9.89487C8.92008 9.90067 8.92444 9.90453 8.92207 9.90279C8.91905 9.90055 8.91323 9.89523 8.90798 9.88735C8.9029 9.87974 8.90244 9.87588 8.90358 9.88019C8.90492 9.88525 8.908 9.90009 8.908 9.928H9.908ZM9.28153 8.97002C9.11157 8.89157 8.90287 8.84528 8.68532 8.81483C8.46047 8.78335 8.19244 8.76448 7.88551 8.75618L7.85849 9.75582C8.14356 9.76352 8.37153 9.78065 8.54668 9.80517C8.72914 9.83071 8.82444 9.86042 8.86247 9.87798L9.28153 8.97002ZM7.872 8.756H4.56V9.756H7.872V8.756ZM4.06 9.256V16H5.06V9.256H4.06ZM4.06086 16.0294C4.09404 16.5933 4.16122 17.0842 4.26819 17.4942L5.23581 17.2418C5.15078 16.9158 5.08996 16.4947 5.05914 15.9706L4.06086 16.0294ZM4.26962 17.4996C4.40484 17.9954 4.74345 18.4023 5.20385 18.7338L5.78815 17.9222C5.44855 17.6777 5.29116 17.4446 5.23438 17.2364L4.26962 17.4996ZM5.2114 18.7391C5.75049 19.1123 6.50417 19.26 7.392 19.26V18.26C6.58383 18.26 6.07351 18.1197 5.78061 17.9169L5.2114 18.7391ZM7.392 19.26C8.79008 19.26 9.91352 19.1155 10.7217 18.7922L10.3503 17.8638C9.71848 18.1165 8.74592 18.26 7.392 18.26V19.26ZM10.7305 18.7886C11.4978 18.4647 12.0968 18.0414 12.4301 17.4789L11.5699 16.9691C11.3912 17.2706 11.0142 17.5833 10.3415 17.8674L10.7305 18.7886ZM12.4341 17.4721C12.7206 16.9707 12.9583 16.3237 13.1565 15.5477L12.1875 15.3003C12.0017 16.0283 11.7914 16.5813 11.5659 16.9759L12.4341 17.4721ZM13.1587 15.5385C13.3459 14.743 13.555 14.1872 13.7698 13.838L12.9182 13.314C12.621 13.7968 12.3821 14.473 12.1853 15.3095L13.1587 15.5385ZM13.344 14.076H13.68V13.076H13.344V14.076ZM25.2443 13.576L25.5845 13.9424L26.5175 13.076H25.2443V13.576ZM24.7882 14.56L24.296 14.4721L24.2945 14.4807L24.2933 14.4893L24.7882 14.56ZM24.6922 19V19.5H25.1922V19H24.6922ZM15.1163 19H14.6163V19.5H15.1163V19ZM15.1163 18.4L15.2668 17.9232L14.6163 17.7178V18.4H15.1163ZM16.6523 18.304L16.2987 17.9504L16.6523 18.304ZM16.6523 1.96L16.2823 2.29634L16.2983 2.31395L16.3159 2.32997L16.6523 1.96ZM15.1163 1.84H14.6163V2.52223L15.2668 2.31679L15.1163 1.84ZM15.1163 1.24V0.74H14.6163V1.24H15.1163ZM20.5163 1.24H21.0163V0.74H20.5163V1.24ZM20.5163 1.84L20.3657 2.31679L21.0163 2.52223V1.84H20.5163ZM18.9562 1.96L18.6027 1.60645V1.60645L18.9562 1.96ZM19.1963 18.088L19.6031 17.7974L19.1963 18.088ZM22.8923 18.4L23.1285 18.8409L23.1403 18.8341L22.8923 18.4ZM23.7803 17.464L24.2459 17.6462L24.2484 17.6396L23.7803 17.464ZM24.1403 15.856L24.6355 15.9251L24.6366 15.9162L24.1403 15.856ZM24.3563 14.56L24.8427 14.6758L24.3563 14.56ZM24.7882 13.576V13.076H24.5169L24.369 13.3035L24.7882 13.576ZM24.904 13.2096C24.57 13.5198 24.3862 13.9671 24.296 14.4721L25.2805 14.6479C25.3503 14.2569 25.4705 14.0482 25.5845 13.9424L24.904 13.2096ZM24.2933 14.4893C24.2241 14.9734 24.1922 15.666 24.1922 16.552H25.1922C25.1922 15.678 25.2244 15.0426 25.2832 14.6307L24.2933 14.4893ZM24.1922 16.552V19H25.1922V16.552H24.1922ZM24.6922 18.5H15.1163V19.5H24.6922V18.5ZM15.6163 19V18.4H14.6163V19H15.6163ZM14.9657 18.8768C15.307 18.9846 15.6384 19.044 15.9563 19.044V18.044C15.7621 18.044 15.5335 18.0074 15.2668 17.9232L14.9657 18.8768ZM15.9563 19.044C16.3459 19.044 16.7234 18.94 17.0058 18.6576L16.2987 17.9504C16.2611 17.988 16.1746 18.044 15.9563 18.044V19.044ZM17.0058 18.6576C17.3003 18.3631 17.4163 17.973 17.4163 17.56H16.4163C16.4163 17.787 16.3562 17.8929 16.2987 17.9504L17.0058 18.6576ZM17.4163 17.56V2.68H16.4163V17.56H17.4163ZM17.4163 2.68C17.4163 2.27 17.3013 1.87432 16.9886 1.59003L16.3159 2.32997C16.3552 2.36568 16.4163 2.45 16.4163 2.68H17.4163ZM17.0222 1.62366C16.7426 1.31611 16.3594 1.196 15.9563 1.196V2.196C16.1611 2.196 16.2419 2.25188 16.2823 2.29634L17.0222 1.62366ZM15.9563 1.196C15.6384 1.196 15.307 1.25543 14.9657 1.36321L15.2668 2.31679C15.5335 2.23257 15.7621 2.196 15.9563 2.196V1.196ZM15.6163 1.84V1.24H14.6163V1.84H15.6163ZM15.1163 1.74H20.5163V0.74H15.1163V1.74ZM20.0163 1.24V1.84H21.0163V1.24H20.0163ZM20.6668 1.36321C20.3255 1.25543 19.9941 1.196 19.6763 1.196V2.196C19.8704 2.196 20.099 2.23257 20.3657 2.31679L20.6668 1.36321ZM19.6763 1.196C19.2709 1.196 18.8925 1.31668 18.6027 1.60645L19.3098 2.31355C19.372 2.25132 19.4736 2.196 19.6763 2.196V1.196ZM18.6027 1.60645C18.3159 1.89329 18.2162 2.28293 18.2162 2.68H19.2162C19.2162 2.43707 19.2766 2.34671 19.3098 2.31355L18.6027 1.60645ZM18.2162 2.68V16H19.2162V2.68H18.2162ZM18.2162 16C18.2162 16.9816 18.3791 17.8042 18.7894 18.3786L19.6031 17.7974C19.3734 17.4758 19.2162 16.9064 19.2162 16H18.2162ZM18.7894 18.3786C19.2407 19.0104 19.9923 19.26 20.8762 19.26V18.26C20.1602 18.26 19.7918 18.0616 19.6031 17.7974L18.7894 18.3786ZM20.8762 19.26C21.8006 19.26 22.5716 19.139 23.1284 18.8407L22.6561 17.9593C22.3169 18.141 21.7439 18.26 20.8762 18.26V19.26ZM23.1403 18.8341C23.6569 18.5389 24.049 18.1493 24.2459 17.6462L23.3146 17.2818C23.2235 17.5147 23.0236 17.7491 22.6442 17.9659L23.1403 18.8341ZM24.2484 17.6396C24.4111 17.2056 24.5374 16.6281 24.6355 15.9251L23.645 15.7869C23.5511 16.4599 23.4374 16.9544 23.3121 17.2884L24.2484 17.6396ZM24.6366 15.9162C24.6994 15.3981 24.7687 14.9865 24.8427 14.6758L23.8698 14.4442C23.7838 14.8055 23.7091 15.2579 23.6439 15.7958L24.6366 15.9162ZM24.8427 14.6758C24.9081 14.401 25.0274 14.1255 25.2075 13.8485L24.369 13.3035C24.1331 13.6665 23.9644 14.047 23.8698 14.4442L24.8427 14.6758ZM24.7882 14.076H25.2443V13.076H24.7882V14.076ZM38.9222 13.576L39.2624 13.9424L40.1955 13.076H38.9222V13.576ZM38.4662 14.56L37.974 14.4721L37.9724 14.4807L37.9712 14.4893L38.4662 14.56ZM38.3702 19V19.5H38.8702V19H38.3702ZM26.2022 19H25.7022V19.5H26.2022V19ZM26.2022 18.4L26.3528 17.9232L25.7022 17.7178V18.4H26.2022ZM27.7382 18.304L27.3846 17.9504L27.7382 18.304ZM27.7382 1.96L27.3682 2.29634L27.3842 2.31395L27.4019 2.32997L27.7382 1.96ZM26.2022 1.84H25.7022V2.52223L26.3528 2.31679L26.2022 1.84ZM26.2022 1.24V0.74H25.7022V1.24H26.2022ZM37.3622 1.24L37.8595 1.29145L37.9166 0.74H37.3622V1.24ZM37.2902 1.936L37.7841 2.01398L37.7862 2.00076L37.7875 1.98745L37.2902 1.936ZM37.5542 5.32V5.82H38.3094L38.0145 5.12472L37.5542 5.32ZM37.1702 5.32L36.7273 5.552L36.8677 5.82H37.1702V5.32ZM36.7862 4L37.2809 3.92725L37.2792 3.91586L37.277 3.90456L36.7862 4ZM36.3302 2.656L35.896 2.90412L35.9014 2.91325L36.3302 2.656ZM29.9462 2.848L29.4598 2.73219L29.4577 2.74103L29.4559 2.74994L29.9462 2.848ZM29.8022 4.24L29.3029 4.21372L29.3022 4.22685V4.24H29.8022ZM29.8022 8.8H29.3022V9.3H29.8022V8.8ZM34.0742 8.776L34.1195 9.27395L34.138 9.27226L34.1564 9.2692L34.0742 8.776ZM34.5062 8.56L34.1266 8.2346V8.2346L34.5062 8.56ZM34.5542 6.904L34.0639 7.00206L34.067 7.01756L34.0711 7.03283L34.5542 6.904ZM34.0742 6.544H33.5742V7.044H34.0742V6.544ZM34.0742 6.232V5.732H33.5742V6.232H34.0742ZM35.0102 6.232H35.5102V5.732H35.0102V6.232ZM35.0102 11.8V12.3H35.5102V11.8H35.0102ZM34.0742 11.8H33.5742V12.3H34.0742V11.8ZM34.0742 11.464V10.964H33.5742V11.464H34.0742ZM34.5542 11.08L34.0675 10.9655L34.0649 10.9766L34.0628 10.9879L34.5542 11.08ZM34.3142 9.424L34.1047 9.87798L34.125 9.88735L34.146 9.89487L34.3142 9.424ZM33.1142 9.256L33.1277 8.756H33.1142V9.256ZM29.8022 9.256V8.756H29.3022V9.256H29.8022ZM29.8022 16H29.3022V16.0147L29.3031 16.0294L29.8022 16ZM29.9942 17.368L29.5103 17.4942L29.5118 17.4996L29.9942 17.368ZM30.7382 18.328L30.446 18.7338L30.4536 18.7391L30.7382 18.328ZM35.7782 18.328L35.9639 18.7923L35.9727 18.7886L35.7782 18.328ZM37.2422 17.224L37.6724 17.4789L37.6763 17.4721L37.2422 17.224ZM37.9142 15.424L38.3987 15.5477L38.4009 15.5385L37.9142 15.424ZM38.5862 13.576V13.076H38.3068L38.1604 13.314L38.5862 13.576ZM38.582 13.2096C38.2479 13.5198 38.0642 13.9671 37.974 14.4721L38.9584 14.6479C39.0282 14.2569 39.1484 14.0482 39.2624 13.9424L38.582 13.2096ZM37.9712 14.4893C37.9021 14.9734 37.8702 15.666 37.8702 16.552H38.8702C38.8702 15.678 38.9023 15.0426 38.9612 14.6307L37.9712 14.4893ZM37.8702 16.552V19H38.8702V16.552H37.8702ZM38.3702 18.5H26.2022V19.5H38.3702V18.5ZM26.7022 19V18.4H25.7022V19H26.7022ZM26.0516 18.8768C26.3929 18.9846 26.7244 19.044 27.0422 19.044V18.044C26.848 18.044 26.6195 18.0074 26.3528 17.9232L26.0516 18.8768ZM27.0422 19.044C27.4319 19.044 27.8093 18.94 28.0917 18.6576L27.3846 17.9504C27.3471 17.988 27.2605 18.044 27.0422 18.044V19.044ZM28.0917 18.6576C28.3862 18.3631 28.5022 17.973 28.5022 17.56H27.5022C27.5022 17.787 27.4421 17.8929 27.3846 17.9504L28.0917 18.6576ZM28.5022 17.56V2.68H27.5022V17.56H28.5022ZM28.5022 2.68C28.5022 2.27 28.3872 1.87432 28.0745 1.59003L27.4019 2.32997C27.4411 2.36568 27.5022 2.45 27.5022 2.68H28.5022ZM28.1082 1.62366C27.8286 1.31611 27.4454 1.196 27.0422 1.196V2.196C27.247 2.196 27.3278 2.25188 27.3682 2.29634L28.1082 1.62366ZM27.0422 1.196C26.7244 1.196 26.3929 1.25543 26.0516 1.36321L26.3528 2.31679C26.6195 2.23257 26.848 2.196 27.0422 2.196V1.196ZM26.7022 1.84V1.24H25.7022V1.84H26.7022ZM26.2022 1.74H37.3622V0.74H26.2022V1.74ZM36.8648 1.18855L36.7928 1.88455L37.7875 1.98745L37.8595 1.29145L36.8648 1.18855ZM36.7963 1.85802C36.7426 2.1979 36.7182 2.61861 36.7182 3.112H37.7182C37.7182 2.64539 37.7417 2.2821 37.7841 2.01398L36.7963 1.85802ZM36.7182 3.112C36.7182 4.08525 36.8321 4.89824 37.0939 5.51527L38.0145 5.12472C37.8283 4.68575 37.7182 4.02675 37.7182 3.112H36.7182ZM37.5542 4.82H37.1702V5.82H37.5542V4.82ZM37.6131 5.088C37.4721 4.81875 37.356 4.4384 37.2809 3.92725L36.2915 4.07275C36.3763 4.6496 36.5163 5.14925 36.7273 5.552L37.6131 5.088ZM37.277 3.90456C37.1595 3.30031 36.993 2.78885 36.7589 2.39875L35.9014 2.91325C36.0514 3.16315 36.1889 3.54768 36.2954 4.09544L37.277 3.90456ZM36.7643 2.40793C36.488 1.92438 35.9677 1.58921 35.3311 1.34836L34.9772 2.28364C35.5247 2.49079 35.7884 2.71562 35.8961 2.90407L36.7643 2.40793ZM35.3311 1.34836C34.6528 1.09169 33.6914 0.98 32.4902 0.98V1.98C33.6569 1.98 34.4716 2.09231 34.9772 2.28364L35.3311 1.34836ZM32.4902 0.98C31.6076 0.98 30.8573 1.12567 30.3422 1.512L30.9422 2.312C31.1951 2.12233 31.6768 1.98 32.4902 1.98V0.98ZM30.3422 1.512C29.9009 1.843 29.5757 2.24533 29.4598 2.73219L30.4326 2.96381C30.4767 2.77866 30.6155 2.557 30.9422 2.312L30.3422 1.512ZM29.4559 2.74994C29.3847 3.10581 29.3353 3.59844 29.3029 4.21372L30.3015 4.26628C30.3331 3.66556 30.3797 3.23019 30.4365 2.94606L29.4559 2.74994ZM29.3022 4.24V8.8H30.3022V4.24H29.3022ZM29.8022 9.3H33.1142V8.3H29.8022V9.3ZM33.1142 9.3C33.5767 9.3 33.9179 9.29227 34.1195 9.27395L34.0289 8.27805C33.8785 8.29173 33.5797 8.3 33.1142 8.3V9.3ZM34.1564 9.2692C34.4268 9.22413 34.692 9.11157 34.8858 8.88539L34.1266 8.2346C34.1258 8.23555 34.1205 8.24185 34.1026 8.25079C34.0833 8.26041 34.0487 8.27334 33.992 8.2828L34.1564 9.2692ZM34.8858 8.8854C35.1025 8.6326 35.1502 8.28632 35.1502 7.984H34.1502C34.1502 8.09318 34.1403 8.16604 34.1291 8.21073C34.1178 8.25597 34.1098 8.25414 34.1266 8.2346L34.8858 8.8854ZM35.1502 7.984C35.1502 7.49295 35.1186 7.07994 35.0373 6.77517L34.0711 7.03283C34.1178 7.20806 34.1502 7.51505 34.1502 7.984H35.1502ZM35.0445 6.80594C35.002 6.59355 34.8974 6.38343 34.6982 6.234C34.5053 6.08931 34.28 6.044 34.0742 6.044V7.044C34.1062 7.044 34.121 7.04761 34.1234 7.04826C34.1246 7.0486 34.1137 7.04561 34.0982 7.034C34.0908 7.02844 34.0838 7.02196 34.0776 7.01494C34.0714 7.00795 34.0671 7.00154 34.0643 6.99664C34.0586 6.98688 34.0607 6.98629 34.0639 7.00206L35.0445 6.80594ZM34.5742 6.544V6.232H33.5742V6.544H34.5742ZM34.0742 6.732H35.0102V5.732H34.0742V6.732ZM34.5102 6.232V11.8H35.5102V6.232H34.5102ZM35.0102 11.3H34.0742V12.3H35.0102V11.3ZM34.5742 11.8V11.464H33.5742V11.8H34.5742ZM34.0742 11.964C34.2864 11.964 34.5166 11.9136 34.7105 11.7584C34.9071 11.6012 35.0057 11.385 35.0456 11.1721L34.0628 10.9879C34.0585 11.0103 34.0546 11.0154 34.0575 11.0099C34.0591 11.007 34.0622 11.002 34.0672 10.9958C34.0724 10.9896 34.0786 10.9833 34.0858 10.9776C34.093 10.9718 34.0999 10.9676 34.1055 10.9647C34.1112 10.9618 34.1147 10.9607 34.1151 10.9606C34.1156 10.9605 34.1037 10.964 34.0742 10.964V11.964ZM35.0409 11.1945C35.118 10.8668 35.1502 10.4378 35.1502 9.928H34.1502C34.1502 10.4102 34.1184 10.7492 34.0675 10.9655L35.0409 11.1945ZM35.1502 9.928C35.1502 9.72765 35.106 9.51827 34.9822 9.33265C34.8564 9.14399 34.677 9.02265 34.4824 8.95313L34.146 9.89487C34.1623 9.90067 34.1666 9.90453 34.1643 9.90279C34.1612 9.90055 34.1554 9.89523 34.1502 9.88735C34.1451 9.87974 34.1446 9.87588 34.1458 9.88019C34.1471 9.88525 34.1502 9.90009 34.1502 9.928H35.1502ZM34.5237 8.97002C34.3538 8.89157 34.1451 8.84528 33.9275 8.81483C33.7027 8.78335 33.4346 8.76448 33.1277 8.75618L33.1007 9.75582C33.3857 9.76352 33.6137 9.78065 33.7889 9.80517C33.9713 9.83071 34.0666 9.86042 34.1047 9.87798L34.5237 8.97002ZM33.1142 8.756H29.8022V9.756H33.1142V8.756ZM29.3022 9.256V16H30.3022V9.256H29.3022ZM29.3031 16.0294C29.3362 16.5933 29.4034 17.0842 29.5104 17.4942L30.478 17.2418C30.393 16.9158 30.3322 16.4947 30.3013 15.9706L29.3031 16.0294ZM29.5118 17.4996C29.647 17.9954 29.9856 18.4023 30.446 18.7338L31.0303 17.9222C30.6907 17.6777 30.5333 17.4446 30.4766 17.2364L29.5118 17.4996ZM30.4536 18.7391C30.9927 19.1123 31.7464 19.26 32.6342 19.26V18.26C31.826 18.26 31.3157 18.1197 31.0228 17.9169L30.4536 18.7391ZM32.6342 19.26C34.0323 19.26 35.1557 19.1155 35.9639 18.7922L35.5925 17.8638C34.9607 18.1165 33.9881 18.26 32.6342 18.26V19.26ZM35.9727 18.7886C36.74 18.4647 37.339 18.0414 37.6723 17.4789L36.812 16.9691C36.6334 17.2706 36.2564 17.5833 35.5837 17.8674L35.9727 18.7886ZM37.6763 17.4721C37.9628 16.9707 38.2005 16.3237 38.3986 15.5477L37.4297 15.3003C37.2439 16.0283 37.0336 16.5813 36.8081 16.9759L37.6763 17.4721ZM38.4009 15.5385C38.5881 14.743 38.7972 14.1872 39.012 13.838L38.1604 13.314C37.8632 13.7968 37.6243 14.473 37.4275 15.3095L38.4009 15.5385ZM38.5862 14.076H38.9222V13.076H38.5862V14.076ZM58.8384 1.84L58.6879 2.31679L59.3384 2.52223V1.84H58.8384ZM57.2784 1.96L57.632 2.31355V2.31355L57.2784 1.96ZM57.2784 18.304L56.9085 18.6403L56.9245 18.658L56.9421 18.674L57.2784 18.304ZM58.8384 18.4H59.3384V17.7178L58.6879 17.9232L58.8384 18.4ZM58.8384 19V19.5H59.3384V19H58.8384ZM53.4384 19H52.9384V19.5H53.4384V19ZM53.4384 18.4L53.5821 17.9211L52.9384 17.728V18.4H53.4384ZM54.9744 18.304L55.328 18.6576L54.9744 18.304ZM55.2384 2.176H55.7384L54.7652 2.01454L55.2384 2.176ZM49.3344 19.48V19.98H49.6921L49.8077 19.6415L49.3344 19.48ZM48.9744 19.48L48.5115 19.6688L48.6384 19.98H48.9744V19.48ZM42.5424 3.712L43.0054 3.52315L42.0424 3.71287L42.5424 3.712ZM42.5664 17.56H43.0664V17.5591L42.5664 17.56ZM42.9984 18.28L42.7376 18.7068L42.7479 18.7127L42.9984 18.28ZM45.0624 18.4H45.5624V17.728L44.9188 17.9211L45.0624 18.4ZM45.0624 19V19.5H45.5624V19H45.0624ZM39.6384 19H39.1384V19.5H39.6384V19ZM39.6384 18.4L39.789 17.9232L39.1384 17.7178V18.4H39.6384ZM41.6064 18.28L41.8781 18.6998L41.6064 18.28ZM41.6784 1.96L41.9873 1.56684L41.6784 1.96ZM39.8784 1.84H39.3784V2.51201L40.0221 2.31891L39.8784 1.84ZM39.8784 1.24V0.74H39.3784V1.24H39.8784ZM43.5984 1.24L44.062 1.05255L43.9356 0.74H43.5984V1.24ZM49.7904 16.552L49.3269 16.7394L49.842 18.0132L50.266 16.7063L49.7904 16.552ZM54.7584 1.24V0.74H54.395L54.2828 1.08569L54.7584 1.24ZM58.8384 1.24H59.3384V0.74H58.8384V1.24ZM58.989 1.36321C58.6477 1.25543 58.3163 1.196 57.9984 1.196V2.196C58.1926 2.196 58.4212 2.23257 58.6879 2.31679L58.989 1.36321ZM57.9984 1.196C57.5931 1.196 57.2146 1.31668 56.9249 1.60645L57.632 2.31355C57.6942 2.25132 57.7958 2.196 57.9984 2.196V1.196ZM56.9249 1.60644C56.638 1.89328 56.5384 2.28293 56.5384 2.68H57.5384C57.5384 2.43707 57.5988 2.34671 57.632 2.31355L56.9249 1.60644ZM56.5384 2.68V17.56H57.5384V2.68H56.5384ZM56.5384 17.56C56.5384 17.9608 56.6395 18.3445 56.9085 18.6403L57.6484 17.9677C57.5974 17.9115 57.5384 17.7992 57.5384 17.56H56.5384ZM56.9421 18.674C57.2335 18.9389 57.6058 19.044 57.9984 19.044V18.044C57.7831 18.044 57.6753 17.9891 57.6148 17.934L56.9421 18.674ZM57.9984 19.044C58.3163 19.044 58.6477 18.9846 58.989 18.8768L58.6879 17.9232C58.4212 18.0074 58.1926 18.044 57.9984 18.044V19.044ZM58.3384 18.4V19H59.3384V18.4H58.3384ZM58.8384 18.5H53.4384V19.5H58.8384V18.5ZM53.9384 19V18.4H52.9384V19H53.9384ZM53.2948 18.8789C53.6446 18.9839 53.9749 19.044 54.2784 19.044V18.044C54.102 18.044 53.8723 18.0081 53.5821 17.9211L53.2948 18.8789ZM54.2784 19.044C54.6681 19.044 55.0456 18.94 55.328 18.6576L54.6209 17.9504C54.5833 17.988 54.4968 18.044 54.2784 18.044V19.044ZM55.328 18.6576C55.6225 18.3631 55.7384 17.973 55.7384 17.56H54.7384C54.7384 17.787 54.6784 17.8929 54.6209 17.9504L55.328 18.6576ZM55.7384 17.56V2.176H54.7384V17.56H55.7384ZM54.7652 2.01454L48.8612 19.3185L49.8077 19.6415L55.7117 2.33746L54.7652 2.01454ZM49.3344 18.98H48.9744V19.98H49.3344V18.98ZM49.4374 19.2912L43.0054 3.52315L42.0795 3.90085L48.5115 19.6688L49.4374 19.2912ZM42.0424 3.71287L42.0664 17.5609L43.0664 17.5591L43.0424 3.71113L42.0424 3.71287ZM42.0664 17.56C42.0664 18.06 42.3207 18.4518 42.7377 18.7066L43.2592 17.8534C43.1002 17.7562 43.0664 17.668 43.0664 17.56H42.0664ZM42.7479 18.7127C43.1437 18.9419 43.6026 19.044 44.1024 19.044V18.044C43.7383 18.044 43.4611 17.9701 43.249 17.8473L42.7479 18.7127ZM44.1024 19.044C44.4732 19.044 44.8416 18.9883 45.2061 18.8789L44.9188 17.9211C44.6433 18.0037 44.3717 18.044 44.1024 18.044V19.044ZM44.5624 18.4V19H45.5624V18.4H44.5624ZM45.0624 18.5H39.6384V19.5H45.0624V18.5ZM40.1384 19V18.4H39.1384V19H40.1384ZM39.4879 18.8768C39.8408 18.9882 40.2036 19.044 40.5744 19.044V18.044C40.3053 18.044 40.0441 18.0038 39.789 17.9232L39.4879 18.8768ZM40.5744 19.044C41.0597 19.044 41.5051 18.9411 41.8781 18.6998L41.3348 17.8602C41.1638 17.9709 40.9212 18.044 40.5744 18.044V19.044ZM41.8781 18.6998C42.2813 18.4389 42.5144 18.0465 42.5144 17.56H41.5144C41.5144 17.6815 41.4756 17.7691 41.3348 17.8602L41.8781 18.6998ZM42.5144 17.56V2.68H41.5144V17.56H42.5144ZM42.5144 2.68C42.5144 2.23446 42.341 1.84474 41.9873 1.56684L41.3695 2.35316C41.4638 2.42725 41.5144 2.51754 41.5144 2.68H42.5144ZM41.9873 1.56684C41.649 1.30097 41.2237 1.196 40.7664 1.196V2.196C41.0772 2.196 41.2599 2.26703 41.3695 2.35316L41.9873 1.56684ZM40.7664 1.196C40.4362 1.196 40.0912 1.25416 39.7348 1.36109L40.0221 2.31891C40.3057 2.23384 40.5527 2.196 40.7664 2.196V1.196ZM40.3784 1.84V1.24H39.3784V1.84H40.3784ZM39.8784 1.74H43.5984V0.74H39.8784V1.74ZM43.1349 1.42745L49.3269 16.7394L50.254 16.3646L44.062 1.05255L43.1349 1.42745ZM50.266 16.7063L55.234 1.39431L54.2828 1.08569L49.3148 16.3977L50.266 16.7063ZM54.7584 1.74H58.8384V0.74H54.7584V1.74ZM58.3384 1.24V1.84H59.3384V1.24H58.3384ZM73.4691 13.576L73.8093 13.9424L74.7423 13.076H73.4691V13.576ZM73.0131 14.56L72.5209 14.4721L72.5193 14.4807L72.5181 14.4893L73.0131 14.56ZM72.9171 19V19.5H73.4171V19H72.9171ZM60.7491 19H60.2491V19.5H60.7491V19ZM60.7491 18.4L60.8996 17.9232L60.2491 17.7178V18.4H60.7491ZM62.2851 18.304L61.9315 17.9504L62.2851 18.304ZM62.2851 1.96L61.9151 2.29634L61.9311 2.31395L61.9487 2.32997L62.2851 1.96ZM60.7491 1.84H60.2491V2.52223L60.8996 2.31679L60.7491 1.84ZM60.7491 1.24V0.74H60.2491V1.24H60.7491ZM71.9091 1.24L72.4064 1.29145L72.4635 0.74H71.9091V1.24ZM71.8371 1.936L72.3309 2.01398L72.333 2.00076L72.3344 1.98745L71.8371 1.936ZM72.1011 5.32V5.82H72.8563L72.5614 5.12472L72.1011 5.32ZM71.7171 5.32L71.2741 5.552L71.4145 5.82H71.7171V5.32ZM71.3331 4L71.8277 3.92725L71.8261 3.91586L71.8239 3.90456L71.3331 4ZM70.8771 2.656L70.4428 2.90412L70.4483 2.91325L70.8771 2.656ZM64.4931 2.848L64.0067 2.73219L64.0046 2.74103L64.0028 2.74994L64.4931 2.848ZM64.3491 4.24L63.8498 4.21372L63.8491 4.22685V4.24H64.3491ZM64.3491 8.8H63.8491V9.3H64.3491V8.8ZM68.6211 8.776L68.6663 9.27395L68.6849 9.27226L68.7033 9.2692L68.6211 8.776ZM69.0531 8.56L68.6734 8.2346V8.2346L69.0531 8.56ZM69.1011 6.904L68.6108 7.00206L68.6139 7.01756L68.6179 7.03283L69.1011 6.904ZM68.6211 6.544H68.1211V7.044H68.6211V6.544ZM68.6211 6.232V5.732H68.1211V6.232H68.6211ZM69.5571 6.232H70.0571V5.732H69.5571V6.232ZM69.5571 11.8V12.3H70.0571V11.8H69.5571ZM68.6211 11.8H68.1211V12.3H68.6211V11.8ZM68.6211 11.464V10.964H68.1211V11.464H68.6211ZM69.1011 11.08L68.6144 10.9655L68.6117 10.9766L68.6096 10.9879L69.1011 11.08ZM68.8611 9.424L68.6515 9.87798L68.6718 9.88735L68.6929 9.89487L68.8611 9.424ZM67.6611 9.256L67.6746 8.756H67.6611V9.256ZM64.3491 9.256V8.756H63.8491V9.256H64.3491ZM64.3491 16H63.8491V16.0147L63.8499 16.0294L64.3491 16ZM64.5411 17.368L64.0572 17.4942L64.0587 17.4996L64.5411 17.368ZM65.2851 18.328L64.9929 18.7338L65.0005 18.7391L65.2851 18.328ZM70.3251 18.328L70.5108 18.7923L70.5195 18.7886L70.3251 18.328ZM71.7891 17.224L72.2193 17.4789L72.2232 17.4721L71.7891 17.224ZM72.4611 15.424L72.9456 15.5477L72.9478 15.5385L72.4611 15.424ZM73.1331 13.576V13.076H72.8537L72.7072 13.314L73.1331 13.576ZM73.1288 13.2096C72.7948 13.5198 72.611 13.9671 72.5209 14.4721L73.5053 14.6479C73.5751 14.2569 73.6953 14.0482 73.8093 13.9424L73.1288 13.2096ZM72.5181 14.4893C72.4489 14.9734 72.4171 15.666 72.4171 16.552H73.4171C73.4171 15.678 73.4492 15.0426 73.508 14.6307L72.5181 14.4893ZM72.4171 16.552V19H73.4171V16.552H72.4171ZM72.9171 18.5H60.7491V19.5H72.9171V18.5ZM61.2491 19V18.4H60.2491V19H61.2491ZM60.5985 18.8768C60.9398 18.9846 61.2712 19.044 61.5891 19.044V18.044C61.3949 18.044 61.1663 18.0074 60.8996 17.9232L60.5985 18.8768ZM61.5891 19.044C61.9787 19.044 62.3562 18.94 62.6386 18.6576L61.9315 17.9504C61.8939 17.988 61.8074 18.044 61.5891 18.044V19.044ZM62.6386 18.6576C62.9331 18.3631 63.0491 17.973 63.0491 17.56H62.0491C62.0491 17.787 61.989 17.8929 61.9315 17.9504L62.6386 18.6576ZM63.0491 17.56V2.68H62.0491V17.56H63.0491ZM63.0491 2.68C63.0491 2.27 62.9341 1.87432 62.6214 1.59003L61.9487 2.32997C61.988 2.36568 62.0491 2.45 62.0491 2.68H63.0491ZM62.655 1.62366C62.3754 1.31611 61.9922 1.196 61.5891 1.196V2.196C61.7939 2.196 61.8747 2.25188 61.9151 2.29634L62.655 1.62366ZM61.5891 1.196C61.2712 1.196 60.9398 1.25543 60.5985 1.36321L60.8996 2.31679C61.1663 2.23257 61.3949 2.196 61.5891 2.196V1.196ZM61.2491 1.84V1.24H60.2491V1.84H61.2491ZM60.7491 1.74H71.9091V0.74H60.7491V1.74ZM71.4117 1.18855L71.3397 1.88455L72.3344 1.98745L72.4064 1.29145L71.4117 1.18855ZM71.3432 1.85802C71.2895 2.1979 71.2651 2.61861 71.2651 3.112H72.2651C72.2651 2.64539 72.2886 2.2821 72.3309 2.01398L71.3432 1.85802ZM71.2651 3.112C71.2651 4.08525 71.379 4.89824 71.6408 5.51527L72.5614 5.12472C72.3751 4.68575 72.2651 4.02675 72.2651 3.112H71.2651ZM72.1011 4.82H71.7171V5.82H72.1011V4.82ZM72.16 5.088C72.0189 4.81875 71.9029 4.4384 71.8277 3.92725L70.8384 4.07275C70.9232 4.6496 71.0632 5.14925 71.2741 5.552L72.16 5.088ZM71.8239 3.90456C71.7064 3.30031 71.5399 2.78885 71.3058 2.39875L70.4483 2.91325C70.5983 3.16315 70.7357 3.54768 70.8423 4.09544L71.8239 3.90456ZM71.3112 2.40793C71.0349 1.92438 70.5145 1.58921 69.878 1.34836L69.5241 2.28364C70.0716 2.49079 70.3353 2.71562 70.4429 2.90407L71.3112 2.40793ZM69.878 1.34836C69.1997 1.09169 68.2383 0.98 67.0371 0.98V1.98C68.2038 1.98 69.0184 2.09231 69.5241 2.28364L69.878 1.34836ZM67.0371 0.98C66.1544 0.98 65.4042 1.12567 64.8891 1.512L65.4891 2.312C65.742 2.12233 66.2237 1.98 67.0371 1.98V0.98ZM64.8891 1.512C64.4477 1.843 64.1226 2.24533 64.0067 2.73219L64.9795 2.96381C65.0235 2.77866 65.1624 2.557 65.4891 2.312L64.8891 1.512ZM64.0028 2.74994C63.9316 3.10581 63.8821 3.59844 63.8498 4.21372L64.8484 4.26628C64.88 3.66556 64.9265 3.23019 64.9834 2.94606L64.0028 2.74994ZM63.8491 4.24V8.8H64.8491V4.24H63.8491ZM64.3491 9.3H67.6611V8.3H64.3491V9.3ZM67.6611 9.3C68.1236 9.3 68.4648 9.29227 68.6663 9.27395L68.5758 8.27805C68.4253 8.29173 68.1266 8.3 67.6611 8.3V9.3ZM68.7033 9.2692C68.9736 9.22413 69.2388 9.11157 69.4327 8.88539L68.6734 8.2346C68.6726 8.23555 68.6673 8.24185 68.6495 8.25079C68.6302 8.26041 68.5956 8.27334 68.5389 8.2828L68.7033 9.2692ZM69.4327 8.8854C69.6494 8.6326 69.6971 8.28632 69.6971 7.984H68.6971C68.6971 8.09318 68.6872 8.16604 68.676 8.21073C68.6647 8.25597 68.6567 8.25414 68.6734 8.2346L69.4327 8.8854ZM69.6971 7.984C69.6971 7.49295 69.6655 7.07994 69.5842 6.77517L68.6179 7.03283C68.6647 7.20806 68.6971 7.51505 68.6971 7.984H69.6971ZM69.5914 6.80594C69.5489 6.59355 69.4443 6.38343 69.2451 6.234C69.0521 6.08931 68.8268 6.044 68.6211 6.044V7.044C68.6531 7.044 68.6679 7.04761 68.6702 7.04826C68.6715 7.0486 68.6605 7.04561 68.6451 7.034C68.6376 7.02844 68.6306 7.02196 68.6245 7.01494C68.6183 7.00795 68.614 7.00154 68.6111 6.99664C68.6055 6.98688 68.6076 6.98629 68.6108 7.00206L69.5914 6.80594ZM69.1211 6.544V6.232H68.1211V6.544H69.1211ZM68.6211 6.732H69.5571V5.732H68.6211V6.732ZM69.0571 6.232V11.8H70.0571V6.232H69.0571ZM69.5571 11.3H68.6211V12.3H69.5571V11.3ZM69.1211 11.8V11.464H68.1211V11.8H69.1211ZM68.6211 11.964C68.8333 11.964 69.0635 11.9136 69.2574 11.7584C69.454 11.6012 69.5526 11.385 69.5925 11.1721L68.6096 10.9879C68.6054 11.0103 68.6014 11.0154 68.6044 11.0099C68.606 11.007 68.6091 11.002 68.6141 10.9958C68.6192 10.9896 68.6255 10.9833 68.6327 10.9776C68.6399 10.9718 68.6467 10.9676 68.6524 10.9647C68.658 10.9618 68.6615 10.9607 68.662 10.9606C68.6625 10.9605 68.6506 10.964 68.6211 10.964V11.964ZM69.5878 11.1945C69.6649 10.8668 69.6971 10.4378 69.6971 9.928H68.6971C68.6971 10.4102 68.6652 10.7492 68.6144 10.9655L69.5878 11.1945ZM69.6971 9.928C69.6971 9.72765 69.6528 9.51827 69.5291 9.33265C69.4033 9.14399 69.2239 9.02265 69.0292 8.95313L68.6929 9.89487C68.7091 9.90067 68.7135 9.90453 68.7111 9.90279C68.7081 9.90055 68.7023 9.89523 68.697 9.88735C68.692 9.87974 68.6915 9.87588 68.6926 9.88019C68.694 9.88525 68.6971 9.90009 68.6971 9.928H69.6971ZM69.0706 8.97002C68.9006 8.89157 68.6919 8.84528 68.4744 8.81483C68.2495 8.78335 67.9815 8.76448 67.6746 8.75618L67.6476 9.75582C67.9326 9.76352 68.1606 9.78065 68.3357 9.80517C68.5182 9.83071 68.6135 9.86042 68.6515 9.87798L69.0706 8.97002ZM67.6611 8.756H64.3491V9.756H67.6611V8.756ZM63.8491 9.256V16H64.8491V9.256H63.8491ZM63.8499 16.0294C63.8831 16.5933 63.9503 17.0842 64.0573 17.4942L65.0249 17.2418C64.9398 16.9158 64.879 16.4947 64.8482 15.9706L63.8499 16.0294ZM64.0587 17.4996C64.1939 17.9954 64.5325 18.4023 64.9929 18.7338L65.5772 17.9222C65.2376 17.6777 65.0802 17.4446 65.0234 17.2364L64.0587 17.4996ZM65.0005 18.7391C65.5396 19.1123 66.2932 19.26 67.1811 19.26V18.26C66.3729 18.26 65.8626 18.1197 65.5697 17.9169L65.0005 18.7391ZM67.1811 19.26C68.5791 19.26 69.7026 19.1155 70.5108 18.7922L70.1394 17.8638C69.5075 18.1165 68.535 18.26 67.1811 18.26V19.26ZM70.5195 18.7886C71.2868 18.4647 71.8859 18.0414 72.2192 17.4789L71.3589 16.9691C71.1802 17.2706 70.8033 17.5833 70.1306 17.8674L70.5195 18.7886ZM72.2232 17.4721C72.5097 16.9707 72.7474 16.3237 72.9455 15.5477L71.9766 15.3003C71.7907 16.0283 71.5805 16.5813 71.3549 16.9759L72.2232 17.4721ZM72.9478 15.5385C73.135 14.743 73.344 14.1872 73.5589 13.838L72.7072 13.314C72.4101 13.7968 72.1712 14.473 71.9744 15.3095L72.9478 15.5385ZM73.1331 14.076H73.4691V13.076H73.1331V14.076ZM90.3133 1.216H90.8133V0.715999H90.3133V1.216ZM90.3133 1.816L90.1696 2.29491L90.8133 2.48802V1.816H90.3133ZM88.4173 1.936L88.134 1.52398L88.1278 1.52829L88.1216 1.5328L88.4173 1.936ZM88.0573 19.48V19.98H88.5573V19.48H88.0573ZM87.5053 19.48L87.0848 19.7505L87.2325 19.98H87.5053V19.48ZM76.8973 2.992L77.3178 2.72147L76.3945 1.28638L76.3973 2.99282L76.8973 2.992ZM76.9213 17.56H77.4213V17.5592L76.9213 17.56ZM77.3533 18.28L77.0925 18.7068L77.1028 18.7127L77.3533 18.28ZM79.4173 18.4H79.9173V17.7178L79.2667 17.9232L79.4173 18.4ZM79.4173 19V19.5H79.9173V19H79.4173ZM74.1853 19H73.6853V19.5H74.1853V19ZM74.1853 18.4L74.3359 17.9232L73.6853 17.7178V18.4H74.1853ZM76.0093 18.28L75.7136 17.8768L75.7069 17.8817L75.7004 17.8868L76.0093 18.28ZM74.1853 1.84H73.6853V2.51201L74.329 2.31891L74.1853 1.84ZM74.1853 1.24V0.74H73.6853V1.24H74.1853ZM77.9533 1.24L78.3706 0.964569L78.2224 0.74H77.9533V1.24ZM87.5053 15.712L87.088 15.9874L88.0053 17.3772V15.712H87.5053ZM87.0973 1.936L86.8257 2.35578H86.8257L87.0973 1.936ZM85.1293 1.816H84.6293V2.49823L85.2799 2.29279L85.1293 1.816ZM85.1293 1.216V0.715999H84.6293V1.216H85.1293ZM89.8133 1.216V1.816H90.8133V1.216H89.8133ZM90.457 1.33709C90.0977 1.22929 89.745 1.172 89.4013 1.172V2.172C89.6336 2.172 89.889 2.21071 90.1696 2.29491L90.457 1.33709ZM89.4013 1.172C88.9291 1.172 88.4944 1.27622 88.134 1.52398L88.7006 2.34802C88.8522 2.24378 89.0735 2.172 89.4013 2.172V1.172ZM88.1216 1.5328C87.75 1.80535 87.5573 2.19677 87.5573 2.656H88.5573C88.5573 2.50723 88.6047 2.41865 88.713 2.3392L88.1216 1.5328ZM87.5573 2.656V19.48H88.5573V2.656H87.5573ZM88.0573 18.98H87.5053V19.98H88.0573V18.98ZM87.9258 19.2095L77.3178 2.72147L76.4768 3.26253L87.0848 19.7505L87.9258 19.2095ZM76.3973 2.99282L76.4213 17.5608L77.4213 17.5592L77.3973 2.99117L76.3973 2.99282ZM76.4213 17.56C76.4213 18.06 76.6756 18.4518 77.0926 18.7066L77.614 17.8534C77.4551 17.7562 77.4213 17.668 77.4213 17.56H76.4213ZM77.1028 18.7127C77.4986 18.9419 77.9574 19.044 78.4573 19.044V18.044C78.0932 18.044 77.816 17.9701 77.6038 17.8473L77.1028 18.7127ZM78.4573 19.044C78.8416 19.044 79.2126 18.989 79.5679 18.8768L79.2667 17.9232C79.014 18.003 78.745 18.044 78.4573 18.044V19.044ZM78.9173 18.4V19H79.9173V18.4H78.9173ZM79.4173 18.5H74.1853V19.5H79.4173V18.5ZM74.6853 19V18.4H73.6853V19H74.6853ZM74.0347 18.8768C74.3851 18.9874 74.7398 19.044 75.0973 19.044V18.044C74.8468 18.044 74.5936 18.0046 74.3359 17.9232L74.0347 18.8768ZM75.0973 19.044C75.5546 19.044 75.9798 18.939 76.3182 18.6732L75.7004 17.8868C75.5908 17.973 75.4081 18.044 75.0973 18.044V19.044ZM76.305 18.6832C76.6767 18.4107 76.8693 18.0192 76.8693 17.56H75.8693C75.8693 17.7088 75.822 17.7973 75.7136 17.8768L76.305 18.6832ZM76.8693 17.56V2.68H75.8693V17.56H76.8693ZM76.8693 2.68C76.8693 2.22077 76.6767 1.82935 76.305 1.5568L75.7136 2.3632C75.822 2.44265 75.8693 2.53123 75.8693 2.68H76.8693ZM76.305 1.5568C75.9573 1.3018 75.5327 1.196 75.0733 1.196V2.196C75.3819 2.196 75.5814 2.2662 75.7136 2.3632L76.305 1.5568ZM75.0733 1.196C74.743 1.196 74.398 1.25416 74.0416 1.36109L74.329 2.31891C74.6126 2.23384 74.8596 2.196 75.0733 2.196V1.196ZM74.6853 1.84V1.24H73.6853V1.84H74.6853ZM74.1853 1.74H77.9533V0.74H74.1853V1.74ZM77.536 1.51543L87.088 15.9874L87.9226 15.4366L78.3706 0.964569L77.536 1.51543ZM88.0053 15.712V2.656H87.0053V15.712H88.0053ZM88.0053 2.656C88.0053 2.16947 87.7721 1.77711 87.3689 1.51621L86.8257 2.35578C86.9665 2.44689 87.0053 2.53453 87.0053 2.656H88.0053ZM87.3689 1.51621C86.9959 1.27486 86.5506 1.172 86.0653 1.172V2.172C86.412 2.172 86.6547 2.24514 86.8257 2.35578L87.3689 1.51621ZM86.0653 1.172C85.6944 1.172 85.3316 1.22777 84.9787 1.33921L85.2799 2.29279C85.535 2.21223 85.7962 2.172 86.0653 2.172V1.172ZM85.6293 1.816V1.216H84.6293V1.816H85.6293ZM85.1293 1.716H90.3133V0.715999H85.1293V1.716ZM103.589 1.936L104.083 2.01398L104.085 2.00076L104.086 1.98745L103.589 1.936ZM103.853 5.32V5.82H104.608L104.313 5.12472L103.853 5.32ZM103.469 5.32L103.026 5.552L103.166 5.82H103.469V5.32ZM103.085 4L103.58 3.92725L103.578 3.91586L103.576 3.90456L103.085 4ZM102.629 2.656L102.195 2.90412L102.2 2.91325L102.629 2.656ZM101.453 1.816L101.63 1.34836L101.453 1.816ZM98.0929 1.528L98.0309 1.03186L97.5929 1.08661V1.528H98.0929ZM98.3329 18.304L97.9629 18.6403L97.9789 18.658L97.9965 18.674L98.3329 18.304ZM99.8929 18.4H100.393V17.7178L99.7423 17.9232L99.8929 18.4ZM99.8929 19V19.5H100.393V19H99.8929ZM94.4929 19H93.9929V19.5H94.4929V19ZM94.4929 18.4L94.6366 17.9211L93.9929 17.728V18.4H94.4929ZM96.0289 18.304L96.3824 18.6576L96.0289 18.304ZM96.2929 1.528H96.7929V1.08661L96.3549 1.03186L96.2929 1.528ZM91.7809 2.656L92.2097 2.9133L92.215 2.90407L91.7809 2.656ZM91.3249 4L90.8341 3.90456L90.8319 3.91586L90.8302 3.92725L91.3249 4ZM90.9409 5.32V5.82H91.2434L91.3838 5.552L90.9409 5.32ZM90.5569 5.32L90.0966 5.12472L89.8016 5.82H90.5569V5.32ZM90.8209 1.936L90.3235 1.98745L90.3249 2.00076L90.327 2.01398L90.8209 1.936ZM90.7489 1.24V0.74H90.1945L90.2515 1.29145L90.7489 1.24ZM103.661 1.24L104.158 1.29145L104.215 0.74H103.661V1.24ZM103.095 1.85802C103.041 2.1979 103.017 2.61861 103.017 3.112H104.017C104.017 2.64539 104.04 2.2821 104.083 2.01398L103.095 1.85802ZM103.017 3.112C103.017 4.08525 103.131 4.89824 103.393 5.51527L104.313 5.12472C104.127 4.68575 104.017 4.02675 104.017 3.112H103.017ZM103.853 4.82H103.469V5.82H103.853V4.82ZM103.912 5.088C103.771 4.81875 103.655 4.4384 103.58 3.92725L102.59 4.07275C102.675 4.6496 102.815 5.14925 103.026 5.552L103.912 5.088ZM103.576 3.90456C103.458 3.30031 103.292 2.78885 103.058 2.39875L102.2 2.91325C102.35 3.16315 102.488 3.54768 102.594 4.09544L103.576 3.90456ZM103.063 2.40793C102.787 1.92438 102.266 1.58921 101.63 1.34836L101.276 2.28364C101.823 2.49079 102.087 2.71562 102.195 2.90407L103.063 2.40793ZM101.63 1.34836C100.951 1.09169 99.9901 0.98 98.7889 0.98V1.98C99.9556 1.98 100.77 2.09231 101.276 2.28364L101.63 1.34836ZM98.7889 0.98C98.5559 0.98 98.3028 0.997872 98.0309 1.03186L98.1549 2.02414C98.395 1.99413 98.6058 1.98 98.7889 1.98V0.98ZM97.5929 1.528V17.56H98.5929V1.528H97.5929ZM97.5929 17.56C97.5929 17.9608 97.6939 18.3445 97.9629 18.6403L98.7028 17.9677C98.6518 17.9115 98.5929 17.7992 98.5929 17.56H97.5929ZM97.9965 18.674C98.288 18.9389 98.6602 19.044 99.0529 19.044V18.044C98.8375 18.044 98.7298 17.9891 98.6692 17.934L97.9965 18.674ZM99.0529 19.044C99.3707 19.044 99.7022 18.9846 100.043 18.8768L99.7423 17.9232C99.4756 18.0074 99.2471 18.044 99.0529 18.044V19.044ZM99.3929 18.4V19H100.393V18.4H99.3929ZM99.8929 18.5H94.4929V19.5H99.8929V18.5ZM94.9929 19V18.4H93.9929V19H94.9929ZM94.3492 18.8789C94.699 18.9839 95.0293 19.044 95.3329 19.044V18.044C95.1564 18.044 94.9267 18.0081 94.6366 17.9211L94.3492 18.8789ZM95.3329 19.044C95.7225 19.044 96.1 18.94 96.3824 18.6576L95.6753 17.9504C95.6377 17.988 95.5512 18.044 95.3329 18.044V19.044ZM96.3824 18.6576C96.6769 18.3631 96.7929 17.973 96.7929 17.56H95.7929C95.7929 17.787 95.7328 17.8929 95.6753 17.9504L96.3824 18.6576ZM96.7929 17.56V1.528H95.7929V17.56H96.7929ZM96.3549 1.03186C96.0848 0.998101 95.8393 0.98 95.6209 0.98V1.98C95.7865 1.98 95.9889 1.9939 96.2309 2.02414L96.3549 1.03186ZM95.6209 0.98C94.4196 0.98 93.4583 1.09169 92.7799 1.34836L93.1338 2.28364C93.6395 2.09231 94.4541 1.98 95.6209 1.98V0.98ZM92.7799 1.34836C92.1434 1.58921 91.6231 1.92438 91.3468 2.40793L92.215 2.90407C92.3227 2.71562 92.5864 2.49079 93.1338 2.28364L92.7799 1.34836ZM91.3521 2.39875C91.1181 2.78885 90.9516 3.30031 90.8341 3.90456L91.8157 4.09544C91.9222 3.54768 92.0597 3.16315 92.2096 2.91325L91.3521 2.39875ZM90.8302 3.92725C90.755 4.4384 90.639 4.81875 90.498 5.08799L91.3838 5.552C91.5948 5.14925 91.7347 4.6496 91.8196 4.07275L90.8302 3.92725ZM90.9409 4.82H90.5569V5.82H90.9409V4.82ZM91.0172 5.51527C91.2789 4.89824 91.3929 4.08525 91.3929 3.112H90.3929C90.3929 4.02675 90.2828 4.68575 90.0966 5.12472L91.0172 5.51527ZM91.3929 3.112C91.3929 2.61861 91.3684 2.1979 91.3148 1.85802L90.327 2.01398C90.3693 2.2821 90.3929 2.64539 90.3929 3.112H91.3929ZM91.3182 1.88455L91.2462 1.18855L90.2515 1.29145L90.3235 1.98745L91.3182 1.88455ZM90.7489 1.74H103.661V0.74H90.7489V1.74ZM103.164 1.18855L103.092 1.88455L104.086 1.98745L104.158 1.29145L103.164 1.18855ZM107.481 18.904L107.23 19.3364L107.242 19.3429L107.481 18.904ZM105.681 17.128L106.1 16.8546L105.463 15.8801L105.195 17.0126L105.681 17.128ZM105.345 18.544V19.044H105.74L105.832 18.6594L105.345 18.544ZM104.865 18.544H104.365V19.044H104.865V18.544ZM104.865 12.016V11.516H104.365V12.016H104.865ZM105.513 12.016H106.013V11.516H105.513V12.016ZM106.641 17.176L106.211 17.4317L106.214 17.4356L106.641 17.176ZM111.897 18.496L112.191 18.9004L112.199 18.8945L111.897 18.496ZM113.097 16.936L112.637 16.7404L113.097 16.936ZM112.905 12.712L112.486 12.9841L112.49 12.9907L112.495 12.9972L112.905 12.712ZM111.465 11.32L111.717 10.8881L111.465 11.32ZM109.185 10.216L108.989 10.676L108.99 10.6764L109.185 10.216ZM106.857 9.088L106.596 9.51473L106.605 9.51989L106.857 9.088ZM105.393 7.696L104.974 7.96809L104.978 7.97472L104.983 7.9812L105.393 7.696ZM105.441 3.04L105.012 2.78272L105.008 2.78986L105.441 3.04ZM107.169 1.36L106.93 0.920669L106.926 0.922921L107.169 1.36ZM111.297 1.048L111.131 1.51951L111.135 1.52097L111.297 1.048ZM112.713 1.792L112.403 2.18416L112.413 2.192L112.713 1.792ZM113.409 2.656L112.927 2.78982L113.904 2.72671L113.409 2.656ZM113.673 0.808V0.308H113.24L113.178 0.737289L113.673 0.808ZM114.129 0.808H114.629V0.308H114.129V0.808ZM114.129 5.584V6.084H114.629V5.584H114.129ZM113.577 5.584H113.077V6.084H113.577V5.584ZM111.993 1.912L111.684 2.30479L111.689 2.30918L111.993 1.912ZM107.553 2.296L107.191 1.95114L107.187 1.95577L107.553 2.296ZM107.145 6.856L106.742 7.15172L106.747 7.15819L107.145 6.856ZM108.441 8.008L108.186 8.43797L108.192 8.44131L108.441 8.008ZM110.553 9.064L110.346 9.51918L110.347 9.51943L110.553 9.064ZM113.025 10.36L112.755 10.7809L112.762 10.7849L112.768 10.7887L113.025 10.36ZM114.633 11.944L114.212 12.2145L114.22 12.226L114.633 11.944ZM114.609 16.816L115.039 17.0707L115.042 17.0669L114.609 16.816ZM110.289 18.98C109.169 18.98 108.325 18.7948 107.721 18.4651L107.242 19.3429C108.045 19.7812 109.073 19.98 110.289 19.98V18.98ZM107.732 18.4717C107.123 18.1173 106.577 17.5848 106.1 16.8546L105.263 17.4014C105.81 18.2392 106.464 18.8907 107.23 19.3363L107.732 18.4717ZM105.195 17.0126L104.859 18.4286L105.832 18.6594L106.168 17.2434L105.195 17.0126ZM105.345 18.044H104.865V19.044H105.345V18.044ZM105.365 18.544V12.016H104.365V18.544H105.365ZM104.865 12.516H105.513V11.516H104.865V12.516ZM105.013 12.016C105.013 14.2417 105.397 16.0618 106.211 17.4316L107.071 16.9204C106.382 15.7622 106.013 14.1423 106.013 12.016H105.013ZM106.214 17.4356C107.074 18.8519 108.374 19.572 110.049 19.572V18.572C108.716 18.572 107.744 18.0281 107.068 16.9164L106.214 17.4356ZM110.049 19.572C110.85 19.572 111.571 19.3515 112.191 18.9004L111.603 18.0916C111.167 18.4085 110.656 18.572 110.049 18.572V19.572ZM112.199 18.8945C112.8 18.4392 113.253 17.8477 113.557 17.1316L112.637 16.7404C112.397 17.3043 112.05 17.7528 111.595 18.0975L112.199 18.8945ZM113.557 17.1316C113.857 16.4275 114.005 15.6808 114.005 14.896H113.005C113.005 15.5512 112.882 16.1645 112.637 16.7404L113.557 17.1316ZM114.005 14.896C114.005 13.9402 113.787 13.1057 113.316 12.4268L112.495 12.9972C112.823 13.4703 113.005 14.0918 113.005 14.896H114.005ZM113.325 12.4399C112.901 11.7862 112.365 11.2658 111.717 10.8881L111.213 11.7519C111.718 12.0462 112.142 12.4538 112.486 12.9841L113.325 12.4399ZM111.717 10.8881C111.116 10.5374 110.335 10.16 109.38 9.75562L108.99 10.6764C109.924 11.072 110.663 11.4306 111.213 11.7519L111.717 10.8881ZM109.381 9.75604C108.415 9.34405 107.66 8.97733 107.109 8.65611L106.605 9.51989C107.207 9.87067 108.004 10.2559 108.989 10.676L109.381 9.75604ZM107.118 8.66136C106.603 8.34699 106.166 7.93202 105.804 7.4108L104.983 7.9812C105.421 8.61198 105.959 9.12501 106.596 9.51464L107.118 8.66136ZM105.813 7.4239C105.494 6.93221 105.317 6.28932 105.317 5.464H104.317C104.317 6.43068 104.525 7.27579 104.974 7.96809L105.813 7.4239ZM105.317 5.464C105.317 4.64879 105.505 3.92823 105.874 3.29014L105.008 2.78986C104.545 3.59177 104.317 4.48721 104.317 5.464H105.317ZM105.87 3.29725C106.258 2.65093 106.77 2.15362 107.412 1.79708L106.926 0.922921C106.128 1.36638 105.489 1.98907 105.012 2.78275L105.87 3.29725ZM107.408 1.79931C108.064 1.44261 108.805 1.26 109.641 1.26V0.259999C108.653 0.259999 107.746 0.47739 106.93 0.920688L107.408 1.79931ZM109.641 1.26C110.143 1.26 110.639 1.34578 111.131 1.51949L111.464 0.576504C110.868 0.366215 110.26 0.259999 109.641 0.259999V1.26ZM111.135 1.52097C111.652 1.6983 112.071 1.92169 112.403 2.18402L113.024 1.39998C112.587 1.05431 112.062 0.781694 111.459 0.575026L111.135 1.52097ZM112.413 2.192C112.759 2.45099 112.89 2.65551 112.927 2.78982L113.891 2.52218C113.768 2.08049 113.436 1.70901 113.013 1.392L112.413 2.192ZM113.904 2.72671L114.168 0.87871L113.178 0.737289L112.914 2.58529L113.904 2.72671ZM113.673 1.308H114.129V0.308H113.673V1.308ZM113.629 0.808V5.584H114.629V0.808H113.629ZM114.129 5.084H113.577V6.084H114.129V5.084ZM114.077 5.584C114.077 4.80324 113.938 4.05348 113.659 3.33823L112.727 3.70177C112.96 4.29852 113.077 4.92476 113.077 5.584H114.077ZM113.659 3.33823C113.371 2.59947 112.916 1.98806 112.297 1.51482L111.689 2.30918C112.159 2.66794 112.504 3.12852 112.727 3.70177L113.659 3.33823ZM112.303 1.51925C111.672 1.02261 110.902 0.787999 110.025 0.787999V1.788C110.716 1.788 111.258 1.96939 111.684 2.30475L112.303 1.51925ZM110.025 0.787999C108.893 0.787999 107.934 1.17097 107.191 1.95117L107.915 2.64083C108.452 2.07702 109.141 1.788 110.025 1.788V0.787999ZM107.187 1.95577C106.453 2.74593 106.117 3.81784 106.117 5.104H107.117C107.117 3.99016 107.405 3.19007 107.92 2.63622L107.187 1.95577ZM106.117 5.104C106.117 5.88115 106.318 6.57302 106.742 7.15168L107.548 6.56032C107.269 6.17898 107.117 5.70285 107.117 5.104H106.117ZM106.747 7.15819C107.139 7.67477 107.62 8.10174 108.186 8.43793L108.696 7.57807C108.239 7.30626 107.856 6.96523 107.544 6.55381L106.747 7.15819ZM108.192 8.44131C108.739 8.75649 109.459 9.11592 110.346 9.51918L110.76 8.60882C109.887 8.21208 109.199 7.86751 108.691 7.57469L108.192 8.44131ZM110.347 9.51943C111.359 9.978 112.159 10.3988 112.755 10.7809L113.295 9.93906C112.643 9.52124 111.796 9.078 110.76 8.60857L110.347 9.51943ZM112.768 10.7887C113.337 11.1305 113.819 11.6024 114.213 12.2144L115.054 11.6736C114.583 10.9416 113.993 10.3575 113.282 9.93125L112.768 10.7887ZM114.22 12.226C114.599 12.7803 114.805 13.4995 114.805 14.416H115.805C115.805 13.3485 115.564 12.4197 115.046 11.662L114.22 12.226ZM114.805 14.416C114.805 15.1149 114.603 15.8293 114.177 16.5651L115.042 17.0669C115.543 16.2027 115.805 15.3171 115.805 14.416H114.805ZM114.179 16.5613C113.755 17.2784 113.193 17.8619 112.49 18.316L113.032 19.156C113.865 18.6181 114.536 17.9216 115.039 17.0707L114.179 16.5613ZM112.49 18.316C111.799 18.7619 111.069 18.98 110.289 18.98V19.98C111.269 19.98 112.187 19.7021 113.032 19.156L112.49 18.316Z" fill="black" mask="url(#path-1-outside-1_17_42)"/>
</svg>
