<svg width="126" height="59" viewBox="0 0 126 59" fill="none" xmlns="http://www.w3.org/2000/svg">
<mask id="path-1-outside-1_2023_7" maskUnits="userSpaceOnUse" x="1" y="29" width="86" height="20" fill="black">
<rect fill="white" x="1" y="29" width="86" height="20"/>
<path d="M1.96 47.4C2.264 47.496 2.544 47.544 2.8 47.544C3.104 47.544 3.336 47.464 3.496 47.304C3.672 47.128 3.76 46.88 3.76 46.56V31.68C3.76 31.36 3.672 31.12 3.496 30.96C3.336 30.784 3.104 30.696 2.8 30.696C2.544 30.696 2.264 30.744 1.96 30.84V30.24H9.376C10.752 30.24 12.016 30.592 13.168 31.296C14.336 32 15.256 32.992 15.928 34.272C16.6 35.552 16.936 37.008 16.936 38.64C16.936 40.288 16.592 41.832 15.904 43.272C15.232 44.712 14.312 45.864 13.144 46.728C11.992 47.576 10.736 48 9.376 48H1.96V47.4ZM8.848 47.592C9.76 47.592 10.688 47.288 11.632 46.68C12.592 46.072 13.4 45.128 14.056 43.848C14.712 42.552 15.04 40.944 15.04 39.024C15.04 37.536 14.752 36.152 14.176 34.872C13.616 33.576 12.856 32.544 11.896 31.776C10.952 31.008 9.936 30.624 8.848 30.624H6.688C6.4 30.624 6.136 30.712 5.896 30.888C5.672 31.048 5.56 31.312 5.56 31.68V46.56C5.56 46.928 5.672 47.192 5.896 47.352C6.136 47.512 6.4 47.592 6.688 47.592H8.848ZM31.5784 42.576C31.3544 42.784 31.2024 43.112 31.1224 43.56C31.0584 44.008 31.0264 44.672 31.0264 45.552V48H18.8584V47.4C19.1624 47.496 19.4424 47.544 19.6984 47.544C20.0024 47.544 20.2344 47.464 20.3944 47.304C20.5704 47.128 20.6584 46.88 20.6584 46.56V31.68C20.6584 31.36 20.5704 31.12 20.3944 30.96C20.2344 30.784 20.0024 30.696 19.6984 30.696C19.4424 30.696 19.1624 30.744 18.8584 30.84V30.24H30.0184L29.9464 30.936C29.8984 31.24 29.8744 31.632 29.8744 32.112C29.8744 33.056 29.9864 33.792 30.2104 34.32H29.8264C29.6504 33.984 29.5224 33.544 29.4424 33C29.3304 32.424 29.1784 31.976 28.9864 31.656C28.7944 31.32 28.4024 31.04 27.8104 30.816C27.2184 30.592 26.3304 30.48 25.1464 30.48C24.2984 30.48 23.6824 30.624 23.2984 30.912C22.9144 31.2 22.6824 31.512 22.6024 31.848C22.5384 32.168 22.4904 32.632 22.4584 33.24V37.8H25.7704C26.2344 37.8 26.5544 37.792 26.7304 37.776C26.9224 37.744 27.0664 37.672 27.1624 37.56C27.2584 37.448 27.3064 37.256 27.3064 36.984C27.3064 36.504 27.2744 36.144 27.2104 35.904C27.1624 35.664 27.0024 35.544 26.7304 35.544V35.232H27.6664V40.8H26.7304V40.464C27.0024 40.464 27.1624 40.336 27.2104 40.08C27.2744 39.808 27.3064 39.424 27.3064 38.928C27.3064 38.672 27.1944 38.504 26.9704 38.424C26.7624 38.328 26.3624 38.272 25.7704 38.256H22.4584V45C22.4904 45.544 22.5544 46 22.6504 46.368C22.7464 46.72 22.9944 47.04 23.3944 47.328C23.8104 47.616 24.4424 47.76 25.2904 47.76C26.6664 47.76 27.7144 47.616 28.4344 47.328C29.1544 47.024 29.6424 46.656 29.8984 46.224C30.1544 45.776 30.3784 45.176 30.5704 44.424C30.7624 43.608 30.9864 42.992 31.2424 42.576H31.5784ZM38.7267 48.48C37.5587 48.48 36.6227 48.288 35.9187 47.904C35.2307 47.504 34.6307 46.912 34.1187 46.128L33.7827 47.544H33.3027V41.016H33.9507C33.9507 43.192 34.3267 44.912 35.0787 46.176C35.8467 47.44 36.9827 48.072 38.4867 48.072C39.1907 48.072 39.8067 47.88 40.3347 47.496C40.8627 47.096 41.2627 46.576 41.5347 45.936C41.8067 45.296 41.9427 44.616 41.9427 43.896C41.9427 43.016 41.7427 42.288 41.3427 41.712C40.9587 41.12 40.4787 40.656 39.9027 40.32C39.3267 39.984 38.5667 39.616 37.6227 39.216C36.6467 38.8 35.8707 38.424 35.2947 38.088C34.7187 37.736 34.2307 37.272 33.8307 36.696C33.4467 36.104 33.2547 35.36 33.2547 34.464C33.2547 33.568 33.4627 32.76 33.8787 32.04C34.3107 31.32 34.8867 30.76 35.6067 30.36C36.3427 29.96 37.1667 29.76 38.0787 29.76C38.6387 29.76 39.1907 29.856 39.7347 30.048C40.2947 30.24 40.7667 30.488 41.1507 30.792C41.5347 31.08 41.7667 31.368 41.8467 31.656L42.1107 29.808H42.5667V34.584H42.0147C42.0147 33.864 41.8867 33.176 41.6307 32.52C41.3747 31.864 40.9747 31.328 40.4307 30.912C39.9027 30.496 39.2467 30.288 38.4627 30.288C37.4547 30.288 36.6307 30.624 35.9907 31.296C35.3667 31.968 35.0547 32.904 35.0547 34.104C35.0547 34.792 35.2307 35.376 35.5827 35.856C35.9347 36.32 36.3667 36.704 36.8787 37.008C37.4067 37.312 38.1107 37.664 38.9907 38.064C40.0147 38.528 40.8387 38.96 41.4627 39.36C42.1027 39.744 42.6387 40.272 43.0707 40.944C43.5187 41.6 43.7427 42.424 43.7427 43.416C43.7427 44.216 43.5107 45.016 43.0467 45.816C42.5827 46.6 41.9667 47.24 41.1987 47.736C40.4307 48.232 39.6067 48.48 38.7267 48.48ZM45.9053 47.4C46.2093 47.496 46.4893 47.544 46.7453 47.544C47.0493 47.544 47.2813 47.464 47.4413 47.304C47.6173 47.128 47.7053 46.88 47.7053 46.56V31.68C47.7053 31.36 47.6173 31.12 47.4413 30.96C47.2813 30.784 47.0493 30.696 46.7453 30.696C46.4893 30.696 46.2093 30.744 45.9053 30.84V30.24H51.3053V30.84C51.0013 30.744 50.7213 30.696 50.4653 30.696C50.1613 30.696 49.9213 30.784 49.7453 30.96C49.5853 31.12 49.5053 31.36 49.5053 31.68V46.56C49.5053 46.88 49.5853 47.128 49.7453 47.304C49.9213 47.464 50.1613 47.544 50.4653 47.544C50.7213 47.544 51.0013 47.496 51.3053 47.4V48H45.9053V47.4ZM61.4978 48.48C60.0098 48.48 58.6498 48.056 57.4178 47.208C56.2018 46.344 55.2338 45.2 54.5138 43.776C53.8098 42.336 53.4578 40.784 53.4578 39.12C53.4578 37.44 53.7858 35.888 54.4418 34.464C55.1138 33.024 56.0418 31.88 57.2258 31.032C58.4258 30.184 59.7778 29.76 61.2818 29.76C62.3538 29.76 63.3858 30.048 64.3778 30.624C65.3858 31.2 66.1458 31.832 66.6578 32.52L67.0178 30.168H67.4258V35.52H66.6578C66.6578 34.64 66.4498 33.8 66.0338 33C65.6178 32.184 64.9858 31.52 64.1378 31.008C63.3058 30.496 62.2738 30.24 61.0418 30.24C59.9378 30.24 58.9618 30.648 58.1138 31.464C57.2658 32.28 56.6178 33.36 56.1698 34.704C55.7218 36.048 55.4978 37.488 55.4978 39.024C55.4978 40.64 55.7058 42.128 56.1218 43.488C56.5378 44.832 57.2018 45.92 58.1138 46.752C59.0418 47.584 60.2098 48 61.6178 48C62.6418 48 63.5218 47.72 64.2578 47.16C64.9938 46.6 65.5458 45.896 65.9138 45.048C66.2978 44.184 66.4898 43.312 66.4898 42.432C66.4898 41.712 66.4338 41.16 66.3218 40.776C66.2258 40.392 66.0338 40.2 65.7458 40.2L63.9938 40.176C63.0178 40.176 62.4418 40.224 62.2658 40.32C62.0898 40.416 62.0018 40.608 62.0018 40.896C62.0178 41.184 62.0258 41.384 62.0258 41.496C62.0258 41.848 62.0578 42.12 62.1218 42.312C62.1858 42.488 62.3298 42.584 62.5538 42.6V42.912H61.6178V39.72H68.0738V45.648C67.7858 45.648 67.4338 45.76 67.0178 45.984C66.7458 46.144 66.4578 46.328 66.1538 46.536C65.3058 47.112 64.5138 47.584 63.7778 47.952C63.0418 48.304 62.2818 48.48 61.4978 48.48ZM85.6414 30.216V30.816C85.3214 30.72 85.0174 30.672 84.7294 30.672C84.3294 30.672 84.0014 30.76 83.7454 30.936C83.5054 31.112 83.3854 31.352 83.3854 31.656V48.48H82.8334L72.2254 31.992L72.2494 46.56C72.2494 46.864 72.3934 47.104 72.6814 47.28C72.9854 47.456 73.3534 47.544 73.7854 47.544C74.1214 47.544 74.4414 47.496 74.7454 47.4V48H69.5134V47.4C69.8174 47.496 70.1214 47.544 70.4254 47.544C70.8094 47.544 71.1134 47.456 71.3374 47.28C71.5774 47.104 71.6974 46.864 71.6974 46.56V31.68C71.6974 31.376 71.5774 31.136 71.3374 30.96C71.0974 30.784 70.7854 30.696 70.4014 30.696C70.1294 30.696 69.8334 30.744 69.5134 30.84V30.24H73.2814L82.8334 44.712V31.656C82.8334 31.352 82.6974 31.112 82.4254 30.936C82.1534 30.76 81.8094 30.672 81.3934 30.672C81.0734 30.672 80.7614 30.72 80.4574 30.816V30.216H85.6414Z"/>
</mask>
<path d="M1.96 47.4L2.11057 46.9232L1.46 46.7178V47.4H1.96ZM3.496 47.304L3.14245 46.9504L3.496 47.304ZM3.496 30.96L3.12603 31.2963L3.14205 31.314L3.15966 31.33L3.496 30.96ZM1.96 30.84H1.46V31.5222L2.11057 31.3168L1.96 30.84ZM1.96 30.24V29.74H1.46V30.24H1.96ZM13.168 31.296L12.9073 31.7226L12.9099 31.7242L13.168 31.296ZM15.928 34.272L16.3707 34.0396L15.928 34.272ZM15.904 43.272L15.4528 43.0564L15.4509 43.0606L15.904 43.272ZM13.144 46.728L13.4404 47.1307L13.4414 47.13L13.144 46.728ZM1.96 48H1.46V48.5H1.96V48ZM11.632 46.68L11.3645 46.2576L11.3613 46.2596L11.632 46.68ZM14.056 43.848L14.501 44.076L14.5021 44.0738L14.056 43.848ZM14.176 34.872L13.717 35.0703L13.72 35.0772L14.176 34.872ZM11.896 31.776L11.5804 32.1639L11.5837 32.1664L11.896 31.776ZM5.896 30.888L6.18664 31.2949L6.19168 31.2912L5.896 30.888ZM5.896 47.352L5.60538 47.7589L5.61194 47.7636L5.61865 47.768L5.896 47.352ZM1.80943 47.8768C2.15072 47.9846 2.48218 48.044 2.8 48.044V47.044C2.60582 47.044 2.37728 47.0074 2.11057 46.9232L1.80943 47.8768ZM2.8 48.044C3.18968 48.044 3.56713 47.94 3.84955 47.6576L3.14245 46.9504C3.10487 46.988 3.01832 47.044 2.8 47.044V48.044ZM3.84955 47.6576C4.14405 47.3631 4.26 46.973 4.26 46.56H3.26C3.26 46.787 3.19995 46.8929 3.14245 46.9504L3.84955 47.6576ZM4.26 46.56V31.68H3.26V46.56H4.26ZM4.26 31.68C4.26 31.27 4.14506 30.8743 3.83234 30.59L3.15966 31.33C3.19894 31.3657 3.26 31.45 3.26 31.68H4.26ZM3.86597 30.6237C3.58638 30.3161 3.20317 30.196 2.8 30.196V31.196C3.00483 31.196 3.08562 31.2519 3.12603 31.2963L3.86597 30.6237ZM2.8 30.196C2.48218 30.196 2.15072 30.2554 1.80943 30.3632L2.11057 31.3168C2.37728 31.2326 2.60582 31.196 2.8 31.196V30.196ZM2.46 30.84V30.24H1.46V30.84H2.46ZM1.96 30.74H9.376V29.74H1.96V30.74ZM9.376 30.74C10.6619 30.74 11.8354 31.0676 12.9073 31.7226L13.4287 30.8694C12.1966 30.1164 10.8421 29.74 9.376 29.74V30.74ZM12.9099 31.7242C13.9949 32.3782 14.8531 33.3003 15.4853 34.5044L16.3707 34.0396C15.6589 32.6837 14.6771 31.6218 13.4261 30.8678L12.9099 31.7242ZM15.4853 34.5044C16.115 35.7039 16.436 37.0784 16.436 38.64H17.436C17.436 36.9376 17.085 35.4001 16.3707 34.0396L15.4853 34.5044ZM16.436 38.64C16.436 40.2159 16.1076 41.686 15.4528 43.0564L16.3552 43.4876C17.0764 41.978 17.436 40.3601 17.436 38.64H16.436ZM15.4509 43.0606C14.8108 44.4323 13.9415 45.5161 12.8467 46.326L13.4414 47.13C14.6825 46.2119 15.6532 44.9917 16.3571 43.4834L15.4509 43.0606ZM12.8476 46.3253C11.7767 47.1136 10.6236 47.5 9.376 47.5V48.5C10.8484 48.5 12.2073 48.0384 13.4404 47.1307L12.8476 46.3253ZM9.376 47.5H1.96V48.5H9.376V47.5ZM2.46 48V47.4H1.46V48H2.46ZM8.848 48.092C9.8761 48.092 10.8967 47.7483 11.9027 47.1004L11.3613 46.2596C10.4793 46.8277 9.6439 47.092 8.848 47.092V48.092ZM11.8995 47.1024C12.9525 46.4355 13.8149 45.4147 14.501 44.076L13.611 43.62C12.9851 44.8413 12.2315 45.7085 11.3645 46.2576L11.8995 47.1024ZM14.5021 44.0738C15.2031 42.689 15.54 40.9982 15.54 39.024H14.54C14.54 40.8898 14.2209 42.415 13.6099 43.6222L14.5021 44.0738ZM15.54 39.024C15.54 37.4696 15.2387 36.0152 14.632 34.6668L13.72 35.0772C14.2653 36.2888 14.54 37.6024 14.54 39.024H15.54ZM14.635 34.6737C14.0474 33.3138 13.2411 32.2118 12.2083 31.3856L11.5837 32.1664C12.4709 32.8762 13.1846 33.8382 13.717 35.0703L14.635 34.6737ZM12.2115 31.3881C11.1896 30.5567 10.0646 30.124 8.848 30.124V31.124C9.80738 31.124 10.7144 31.4593 11.5805 32.1639L12.2115 31.3881ZM8.848 30.124H6.688V31.124H8.848V30.124ZM6.688 30.124C6.28991 30.124 5.92301 30.2482 5.60032 30.4848L6.19168 31.2912C6.34899 31.1758 6.51009 31.124 6.688 31.124V30.124ZM5.60538 30.4811C5.2081 30.7649 5.06 31.21 5.06 31.68H6.06C6.06 31.414 6.1359 31.3311 6.18662 31.2949L5.60538 30.4811ZM5.06 31.68V46.56H6.06V31.68H5.06ZM5.06 46.56C5.06 47.03 5.2081 47.4751 5.60538 47.7589L6.18662 46.9451C6.1359 46.9089 6.06 46.826 6.06 46.56H5.06ZM5.61865 47.768C5.94065 47.9827 6.30113 48.092 6.688 48.092V47.092C6.49888 47.092 6.33135 47.0413 6.17335 46.936L5.61865 47.768ZM6.688 48.092H8.848V47.092H6.688V48.092ZM31.5784 42.576L31.9187 42.9424L32.8517 42.076H31.5784V42.576ZM31.1224 43.56L30.6302 43.4721L30.6287 43.4807L30.6275 43.4893L31.1224 43.56ZM31.0264 48V48.5H31.5264V48H31.0264ZM18.8584 48H18.3584V48.5H18.8584V48ZM18.8584 47.4L19.009 46.9232L18.3584 46.7178V47.4H18.8584ZM20.3944 47.304L20.0409 46.9504L20.3944 47.304ZM20.3944 30.96L20.0245 31.2963L20.0405 31.314L20.0581 31.33L20.3944 30.96ZM18.8584 30.84H18.3584V31.5222L19.009 31.3168L18.8584 30.84ZM18.8584 30.24V29.74H18.3584V30.24H18.8584ZM30.0184 30.24L30.5158 30.2914L30.5728 29.74H30.0184V30.24ZM29.9464 30.936L30.4403 31.014L30.4424 31.0008L30.4438 30.9874L29.9464 30.936ZM30.2104 34.32V34.82H30.9657L30.6707 34.1247L30.2104 34.32ZM29.8264 34.32L29.3835 34.552L29.5239 34.82H29.8264V34.32ZM29.4424 33L29.9371 32.9273L29.9354 32.9159L29.9332 32.9046L29.4424 33ZM28.9864 31.656L28.5522 31.9041L28.5577 31.9132L28.9864 31.656ZM22.6024 31.848L22.116 31.7322L22.1139 31.741L22.1121 31.7499L22.6024 31.848ZM22.4584 33.24L21.9591 33.2137L21.9584 33.2269V33.24H22.4584ZM22.4584 37.8H21.9584V38.3H22.4584V37.8ZM26.7304 37.776L26.7757 38.2739L26.7943 38.2723L26.8126 38.2692L26.7304 37.776ZM27.1624 37.56L26.7828 37.2346L26.7828 37.2346L27.1624 37.56ZM27.2104 35.904L26.7201 36.0021L26.7232 36.0176L26.7273 36.0328L27.2104 35.904ZM26.7304 35.544H26.2304V36.044H26.7304V35.544ZM26.7304 35.232V34.732H26.2304V35.232H26.7304ZM27.6664 35.232H28.1664V34.732H27.6664V35.232ZM27.6664 40.8V41.3H28.1664V40.8H27.6664ZM26.7304 40.8H26.2304V41.3H26.7304V40.8ZM26.7304 40.464V39.964H26.2304V40.464H26.7304ZM27.2104 40.08L26.7237 39.9655L26.7211 39.9766L26.719 39.9879L27.2104 40.08ZM26.9704 38.424L26.7609 38.878L26.7812 38.8874L26.8023 38.8949L26.9704 38.424ZM25.7704 38.256L25.784 37.756H25.7704V38.256ZM22.4584 38.256V37.756H21.9584V38.256H22.4584ZM22.4584 45H21.9584V45.0147L21.9593 45.0294L22.4584 45ZM22.6504 46.368L22.1666 46.4942L22.1681 46.4996L22.6504 46.368ZM23.3944 47.328L23.1022 47.7338L23.1098 47.7391L23.3944 47.328ZM28.4344 47.328L28.6202 47.7923L28.6289 47.7886L28.4344 47.328ZM29.8984 46.224L30.3286 46.4789L30.3326 46.4721L29.8984 46.224ZM30.5704 44.424L31.055 44.5477L31.0571 44.5385L30.5704 44.424ZM31.2424 42.576V42.076H30.963L30.8166 42.314L31.2424 42.576ZM31.2382 42.2096C30.9042 42.5198 30.7204 42.9671 30.6302 43.4721L31.6147 43.6479C31.6845 43.2569 31.8047 43.0482 31.9187 42.9424L31.2382 42.2096ZM30.6275 43.4893C30.5583 43.9734 30.5264 44.666 30.5264 45.552H31.5264C31.5264 44.678 31.5586 44.0426 31.6174 43.6307L30.6275 43.4893ZM30.5264 45.552V48H31.5264V45.552H30.5264ZM31.0264 47.5H18.8584V48.5H31.0264V47.5ZM19.3584 48V47.4H18.3584V48H19.3584ZM18.7079 47.8768C19.0492 47.9846 19.3806 48.044 19.6984 48.044V47.044C19.5043 47.044 19.2757 47.0074 19.009 46.9232L18.7079 47.8768ZM19.6984 48.044C20.0881 48.044 20.4656 47.94 20.748 47.6576L20.0409 46.9504C20.0033 46.988 19.9168 47.044 19.6984 47.044V48.044ZM20.748 47.6576C21.0425 47.3631 21.1584 46.973 21.1584 46.56H20.1584C20.1584 46.787 20.0984 46.8929 20.0409 46.9504L20.748 47.6576ZM21.1584 46.56V31.68H20.1584V46.56H21.1584ZM21.1584 31.68C21.1584 31.27 21.0435 30.8743 20.7308 30.59L20.0581 31.33C20.0974 31.3657 20.1584 31.45 20.1584 31.68H21.1584ZM20.7644 30.6237C20.4848 30.3161 20.1016 30.196 19.6984 30.196V31.196C19.9033 31.196 19.9841 31.2519 20.0245 31.2963L20.7644 30.6237ZM19.6984 30.196C19.3806 30.196 19.0492 30.2554 18.7079 30.3632L19.009 31.3168C19.2757 31.2326 19.5043 31.196 19.6984 31.196V30.196ZM19.3584 30.84V30.24H18.3584V30.84H19.3584ZM18.8584 30.74H30.0184V29.74H18.8584V30.74ZM29.5211 30.1886L29.4491 30.8846L30.4438 30.9874L30.5158 30.2914L29.5211 30.1886ZM29.4526 30.858C29.3989 31.1979 29.3744 31.6186 29.3744 32.112H30.3744C30.3744 31.6454 30.398 31.2821 30.4403 31.014L29.4526 30.858ZM29.3744 32.112C29.3744 33.0853 29.4884 33.8982 29.7501 34.5153L30.6707 34.1247C30.4845 33.6858 30.3744 33.0267 30.3744 32.112H29.3744ZM30.2104 33.82H29.8264V34.82H30.2104V33.82ZM30.2694 34.088C30.1283 33.8187 30.0123 33.4384 29.9371 32.9273L28.9478 33.0727C29.0326 33.6496 29.1726 34.1493 29.3835 34.552L30.2694 34.088ZM29.9332 32.9046C29.8158 32.3003 29.6492 31.7888 29.4152 31.3988L28.5577 31.9132C28.7076 32.1631 28.8451 32.5477 28.9516 33.0954L29.9332 32.9046ZM29.4206 31.4079C29.1442 30.9244 28.6239 30.5892 27.9874 30.3484L27.6335 31.2836C28.181 31.4908 28.4446 31.7156 28.5523 31.9041L29.4206 31.4079ZM27.9874 30.3484C27.3091 30.0917 26.3477 29.98 25.1464 29.98V30.98C26.3132 30.98 27.1278 31.0923 27.6335 31.2836L27.9874 30.3484ZM25.1464 29.98C24.2638 29.98 23.5135 30.1257 22.9984 30.512L23.5984 31.312C23.8513 31.1223 24.3331 30.98 25.1464 30.98V29.98ZM22.9984 30.512C22.5571 30.843 22.232 31.2453 22.116 31.7322L23.0888 31.9638C23.1329 31.7787 23.2718 31.557 23.5984 31.312L22.9984 30.512ZM22.1121 31.7499C22.041 32.1058 21.9915 32.5984 21.9591 33.2137L22.9577 33.2663C22.9894 32.6656 23.0359 32.2302 23.0927 31.9461L22.1121 31.7499ZM21.9584 33.24V37.8H22.9584V33.24H21.9584ZM22.4584 38.3H25.7704V37.3H22.4584V38.3ZM25.7704 38.3C26.2329 38.3 26.5742 38.2923 26.7757 38.2739L26.6852 37.2781C26.5347 37.2917 26.2359 37.3 25.7704 37.3V38.3ZM26.8126 38.2692C27.083 38.2241 27.3482 38.1116 27.5421 37.8854L26.7828 37.2346C26.782 37.2355 26.7767 37.2418 26.7588 37.2508C26.7396 37.2604 26.705 37.2733 26.6482 37.2828L26.8126 38.2692ZM27.5421 37.8854C27.7588 37.6326 27.8064 37.2863 27.8064 36.984H26.8064C26.8064 37.0932 26.7965 37.166 26.7854 37.2107C26.7741 37.256 26.7661 37.2541 26.7828 37.2346L27.5421 37.8854ZM27.8064 36.984C27.8064 36.4929 27.7748 36.0799 27.6936 35.7752L26.7273 36.0328C26.774 36.2081 26.8064 36.5151 26.8064 36.984H27.8064ZM27.7007 35.8059C27.6583 35.5935 27.5537 35.3834 27.3544 35.234C27.1615 35.0893 26.9362 35.044 26.7304 35.044V36.044C26.7625 36.044 26.7773 36.0476 26.7796 36.0483C26.7808 36.0486 26.7699 36.0456 26.7544 36.034C26.747 36.0284 26.74 36.022 26.7338 36.0149C26.7277 36.0079 26.7233 36.0015 26.7205 35.9966C26.7149 35.9869 26.717 35.9863 26.7201 36.0021L27.7007 35.8059ZM27.2304 35.544V35.232H26.2304V35.544H27.2304ZM26.7304 35.732H27.6664V34.732H26.7304V35.732ZM27.1664 35.232V40.8H28.1664V35.232H27.1664ZM27.6664 40.3H26.7304V41.3H27.6664V40.3ZM27.2304 40.8V40.464H26.2304V40.8H27.2304ZM26.7304 40.964C26.9427 40.964 27.1728 40.9136 27.3668 40.7584C27.5634 40.6012 27.662 40.385 27.7019 40.1721L26.719 39.9879C26.7148 40.0103 26.7108 40.0154 26.7138 40.0099C26.7153 40.007 26.7184 40.002 26.7235 39.9958C26.7286 39.9896 26.7349 39.9833 26.7421 39.9776C26.7493 39.9718 26.7561 39.9676 26.7618 39.9647C26.7674 39.9618 26.7709 39.9607 26.7714 39.9606C26.7719 39.9605 26.76 39.964 26.7304 39.964V40.964ZM27.6971 40.1945C27.7743 39.8668 27.8064 39.4378 27.8064 38.928H26.8064C26.8064 39.4102 26.7746 39.7492 26.7237 39.9655L27.6971 40.1945ZM27.8064 38.928C27.8064 38.7277 27.7622 38.5183 27.6385 38.3326C27.5127 38.144 27.3333 38.0226 27.1386 37.9531L26.8023 38.8949C26.8185 38.9007 26.8229 38.9045 26.8205 38.9028C26.8175 38.9006 26.8117 38.8952 26.8064 38.8873C26.8013 38.8797 26.8009 38.8759 26.802 38.8802C26.8034 38.8853 26.8064 38.9001 26.8064 38.928H27.8064ZM27.18 37.97C27.01 37.8916 26.8013 37.8453 26.5838 37.8148C26.3589 37.7833 26.0909 37.7645 25.7839 37.7562L25.7569 38.7558C26.042 38.7635 26.27 38.7807 26.4451 38.8052C26.6276 38.8307 26.7229 38.8604 26.7609 38.878L27.18 37.97ZM25.7704 37.756H22.4584V38.756H25.7704V37.756ZM21.9584 38.256V45H22.9584V38.256H21.9584ZM21.9593 45.0294C21.9925 45.5933 22.0597 46.0842 22.1666 46.4942L23.1342 46.2418C23.0492 45.9158 22.9884 45.4947 22.9576 44.9706L21.9593 45.0294ZM22.1681 46.4996C22.3033 46.9954 22.6419 47.4023 23.1023 47.7338L23.6866 46.9222C23.347 46.6777 23.1896 46.4446 23.1328 46.2364L22.1681 46.4996ZM23.1098 47.7391C23.6489 48.1123 24.4026 48.26 25.2904 48.26V47.26C24.4823 47.26 23.9719 47.1197 23.679 46.9169L23.1098 47.7391ZM25.2904 48.26C26.6885 48.26 27.812 48.1155 28.6201 47.7922L28.2487 46.8638C27.6169 47.1165 26.6444 47.26 25.2904 47.26V48.26ZM28.6289 47.7886C29.3962 47.4647 29.9953 47.0414 30.3286 46.4789L29.4683 45.9691C29.2896 46.2706 28.9127 46.5833 28.24 46.8674L28.6289 47.7886ZM30.3326 46.4721C30.619 45.9707 30.8568 45.3237 31.0549 44.5477L30.086 44.3003C29.9001 45.0283 29.6898 45.5813 29.4643 45.9759L30.3326 46.4721ZM31.0571 44.5385C31.2443 43.743 31.4534 43.1872 31.6683 42.838L30.8166 42.314C30.5195 42.7968 30.2805 43.473 30.0837 44.3095L31.0571 44.5385ZM31.2424 43.076H31.5784V42.076H31.2424V43.076ZM35.9187 47.904L35.6673 48.3364L35.6793 48.3429L35.9187 47.904ZM34.1187 46.128L34.5373 45.8546L33.9009 44.8801L33.6322 46.0126L34.1187 46.128ZM33.7827 47.544V48.044H34.1779L34.2692 47.6594L33.7827 47.544ZM33.3027 47.544H32.8027V48.044H33.3027V47.544ZM33.3027 41.016V40.516H32.8027V41.016H33.3027ZM33.9507 41.016H34.4507V40.516H33.9507V41.016ZM35.0787 46.176L34.649 46.4317L34.6514 46.4356L35.0787 46.176ZM40.3347 47.496L40.6288 47.9004L40.6366 47.8945L40.3347 47.496ZM41.5347 45.936L41.0745 45.7404L41.5347 45.936ZM41.3427 41.712L40.9232 41.9841L40.9275 41.9907L40.932 41.9972L41.3427 41.712ZM39.9027 40.32L40.1546 39.8881L39.9027 40.32ZM37.6227 39.216L37.4266 39.676L37.4276 39.6764L37.6227 39.216ZM35.2947 38.088L35.0339 38.5147L35.0428 38.5199L35.2947 38.088ZM33.8307 36.696L33.4112 36.9681L33.4155 36.9747L33.42 36.9812L33.8307 36.696ZM33.8787 32.04L33.4499 31.7827L33.4458 31.7899L33.8787 32.04ZM35.6067 30.36L35.3679 29.9207L35.3639 29.9229L35.6067 30.36ZM39.7347 30.048L39.5683 30.5195L39.5725 30.521L39.7347 30.048ZM41.1507 30.792L40.8402 31.1842L40.8507 31.192L41.1507 30.792ZM41.8467 31.656L41.3649 31.7898L42.3417 31.7267L41.8467 31.656ZM42.1107 29.808V29.308H41.677L41.6157 29.7373L42.1107 29.808ZM42.5667 29.808H43.0667V29.308H42.5667V29.808ZM42.5667 34.584V35.084H43.0667V34.584H42.5667ZM42.0147 34.584H41.5147V35.084H42.0147V34.584ZM40.4307 30.912L40.1212 31.3048L40.127 31.3092L40.4307 30.912ZM35.9907 31.296L35.6286 30.9511L35.6243 30.9558L35.9907 31.296ZM35.5827 35.856L35.1794 36.1517L35.1843 36.1582L35.5827 35.856ZM36.8787 37.008L36.6234 37.438L36.6292 37.4413L36.8787 37.008ZM38.9907 38.064L38.7838 38.5192L38.7843 38.5194L38.9907 38.064ZM41.4627 39.36L41.1929 39.7809L41.1991 39.7849L41.2054 39.7887L41.4627 39.36ZM43.0707 40.944L42.6499 41.2145L42.6578 41.226L43.0707 40.944ZM43.0467 45.816L43.477 46.0707L43.4792 46.0669L43.0467 45.816ZM38.7267 47.98C37.6068 47.98 36.7627 47.7948 36.1581 47.4651L35.6793 48.3429C36.4826 48.7812 37.5106 48.98 38.7267 48.98V47.98ZM36.17 47.4717C35.5603 47.1173 35.0142 46.5848 34.5373 45.8546L33.7001 46.4014C34.2472 47.2392 34.9011 47.8907 35.6674 48.3363L36.17 47.4717ZM33.6322 46.0126L33.2962 47.4286L34.2692 47.6594L34.6052 46.2434L33.6322 46.0126ZM33.7827 47.044H33.3027V48.044H33.7827V47.044ZM33.8027 47.544V41.016H32.8027V47.544H33.8027ZM33.3027 41.516H33.9507V40.516H33.3027V41.516ZM33.4507 41.016C33.4507 43.2417 33.834 45.0618 34.649 46.4316L35.5084 45.9204C34.8194 44.7622 34.4507 43.1423 34.4507 41.016H33.4507ZM34.6514 46.4356C35.5119 47.8519 36.8117 48.572 38.4867 48.572V47.572C37.1537 47.572 36.1814 47.0281 35.506 45.9164L34.6514 46.4356ZM38.4867 48.572C39.2876 48.572 40.0085 48.3515 40.6288 47.9004L40.0406 47.0916C39.6049 47.4085 39.0938 47.572 38.4867 47.572V48.572ZM40.6366 47.8945C41.2377 47.4392 41.6905 46.8477 41.9949 46.1316L41.0745 45.7404C40.8349 46.3043 40.4877 46.7528 40.0328 47.0975L40.6366 47.8945ZM41.9949 46.1316C42.2941 45.4275 42.4427 44.6808 42.4427 43.896H41.4427C41.4427 44.5512 41.3193 45.1645 41.0745 45.7404L41.9949 46.1316ZM42.4427 43.896C42.4427 42.9402 42.2248 42.1057 41.7534 41.4268L40.932 41.9972C41.2606 42.4703 41.4427 43.0918 41.4427 43.896H42.4427ZM41.7622 41.4399C41.3381 40.7862 40.8021 40.2658 40.1546 39.8881L39.6508 40.7519C40.1552 41.0462 40.5792 41.4538 40.9232 41.9841L41.7622 41.4399ZM40.1546 39.8881C39.5533 39.5374 38.7721 39.16 37.8178 38.7556L37.4276 39.6764C38.3613 40.072 39.1 40.4306 39.6508 40.7519L40.1546 39.8881ZM37.8187 38.756C36.8521 38.344 36.0973 37.9773 35.5466 37.6561L35.0428 38.5199C35.6441 38.8707 36.4412 39.2559 37.4266 39.676L37.8187 38.756ZM35.5554 37.6614C35.041 37.347 34.6033 36.932 34.2414 36.4108L33.42 36.9812C33.858 37.612 34.3964 38.125 35.034 38.5146L35.5554 37.6614ZM34.2502 36.4239C33.9312 35.9322 33.7547 35.2893 33.7547 34.464H32.7547C32.7547 35.4307 32.9621 36.2758 33.4112 36.9681L34.2502 36.4239ZM33.7547 34.464C33.7547 33.6488 33.9429 32.9282 34.3116 32.2901L33.4458 31.7899C32.9824 32.5918 32.7547 33.4872 32.7547 34.464H33.7547ZM34.3074 32.2972C34.6952 31.6509 35.2077 31.1536 35.8495 30.7971L35.3639 29.9229C34.5656 30.3664 33.9262 30.9891 33.4499 31.7828L34.3074 32.2972ZM35.8454 30.7993C36.5018 30.4426 37.2425 30.26 38.0787 30.26V29.26C37.0909 29.26 36.1836 29.4774 35.3679 29.9207L35.8454 30.7993ZM38.0787 30.26C38.5803 30.26 39.0761 30.3458 39.5683 30.5195L39.9011 29.5765C39.3053 29.3662 38.6971 29.26 38.0787 29.26V30.26ZM39.5725 30.521C40.0897 30.6983 40.509 30.9217 40.8403 31.184L41.461 30.4C41.0244 30.0543 40.4996 29.7817 39.8969 29.575L39.5725 30.521ZM40.8507 31.192C41.196 31.451 41.3276 31.6555 41.3649 31.7898L42.3284 31.5222C42.2058 31.0805 41.8734 30.709 41.4507 30.392L40.8507 31.192ZM42.3417 31.7267L42.6057 29.8787L41.6157 29.7373L41.3517 31.5853L42.3417 31.7267ZM42.1107 30.308H42.5667V29.308H42.1107V30.308ZM42.0667 29.808V34.584H43.0667V29.808H42.0667ZM42.5667 34.084H42.0147V35.084H42.5667V34.084ZM42.5147 34.584C42.5147 33.8032 42.3756 33.0535 42.0965 32.3382L41.1649 32.7018C41.3978 33.2985 41.5147 33.9248 41.5147 34.584H42.5147ZM42.0965 32.3382C41.8082 31.5995 41.3533 30.9881 40.7344 30.5148L40.127 31.3092C40.5961 31.6679 40.9412 32.1285 41.1649 32.7018L42.0965 32.3382ZM40.7401 30.5193C40.1098 30.0226 39.3395 29.788 38.4627 29.788V30.788C39.1539 30.788 39.6956 30.9694 40.1213 31.3047L40.7401 30.5193ZM38.4627 29.788C37.331 29.788 36.3717 30.171 35.6286 30.9512L36.3528 31.6408C36.8897 31.077 37.5784 30.788 38.4627 30.788V29.788ZM35.6243 30.9558C34.8906 31.7459 34.5547 32.8178 34.5547 34.104H35.5547C35.5547 32.9902 35.8428 32.1901 36.3571 31.6362L35.6243 30.9558ZM34.5547 34.104C34.5547 34.8811 34.7551 35.573 35.1795 36.1517L35.9859 35.5603C35.7062 35.179 35.5547 34.7028 35.5547 34.104H34.5547ZM35.1843 36.1582C35.5762 36.6748 36.0572 37.1017 36.6234 37.4379L37.134 36.5781C36.6762 36.3063 36.2931 35.9652 35.981 35.5538L35.1843 36.1582ZM36.6292 37.4413C37.1766 37.7565 37.8966 38.1159 38.7838 38.5192L39.1976 37.6088C38.3248 37.2121 37.6368 36.8675 37.1282 36.5747L36.6292 37.4413ZM38.7843 38.5194C39.7963 38.978 40.5967 39.3988 41.1929 39.7809L41.7325 38.9391C41.0807 38.5212 40.233 38.078 39.1971 37.6086L38.7843 38.5194ZM41.2054 39.7887C41.775 40.1305 42.2567 40.6024 42.6501 41.2144L43.4913 40.6736C43.0207 39.9416 42.4304 39.3575 41.7199 38.9313L41.2054 39.7887ZM42.6578 41.226C43.0364 41.7803 43.2427 42.4995 43.2427 43.416H44.2427C44.2427 42.3485 44.001 41.4197 43.4836 40.662L42.6578 41.226ZM43.2427 43.416C43.2427 44.1149 43.041 44.8293 42.6142 45.5651L43.4792 46.0669C43.9804 45.2027 44.2427 44.3171 44.2427 43.416H43.2427ZM42.6164 45.5613C42.192 46.2784 41.6306 46.8619 40.9274 47.316L41.47 48.156C42.3028 47.6181 42.9734 46.9216 43.477 46.0707L42.6164 45.5613ZM40.9274 47.316C40.2369 47.7619 39.5066 47.98 38.7267 47.98V48.98C39.7068 48.98 40.6244 48.7021 41.47 48.156L40.9274 47.316ZM45.9053 47.4L46.0559 46.9232L45.4053 46.7178V47.4H45.9053ZM47.4413 47.304L47.0878 46.9504L47.4413 47.304ZM47.4413 30.96L47.0713 31.2963L47.0874 31.314L47.105 31.33L47.4413 30.96ZM45.9053 30.84H45.4053V31.5222L46.0559 31.3168L45.9053 30.84ZM45.9053 30.24V29.74H45.4053V30.24H45.9053ZM51.3053 30.24H51.8053V29.74H51.3053V30.24ZM51.3053 30.84L51.1547 31.3168L51.8053 31.5222V30.84H51.3053ZM49.7453 30.96L49.3918 30.6064V30.6064L49.7453 30.96ZM49.7453 47.304L49.3753 47.6403L49.3914 47.658L49.409 47.674L49.7453 47.304ZM51.3053 47.4H51.8053V46.7178L51.1547 46.9232L51.3053 47.4ZM51.3053 48V48.5H51.8053V48H51.3053ZM45.9053 48H45.4053V48.5H45.9053V48ZM45.7547 47.8768C46.096 47.9846 46.4275 48.044 46.7453 48.044V47.044C46.5511 47.044 46.3226 47.0074 46.0559 46.9232L45.7547 47.8768ZM46.7453 48.044C47.135 48.044 47.5124 47.94 47.7949 47.6576L47.0878 46.9504C47.0502 46.988 46.9636 47.044 46.7453 47.044V48.044ZM47.7949 47.6576C48.0894 47.3631 48.2053 46.973 48.2053 46.56H47.2053C47.2053 46.787 47.1453 46.8929 47.0878 46.9504L47.7949 47.6576ZM48.2053 46.56V31.68H47.2053V46.56H48.2053ZM48.2053 31.68C48.2053 31.27 48.0904 30.8743 47.7776 30.59L47.105 31.33C47.1443 31.3657 47.2053 31.45 47.2053 31.68H48.2053ZM47.8113 30.6237C47.5317 30.3161 47.1485 30.196 46.7453 30.196V31.196C46.9501 31.196 47.0309 31.2519 47.0713 31.2963L47.8113 30.6237ZM46.7453 30.196C46.4275 30.196 46.096 30.2554 45.7547 30.3632L46.0559 31.3168C46.3226 31.2326 46.5511 31.196 46.7453 31.196V30.196ZM46.4053 30.84V30.24H45.4053V30.84H46.4053ZM45.9053 30.74H51.3053V29.74H45.9053V30.74ZM50.8053 30.24V30.84H51.8053V30.24H50.8053ZM51.4559 30.3632C51.1146 30.2554 50.7831 30.196 50.4653 30.196V31.196C50.6595 31.196 50.888 31.2326 51.1547 31.3168L51.4559 30.3632ZM50.4653 30.196C50.0599 30.196 49.6815 30.3167 49.3918 30.6064L50.0989 31.3136C50.1611 31.2513 50.2627 31.196 50.4653 31.196V30.196ZM49.3918 30.6064C49.1049 30.8933 49.0053 31.2829 49.0053 31.68H50.0053C50.0053 31.4371 50.0657 31.3467 50.0989 31.3136L49.3918 30.6064ZM49.0053 31.68V46.56H50.0053V31.68H49.0053ZM49.0053 46.56C49.0053 46.9608 49.1064 47.3445 49.3753 47.6403L50.1153 46.9677C50.0643 46.9115 50.0053 46.7992 50.0053 46.56H49.0053ZM49.409 47.674C49.7004 47.9389 50.0727 48.044 50.4653 48.044V47.044C50.2499 47.044 50.1422 46.9891 50.0816 46.934L49.409 47.674ZM50.4653 48.044C50.7831 48.044 51.1146 47.9846 51.4559 47.8768L51.1547 46.9232C50.888 47.0074 50.6595 47.044 50.4653 47.044V48.044ZM50.8053 47.4V48H51.8053V47.4H50.8053ZM51.3053 47.5H45.9053V48.5H51.3053V47.5ZM46.4053 48V47.4H45.4053V48H46.4053ZM57.4178 47.208L57.1282 47.6156L57.1343 47.6199L57.4178 47.208ZM54.5138 43.776L54.0646 43.9956L54.0676 44.0016L54.5138 43.776ZM54.4418 34.464L53.9887 34.2526L53.9877 34.2548L54.4418 34.464ZM57.2258 31.032L56.9373 30.6237L56.9347 30.6255L57.2258 31.032ZM64.3778 30.624L64.1267 31.0564L64.1297 31.0581L64.3778 30.624ZM66.6578 32.52L66.2567 32.8185L66.971 33.7784L67.1521 32.5956L66.6578 32.52ZM67.0178 30.168V29.668H66.5885L66.5236 30.0923L67.0178 30.168ZM67.4258 30.168H67.9258V29.668H67.4258V30.168ZM67.4258 35.52V36.02H67.9258V35.52H67.4258ZM66.6578 35.52H66.1578V36.02H66.6578V35.52ZM66.0338 33L65.5883 33.2271L65.5902 33.2307L66.0338 33ZM64.1378 31.008L63.8758 31.4338L63.8794 31.436L64.1378 31.008ZM56.1698 34.704L55.6955 34.5459V34.5459L56.1698 34.704ZM56.1218 43.488L55.6437 43.6343L55.6442 43.6358L56.1218 43.488ZM58.1138 46.752L57.7768 47.1214L57.78 47.1243L58.1138 46.752ZM64.2578 47.16L63.9551 46.7621L64.2578 47.16ZM65.9138 45.048L65.4569 44.8449L65.4551 44.849L65.9138 45.048ZM66.3218 40.776L65.8367 40.8973L65.8391 40.9067L65.8418 40.916L66.3218 40.776ZM65.7458 40.2L65.739 40.7H65.7458V40.2ZM63.9938 40.176L64.0007 39.676H63.9938V40.176ZM62.2658 40.32L62.0264 39.8811L62.2658 40.32ZM62.0018 40.896H61.5018V40.9099L61.5026 40.9237L62.0018 40.896ZM62.1218 42.312L61.6473 42.4702L61.6519 42.4829L62.1218 42.312ZM62.5538 42.6H63.0538V42.1344L62.5894 42.1013L62.5538 42.6ZM62.5538 42.912V43.412H63.0538V42.912H62.5538ZM61.6178 42.912H61.1178V43.412H61.6178V42.912ZM61.6178 39.72V39.22H61.1178V39.72H61.6178ZM68.0738 39.72H68.5738V39.22H68.0738V39.72ZM68.0738 45.648V46.148H68.5738V45.648H68.0738ZM67.0178 45.984L66.7808 45.5438L66.7724 45.5482L66.7643 45.553L67.0178 45.984ZM66.1538 46.536L66.4348 46.9496L66.4362 46.9487L66.1538 46.536ZM63.7778 47.952L63.9936 48.4031L64.0014 48.3992L63.7778 47.952ZM61.4978 47.98C60.1116 47.98 58.8504 47.587 57.7013 46.7961L57.1343 47.6199C58.4493 48.525 59.908 48.98 61.4978 48.98V47.98ZM57.7074 46.8004C56.5622 45.9867 55.646 44.9071 54.96 43.5504L54.0676 44.0016C54.8216 45.4929 55.8414 46.7013 57.1282 47.6156L57.7074 46.8004ZM54.963 43.5564C54.2937 42.1874 53.9578 40.7109 53.9578 39.12H52.9578C52.9578 40.8571 53.3259 42.4846 54.0646 43.9956L54.963 43.5564ZM53.9578 39.12C53.9578 37.507 54.2723 36.027 54.8959 34.6732L53.9877 34.2548C53.2993 35.749 52.9578 37.373 52.9578 39.12H53.9578ZM54.8949 34.6754C55.534 33.306 56.4091 32.232 57.517 31.4385L56.9347 30.6255C55.6746 31.528 54.6936 32.742 53.9887 34.2526L54.8949 34.6754ZM57.5144 31.4403C58.6279 30.6535 59.8786 30.26 61.2818 30.26V29.26C59.6771 29.26 58.2238 29.7145 56.9373 30.6237L57.5144 31.4403ZM61.2818 30.26C62.2594 30.26 63.2055 30.5215 64.1267 31.0564L64.6289 30.1916C63.5662 29.5745 62.4482 29.26 61.2818 29.26V30.26ZM64.1297 31.0581C65.0979 31.6113 65.7976 32.2016 66.2567 32.8185L67.0589 32.2215C66.494 31.4624 65.6737 30.7887 64.6259 30.1899L64.1297 31.0581ZM67.1521 32.5956L67.5121 30.2436L66.5236 30.0923L66.1636 32.4443L67.1521 32.5956ZM67.0178 30.668H67.4258V29.668H67.0178V30.668ZM66.9258 30.168V35.52H67.9258V30.168H66.9258ZM67.4258 35.02H66.6578V36.02H67.4258V35.02ZM67.1578 35.52C67.1578 34.5577 66.9295 33.6387 66.4774 32.7693L65.5902 33.2307C65.9701 33.9613 66.1578 34.7223 66.1578 35.52H67.1578ZM66.4793 32.7729C66.0174 31.867 65.3174 31.1361 64.3962 30.58L63.8794 31.436C64.6543 31.9039 65.2182 32.501 65.5884 33.2271L66.4793 32.7729ZM64.3999 30.5822C63.4709 30.0105 62.3424 29.74 61.0418 29.74V30.74C62.2052 30.74 63.1407 30.9815 63.8758 31.4338L64.3999 30.5822ZM61.0418 29.74C59.7994 29.74 58.7015 30.2046 57.7671 31.1037L58.4605 31.8243C59.2221 31.0914 60.0762 30.74 61.0418 30.74V29.74ZM57.7671 31.1037C56.8501 31.9861 56.1639 33.1407 55.6955 34.5459L56.6442 34.8621C57.0718 33.5793 57.6815 32.5739 58.4605 31.8243L57.7671 31.1037ZM55.6955 34.5459C55.2291 35.945 54.9978 37.4388 54.9978 39.024H55.9978C55.9978 37.5372 56.2145 36.151 56.6442 34.8621L55.6955 34.5459ZM54.9978 39.024C54.9978 40.6829 55.2114 42.2209 55.6437 43.6343L56.5999 43.3417C56.2003 42.0351 55.9978 40.5971 55.9978 39.024H54.9978ZM55.6442 43.6358C56.0828 45.0528 56.7903 46.2214 57.7768 47.1214L58.4508 46.3826C57.6133 45.6186 56.9929 44.6112 56.5995 43.3402L55.6442 43.6358ZM57.78 47.1243C58.8118 48.0493 60.1038 48.5 61.6178 48.5V47.5C60.3159 47.5 59.2719 47.1187 58.4476 46.3797L57.78 47.1243ZM61.6178 48.5C62.7388 48.5 63.7282 48.1913 64.5606 47.5579L63.9551 46.7621C63.3155 47.2487 62.5448 47.5 61.6178 47.5V48.5ZM64.5606 47.5579C65.3647 46.9461 65.9704 46.1736 66.3725 45.247L65.4551 44.849C65.1212 45.6184 64.6229 46.2539 63.9551 46.7621L64.5606 47.5579ZM66.3707 45.2511C66.781 44.328 66.9898 43.3871 66.9898 42.432H65.9898C65.9898 43.2369 65.8146 44.04 65.4569 44.8449L66.3707 45.2511ZM66.9898 42.432C66.9898 41.696 66.9337 41.0881 66.8018 40.636L65.8418 40.916C65.934 41.2319 65.9898 41.728 65.9898 42.432H66.9898ZM66.8069 40.6547C66.7464 40.4126 66.6423 40.1734 66.4594 39.9904C66.2635 39.7945 66.0135 39.7 65.7458 39.7V40.7C65.7615 40.7 65.7636 40.7024 65.7581 40.7002C65.7521 40.6978 65.7497 40.695 65.7523 40.6976C65.7613 40.7066 65.8013 40.7554 65.8367 40.8973L66.8069 40.6547ZM65.7527 39.7L64.0007 39.676L63.987 40.676L65.739 40.7L65.7527 39.7ZM63.9938 39.676C63.5 39.676 63.0963 39.6881 62.7883 39.7137C62.6346 39.7265 62.4965 39.7434 62.3788 39.7659C62.2713 39.7865 62.1403 39.8189 62.0264 39.8811L62.5052 40.7589C62.4794 40.7731 62.4863 40.7635 62.5668 40.7481C62.6371 40.7346 62.7371 40.7215 62.8713 40.7103C63.1393 40.6879 63.5117 40.676 63.9938 40.676V39.676ZM62.0264 39.8811C61.6242 40.1004 61.5018 40.5144 61.5018 40.896H62.5018C62.5018 40.7992 62.5171 40.7557 62.5223 40.7443C62.5244 40.7399 62.5239 40.7424 62.5189 40.7479C62.5137 40.7535 62.5083 40.7573 62.5052 40.7589L62.0264 39.8811ZM61.5026 40.9237C61.5186 41.2124 61.5258 41.3996 61.5258 41.496H62.5258C62.5258 41.3684 62.517 41.1556 62.501 40.8683L61.5026 40.9237ZM61.5258 41.496C61.5258 41.8682 61.5584 42.2029 61.6475 42.4701L62.5962 42.1539C62.5572 42.0371 62.5258 41.8278 62.5258 41.496H61.5258ZM61.6519 42.4829C61.7172 42.6623 61.8324 42.82 62.0005 42.932C62.1629 43.0403 62.3449 43.0863 62.5182 43.0987L62.5894 42.1013C62.5388 42.0977 62.5368 42.0877 62.5552 42.1C62.5645 42.1062 62.5741 42.115 62.582 42.1253C62.5896 42.1352 62.592 42.1419 62.5917 42.1411L61.6519 42.4829ZM62.0538 42.6V42.912H63.0538V42.6H62.0538ZM62.5538 42.412H61.6178V43.412H62.5538V42.412ZM62.1178 42.912V39.72H61.1178V42.912H62.1178ZM61.6178 40.22H68.0738V39.22H61.6178V40.22ZM67.5738 39.72V45.648H68.5738V39.72H67.5738ZM68.0738 45.148C67.6662 45.148 67.2282 45.3028 66.7808 45.5438L67.2549 46.4242C67.6394 46.2172 67.9054 46.148 68.0738 46.148V45.148ZM66.7643 45.553C66.481 45.7197 66.1834 45.9099 65.8715 46.1233L66.4362 46.9487C66.7323 46.7461 67.0106 46.5683 67.2713 46.415L66.7643 45.553ZM65.8729 46.1224C65.039 46.6888 64.2663 47.1488 63.5542 47.5048L64.0014 48.3992C64.7614 48.0192 65.5727 47.5352 66.4348 46.9496L65.8729 46.1224ZM63.5621 47.5009C62.8906 47.8221 62.2041 47.98 61.4978 47.98V48.98C62.3595 48.98 63.193 48.7859 63.9935 48.4031L63.5621 47.5009ZM85.6414 30.216H86.1414V29.716H85.6414V30.216ZM85.6414 30.816L85.4978 31.2949L86.1414 31.488V30.816H85.6414ZM83.7454 30.936L83.4622 30.524L83.4559 30.5283L83.4498 30.5328L83.7454 30.936ZM83.3854 48.48V48.98H83.8854V48.48H83.3854ZM82.8334 48.48L82.4129 48.7505L82.5606 48.98H82.8334V48.48ZM72.2254 31.992L72.6459 31.7215L71.7226 30.2864L71.7254 31.9928L72.2254 31.992ZM72.2494 46.56H72.7494V46.5592L72.2494 46.56ZM72.6814 47.28L72.4206 47.7068L72.4309 47.7127L72.6814 47.28ZM74.7454 47.4H75.2454V46.7178L74.5949 46.9232L74.7454 47.4ZM74.7454 48V48.5H75.2454V48H74.7454ZM69.5134 48H69.0134V48.5H69.5134V48ZM69.5134 47.4L69.664 46.9232L69.0134 46.7178V47.4H69.5134ZM71.3374 47.28L71.0418 46.8768L71.0351 46.8817L71.0285 46.8868L71.3374 47.28ZM69.5134 30.84H69.0134V31.512L69.6571 31.3189L69.5134 30.84ZM69.5134 30.24V29.74H69.0134V30.24H69.5134ZM73.2814 30.24L73.6987 29.9646L73.5505 29.74H73.2814V30.24ZM82.8334 44.712L82.4161 44.9874L83.3334 46.3772V44.712H82.8334ZM82.4254 30.936L82.1538 31.3558H82.1538L82.4254 30.936ZM80.4574 30.816H79.9574V31.4982L80.608 31.2928L80.4574 30.816ZM80.4574 30.216V29.716H79.9574V30.216H80.4574ZM85.1414 30.216V30.816H86.1414V30.216H85.1414ZM85.7851 30.3371C85.4258 30.2293 85.0732 30.172 84.7294 30.172V31.172C84.9617 31.172 85.2171 31.2107 85.4978 31.2949L85.7851 30.3371ZM84.7294 30.172C84.2572 30.172 83.8226 30.2762 83.4622 30.524L84.0287 31.348C84.1803 31.2438 84.4016 31.172 84.7294 31.172V30.172ZM83.4498 30.5328C83.0781 30.8053 82.8854 31.1968 82.8854 31.656H83.8854C83.8854 31.5072 83.9328 31.4187 84.0411 31.3392L83.4498 30.5328ZM82.8854 31.656V48.48H83.8854V31.656H82.8854ZM83.3854 47.98H82.8334V48.98H83.3854V47.98ZM83.2539 48.2095L72.6459 31.7215L71.8049 32.2625L82.4129 48.7505L83.2539 48.2095ZM71.7254 31.9928L71.7494 46.5608L72.7494 46.5592L72.7254 31.9912L71.7254 31.9928ZM71.7494 46.56C71.7494 47.06 72.0037 47.4518 72.4207 47.7066L72.9422 46.8534C72.7832 46.7562 72.7494 46.668 72.7494 46.56H71.7494ZM72.4309 47.7127C72.8267 47.9419 73.2856 48.044 73.7854 48.044V47.044C73.4213 47.044 73.1441 46.9701 72.932 46.8473L72.4309 47.7127ZM73.7854 48.044C74.1697 48.044 74.5407 47.989 74.896 47.8768L74.5949 46.9232C74.3421 47.003 74.0731 47.044 73.7854 47.044V48.044ZM74.2454 47.4V48H75.2454V47.4H74.2454ZM74.7454 47.5H69.5134V48.5H74.7454V47.5ZM70.0134 48V47.4H69.0134V48H70.0134ZM69.3629 47.8768C69.7132 47.9874 70.0679 48.044 70.4254 48.044V47.044C70.175 47.044 69.9217 47.0046 69.664 46.9232L69.3629 47.8768ZM70.4254 48.044C70.8827 48.044 71.308 47.939 71.6463 47.6732L71.0285 46.8868C70.9189 46.973 70.7362 47.044 70.4254 47.044V48.044ZM71.6331 47.6832C72.0048 47.4107 72.1974 47.0192 72.1974 46.56H71.1974C71.1974 46.7088 71.1501 46.7973 71.0418 46.8768L71.6331 47.6832ZM72.1974 46.56V31.68H71.1974V46.56H72.1974ZM72.1974 31.68C72.1974 31.2208 72.0048 30.8293 71.6331 30.5568L71.0418 31.3632C71.1501 31.4426 71.1974 31.5312 71.1974 31.68H72.1974ZM71.6331 30.5568C71.2854 30.3018 70.8609 30.196 70.4014 30.196V31.196C70.71 31.196 70.9095 31.2662 71.0418 31.3632L71.6331 30.5568ZM70.4014 30.196C70.0712 30.196 69.7262 30.2542 69.3698 30.3611L69.6571 31.3189C69.9407 31.2338 70.1877 31.196 70.4014 31.196V30.196ZM70.0134 30.84V30.24H69.0134V30.84H70.0134ZM69.5134 30.74H73.2814V29.74H69.5134V30.74ZM72.8641 30.5154L82.4161 44.9874L83.2507 44.4366L73.6987 29.9646L72.8641 30.5154ZM83.3334 44.712V31.656H82.3334V44.712H83.3334ZM83.3334 31.656C83.3334 31.1695 83.1003 30.7771 82.6971 30.5162L82.1538 31.3558C82.2946 31.4469 82.3334 31.5345 82.3334 31.656H83.3334ZM82.6971 30.5162C82.3241 30.2749 81.8787 30.172 81.3934 30.172V31.172C81.7402 31.172 81.9828 31.2451 82.1538 31.3558L82.6971 30.5162ZM81.3934 30.172C81.0226 30.172 80.6598 30.2278 80.3069 30.3392L80.608 31.2928C80.8631 31.2122 81.1243 31.172 81.3934 31.172V30.172ZM80.9574 30.816V30.216H79.9574V30.816H80.9574ZM80.4574 30.716H85.6414V29.716H80.4574V30.716Z" fill="black" mask="url(#path-1-outside-1_2023_7)"/>
<mask id="path-3-outside-2_2023_7" maskUnits="userSpaceOnUse" x="0" y="6" width="52" height="20" fill="black">
<rect fill="white" y="6" width="52" height="20"/>
<path d="M6.304 7.24V7.84V7.24ZM23.272 7.24V7.84C22.904 7.728 22.616 7.672 22.408 7.672C21.912 7.672 21.616 7.848 21.52 8.2C21.424 8.52 21.136 9.632 20.656 11.536C18.608 19.616 17.568 23.728 17.536 23.872L17.248 25H15.832L12.112 12.064L9.112 23.824L9.136 23.872L9.064 24.016L8.824 25H7.432L2.728 8.68C2.648 8.36 2.488 8.12 2.248 7.96C2.024 7.784 1.736 7.696 1.384 7.696C1.112 7.696 0.824 7.744 0.52 7.84V7.24H6.304V7.84C6 7.744 5.72 7.696 5.464 7.696C5.208 7.696 5.008 7.752 4.864 7.864C4.72 7.976 4.648 8.136 4.648 8.344C4.648 8.488 4.664 8.6 4.696 8.68L8.848 22.888L11.728 10.72L11.128 8.68C11.032 8.344 10.912 8.096 10.768 7.936C10.64 7.776 10.44 7.696 10.168 7.696C9.976 7.696 9.72 7.744 9.4 7.84V7.24H15.616V7.84C15.296 7.744 14.96 7.696 14.608 7.696C14.128 7.696 13.728 7.784 13.408 7.96C13.104 8.136 13 8.376 13.096 8.68L17.272 22.936L20.68 8.68C20.712 8.584 20.728 8.464 20.728 8.32C20.728 7.856 20.44 7.624 19.864 7.624C19.512 7.624 19.136 7.696 18.736 7.84V7.24H23.272ZM36.7113 19.576C36.4873 19.784 36.3353 20.112 36.2552 20.56C36.1913 21.008 36.1593 21.672 36.1593 22.552V25H23.9913V24.4C24.2953 24.496 24.5753 24.544 24.8313 24.544C25.1353 24.544 25.3673 24.464 25.5273 24.304C25.7033 24.128 25.7913 23.88 25.7913 23.56V8.68C25.7913 8.36 25.7033 8.12 25.5273 7.96C25.3673 7.784 25.1353 7.696 24.8313 7.696C24.5753 7.696 24.2953 7.744 23.9913 7.84V7.24H35.1512L35.0793 7.936C35.0313 8.24 35.0073 8.632 35.0073 9.112C35.0073 10.056 35.1193 10.792 35.3433 11.32H34.9593C34.7833 10.984 34.6553 10.544 34.5753 10C34.4633 9.424 34.3113 8.976 34.1193 8.656C33.9273 8.32 33.5353 8.04 32.9433 7.816C32.3513 7.592 31.4633 7.48 30.2793 7.48C29.4313 7.48 28.8153 7.624 28.4313 7.912C28.0473 8.2 27.8153 8.512 27.7353 8.848C27.6713 9.168 27.6233 9.632 27.5913 10.24V14.8H30.9033C31.3673 14.8 31.6873 14.792 31.8633 14.776C32.0553 14.744 32.1993 14.672 32.2953 14.56C32.3913 14.448 32.4393 14.256 32.4393 13.984C32.4393 13.504 32.4073 13.144 32.3433 12.904C32.2953 12.664 32.1353 12.544 31.8633 12.544V12.232H32.7993V17.8H31.8633V17.464C32.1353 17.464 32.2953 17.336 32.3433 17.08C32.4073 16.808 32.4393 16.424 32.4393 15.928C32.4393 15.672 32.3273 15.504 32.1033 15.424C31.8953 15.328 31.4953 15.272 30.9033 15.256H27.5913V22C27.6233 22.544 27.6873 23 27.7833 23.368C27.8793 23.72 28.1273 24.04 28.5273 24.328C28.9433 24.616 29.5753 24.76 30.4233 24.76C31.7993 24.76 32.8473 24.616 33.5673 24.328C34.2873 24.024 34.7753 23.656 35.0312 23.224C35.2873 22.776 35.5113 22.176 35.7032 21.424C35.8953 20.608 36.1193 19.992 36.3753 19.576H36.7113ZM45.8515 15.088C46.4275 15.136 47.1075 15.312 47.8915 15.616C48.6915 15.904 49.3955 16.36 50.0035 16.984C50.6115 17.608 50.9155 18.384 50.9155 19.312C50.9155 20.592 50.5955 21.664 49.9555 22.528C49.3315 23.376 48.5155 24 47.5075 24.4C46.5155 24.8 45.4675 25 44.3635 25H38.1475V24.4C38.4515 24.496 38.7235 24.544 38.9635 24.544C39.5875 24.544 39.9155 24.216 39.9475 23.56V8.68C39.9155 8.024 39.5875 7.696 38.9635 7.696C38.7235 7.696 38.4515 7.744 38.1475 7.84V7.24H43.9795C45.4995 7.24 46.8115 7.544 47.9155 8.152C49.0355 8.76 49.5955 9.784 49.5955 11.224C49.5955 11.912 49.3795 12.544 48.9475 13.12C48.5315 13.68 48.0275 14.136 47.4355 14.488C46.8435 14.824 46.3155 15.008 45.8515 15.04C45.8195 15.04 45.8035 15.048 45.8035 15.064C45.8035 15.08 45.8195 15.088 45.8515 15.088ZM41.7475 14.8H44.9635C45.6035 14.8 46.2595 14.584 46.9315 14.152C47.6035 13.72 47.9395 12.84 47.9395 11.512C47.9555 10.152 47.5795 9.144 46.8115 8.488C46.0595 7.816 45.1315 7.48 44.0275 7.48C43.2115 7.48 42.4515 7.544 41.7475 7.672V14.8ZM43.7395 24.76C44.8755 24.76 45.8355 24.536 46.6195 24.088C47.4035 23.624 47.9875 23.008 48.3715 22.24C48.7715 21.456 48.9715 20.592 48.9715 19.648C48.9715 18.624 48.7635 17.784 48.3475 17.128C47.9315 16.472 47.4195 16 46.8115 15.712C46.2035 15.424 45.5875 15.28 44.9635 15.28H41.7475V22.264C41.7475 22.984 41.8355 23.528 42.0115 23.896C42.2035 24.264 42.4355 24.504 42.7075 24.616C42.9955 24.712 43.3395 24.76 43.7395 24.76Z"/>
</mask>
<path d="M6.304 7.24V7.84V7.24ZM23.272 7.24V7.84C22.904 7.728 22.616 7.672 22.408 7.672C21.912 7.672 21.616 7.848 21.52 8.2C21.424 8.52 21.136 9.632 20.656 11.536C18.608 19.616 17.568 23.728 17.536 23.872L17.248 25H15.832L12.112 12.064L9.112 23.824L9.136 23.872L9.064 24.016L8.824 25H7.432L2.728 8.68C2.648 8.36 2.488 8.12 2.248 7.96C2.024 7.784 1.736 7.696 1.384 7.696C1.112 7.696 0.824 7.744 0.52 7.84V7.24H6.304V7.84C6 7.744 5.72 7.696 5.464 7.696C5.208 7.696 5.008 7.752 4.864 7.864C4.72 7.976 4.648 8.136 4.648 8.344C4.648 8.488 4.664 8.6 4.696 8.68L8.848 22.888L11.728 10.72L11.128 8.68C11.032 8.344 10.912 8.096 10.768 7.936C10.64 7.776 10.44 7.696 10.168 7.696C9.976 7.696 9.72 7.744 9.4 7.84V7.24H15.616V7.84C15.296 7.744 14.96 7.696 14.608 7.696C14.128 7.696 13.728 7.784 13.408 7.96C13.104 8.136 13 8.376 13.096 8.68L17.272 22.936L20.68 8.68C20.712 8.584 20.728 8.464 20.728 8.32C20.728 7.856 20.44 7.624 19.864 7.624C19.512 7.624 19.136 7.696 18.736 7.84V7.24H23.272ZM36.7113 19.576C36.4873 19.784 36.3353 20.112 36.2552 20.56C36.1913 21.008 36.1593 21.672 36.1593 22.552V25H23.9913V24.4C24.2953 24.496 24.5753 24.544 24.8313 24.544C25.1353 24.544 25.3673 24.464 25.5273 24.304C25.7033 24.128 25.7913 23.88 25.7913 23.56V8.68C25.7913 8.36 25.7033 8.12 25.5273 7.96C25.3673 7.784 25.1353 7.696 24.8313 7.696C24.5753 7.696 24.2953 7.744 23.9913 7.84V7.24H35.1512L35.0793 7.936C35.0313 8.24 35.0073 8.632 35.0073 9.112C35.0073 10.056 35.1193 10.792 35.3433 11.32H34.9593C34.7833 10.984 34.6553 10.544 34.5753 10C34.4633 9.424 34.3113 8.976 34.1193 8.656C33.9273 8.32 33.5353 8.04 32.9433 7.816C32.3513 7.592 31.4633 7.48 30.2793 7.48C29.4313 7.48 28.8153 7.624 28.4313 7.912C28.0473 8.2 27.8153 8.512 27.7353 8.848C27.6713 9.168 27.6233 9.632 27.5913 10.24V14.8H30.9033C31.3673 14.8 31.6873 14.792 31.8633 14.776C32.0553 14.744 32.1993 14.672 32.2953 14.56C32.3913 14.448 32.4393 14.256 32.4393 13.984C32.4393 13.504 32.4073 13.144 32.3433 12.904C32.2953 12.664 32.1353 12.544 31.8633 12.544V12.232H32.7993V17.8H31.8633V17.464C32.1353 17.464 32.2953 17.336 32.3433 17.08C32.4073 16.808 32.4393 16.424 32.4393 15.928C32.4393 15.672 32.3273 15.504 32.1033 15.424C31.8953 15.328 31.4953 15.272 30.9033 15.256H27.5913V22C27.6233 22.544 27.6873 23 27.7833 23.368C27.8793 23.72 28.1273 24.04 28.5273 24.328C28.9433 24.616 29.5753 24.76 30.4233 24.76C31.7993 24.76 32.8473 24.616 33.5673 24.328C34.2873 24.024 34.7753 23.656 35.0312 23.224C35.2873 22.776 35.5113 22.176 35.7032 21.424C35.8953 20.608 36.1193 19.992 36.3753 19.576H36.7113ZM45.8515 15.088C46.4275 15.136 47.1075 15.312 47.8915 15.616C48.6915 15.904 49.3955 16.36 50.0035 16.984C50.6115 17.608 50.9155 18.384 50.9155 19.312C50.9155 20.592 50.5955 21.664 49.9555 22.528C49.3315 23.376 48.5155 24 47.5075 24.4C46.5155 24.8 45.4675 25 44.3635 25H38.1475V24.4C38.4515 24.496 38.7235 24.544 38.9635 24.544C39.5875 24.544 39.9155 24.216 39.9475 23.56V8.68C39.9155 8.024 39.5875 7.696 38.9635 7.696C38.7235 7.696 38.4515 7.744 38.1475 7.84V7.24H43.9795C45.4995 7.24 46.8115 7.544 47.9155 8.152C49.0355 8.76 49.5955 9.784 49.5955 11.224C49.5955 11.912 49.3795 12.544 48.9475 13.12C48.5315 13.68 48.0275 14.136 47.4355 14.488C46.8435 14.824 46.3155 15.008 45.8515 15.04C45.8195 15.04 45.8035 15.048 45.8035 15.064C45.8035 15.08 45.8195 15.088 45.8515 15.088ZM41.7475 14.8H44.9635C45.6035 14.8 46.2595 14.584 46.9315 14.152C47.6035 13.72 47.9395 12.84 47.9395 11.512C47.9555 10.152 47.5795 9.144 46.8115 8.488C46.0595 7.816 45.1315 7.48 44.0275 7.48C43.2115 7.48 42.4515 7.544 41.7475 7.672V14.8ZM43.7395 24.76C44.8755 24.76 45.8355 24.536 46.6195 24.088C47.4035 23.624 47.9875 23.008 48.3715 22.24C48.7715 21.456 48.9715 20.592 48.9715 19.648C48.9715 18.624 48.7635 17.784 48.3475 17.128C47.9315 16.472 47.4195 16 46.8115 15.712C46.2035 15.424 45.5875 15.28 44.9635 15.28H41.7475V22.264C41.7475 22.984 41.8355 23.528 42.0115 23.896C42.2035 24.264 42.4355 24.504 42.7075 24.616C42.9955 24.712 43.3395 24.76 43.7395 24.76Z" fill="black"/>
<path d="M23.272 7.24H23.772V6.74H23.272V7.24ZM23.272 7.84L23.1264 8.31834L23.772 8.51482V7.84H23.272ZM21.52 8.2L21.9991 8.34372L22.0024 8.33156L21.52 8.2ZM20.656 11.536L21.1407 11.6588L21.1408 11.6582L20.656 11.536ZM17.536 23.872L18.0205 23.9957L18.0224 23.9881L18.0241 23.9805L17.536 23.872ZM17.248 25V25.5H17.6364L17.7325 25.1237L17.248 25ZM15.832 25L15.3515 25.1382L15.4555 25.5H15.832V25ZM12.112 12.064L12.5925 11.9258L12.0831 10.1544L11.6275 11.9404L12.112 12.064ZM9.112 23.824L8.62752 23.7004L8.58146 23.8809L8.66479 24.0476L9.112 23.824ZM9.136 23.872L9.58321 24.0956L9.69502 23.872L9.58321 23.6484L9.136 23.872ZM9.064 24.016L8.61679 23.7924L8.59159 23.8428L8.57824 23.8975L9.064 24.016ZM8.824 25V25.5H9.21671L9.30976 25.1185L8.824 25ZM7.432 25L6.95156 25.1385L7.05576 25.5H7.432V25ZM2.728 8.68L2.24293 8.80127L2.24509 8.80991L2.24756 8.81848L2.728 8.68ZM2.248 7.96L1.93909 8.35316L1.95442 8.36521L1.97065 8.37602L2.248 7.96ZM0.52 7.84H0.02V8.52223L0.670565 8.31679L0.52 7.84ZM0.52 7.24V6.74H0.02V7.24H0.52ZM6.304 7.24H6.804V6.74H6.304V7.24ZM6.304 7.84L6.15344 8.31679L6.804 8.52223V7.84H6.304ZM4.864 7.864L4.55703 7.46932L4.55703 7.46932L4.864 7.864ZM4.696 8.68L5.17593 8.53975L5.16918 8.51665L5.16024 8.49431L4.696 8.68ZM8.848 22.888L8.36807 23.0282L8.89878 24.8443L9.33456 23.0032L8.848 22.888ZM11.728 10.72L12.2146 10.8352L12.2451 10.7061L12.2077 10.5789L11.728 10.72ZM11.128 8.68L10.6472 8.81736L10.6483 8.82108L11.128 8.68ZM10.768 7.936L10.3776 8.24835L10.3866 8.25969L10.3964 8.27048L10.768 7.936ZM9.4 7.84H8.9V8.51201L9.54367 8.31891L9.4 7.84ZM9.4 7.24V6.74H8.9V7.24H9.4ZM15.616 7.24H16.116V6.74H15.616V7.24ZM15.616 7.84L15.4723 8.31891L16.116 8.51201V7.84H15.616ZM13.408 7.96L13.167 7.52179L13.1575 7.52729L13.408 7.96ZM13.096 8.68L13.5759 8.53941L13.5728 8.52944L13.096 8.68ZM17.272 22.936L16.7922 23.0766L17.3209 24.8817L17.7583 23.0523L17.272 22.936ZM20.68 8.68L20.2057 8.52189L20.1988 8.54256L20.1937 8.56375L20.68 8.68ZM18.736 7.84H18.236V8.55141L18.9054 8.31044L18.736 7.84ZM18.736 7.24V6.74H18.236V7.24H18.736ZM5.804 7.24V7.84H6.804V7.24H5.804ZM6.804 7.84V7.24H5.804V7.84H6.804ZM22.772 7.24V7.84H23.772V7.24H22.772ZM23.4176 7.36166C23.0352 7.24529 22.6907 7.172 22.408 7.172V8.172C22.5413 8.172 22.7728 8.21071 23.1264 8.31834L23.4176 7.36166ZM22.408 7.172C22.1074 7.172 21.8106 7.22434 21.5585 7.37423C21.2919 7.5327 21.1175 7.77561 21.0376 8.06844L22.0024 8.33156C22.0185 8.27239 22.0401 8.2513 22.0695 8.23377C22.1134 8.20766 22.2126 8.172 22.408 8.172V7.172ZM21.0411 8.05633C20.941 8.38994 20.6495 9.5164 20.1712 11.4138L21.1408 11.6582C21.6225 9.7476 21.907 8.65006 21.9989 8.34367L21.0411 8.05633ZM20.1713 11.4132C18.1256 19.4843 17.082 23.6099 17.0479 23.7635L18.0241 23.9805C18.0239 23.9813 18.0248 23.9773 18.0279 23.9646C18.0306 23.9534 18.0344 23.938 18.0392 23.9183C18.0489 23.879 18.0626 23.8241 18.0803 23.7533C18.1157 23.6117 18.1669 23.408 18.2339 23.1421C18.3678 22.6104 18.5647 21.8306 18.8247 20.8026C19.3447 18.7467 20.1167 15.6988 21.1407 11.6588L20.1713 11.4132ZM17.0515 23.7483L16.7635 24.8763L17.7325 25.1237L18.0205 23.9957L17.0515 23.7483ZM17.248 24.5H15.832V25.5H17.248V24.5ZM16.3125 24.8618L12.5925 11.9258L11.6315 12.2022L15.3515 25.1382L16.3125 24.8618ZM11.6275 11.9404L8.62752 23.7004L9.59649 23.9476L12.5965 12.1876L11.6275 11.9404ZM8.66479 24.0476L8.68879 24.0956L9.58321 23.6484L9.55922 23.6004L8.66479 24.0476ZM8.68879 23.6484L8.61679 23.7924L9.51121 24.2396L9.58321 24.0956L8.68879 23.6484ZM8.57824 23.8975L8.33824 24.8815L9.30976 25.1185L9.54976 24.1345L8.57824 23.8975ZM8.824 24.5H7.432V25.5H8.824V24.5ZM7.91244 24.8615L3.20844 8.54152L2.24756 8.81848L6.95156 25.1385L7.91244 24.8615ZM3.21307 8.55873C3.10754 8.13661 2.88372 7.78289 2.52535 7.54397L1.97065 8.37602C2.09228 8.45711 2.18846 8.58339 2.24293 8.80127L3.21307 8.55873ZM2.55691 7.56684C2.22567 7.30658 1.82098 7.196 1.384 7.196V8.196C1.65102 8.196 1.82233 8.26142 1.93909 8.35316L2.55691 7.56684ZM1.384 7.196C1.05301 7.196 0.713979 7.2544 0.369435 7.36321L0.670565 8.31679C0.934021 8.23359 1.17099 8.196 1.384 8.196V7.196ZM1.02 7.84V7.24H0.02V7.84H1.02ZM0.52 7.74H6.304V6.74H0.52V7.74ZM5.804 7.24V7.84H6.804V7.24H5.804ZM6.45457 7.36321C6.11328 7.25543 5.78182 7.196 5.464 7.196V8.196C5.65818 8.196 5.88672 8.23257 6.15344 8.31679L6.45457 7.36321ZM5.464 7.196C5.14072 7.196 4.8181 7.26627 4.55703 7.46932L5.17097 8.25868C5.1979 8.23773 5.27528 8.196 5.464 8.196V7.196ZM4.55703 7.46932C4.27309 7.69016 4.148 8.00624 4.148 8.344H5.148C5.148 8.29779 5.15587 8.27783 5.15796 8.27318C5.15913 8.27057 5.16009 8.26916 5.16106 8.26794C5.16208 8.26665 5.16482 8.26346 5.17097 8.25867L4.55703 7.46932ZM4.148 8.344C4.148 8.51467 4.16548 8.69999 4.23176 8.86569L5.16024 8.49431C5.1628 8.5007 5.15899 8.49339 5.15497 8.46529C5.15108 8.43801 5.148 8.39838 5.148 8.344H4.148ZM4.21607 8.82025L8.36807 23.0282L9.32793 22.7478L5.17593 8.53975L4.21607 8.82025ZM9.33456 23.0032L12.2146 10.8352L11.2414 10.6048L8.36144 22.7728L9.33456 23.0032ZM12.2077 10.5789L11.6077 8.53892L10.6483 8.82108L11.2483 10.8611L12.2077 10.5789ZM11.6088 8.54264C11.5034 8.17387 11.3567 7.84266 11.1396 7.60152L10.3964 8.27048C10.4673 8.34934 10.5606 8.51413 10.6472 8.81736L11.6088 8.54264ZM11.1584 7.62365C10.9066 7.30881 10.5385 7.196 10.168 7.196V8.196C10.3415 8.196 10.3734 8.24319 10.3776 8.24835L11.1584 7.62365ZM10.168 7.196C9.90425 7.196 9.59392 7.25981 9.25633 7.36109L9.54367 8.31891C9.84608 8.22819 10.0477 8.196 10.168 8.196V7.196ZM9.9 7.84V7.24H8.9V7.84H9.9ZM9.4 7.74H15.616V6.74H9.4V7.74ZM15.116 7.24V7.84H16.116V7.24H15.116ZM15.7597 7.36109C15.3906 7.25037 15.006 7.196 14.608 7.196V8.196C14.914 8.196 15.2014 8.23763 15.4723 8.31891L15.7597 7.36109ZM14.608 7.196C14.0694 7.196 13.5805 7.29451 13.167 7.52189L13.649 8.39811C13.8755 8.27349 14.1866 8.196 14.608 8.196V7.196ZM13.1575 7.52729C12.9442 7.65074 12.7503 7.82615 12.6432 8.0732C12.5334 8.32653 12.5432 8.58994 12.6192 8.83056L13.5728 8.52944C13.5622 8.49593 13.5614 8.47751 13.5614 8.47135C13.5615 8.46657 13.562 8.4679 13.5608 8.4708C13.5577 8.47785 13.5678 8.44526 13.6585 8.39271L13.1575 7.52729ZM12.6162 8.82056L16.7922 23.0766L17.7518 22.7954L13.5758 8.53944L12.6162 8.82056ZM17.7583 23.0523L21.1663 8.79625L20.1937 8.56375L16.7857 22.8197L17.7583 23.0523ZM21.1543 8.83811C21.2089 8.67457 21.228 8.49694 21.228 8.32H20.228C20.228 8.43105 20.2151 8.49343 20.2057 8.52189L21.1543 8.83811ZM21.228 8.32C21.228 7.97884 21.1168 7.64315 20.8257 7.40862C20.5552 7.19074 20.206 7.124 19.864 7.124V8.124C20.098 8.124 20.1808 8.17326 20.1983 8.18738C20.2038 8.19179 20.2074 8.19565 20.212 8.20667C20.2178 8.22076 20.228 8.25483 20.228 8.32H21.228ZM19.864 7.124C19.4437 7.124 19.01 7.20994 18.5666 7.36956L18.9054 8.31044C19.262 8.18206 19.5803 8.124 19.864 8.124V7.124ZM19.236 7.84V7.24H18.236V7.84H19.236ZM18.736 7.74H23.272V6.74H18.736V7.74ZM36.7113 19.576L37.0515 19.9424L37.9845 19.076H36.7113V19.576ZM36.2552 20.56L35.763 20.4721L35.7615 20.4807L35.7603 20.4893L36.2552 20.56ZM36.1593 25V25.5H36.6593V25H36.1593ZM23.9913 25H23.4913V25.5H23.9913V25ZM23.9913 24.4L24.1418 23.9232L23.4913 23.7178V24.4H23.9913ZM25.5273 24.304L25.1737 23.9504L25.5273 24.304ZM25.5273 7.96L25.1573 8.29634L25.1733 8.31395L25.1909 8.32997L25.5273 7.96ZM23.9913 7.84H23.4913V8.52223L24.1418 8.31679L23.9913 7.84ZM23.9913 7.24V6.74H23.4913V7.24H23.9913ZM35.1512 7.24L35.6486 7.29145L35.7056 6.74H35.1512V7.24ZM35.0793 7.936L35.5731 8.01398L35.5752 8.00076L35.5766 7.98745L35.0793 7.936ZM35.3433 11.32V11.82H36.0985L35.8035 11.1247L35.3433 11.32ZM34.9593 11.32L34.5163 11.552L34.6567 11.82H34.9593V11.32ZM34.5753 10L35.0699 9.92725L35.0683 9.91586L35.0661 9.90456L34.5753 10ZM34.1193 8.656L33.685 8.90412L33.6905 8.91325L34.1193 8.656ZM27.7353 8.848L27.2488 8.73219L27.2467 8.74103L27.245 8.74994L27.7353 8.848ZM27.5912 10.24L27.0919 10.2137L27.0912 10.2269V10.24H27.5912ZM27.5912 14.8H27.0912V15.3H27.5912V14.8ZM31.8633 14.776L31.9085 15.2739L31.9271 15.2723L31.9454 15.2692L31.8633 14.776ZM32.2952 14.56L31.9156 14.2346L31.9156 14.2346L32.2952 14.56ZM32.3433 12.904L31.853 13.0021L31.8561 13.0176L31.8601 13.0328L32.3433 12.904ZM31.8633 12.544H31.3633V13.044H31.8633V12.544ZM31.8633 12.232V11.732H31.3633V12.232H31.8633ZM32.7992 12.232H33.2993V11.732H32.7992V12.232ZM32.7992 17.8V18.3H33.2993V17.8H32.7992ZM31.8633 17.8H31.3633V18.3H31.8633V17.8ZM31.8633 17.464V16.964H31.3633V17.464H31.8633ZM32.3433 17.08L31.8565 16.9655L31.8539 16.9766L31.8518 16.9879L32.3433 17.08ZM32.1033 15.424L31.8937 15.878L31.914 15.8874L31.9351 15.8949L32.1033 15.424ZM30.9032 15.256L30.9168 14.756H30.9032V15.256ZM27.5912 15.256V14.756H27.0912V15.256H27.5912ZM27.5912 22H27.0912V22.0147L27.0921 22.0294L27.5912 22ZM27.7833 23.368L27.2994 23.4942L27.3009 23.4996L27.7833 23.368ZM28.5273 24.328L28.235 24.7338L28.2426 24.7391L28.5273 24.328ZM33.5672 24.328L33.753 24.7923L33.7617 24.7886L33.5672 24.328ZM35.0312 23.224L35.4614 23.4789L35.4654 23.4721L35.0312 23.224ZM35.7033 21.424L36.1878 21.5477L36.19 21.5385L35.7033 21.424ZM36.3753 19.576V19.076H36.0959L35.9494 19.314L36.3753 19.576ZM36.371 19.2096C36.037 19.5198 35.8532 19.9671 35.763 20.4721L36.7475 20.6479C36.8173 20.2569 36.9375 20.0482 37.0515 19.9424L36.371 19.2096ZM35.7603 20.4893C35.6911 20.9734 35.6593 21.666 35.6593 22.552H36.6593C36.6593 21.678 36.6914 21.0426 36.7502 20.6307L35.7603 20.4893ZM35.6593 22.552V25H36.6593V22.552H35.6593ZM36.1593 24.5H23.9913V25.5H36.1593V24.5ZM24.4913 25V24.4H23.4913V25H24.4913ZM23.8407 24.8768C24.182 24.9846 24.5134 25.044 24.8312 25.044V24.044C24.6371 24.044 24.4085 24.0074 24.1418 23.9232L23.8407 24.8768ZM24.8312 25.044C25.2209 25.044 25.5984 24.94 25.8808 24.6576L25.1737 23.9504C25.1361 23.988 25.0496 24.044 24.8312 24.044V25.044ZM25.8808 24.6576C26.1753 24.3631 26.2913 23.973 26.2913 23.56H25.2913C25.2913 23.787 25.2312 23.8929 25.1737 23.9504L25.8808 24.6576ZM26.2913 23.56V8.68H25.2913V23.56H26.2913ZM26.2913 8.68C26.2913 8.27 26.1763 7.87432 25.8636 7.59003L25.1909 8.32997C25.2302 8.36568 25.2913 8.45 25.2913 8.68H26.2913ZM25.8972 7.62366C25.6176 7.31611 25.2344 7.196 24.8312 7.196V8.196C25.0361 8.196 25.1169 8.25188 25.1573 8.29634L25.8972 7.62366ZM24.8312 7.196C24.5134 7.196 24.182 7.25543 23.8407 7.36321L24.1418 8.31679C24.4085 8.23257 24.6371 8.196 24.8312 8.196V7.196ZM24.4913 7.84V7.24H23.4913V7.84H24.4913ZM23.9913 7.74H35.1512V6.74H23.9913V7.74ZM34.6539 7.18855L34.5819 7.88455L35.5766 7.98745L35.6486 7.29145L34.6539 7.18855ZM34.5854 7.85802C34.5317 8.1979 34.5073 8.61861 34.5073 9.112H35.5073C35.5073 8.64539 35.5308 8.2821 35.5731 8.01398L34.5854 7.85802ZM34.5073 9.112C34.5073 10.0853 34.6212 10.8982 34.883 11.5153L35.8035 11.1247C35.6173 10.6858 35.5073 10.0267 35.5073 9.112H34.5073ZM35.3433 10.82H34.9593V11.82H35.3433V10.82ZM35.4022 11.088C35.2611 10.8187 35.1451 10.4384 35.0699 9.92725L34.0806 10.0727C34.1654 10.6496 34.3054 11.1493 34.5163 11.552L35.4022 11.088ZM35.0661 9.90456C34.9486 9.30031 34.7821 8.78885 34.548 8.39875L33.6905 8.91325C33.8404 9.16315 33.9779 9.54768 34.0844 10.0954L35.0661 9.90456ZM34.5534 8.40793C34.2771 7.92438 33.7567 7.58921 33.1202 7.34836L32.7663 8.28364C33.3138 8.49079 33.5774 8.71562 33.6851 8.90407L34.5534 8.40793ZM33.1202 7.34836C32.4419 7.09169 31.4805 6.98 30.2793 6.98V7.98C31.446 7.98 32.2606 8.09231 32.7663 8.28364L33.1202 7.34836ZM30.2793 6.98C29.3966 6.98 28.6464 7.12567 28.1313 7.512L28.7313 8.312C28.9841 8.12233 29.4659 7.98 30.2793 7.98V6.98ZM28.1313 7.512C27.6899 7.843 27.3648 8.24533 27.2488 8.73219L28.2217 8.96381C28.2657 8.77866 28.4046 8.557 28.7313 8.312L28.1313 7.512ZM27.245 8.74994C27.1738 9.10581 27.1243 9.59844 27.0919 10.2137L28.0906 10.2663C28.1222 9.66556 28.1687 9.23019 28.2255 8.94606L27.245 8.74994ZM27.0912 10.24V14.8H28.0912V10.24H27.0912ZM27.5912 15.3H30.9032V14.3H27.5912V15.3ZM30.9032 15.3C31.3658 15.3 31.707 15.2923 31.9085 15.2739L31.818 14.2781C31.6675 14.2917 31.3687 14.3 30.9032 14.3V15.3ZM31.9454 15.2692C32.2158 15.2241 32.481 15.1116 32.6749 14.8854L31.9156 14.2346C31.9148 14.2355 31.9095 14.2418 31.8916 14.2508C31.8724 14.2604 31.8378 14.2733 31.7811 14.2828L31.9454 15.2692ZM32.6749 14.8854C32.8916 14.6326 32.9393 14.2863 32.9393 13.984H31.9393C31.9393 14.0932 31.9294 14.166 31.9182 14.2107C31.9069 14.256 31.8989 14.2541 31.9156 14.2346L32.6749 14.8854ZM32.9393 13.984C32.9393 13.4929 32.9076 13.0799 32.8264 12.7752L31.8601 13.0328C31.9069 13.2081 31.9393 13.5151 31.9393 13.984H32.9393ZM32.8335 12.8059C32.7911 12.5935 32.6865 12.3834 32.4873 12.234C32.2943 12.0893 32.069 12.044 31.8633 12.044V13.044C31.8953 13.044 31.9101 13.0476 31.9124 13.0483C31.9136 13.0486 31.9027 13.0456 31.8872 13.034C31.8798 13.0284 31.8728 13.022 31.8666 13.0149C31.8605 13.0079 31.8562 13.0015 31.8533 12.9966C31.8477 12.9869 31.8498 12.9863 31.853 13.0021L32.8335 12.8059ZM32.3633 12.544V12.232H31.3633V12.544H32.3633ZM31.8633 12.732H32.7992V11.732H31.8633V12.732ZM32.2992 12.232V17.8H33.2993V12.232H32.2992ZM32.7992 17.3H31.8633V18.3H32.7992V17.3ZM32.3633 17.8V17.464H31.3633V17.8H32.3633ZM31.8633 17.964C32.0755 17.964 32.3057 17.9136 32.4996 17.7584C32.6962 17.6012 32.7948 17.385 32.8347 17.1721L31.8518 16.9879C31.8476 17.0103 31.8436 17.0154 31.8466 17.0099C31.8482 17.007 31.8512 17.002 31.8563 16.9958C31.8614 16.9896 31.8677 16.9833 31.8749 16.9776C31.8821 16.9718 31.8889 16.9676 31.8946 16.9647C31.9002 16.9618 31.9037 16.9607 31.9042 16.9606C31.9047 16.9605 31.8928 16.964 31.8633 16.964V17.964ZM32.83 17.1945C32.9071 16.8668 32.9393 16.4378 32.9393 15.928H31.9393C31.9393 16.4102 31.9074 16.7492 31.8565 16.9655L32.83 17.1945ZM32.9393 15.928C32.9393 15.7277 32.895 15.5183 32.7713 15.3326C32.6455 15.144 32.4661 15.0226 32.2714 14.9531L31.9351 15.8949C31.9513 15.9007 31.9557 15.9045 31.9533 15.9028C31.9503 15.9006 31.9445 15.8952 31.9392 15.8873C31.9342 15.8797 31.9337 15.8759 31.9348 15.8802C31.9362 15.8853 31.9393 15.9001 31.9393 15.928H32.9393ZM32.3128 14.97C32.1428 14.8916 31.9341 14.8453 31.7166 14.8148C31.4917 14.7833 31.2237 14.7645 30.9168 14.7562L30.8897 15.7558C31.1748 15.7635 31.4028 15.7807 31.5779 15.8052C31.7604 15.8307 31.8557 15.8604 31.8937 15.878L32.3128 14.97ZM30.9032 14.756H27.5912V15.756H30.9032V14.756ZM27.0912 15.256V22H28.0912V15.256H27.0912ZM27.0921 22.0294C27.1253 22.5933 27.1925 23.0842 27.2994 23.4942L28.2671 23.2418C28.182 22.9158 28.1212 22.4947 28.0904 21.9706L27.0921 22.0294ZM27.3009 23.4996C27.4361 23.9954 27.7747 24.4023 28.2351 24.7338L28.8194 23.9222C28.4798 23.6777 28.3224 23.4446 28.2656 23.2364L27.3009 23.4996ZM28.2426 24.7391C28.7817 25.1123 29.5354 25.26 30.4233 25.26V24.26C29.6151 24.26 29.1048 24.1197 28.8119 23.9169L28.2426 24.7391ZM30.4233 25.26C31.8213 25.26 32.9448 25.1155 33.7529 24.7922L33.3816 23.8638C32.7497 24.1165 31.7772 24.26 30.4233 24.26V25.26ZM33.7617 24.7886C34.529 24.4647 35.1281 24.0414 35.4614 23.4789L34.6011 22.9691C34.4224 23.2706 34.0455 23.5833 33.3728 23.8674L33.7617 24.7886ZM35.4654 23.4721C35.7518 22.9707 35.9896 22.3237 36.1877 21.5477L35.2188 21.3003C35.0329 22.0283 34.8227 22.5813 34.5971 22.9759L35.4654 23.4721ZM36.19 21.5385C36.3772 20.743 36.5862 20.1872 36.8011 19.838L35.9494 19.314C35.6523 19.7968 35.4133 20.473 35.2165 21.3095L36.19 21.5385ZM36.3753 20.076H36.7113V19.076H36.3753V20.076ZM45.8515 15.088L45.893 14.5897L45.8723 14.588H45.8515V15.088ZM47.8915 15.616L47.7107 16.0823L47.7221 16.0864L47.8915 15.616ZM50.0035 16.984L50.3616 16.6351L50.0035 16.984ZM49.9555 22.528L49.5537 22.2304L49.5528 22.2317L49.9555 22.528ZM47.5075 24.4L47.3231 23.9352L47.3205 23.9363L47.5075 24.4ZM38.1475 25H37.6475V25.5H38.1475V25ZM38.1475 24.4L38.2981 23.9232L37.6475 23.7178V24.4H38.1475ZM39.9475 23.56L40.4469 23.5844L40.4475 23.5722V23.56H39.9475ZM39.9475 8.68H40.4475V8.66781L40.4469 8.65564L39.9475 8.68ZM38.1475 7.84H37.6475V8.52223L38.2981 8.31679L38.1475 7.84ZM38.1475 7.24V6.74H37.6475V7.24H38.1475ZM47.9155 8.152L47.6743 8.58998L47.677 8.59143L47.9155 8.152ZM48.9475 13.12L48.5475 12.82L48.5461 12.8218L48.9475 13.12ZM47.4355 14.488L47.6824 14.9229L47.691 14.9178L47.4355 14.488ZM45.8515 15.04V15.54H45.8687L45.8859 15.5388L45.8515 15.04ZM41.7475 14.8H41.2475V15.3H41.7475V14.8ZM47.9395 11.512L47.4395 11.5061V11.512H47.9395ZM46.8115 8.488L46.4783 8.86092L46.4868 8.86819L46.8115 8.488ZM41.7475 7.672L41.6581 7.18006L41.2475 7.25471V7.672H41.7475ZM46.6195 24.088L46.8676 24.5222L46.8742 24.5183L46.6195 24.088ZM48.3715 22.24L47.9261 22.0128L47.9243 22.0164L48.3715 22.24ZM48.3475 17.128L48.7698 16.8602L48.3475 17.128ZM46.8115 15.712L47.0255 15.2601L46.8115 15.712ZM41.7475 15.28V14.78H41.2475V15.28H41.7475ZM42.0115 23.896L41.5604 24.1117L41.5642 24.1196L41.5682 24.1273L42.0115 23.896ZM42.7075 24.616L42.5171 25.0783L42.5331 25.0849L42.5494 25.0903L42.7075 24.616ZM45.81 15.5863C46.322 15.6289 46.953 15.7884 47.7107 16.0822L48.0723 15.1498C47.262 14.8356 46.533 14.6431 45.893 14.5897L45.81 15.5863ZM47.7221 16.0864C48.449 16.3481 49.0889 16.7618 49.6454 17.3329L50.3616 16.6351C49.7021 15.9582 48.934 15.4599 48.0609 15.1456L47.7221 16.0864ZM49.6454 17.3329C50.1561 17.8571 50.4155 18.505 50.4155 19.312H51.4155C51.4155 18.263 51.0669 17.3589 50.3616 16.6351L49.6454 17.3329ZM50.4155 19.312C50.4155 20.5058 50.1185 21.468 49.5537 22.2304L50.3573 22.8256C51.0725 21.86 51.4155 20.6782 51.4155 19.312H50.4155ZM49.5528 22.2317C48.9861 23.0018 48.2467 23.5687 47.3231 23.9353L47.6919 24.8647C48.7843 24.4313 49.6769 23.7502 50.3582 22.8243L49.5528 22.2317ZM47.3205 23.9363C46.3899 24.3115 45.4055 24.5 44.3635 24.5V25.5C45.5295 25.5 46.6411 25.2885 47.6945 24.8637L47.3205 23.9363ZM44.3635 24.5H38.1475V25.5H44.3635V24.5ZM38.6475 25V24.4H37.6475V25H38.6475ZM37.9969 24.8768C38.3347 24.9834 38.6588 25.044 38.9635 25.044V24.044C38.7882 24.044 38.5683 24.0086 38.2981 23.9232L37.9969 24.8768ZM38.9635 25.044C39.361 25.044 39.7445 24.9381 40.0311 24.6516C40.3135 24.3691 40.4274 23.985 40.4469 23.5844L39.4481 23.5356C39.4356 23.791 39.3695 23.8989 39.3239 23.9444C39.2825 23.9859 39.19 24.044 38.9635 24.044V25.044ZM40.4475 23.56V8.68H39.4475V23.56H40.4475ZM40.4469 8.65564C40.4274 8.25499 40.3135 7.87087 40.0311 7.58845C39.7445 7.30191 39.361 7.196 38.9635 7.196V8.196C39.19 8.196 39.2825 8.25409 39.3239 8.29555C39.3695 8.34112 39.4356 8.44901 39.4481 8.70436L40.4469 8.65564ZM38.9635 7.196C38.6588 7.196 38.3347 7.25655 37.9969 7.36321L38.2981 8.31679C38.5683 8.23145 38.7882 8.196 38.9635 8.196V7.196ZM38.6475 7.84V7.24H37.6475V7.84H38.6475ZM38.1475 7.74H43.9795V6.74H38.1475V7.74ZM43.9795 7.74C45.4325 7.74 46.658 8.03026 47.6743 8.58997L48.1567 7.71403C46.965 7.05774 45.5665 6.74 43.9795 6.74V7.74ZM47.677 8.59143C48.6119 9.09894 49.0955 9.93833 49.0955 11.224H50.0955C50.0955 9.62967 49.4591 8.42106 48.154 7.71257L47.677 8.59143ZM49.0955 11.224C49.0955 11.7986 48.9178 12.3262 48.5475 12.82L49.3475 13.42C49.8412 12.7618 50.0955 12.0254 50.0955 11.224H49.0955ZM48.5461 12.8218C48.169 13.3295 47.7144 13.7405 47.18 14.0582L47.691 14.9178C48.3406 14.5315 48.894 14.0305 49.3489 13.4182L48.5461 12.8218ZM47.1887 14.0532C46.634 14.368 46.18 14.5162 45.8171 14.5412L45.8859 15.5388C46.451 15.4998 47.053 15.28 47.6823 14.9228L47.1887 14.0532ZM45.8515 14.54C45.81 14.54 45.7044 14.5425 45.5919 14.5988C45.5286 14.6304 45.4511 14.6853 45.3905 14.7761C45.3278 14.8701 45.3035 14.9725 45.3035 15.064H46.3035C46.3035 15.1475 46.2812 15.2429 46.2225 15.3309C46.1659 15.4157 46.0944 15.4656 46.0391 15.4932C45.9426 15.5415 45.861 15.54 45.8515 15.54V14.54ZM45.3035 15.064C45.3035 15.1555 45.3278 15.2578 45.3905 15.3518C45.451 15.4427 45.5286 15.4976 45.5919 15.5292C45.7044 15.5855 45.81 15.588 45.8515 15.588V14.588C45.861 14.588 45.9426 14.5865 46.0391 14.6348C46.0944 14.6624 46.166 14.7123 46.2225 14.7972C46.2812 14.8851 46.3035 14.9805 46.3035 15.064H45.3035ZM41.7475 15.3H44.9635V14.3H41.7475V15.3ZM44.9635 15.3C45.7207 15.3 46.4692 15.0436 47.2019 14.5726L46.6611 13.7314C46.0498 14.1244 45.4863 14.3 44.9635 14.3V15.3ZM47.2019 14.5726C48.0923 14.0002 48.4395 12.8952 48.4395 11.512H47.4395C47.4395 12.7847 47.1147 13.4398 46.6611 13.7314L47.2019 14.5726ZM48.4395 11.5179C48.4566 10.0641 48.0528 8.89069 47.1362 8.10781L46.4868 8.86819C47.1062 9.39731 47.4544 10.2399 47.4395 11.5061L48.4395 11.5179ZM47.1447 8.11517C46.292 7.35325 45.2418 6.98 44.0275 6.98V7.98C45.0212 7.98 45.827 8.27874 46.4783 8.86083L47.1447 8.11517ZM44.0275 6.98C43.1856 6.98 42.3953 7.04601 41.6581 7.18006L41.8369 8.16393C42.5077 8.04198 43.2374 7.98 44.0275 7.98V6.98ZM41.2475 7.672V14.8H42.2475V7.672H41.2475ZM43.7395 25.26C44.9404 25.26 45.9909 25.0231 46.8676 24.5221L46.3714 23.6539C45.6801 24.0489 44.8106 24.26 43.7395 24.26V25.26ZM46.8742 24.5183C47.7356 24.0085 48.3891 23.3229 48.8187 22.4636L47.9243 22.0164C47.5859 22.6931 47.0714 23.2395 46.3648 23.6577L46.8742 24.5183ZM48.8169 22.4672C49.2554 21.6078 49.4715 20.6651 49.4715 19.648H48.4715C48.4715 20.5189 48.2876 21.3042 47.9261 22.0128L48.8169 22.4672ZM49.4715 19.648C49.4715 18.5587 49.2503 17.6181 48.7698 16.8602L47.9252 17.3958C48.2767 17.9499 48.4715 18.6893 48.4715 19.648H49.4715ZM48.7698 16.8602C48.3111 16.137 47.7315 15.5945 47.0255 15.2601L46.5975 16.1639C47.1075 16.4055 47.5519 16.807 47.9252 17.3958L48.7698 16.8602ZM47.0255 15.2601C46.356 14.943 45.6672 14.78 44.9635 14.78V15.78C45.5078 15.78 46.051 15.905 46.5975 16.1639L47.0255 15.2601ZM44.9635 14.78H41.7475V15.78H44.9635V14.78ZM41.2475 15.28V22.264H42.2475V15.28H41.2475ZM41.2475 22.264C41.2475 23.0099 41.3363 23.6431 41.5604 24.1117L42.4626 23.6803C42.3347 23.4129 42.2475 22.9581 42.2475 22.264H41.2475ZM41.5682 24.1273C41.7926 24.5573 42.099 24.9062 42.5171 25.0783L42.8979 24.1537C42.772 24.1018 42.6144 23.9707 42.4548 23.6647L41.5682 24.1273ZM42.5494 25.0903C42.9016 25.2078 43.3018 25.26 43.7395 25.26V24.26C43.3772 24.26 43.0894 24.2162 42.8656 24.1417L42.5494 25.0903Z" fill="black" mask="url(#path-3-outside-2_2023_7)"/>
</svg>
