<svg width="59" height="51" viewBox="0 0 59 51" fill="none" xmlns="http://www.w3.org/2000/svg">
<circle cx="25.5" cy="25.5" r="23.5" stroke="#1C150E" stroke-width="4"/>
<rect x="43.4098" y="23.7332" width="15" height="10.3246" transform="rotate(2.27482 43.4098 23.7332)" fill="#434343"/>
<path d="M27.9077 31.24C27.9963 31.5693 28.2243 31.734 28.5917 31.734C28.8323 31.734 29.149 31.6643 29.5417 31.525V32H24.9627V31.525C25.33 31.6517 25.6467 31.715 25.9127 31.715C26.2167 31.715 26.3687 31.6073 26.3687 31.392C26.3687 31.3287 26.3623 31.278 26.3497 31.24L24.6397 25.825H20.6117C20.1557 27.345 19.7187 28.865 19.3007 30.385L19.1677 30.86C19.1423 30.936 19.1297 31.031 19.1297 31.145C19.1297 31.5123 19.3577 31.696 19.8137 31.696C20.067 31.696 20.3583 31.639 20.6877 31.525V32H16.7167V31.525C17.0207 31.639 17.312 31.696 17.5907 31.696C17.9707 31.696 18.243 31.544 18.4077 31.24C18.4963 31.0627 18.5723 30.879 18.6357 30.689L22.6637 17.56H23.7657L27.9077 31.24ZM20.7067 25.483H24.5257L22.5497 19.251L20.7067 25.483ZM31.9603 21.892C31.7323 21.892 31.5423 21.8223 31.3903 21.683C31.2383 21.5437 31.1623 21.3663 31.1623 21.151C31.1623 20.9357 31.2383 20.7583 31.3903 20.619C31.5423 20.4797 31.7323 20.41 31.9603 20.41C32.1883 20.41 32.3783 20.486 32.5303 20.638C32.695 20.7773 32.7773 20.9483 32.7773 21.151C32.7773 21.3663 32.7013 21.5437 32.5493 21.683C32.3973 21.8223 32.201 21.892 31.9603 21.892ZM30.2883 31.715C30.5037 31.7783 30.662 31.81 30.7633 31.81C30.9913 31.81 31.137 31.734 31.2003 31.582C31.2637 31.4173 31.2953 31.1767 31.2953 30.86V24.096C31.1053 24.1593 30.9027 24.191 30.6873 24.191C30.5987 24.191 30.4657 24.1783 30.2883 24.153V23.64H30.4593C30.4593 23.7287 30.5037 23.8047 30.5923 23.868C30.6937 23.9313 30.8077 23.963 30.9343 23.963C31.1117 23.963 31.27 23.8933 31.4093 23.754C31.5487 23.6147 31.7197 23.3993 31.9223 23.108H32.4733V30.86C32.4733 31.1893 32.4987 31.43 32.5493 31.582C32.6127 31.734 32.7457 31.81 32.9483 31.81C33.0497 31.81 33.208 31.7783 33.4233 31.715V32H30.2883V31.715Z" fill="white"/>
</svg>
