<svg width="60" height="51" viewBox="0 0 60 51" fill="none" xmlns="http://www.w3.org/2000/svg">
<circle cx="25.5" cy="25.5" r="23.5" stroke="#1C150E" stroke-width="4"/>
<rect x="38.9306" y="16.8317" width="20.2755" height="17.063" transform="rotate(2.27482 38.9306 16.8317)" fill="url(#paint0_linear_2020_5)"/>
<path d="M18.7805 31.525C19.0212 31.601 19.2428 31.639 19.4455 31.639C19.6862 31.639 19.8698 31.5757 19.9965 31.449C20.1358 31.3097 20.2055 31.1133 20.2055 30.86V19.08C20.2055 18.8267 20.1358 18.6367 19.9965 18.51C19.8698 18.3707 19.6862 18.301 19.4455 18.301C19.2428 18.301 19.0212 18.339 18.7805 18.415V17.94H21.6495L21.6305 30.86C21.6305 31.1133 21.6938 31.3097 21.8205 31.449C21.9598 31.5757 22.1498 31.639 22.3905 31.639C22.5932 31.639 22.8148 31.601 23.0555 31.525V32H18.7805V31.525ZM22.5805 25.996C22.7072 26.0087 22.8908 26.015 23.1315 26.015C24.2968 26.015 25.1835 25.6793 25.7915 25.008C26.3995 24.324 26.7035 23.4627 26.7035 22.424C26.7035 21.7653 26.5515 21.1067 26.2475 20.448C25.9435 19.7767 25.5002 19.2257 24.9175 18.795C24.3348 18.3517 23.6445 18.13 22.8465 18.13C22.5552 18.13 22.3335 18.1363 22.1815 18.149C22.0295 18.1617 21.8522 18.206 21.6495 18.282V17.94H23.1695C24.0308 17.94 24.8542 18.1047 25.6395 18.434C26.4375 18.7633 27.0898 19.2573 27.5965 19.916C28.1032 20.5747 28.3565 21.3727 28.3565 22.31C28.3565 23.032 28.1412 23.7097 27.7105 24.343C27.2798 24.9637 26.6972 25.4577 25.9625 25.825C25.2278 26.1923 24.4425 26.376 23.6065 26.376C23.2012 26.376 22.8592 26.3443 22.5805 26.281V25.996ZM32.5407 32.19C31.4893 32.19 30.685 31.7847 30.1277 30.974L29.9567 32H29.7097V28.599H30.0517C30.0517 29.6883 30.229 30.499 30.5837 31.031C30.9383 31.5503 31.4767 31.81 32.1987 31.81C32.794 31.81 33.2373 31.6073 33.5287 31.202C33.82 30.784 33.9657 30.252 33.9657 29.606C33.9657 29.0867 33.782 28.675 33.4147 28.371C33.06 28.067 32.5343 27.7503 31.8377 27.421C31.3563 27.193 30.9763 26.9903 30.6977 26.813C30.419 26.6357 30.1783 26.414 29.9757 26.148C29.7857 25.882 29.6907 25.559 29.6907 25.179C29.6907 24.4063 29.9313 23.811 30.4127 23.393C30.9067 22.9623 31.5273 22.747 32.2747 22.747C32.718 22.747 33.136 22.8547 33.5287 23.07C33.934 23.2727 34.1683 23.488 34.2317 23.716L34.3647 22.747H34.6117V25.236H34.3267C34.3267 24.6787 34.1557 24.1783 33.8137 23.735C33.4717 23.2917 33.022 23.07 32.4647 23.07C31.4387 23.07 30.9257 23.6337 30.9257 24.761C30.9257 25.1537 31.0713 25.4703 31.3627 25.711C31.654 25.9517 32.1163 26.2367 32.7497 26.566C33.2817 26.8447 33.7123 27.098 34.0417 27.326C34.371 27.5413 34.6497 27.8263 34.8777 28.181C35.1183 28.5357 35.2387 28.9663 35.2387 29.473C35.2387 29.9037 35.1247 30.328 34.8967 30.746C34.6687 31.164 34.3457 31.5123 33.9277 31.791C33.5223 32.057 33.06 32.19 32.5407 32.19Z" fill="white"/>
<defs>
<linearGradient id="paint0_linear_2020_5" x1="49.0683" y1="16.8317" x2="49.0683" y2="33.8947" gradientUnits="userSpaceOnUse">
<stop stop-color="#575757"/>
<stop offset="1" stop-color="#525252"/>
</linearGradient>
</defs>
</svg>
