<svg width="51" height="51" viewBox="0 0 51 51" fill="none" xmlns="http://www.w3.org/2000/svg">
<circle cx="25.5" cy="25.5" r="23.5" stroke="#1C150E" stroke-width="4"/>
<path d="M26.0448 17.491C26.0068 17.7317 25.9878 18.042 25.9878 18.422C25.9878 19.1693 26.0765 19.752 26.2538 20.17H25.9498C25.8105 19.904 25.7091 19.5557 25.6458 19.125C25.5571 18.669 25.4368 18.3143 25.2848 18.061C25.1328 17.795 24.8225 17.5733 24.3538 17.396C23.8851 17.2187 23.1821 17.13 22.2448 17.13C21.3328 17.13 20.7248 17.358 20.4208 17.814C20.3828 17.9027 20.3638 17.9913 20.3638 18.08V22.925H22.5108C22.8781 22.925 23.1315 22.9187 23.2708 22.906C23.4228 22.8807 23.5368 22.8237 23.6128 22.735C23.6888 22.6463 23.7268 22.4943 23.7268 22.279C23.7268 21.899 23.7015 21.614 23.6508 21.424C23.6128 21.234 23.4861 21.139 23.2708 21.139V20.892H24.0118V25.3H23.2708V25.034C23.4861 25.034 23.6128 24.9327 23.6508 24.73C23.7015 24.5147 23.7268 24.2107 23.7268 23.818C23.7268 23.6153 23.6381 23.476 23.4608 23.4C23.2835 23.324 22.9668 23.286 22.5108 23.286H20.3638V29.86C20.3638 30.1133 20.4271 30.3097 20.5538 30.449C20.6931 30.5757 20.8831 30.639 21.1238 30.639C21.3265 30.639 21.5481 30.601 21.7888 30.525V31H17.5138V30.525C17.7545 30.601 17.9761 30.639 18.1788 30.639C18.4195 30.639 18.6031 30.5757 18.7298 30.449C18.8691 30.3097 18.9388 30.1133 18.9388 29.86V18.08C18.9388 17.8267 18.8691 17.6367 18.7298 17.51C18.6031 17.3707 18.4195 17.301 18.1788 17.301C17.9888 17.301 17.7671 17.339 17.5138 17.415V16.94H26.1018L26.0448 17.491ZM32.589 22.108C32.399 22.0573 32.171 22.1777 31.905 22.469C32.2343 22.7603 32.4813 23.1213 32.646 23.552C32.8106 23.9827 32.893 24.4387 32.893 24.92C32.893 25.8573 32.6333 26.6173 32.114 27.2C31.6073 27.7827 30.8156 28.074 29.739 28.074C28.8776 28.074 28.181 27.8587 27.649 27.428C27.3703 27.504 27.174 27.656 27.06 27.884C26.946 28.0993 26.889 28.3147 26.889 28.53C26.889 29.138 27.44 29.442 28.542 29.442L30.594 29.48C31.6706 29.4927 32.475 29.7903 33.007 30.373C33.5516 30.943 33.824 31.6207 33.824 32.406C33.824 33.0267 33.653 33.6093 33.311 34.154C32.969 34.7113 32.4876 35.161 31.867 35.503C31.2463 35.845 30.537 36.016 29.739 36.016C29.0676 36.016 28.447 35.8893 27.877 35.636C27.3196 35.3827 26.8763 35.0407 26.547 34.61C26.2303 34.192 26.072 33.7297 26.072 33.223C26.072 32.8683 26.167 32.52 26.357 32.178C26.547 31.8487 26.8446 31.57 27.25 31.342C27.668 31.114 28.1936 31 28.827 31V31.152C28.1936 31.152 27.7693 31.3357 27.554 31.703C27.3386 32.0703 27.231 32.577 27.231 33.223C27.231 33.907 27.44 34.4833 27.858 34.952C28.276 35.4333 28.903 35.674 29.739 35.674C30.6383 35.674 31.335 35.3953 31.829 34.838C32.3356 34.2933 32.589 33.527 32.589 32.539C32.589 31.0697 31.3223 30.335 28.789 30.335C27.1423 30.335 26.319 29.8853 26.319 28.986C26.319 28.6567 26.414 28.321 26.604 27.979C26.8066 27.637 27.1043 27.4027 27.497 27.276C26.9523 26.7187 26.68 25.9333 26.68 24.92C26.68 24.0333 26.9333 23.286 27.44 22.678C27.9466 22.0573 28.713 21.747 29.739 21.747C30.537 21.747 31.202 21.9433 31.734 22.336C31.8986 22.1713 32.095 22.0383 32.323 21.937C32.5636 21.823 32.7916 21.766 33.007 21.766C33.1463 21.766 33.2476 21.7787 33.311 21.804C33.501 21.8673 33.6593 21.975 33.786 22.127C33.9253 22.2663 33.995 22.4183 33.995 22.583C33.995 22.7097 33.9443 22.8427 33.843 22.982C33.7163 23.1467 33.6023 23.229 33.501 23.229C33.4123 23.229 33.3363 23.1847 33.273 23.096C33.2096 23.0073 33.1336 22.8743 33.045 22.697C32.9563 22.507 32.8803 22.3677 32.817 22.279C32.7536 22.1777 32.6776 22.1207 32.589 22.108ZM29.739 27.846C30.4103 27.846 30.879 27.5863 31.145 27.067C31.4236 26.5477 31.563 25.832 31.563 24.92C31.563 24.0587 31.4236 23.3557 31.145 22.811C30.8663 22.2537 30.3976 21.975 29.739 21.975C29.093 21.975 28.637 22.2537 28.371 22.811C28.105 23.3557 27.972 24.0587 27.972 24.92C27.972 25.832 28.0986 26.5477 28.352 27.067C28.618 27.5863 29.0803 27.846 29.739 27.846Z" fill="white"/>
</svg>
