<?xml version="1.0" encoding="utf-8"?>
<!-- Generator: Adobe Illustrator 28.0.0, SVG Export Plug-In . SVG Version: 6.00 Build 0)  -->
<svg version="1.1" id="Слой_1" xmlns="http://www.w3.org/2000/svg" xmlns:xlink="http://www.w3.org/1999/xlink" x="0px" y="0px"
	 viewBox="0 0 841.89 595.28" style="enable-background:new 0 0 841.89 595.28;" xml:space="preserve">
<style type="text/css">
	.st0{display:none;fill:url(#SVGID_1_);}
	.st1{fill:#FFFFFF;}
	.st2{fill:#1D1D1B;}
</style>
<linearGradient id="SVGID_1_" gradientUnits="userSpaceOnUse" x1="419.617" y1="785.3643" x2="419.617" y2="-67.4629">
	<stop  offset="0" style="stop-color:#CFDADA"/>
	<stop  offset="0.9412" style="stop-color:#2B2B31"/>
</linearGradient>
<rect x="-4.72" y="-0.57" class="st0" width="848.68" height="595.91"/>
<g>
	<g>
		<path d="M380.67,195.76v-3.49h62.18v3.49h-17.12v237.55h17.12v3.49h-62.18v-3.49h16.07V195.76H380.67z"/>
	</g>
	<g>
		<path d="M475.51,195.63v-3.49h62.18v3.49h-17.12v237.55h17.12v3.49h-62.18v-3.49h16.07V195.63H475.51z"/>
	</g>
	<g>
		<path class="st1" d="M422.69,244.67c-7.4,10.15-14.8,18.9-22.2,26.24c-7.4,7.34-14.63,13.4-21.68,18.15
			c-7.06,4.76-13.62,8.58-19.7,11.44c-6.08,2.87-11.53,4.9-16.35,6.11c-4.82,1.2-8.66,1.92-11.53,2.15
			c0.11,0.92,0.17,1.78,0.17,2.58c0,0.8,0,1.66,0,2.58c0,7.34-1.49,14.34-4.47,20.99c-2.98,6.65-7.03,12.76-12.13,18.33
			c-5.11,5.57-11.07,10.58-17.9,15.06c-6.83,4.48-14.14,8.26-21.94,11.36c-7.8,3.1-15.89,5.48-24.26,7.14
			c-8.38,1.67-16.58,2.5-24.61,2.5c-7.46,0-15.26-0.57-23.4-1.72c-8.15-1.15-16.12-3.01-23.92-5.59
			c-7.8-2.58-15.23-5.96-22.29-10.15c-7.05-4.19-13.25-9.26-18.59-15.23c-5.33-5.96-9.58-12.91-12.73-20.82
			c-3.15-7.92-4.73-16.92-4.73-27.02c0-7,1.2-13.85,3.61-20.56c2.41-6.71,5.71-13.02,9.9-18.93c4.19-5.91,9.12-11.38,14.8-16.43
			c5.68-5.05,11.76-9.38,18.24-12.99c6.48-3.61,13.19-6.42,20.13-8.43c6.94-2.01,13.85-3.01,20.74-3.01c0.92,0,1.83,0,2.75,0
			c1.03,0,2.01,0.06,2.93,0.17c0.92-10.33,3.76-19.85,8.52-28.57c4.76-8.72,10.9-16.61,18.41-23.66
			c7.51-7.06,16.15-13.31,25.9-18.76c9.75-5.45,20.11-9.98,31.06-13.59c10.95-3.61,22.28-6.37,33.99-8.26
			c11.7-1.89,23.29-2.84,34.76-2.84c11.7,0,22.31,1.46,31.84,4.39c9.52,2.93,17.7,6.77,24.52,11.53
			c6.82,4.76,12.07,10.18,15.75,16.26c3.67,6.08,5.51,12.22,5.51,18.41c0,5.85-1.69,11.53-5.08,17.04
			c-3.38,5.51-8.75,10.44-16.09,14.8c-7.34,4.36-16.72,7.98-28.14,10.84c-11.42,2.87-25.21,4.53-41.39,4.99
			c-1.84,0.12-3.67,0.17-5.51,0.17c-1.72,0-3.5,0-5.33,0c-13.65,0-27.59-0.4-41.82-1.2c-14.23-0.8-28.51-1.2-42.85-1.2
			c-6.88,0-13.74,0.15-20.56,0.43c-6.83,0.29-13.62,0.89-20.39,1.81c-0.12,0.69-0.17,1.38-0.17,2.07c0,0.69,0,1.38,0,2.07
			c0,4.36,0.49,8.89,1.46,13.59c0.97,4.71,2.44,9.24,4.39,13.59c5.05-1.72,10.07-2.98,15.06-3.79c4.99-0.8,10.01-1.2,15.06-1.2
			c9.64,0,18.9,1.23,27.79,3.7c8.89,2.47,16.86,5.82,23.92,10.07c7.06,4.25,12.91,9.29,17.55,15.14c4.65,5.85,7.6,12.1,8.86,18.76
			c10.78-0.8,21.54-4.07,32.27-9.81c10.73-5.74,21.02-13.05,30.89-21.94c9.87-8.89,19.07-18.93,27.62-30.12
			c8.54-11.19,16.03-22.57,22.46-34.16C437.11,222.67,430.09,234.51,422.69,244.67z M316.51,309.37c-2.7,0.06-5.36,0.09-8,0.09
			c-8.72,0-17.44-0.74-26.16-2.24c-8.72-1.49-16.95-3.96-24.69-7.4c-7.74-3.44-14.83-7.92-21.25-13.42
			c-6.43-5.51-11.76-12.27-16-20.31c-6.77,2.64-12.82,5.88-18.16,9.72c-5.33,3.85-9.84,8.06-13.51,12.65
			c-3.67,4.59-6.45,9.35-8.35,14.28c-1.89,4.93-2.84,9.7-2.84,14.28c0,4.36,0.89,8.46,2.67,12.3c1.78,3.85,4.5,7.2,8.17,10.07
			c-4.02-2.64-7.03-6.02-9.03-10.15c-2.01-4.13-3.01-8.66-3.01-13.59c0-4.82,0.92-9.78,2.75-14.89c1.83-5.1,4.56-10.01,8.17-14.71
			c3.61-4.7,8.09-9,13.42-12.91c5.33-3.9,11.5-7.05,18.5-9.46c-0.69-1.49-1.38-3.27-2.07-5.33c-0.69-2.07-1.32-4.3-1.89-6.71
			c-0.58-2.41-1.03-4.96-1.38-7.66c-0.34-2.69-0.52-5.36-0.52-8c0-0.8,0-1.61,0-2.41c0-0.8,0.06-1.61,0.17-2.41
			c-10.33,0.23-20.59,2.41-30.8,6.54c-10.21,4.13-19.36,9.72-27.45,16.78c-8.09,7.06-14.63,15.32-19.62,24.78
			c-4.99,9.46-7.49,19.59-7.49,30.37c0,8.83,1.35,16.89,4.04,24.18c2.7,7.29,6.39,13.77,11.1,19.45c4.7,5.68,10.21,10.61,16.52,14.8
			c6.31,4.19,13.05,7.69,20.22,10.5c7.17,2.81,14.63,4.88,22.37,6.19c7.74,1.32,15.34,1.98,22.8,1.98c7.46,0,15.08-0.66,22.89-1.98
			c7.8-1.32,15.4-3.3,22.8-5.94c7.4-2.64,14.37-5.91,20.91-9.81c6.54-3.9,12.27-8.46,17.21-13.68c4.93-5.22,8.83-11.07,11.7-17.55
			c2.87-6.48,4.3-13.57,4.3-21.25c0-1.26-0.03-2.47-0.09-3.61c-0.06-1.14-0.2-2.47-0.43-3.96
			C321.87,309.17,319.2,309.31,316.51,309.37z M431.29,165.42c-3.04-5.62-7.49-10.67-13.34-15.14c-5.85-4.47-13.08-8.09-21.68-10.84
			c-8.6-2.75-18.41-4.13-29.43-4.13c-5.16,0-11.16,0.32-17.98,0.95c-6.83,0.63-14.06,1.69-21.68,3.18
			c-7.63,1.49-15.52,3.44-23.66,5.85c-8.15,2.41-16.15,5.36-24.01,8.86c-7.86,3.5-15.35,7.6-22.46,12.3
			c-7.11,4.71-13.48,10.13-19.1,16.26c-5.62,6.14-10.3,12.99-14.02,20.56c-3.73,7.57-6.17,16-7.31,25.3
			c5.62-0.69,11.62-1.15,17.98-1.38c6.37-0.23,12.99-0.34,19.88-0.34c7.69,0,15.46,0.12,23.32,0.34c7.86,0.23,15.49,0.49,22.89,0.77
			c7.4,0.29,14.4,0.55,20.99,0.77c6.6,0.23,12.48,0.34,17.64,0.34c5.39,0,9.75-0.17,13.08-0.52c14.34-0.11,26.76-1.49,37.26-4.13
			c10.5-2.64,19.16-6.14,25.98-10.5c6.82-4.36,11.9-9.29,15.23-14.8c3.33-5.51,4.99-11.13,4.99-16.87
			C435.85,176.66,434.33,171.04,431.29,165.42z M316.94,288.72c-4.25-5.45-9.67-10.3-16.26-14.54c-6.6-4.24-14.14-7.66-22.63-10.24
			c-8.49-2.58-17.32-3.87-26.5-3.87c-9.52,0-18.87,1.61-28.05,4.82c4.13,8.26,9.41,15.03,15.83,20.31
			c6.42,5.28,13.48,9.46,21.17,12.56c7.69,3.1,15.72,5.25,24.09,6.45c8.37,1.2,16.58,1.81,24.61,1.81c5.16,0,10.15-0.17,14.97-0.52
			C323.59,299.76,321.18,294.17,316.94,288.72z M682.62,174.2c-12.16-1.95-25.01-2.93-38.55-2.93c-20.31,0-38.86,2.9-55.67,8.69
			c-16.81,5.79-32.73,13.94-47.75,24.44c-15.03,10.5-29.69,23.12-43.97,37.86c-14.28,14.74-29,31.06-44.14,48.96
			c-8.26,9.87-16.29,19.33-24.09,28.39c-7.8,9.06-15.57,18.07-23.32,27.02s-15.6,17.98-23.58,27.1
			c-7.97,9.12-16.26,18.56-24.87,28.31c-2.3,2.52-4.59,4.28-6.88,5.25c-2.3,0.98-4.13,1.46-5.51,1.46c-1.61,0-2.81-0.54-3.61-1.64
			c-0.8-1.09-1.2-2.61-1.2-4.56c0-3.1,1.2-6.82,3.61-11.19c2.18-3.9,5.13-9.23,8.86-16c3.73-6.77,7.97-14.51,12.73-23.23
			c4.76-8.72,9.92-18.07,15.49-28.05c5.56-9.98,11.21-20.07,16.95-30.29c5.74-10.21,11.5-20.25,17.3-30.12
			c5.79-9.87,11.3-19.02,16.52-27.45c5.22-8.43,10.07-15.89,14.54-22.37c4.47-6.48,8.26-11.38,11.36-14.71
			c-10.44,16.29-20.31,32.41-29.6,48.36c-9.29,15.95-18.41,31.92-27.36,47.93s-17.84,32.12-26.67,48.36
			c-8.84,16.24-18.07,32.73-27.71,49.48c-2.41,4.36-3.61,7.57-3.61,9.64c0,2.06,0.92,3.1,2.75,3.1c1.26,0,2.67-0.46,4.22-1.38
			c1.55-0.92,3.12-2.24,4.73-3.96c8.49-9.4,16.38-18.78,23.66-28.14c7.29-9.35,14.46-18.76,21.51-28.22
			c7.06-9.46,14.31-18.99,21.77-28.57c7.46-9.58,15.6-19.24,24.44-29c8.72-9.64,17.64-19.27,26.76-28.91
			c9.12-9.64,18.53-18.81,28.22-27.53c9.69-8.72,19.79-16.81,30.29-24.26c10.5-7.46,21.54-13.94,33.13-19.45
			c11.59-5.51,23.75-9.81,36.48-12.91c12.73-3.1,26.27-4.65,40.61-4.65c8.03,0,15.63,0.4,22.8,1.2c7.17,0.8,13.85,1.78,20.05,2.93
			c6.19,1.15,11.84,2.41,16.95,3.79c5.1,1.38,9.61,2.58,13.51,3.61l1.55,0.52C705.68,178.44,694.78,176.15,682.62,174.2z"/>
		<path class="st1" d="M448.24,396.19c-5.74,3.9-11.3,7.29-16.69,10.15c-1.61,0.92-3.38,1.61-5.33,2.06
			c-1.95,0.46-3.85,0.69-5.68,0.69c-1.61,0-2.98-0.2-4.13-0.6c-1.15-0.4-1.95-1.12-2.41-2.15c-0.58-0.92-1.06-2.09-1.46-3.53
			c-0.4-1.43-0.6-3.01-0.6-4.73c0-5.16,1.72-10.95,5.16-17.38c4.13-7.46,7.63-13.6,10.5-18.41c2.87-4.82,5.36-8.92,7.49-12.3
			c2.12-3.38,4.01-6.42,5.68-9.12c1.66-2.69,3.36-5.71,5.08-9.03h9.46c-2.64,4.71-5.54,9.72-8.69,15.06
			c-3.16,5.34-6.37,10.84-9.64,16.52c-3.27,5.68-6.54,11.44-9.81,17.29c-3.27,5.85-6.4,11.7-9.38,17.55
			c-0.57,1.15-0.86,2.47-0.86,3.96c0,2.3,0.92,4.07,2.75,5.33c0.34,0.23,1.09,0.34,2.24,0.34c1.49,0,3.12-0.23,4.9-0.69
			c1.78-0.46,3.13-0.97,4.05-1.55c2.64-1.49,5.45-3.18,8.43-5.08c2.98-1.89,5.91-3.81,8.78-5.76c2.87-1.95,5.56-3.96,8.09-6.02
			c2.52-2.07,4.76-4.13,6.71-6.2l0.52,0.52C459.02,387.93,453.97,392.29,448.24,396.19z M471.64,302.57c0,1.38-0.46,2.35-1.38,2.93
			c-0.92,0.69-1.95,1.03-3.1,1.03c-1.03,0-2.07-0.34-3.1-1.03c-0.92-0.69-1.38-1.66-1.38-2.93c0-1.26,0.46-2.35,1.38-3.27
			c0.8-0.57,1.83-0.86,3.1-0.86c0.57,0,1.12,0.06,1.64,0.17c0.52,0.12,1,0.34,1.46,0.69c0.57,0.46,0.95,0.98,1.12,1.55
			C471.56,301.43,471.64,302,471.64,302.57z"/>
		<path class="st1" d="M509.5,345.77c-2.41,2.87-5.59,5.62-9.55,8.26c-3.96,2.64-8.49,5.39-13.6,8.26
			c-5.11,2.87-10.41,6.08-15.92,9.64c-2.3,4.71-4.53,9.24-6.71,13.59c-2.18,4.36-3.27,8.38-3.27,12.05c0,3.79,0.8,6.28,2.41,7.49
			c1.6,1.2,3.44,1.81,5.51,1.81c3.44,0,7.2-0.8,11.27-2.41c4.07-1.6,8-3.67,11.79-6.19c3.79-2.52,7.2-5.31,10.24-8.35
			c3.04-3.04,5.31-6.05,6.8-9.03l0.69,1.55c-1.95,3.67-4.56,7.12-7.83,10.33c-3.27,3.21-6.86,6-10.76,8.35
			c-3.9,2.35-7.92,4.22-12.05,5.59c-4.13,1.38-7.97,2.07-11.53,2.07c-3.44,0-6.22-1.06-8.35-3.18c-2.12-2.12-3.18-6.05-3.18-11.79
			c0-3.33,0.6-7.08,1.81-11.27c1.2-4.19,2.93-8.46,5.16-12.82c2.24-4.36,4.9-8.63,8-12.82c3.1-4.19,6.54-8.03,10.33-11.53
			c3.79-3.5,7.89-6.42,12.3-8.78c4.41-2.35,9.03-3.93,13.85-4.73l1.2-0.17c1.49,0,2.69,0.4,3.61,1.2c0.92,0.8,1.38,1.89,1.38,3.27
			C513.11,339.69,511.91,342.9,509.5,345.77z M507.26,333.72c-2.87,0-5.68,0.77-8.43,2.32c-2.75,1.55-5.39,3.5-7.92,5.85
			c-2.52,2.35-4.88,4.93-7.05,7.74c-2.18,2.81-4.13,5.51-5.85,8.09c-1.72,2.58-3.13,4.9-4.22,6.97c-1.09,2.07-1.81,3.44-2.15,4.13
			c5.28-2.75,10.3-5.53,15.06-8.35c4.76-2.81,8.95-5.59,12.56-8.35c3.61-2.75,6.51-5.48,8.69-8.17c2.18-2.7,3.27-5.25,3.27-7.66
			C511.22,334.58,509.9,333.72,507.26,333.72z"/>
		<path class="st1" d="M570.94,393.26c-3.33,3.1-6.63,5.79-9.9,8.09c-3.27,2.3-6.54,4.1-9.81,5.42c-3.27,1.32-6.69,1.98-10.24,1.98
			c-1.49-0.23-2.73-1.09-3.7-2.58c-0.97-1.49-1.46-3.38-1.46-5.68c0-3.67,1.23-8.06,3.7-13.17c2.47-5.1,5.39-10.38,8.78-15.83
			c3.38-5.45,6.8-10.78,10.24-16.01c3.44-5.22,6.14-9.78,8.09-13.68c0.92-1.61,1.38-3.21,1.38-4.82c0-1.14-0.26-2.09-0.77-2.84
			c-0.52-0.74-1.41-1.12-2.67-1.12c-0.92,0-2.01,0.29-3.27,0.86c-1.26,0.58-2.81,1.55-4.65,2.93c-3.1,2.52-6.31,5.36-9.64,8.52
			c-3.33,3.16-6.48,6.4-9.46,9.72c-2.98,3.33-5.76,6.63-8.35,9.9c-2.58,3.27-4.73,6.22-6.45,8.86c-3.67,5.62-7.29,11.44-10.84,17.47
			c-3.56,6.02-7.23,11.85-11.01,17.47h-9.29l47.5-76.92h9.29l-16.18,26.67c5.05-5.62,9.9-10.55,14.54-14.8
			c4.65-4.24,8.12-7.17,10.41-8.78c1.26-0.92,2.55-1.64,3.87-2.15c1.32-0.52,2.61-0.77,3.87-0.77c1.6,0,3.01,0.66,4.21,1.98
			c1.2,1.32,1.81,3.76,1.81,7.31c0,2.07-0.72,4.56-2.15,7.49c-1.44,2.93-3.27,6.11-5.51,9.55c-2.24,3.44-4.62,7.09-7.14,10.93
			c-2.52,3.85-4.9,7.72-7.14,11.62c-2.24,3.9-4.1,7.8-5.59,11.7c-1.49,3.9-2.24,7.57-2.24,11.01c0,2.64,1.38,3.96,4.13,3.96
			c2.07,0,4.47-0.69,7.23-2.06c2.75-1.38,5.71-3.21,8.86-5.51c3.15-2.29,6.45-5.02,9.9-8.17c3.44-3.15,6.88-6.45,10.33-9.9v1.2
			C577.82,386.78,574.26,390.17,570.94,393.26z"/>
	</g>
	<rect x="491.56" y="360.1" width="29.02" height="54.3"/>
	<rect x="491.56" y="205.88" width="29.02" height="54.3"/>
	<rect x="396.75" y="360.1" width="29.02" height="54.3"/>
	<rect x="396.75" y="233.8" width="29.02" height="70.13"/>
	<rect x="427.09" y="192.27" class="st2" width="15.57" height="3.47"/>
</g>
</svg>
