<svg width="118" height="20" viewBox="0 0 118 20" fill="none" xmlns="http://www.w3.org/2000/svg">
<mask id="path-1-outside-1_17_39" maskUnits="userSpaceOnUse" x="0" y="0" width="118" height="20" fill="black">
<rect fill="white" width="118" height="20"/>
<path d="M11.088 13.576C10.864 13.784 10.712 14.112 10.632 14.56C10.568 15.008 10.536 15.672 10.536 16.552V19H0.96V18.4C1.264 18.496 1.544 18.544 1.8 18.544C2.104 18.544 2.336 18.464 2.496 18.304C2.672 18.128 2.76 17.88 2.76 17.56V2.68C2.76 2.36 2.672 2.12 2.496 1.96C2.336 1.784 2.104 1.696 1.8 1.696C1.544 1.696 1.264 1.744 0.96 1.84V1.24H6.36V1.84C6.056 1.744 5.776 1.696 5.52 1.696C5.216 1.696 4.976 1.784 4.8 1.96C4.64 2.12 4.56 2.36 4.56 2.68V16C4.56 16.944 4.72 17.64 5.04 18.088C5.36 18.536 5.92 18.76 6.72 18.76C7.616 18.76 8.288 18.64 8.736 18.4C9.184 18.144 9.48 17.832 9.624 17.464C9.768 17.08 9.888 16.544 9.984 15.856C10.048 15.328 10.12 14.896 10.2 14.56C10.28 14.224 10.424 13.896 10.632 13.576H11.088ZM20.1339 19.48C18.5179 19.48 17.1179 19.056 15.9339 18.208C14.7499 17.344 13.8459 16.192 13.2219 14.752C12.6139 13.312 12.3019 11.728 12.2859 10C12.2699 8.64 12.5179 7.256 13.0299 5.848C13.5419 4.424 14.3659 3.224 15.5019 2.248C16.6379 1.256 18.1019 0.759999 19.8939 0.759999C21.7019 0.759999 23.1819 1.232 24.3339 2.176C25.5019 3.104 26.3419 4.272 26.8539 5.68C27.3819 7.088 27.6459 8.528 27.6459 10C27.6459 11.744 27.3659 13.336 26.8059 14.776C26.2459 16.2 25.3979 17.344 24.2619 18.208C23.1419 19.056 21.7659 19.48 20.1339 19.48ZM20.1339 19C22.0699 19 23.4699 18.168 24.3339 16.504C25.2139 14.824 25.6459 12.656 25.6299 10C25.6139 8.624 25.3979 7.264 24.9819 5.92C24.5819 4.576 23.9499 3.464 23.0859 2.584C22.2379 1.688 21.1739 1.24 19.8939 1.24C18.5979 1.24 17.5339 1.728 16.7019 2.704C15.8699 3.664 15.2619 4.84 14.8779 6.232C14.5099 7.624 14.3259 8.968 14.3259 10.264C14.3259 11.896 14.5339 13.368 14.9499 14.68C15.3819 15.992 16.0299 17.04 16.8939 17.824C17.7739 18.608 18.8539 19 20.1339 19ZM38.0916 19.48C36.6036 19.48 35.2436 19.056 34.0116 18.208C32.7956 17.344 31.8276 16.2 31.1076 14.776C30.4036 13.336 30.0516 11.784 30.0516 10.12C30.0516 8.44 30.3796 6.888 31.0356 5.464C31.7076 4.024 32.6356 2.88 33.8196 2.032C35.0196 1.184 36.3716 0.759999 37.8756 0.759999C38.9476 0.759999 39.9796 1.048 40.9716 1.624C41.9796 2.2 42.7396 2.832 43.2516 3.52L43.6116 1.168H44.0196V6.52H43.2516C43.2516 5.64 43.0436 4.8 42.6276 4C42.2116 3.184 41.5796 2.52 40.7316 2.008C39.8996 1.496 38.8676 1.24 37.6356 1.24C36.5316 1.24 35.5556 1.648 34.7076 2.464C33.8596 3.28 33.2116 4.36 32.7636 5.704C32.3156 7.048 32.0916 8.488 32.0916 10.024C32.0916 11.64 32.2996 13.128 32.7156 14.488C33.1316 15.832 33.7956 16.92 34.7076 17.752C35.6356 18.584 36.8036 19 38.2116 19C39.2356 19 40.1156 18.72 40.8516 18.16C41.5876 17.6 42.1396 16.896 42.5076 16.048C42.8916 15.184 43.0836 14.312 43.0836 13.432C43.0836 12.712 43.0276 12.16 42.9156 11.776C42.8196 11.392 42.6276 11.2 42.3396 11.2L40.5876 11.176C39.6116 11.176 39.0356 11.224 38.8596 11.32C38.6836 11.416 38.5956 11.608 38.5956 11.896C38.6116 12.184 38.6196 12.384 38.6196 12.496C38.6196 12.848 38.6516 13.12 38.7156 13.312C38.7796 13.488 38.9236 13.584 39.1476 13.6V13.912H38.2116V10.72H44.6676V16.648C44.3796 16.648 44.0276 16.76 43.6116 16.984C43.3396 17.144 43.0516 17.328 42.7476 17.536C41.8996 18.112 41.1076 18.584 40.3716 18.952C39.6356 19.304 38.8756 19.48 38.0916 19.48ZM54.9152 19.48C53.2992 19.48 51.8992 19.056 50.7152 18.208C49.5312 17.344 48.6272 16.192 48.0032 14.752C47.3952 13.312 47.0832 11.728 47.0672 10C47.0512 8.64 47.2992 7.256 47.8112 5.848C48.3232 4.424 49.1472 3.224 50.2832 2.248C51.4192 1.256 52.8832 0.759999 54.6752 0.759999C56.4832 0.759999 57.9632 1.232 59.1152 2.176C60.2832 3.104 61.1232 4.272 61.6352 5.68C62.1632 7.088 62.4272 8.528 62.4272 10C62.4272 11.744 62.1472 13.336 61.5872 14.776C61.0272 16.2 60.1792 17.344 59.0432 18.208C57.9232 19.056 56.5472 19.48 54.9152 19.48ZM54.9152 19C56.8512 19 58.2512 18.168 59.1152 16.504C59.9952 14.824 60.4272 12.656 60.4112 10C60.3952 8.624 60.1792 7.264 59.7632 5.92C59.3632 4.576 58.7312 3.464 57.8672 2.584C57.0192 1.688 55.9552 1.24 54.6752 1.24C53.3792 1.24 52.3152 1.728 51.4832 2.704C50.6512 3.664 50.0432 4.84 49.6592 6.232C49.2912 7.624 49.1072 8.968 49.1072 10.264C49.1072 11.896 49.3152 13.368 49.7312 14.68C50.1632 15.992 50.8112 17.04 51.6752 17.824C52.5552 18.608 53.6352 19 54.9152 19ZM75.6983 1.936C75.6503 2.24 75.6263 2.632 75.6263 3.112C75.6263 4.056 75.7383 4.792 75.9623 5.32H75.5782C75.4023 4.984 75.2743 4.544 75.1943 4C75.0823 3.424 74.9303 2.976 74.7383 2.656C74.5463 2.32 74.1543 2.04 73.5623 1.816C72.9703 1.592 72.0823 1.48 70.8983 1.48C70.6903 1.48 70.4583 1.496 70.2023 1.528V17.56C70.2023 17.88 70.2823 18.128 70.4423 18.304C70.6183 18.464 70.8583 18.544 71.1623 18.544C71.4183 18.544 71.6983 18.496 72.0023 18.4V19H66.6023V18.4C66.9223 18.496 67.2023 18.544 67.4423 18.544C67.7463 18.544 67.9783 18.464 68.1383 18.304C68.3143 18.128 68.4023 17.88 68.4023 17.56V1.528C68.1463 1.496 67.9223 1.48 67.7303 1.48C66.5463 1.48 65.6583 1.592 65.0663 1.816C64.4743 2.04 64.0823 2.32 63.8903 2.656C63.6983 2.976 63.5463 3.424 63.4343 4C63.3543 4.544 63.2263 4.984 63.0503 5.32H62.6662C62.8902 4.792 63.0023 4.056 63.0023 3.112C63.0023 2.632 62.9783 2.24 62.9303 1.936L62.8582 1.24H75.7703L75.6983 1.936ZM79.6866 18.4C80.0066 18.496 80.2786 18.544 80.5026 18.544C81.1266 18.544 81.4386 18.216 81.4386 17.56V10.696L77.2146 2.68C77.0386 2.344 76.8386 2.096 76.6146 1.936C76.4066 1.76 76.1506 1.672 75.8466 1.672C75.6866 1.672 75.4066 1.728 75.0066 1.84V1.24H80.7906V1.84C80.4066 1.728 80.1106 1.672 79.9026 1.672C79.6466 1.672 79.4386 1.72 79.2786 1.816C79.1346 1.912 79.0626 2.056 79.0626 2.248C79.0626 2.392 79.1026 2.536 79.1826 2.68L83.0226 10.12L86.8386 3.28L87.1266 2.728C87.2066 2.584 87.2466 2.44 87.2466 2.296C87.2466 2.088 87.1426 1.928 86.9346 1.816C86.7266 1.704 86.4626 1.648 86.1426 1.648C85.8226 1.648 85.4706 1.712 85.0866 1.84V1.24H89.7906V1.84C89.5026 1.744 89.2466 1.696 89.0226 1.696C88.6066 1.696 88.2866 1.864 88.0626 2.2C87.3266 3.4 86.3986 5.048 85.2786 7.144C84.4466 8.696 83.7986 9.88 83.3346 10.696V17.56C83.3346 18.216 83.6466 18.544 84.2706 18.544C84.5106 18.544 84.7826 18.496 85.0866 18.4V19H79.6866V18.4ZM90.0225 18.4C90.3265 18.496 90.6065 18.544 90.8625 18.544C91.1665 18.544 91.3985 18.464 91.5585 18.304C91.7345 18.128 91.8225 17.88 91.8225 17.56V2.68C91.8225 2.36 91.7345 2.12 91.5585 1.96C91.3985 1.784 91.1665 1.696 90.8625 1.696C90.6065 1.696 90.3265 1.744 90.0225 1.84V1.24H93.6465L93.6225 17.56C93.6225 17.88 93.7025 18.128 93.8625 18.304C94.0385 18.464 94.2785 18.544 94.5825 18.544C94.8385 18.544 95.1185 18.496 95.4225 18.4V19H90.0225V18.4ZM94.8225 11.416C94.9825 11.432 95.2145 11.44 95.5185 11.44C96.9905 11.44 98.1105 11.016 98.8785 10.168C99.6465 9.304 100.031 8.216 100.031 6.904C100.031 6.072 99.8385 5.24 99.4545 4.408C99.0705 3.56 98.5105 2.864 97.7745 2.32C97.0385 1.76 96.1665 1.48 95.1585 1.48C94.7905 1.48 94.5105 1.488 94.3185 1.504C94.1265 1.52 93.9025 1.576 93.6465 1.672V1.24H95.5665C96.6545 1.24 97.6945 1.448 98.6865 1.864C99.6945 2.28 100.519 2.904 101.159 3.736C101.799 4.568 102.119 5.576 102.119 6.76C102.119 7.672 101.847 8.528 101.303 9.328C100.759 10.112 100.023 10.736 99.0945 11.2C98.1665 11.664 97.1745 11.896 96.1185 11.896C95.6065 11.896 95.1745 11.856 94.8225 11.776V11.416ZM116.524 13.576C116.3 13.784 116.148 14.112 116.068 14.56C116.004 15.008 115.972 15.672 115.972 16.552V19H103.804V18.4C104.108 18.496 104.388 18.544 104.644 18.544C104.948 18.544 105.18 18.464 105.34 18.304C105.516 18.128 105.604 17.88 105.604 17.56V2.68C105.604 2.36 105.516 2.12 105.34 1.96C105.18 1.784 104.948 1.696 104.644 1.696C104.388 1.696 104.108 1.744 103.804 1.84V1.24H114.964L114.892 1.936C114.844 2.24 114.82 2.632 114.82 3.112C114.82 4.056 114.932 4.792 115.156 5.32H114.772C114.596 4.984 114.468 4.544 114.388 4C114.276 3.424 114.124 2.976 113.932 2.656C113.74 2.32 113.348 2.04 112.756 1.816C112.164 1.592 111.276 1.48 110.092 1.48C109.244 1.48 108.628 1.624 108.244 1.912C107.86 2.2 107.628 2.512 107.548 2.848C107.484 3.168 107.436 3.632 107.404 4.24V8.8H110.716C111.18 8.8 111.5 8.792 111.676 8.776C111.868 8.744 112.012 8.672 112.108 8.56C112.204 8.448 112.252 8.256 112.252 7.984C112.252 7.504 112.22 7.144 112.156 6.904C112.108 6.664 111.948 6.544 111.676 6.544V6.232H112.612V11.8H111.676V11.464C111.948 11.464 112.108 11.336 112.156 11.08C112.22 10.808 112.252 10.424 112.252 9.928C112.252 9.672 112.14 9.504 111.916 9.424C111.708 9.328 111.308 9.272 110.716 9.256H107.404V16C107.436 16.544 107.5 17 107.596 17.368C107.692 17.72 107.94 18.04 108.34 18.328C108.756 18.616 109.388 18.76 110.236 18.76C111.612 18.76 112.66 18.616 113.38 18.328C114.1 18.024 114.588 17.656 114.844 17.224C115.1 16.776 115.324 16.176 115.516 15.424C115.708 14.608 115.932 13.992 116.188 13.576H116.524Z"/>
</mask>
<path d="M11.088 13.576C10.864 13.784 10.712 14.112 10.632 14.56C10.568 15.008 10.536 15.672 10.536 16.552V19H0.96V18.4C1.264 18.496 1.544 18.544 1.8 18.544C2.104 18.544 2.336 18.464 2.496 18.304C2.672 18.128 2.76 17.88 2.76 17.56V2.68C2.76 2.36 2.672 2.12 2.496 1.96C2.336 1.784 2.104 1.696 1.8 1.696C1.544 1.696 1.264 1.744 0.96 1.84V1.24H6.36V1.84C6.056 1.744 5.776 1.696 5.52 1.696C5.216 1.696 4.976 1.784 4.8 1.96C4.64 2.12 4.56 2.36 4.56 2.68V16C4.56 16.944 4.72 17.64 5.04 18.088C5.36 18.536 5.92 18.76 6.72 18.76C7.616 18.76 8.288 18.64 8.736 18.4C9.184 18.144 9.48 17.832 9.624 17.464C9.768 17.08 9.888 16.544 9.984 15.856C10.048 15.328 10.12 14.896 10.2 14.56C10.28 14.224 10.424 13.896 10.632 13.576H11.088ZM20.1339 19.48C18.5179 19.48 17.1179 19.056 15.9339 18.208C14.7499 17.344 13.8459 16.192 13.2219 14.752C12.6139 13.312 12.3019 11.728 12.2859 10C12.2699 8.64 12.5179 7.256 13.0299 5.848C13.5419 4.424 14.3659 3.224 15.5019 2.248C16.6379 1.256 18.1019 0.759999 19.8939 0.759999C21.7019 0.759999 23.1819 1.232 24.3339 2.176C25.5019 3.104 26.3419 4.272 26.8539 5.68C27.3819 7.088 27.6459 8.528 27.6459 10C27.6459 11.744 27.3659 13.336 26.8059 14.776C26.2459 16.2 25.3979 17.344 24.2619 18.208C23.1419 19.056 21.7659 19.48 20.1339 19.48ZM20.1339 19C22.0699 19 23.4699 18.168 24.3339 16.504C25.2139 14.824 25.6459 12.656 25.6299 10C25.6139 8.624 25.3979 7.264 24.9819 5.92C24.5819 4.576 23.9499 3.464 23.0859 2.584C22.2379 1.688 21.1739 1.24 19.8939 1.24C18.5979 1.24 17.5339 1.728 16.7019 2.704C15.8699 3.664 15.2619 4.84 14.8779 6.232C14.5099 7.624 14.3259 8.968 14.3259 10.264C14.3259 11.896 14.5339 13.368 14.9499 14.68C15.3819 15.992 16.0299 17.04 16.8939 17.824C17.7739 18.608 18.8539 19 20.1339 19ZM38.0916 19.48C36.6036 19.48 35.2436 19.056 34.0116 18.208C32.7956 17.344 31.8276 16.2 31.1076 14.776C30.4036 13.336 30.0516 11.784 30.0516 10.12C30.0516 8.44 30.3796 6.888 31.0356 5.464C31.7076 4.024 32.6356 2.88 33.8196 2.032C35.0196 1.184 36.3716 0.759999 37.8756 0.759999C38.9476 0.759999 39.9796 1.048 40.9716 1.624C41.9796 2.2 42.7396 2.832 43.2516 3.52L43.6116 1.168H44.0196V6.52H43.2516C43.2516 5.64 43.0436 4.8 42.6276 4C42.2116 3.184 41.5796 2.52 40.7316 2.008C39.8996 1.496 38.8676 1.24 37.6356 1.24C36.5316 1.24 35.5556 1.648 34.7076 2.464C33.8596 3.28 33.2116 4.36 32.7636 5.704C32.3156 7.048 32.0916 8.488 32.0916 10.024C32.0916 11.64 32.2996 13.128 32.7156 14.488C33.1316 15.832 33.7956 16.92 34.7076 17.752C35.6356 18.584 36.8036 19 38.2116 19C39.2356 19 40.1156 18.72 40.8516 18.16C41.5876 17.6 42.1396 16.896 42.5076 16.048C42.8916 15.184 43.0836 14.312 43.0836 13.432C43.0836 12.712 43.0276 12.16 42.9156 11.776C42.8196 11.392 42.6276 11.2 42.3396 11.2L40.5876 11.176C39.6116 11.176 39.0356 11.224 38.8596 11.32C38.6836 11.416 38.5956 11.608 38.5956 11.896C38.6116 12.184 38.6196 12.384 38.6196 12.496C38.6196 12.848 38.6516 13.12 38.7156 13.312C38.7796 13.488 38.9236 13.584 39.1476 13.6V13.912H38.2116V10.72H44.6676V16.648C44.3796 16.648 44.0276 16.76 43.6116 16.984C43.3396 17.144 43.0516 17.328 42.7476 17.536C41.8996 18.112 41.1076 18.584 40.3716 18.952C39.6356 19.304 38.8756 19.48 38.0916 19.48ZM54.9152 19.48C53.2992 19.48 51.8992 19.056 50.7152 18.208C49.5312 17.344 48.6272 16.192 48.0032 14.752C47.3952 13.312 47.0832 11.728 47.0672 10C47.0512 8.64 47.2992 7.256 47.8112 5.848C48.3232 4.424 49.1472 3.224 50.2832 2.248C51.4192 1.256 52.8832 0.759999 54.6752 0.759999C56.4832 0.759999 57.9632 1.232 59.1152 2.176C60.2832 3.104 61.1232 4.272 61.6352 5.68C62.1632 7.088 62.4272 8.528 62.4272 10C62.4272 11.744 62.1472 13.336 61.5872 14.776C61.0272 16.2 60.1792 17.344 59.0432 18.208C57.9232 19.056 56.5472 19.48 54.9152 19.48ZM54.9152 19C56.8512 19 58.2512 18.168 59.1152 16.504C59.9952 14.824 60.4272 12.656 60.4112 10C60.3952 8.624 60.1792 7.264 59.7632 5.92C59.3632 4.576 58.7312 3.464 57.8672 2.584C57.0192 1.688 55.9552 1.24 54.6752 1.24C53.3792 1.24 52.3152 1.728 51.4832 2.704C50.6512 3.664 50.0432 4.84 49.6592 6.232C49.2912 7.624 49.1072 8.968 49.1072 10.264C49.1072 11.896 49.3152 13.368 49.7312 14.68C50.1632 15.992 50.8112 17.04 51.6752 17.824C52.5552 18.608 53.6352 19 54.9152 19ZM75.6983 1.936C75.6503 2.24 75.6263 2.632 75.6263 3.112C75.6263 4.056 75.7383 4.792 75.9623 5.32H75.5782C75.4023 4.984 75.2743 4.544 75.1943 4C75.0823 3.424 74.9303 2.976 74.7383 2.656C74.5463 2.32 74.1543 2.04 73.5623 1.816C72.9703 1.592 72.0823 1.48 70.8983 1.48C70.6903 1.48 70.4583 1.496 70.2023 1.528V17.56C70.2023 17.88 70.2823 18.128 70.4423 18.304C70.6183 18.464 70.8583 18.544 71.1623 18.544C71.4183 18.544 71.6983 18.496 72.0023 18.4V19H66.6023V18.4C66.9223 18.496 67.2023 18.544 67.4423 18.544C67.7463 18.544 67.9783 18.464 68.1383 18.304C68.3143 18.128 68.4023 17.88 68.4023 17.56V1.528C68.1463 1.496 67.9223 1.48 67.7303 1.48C66.5463 1.48 65.6583 1.592 65.0663 1.816C64.4743 2.04 64.0823 2.32 63.8903 2.656C63.6983 2.976 63.5463 3.424 63.4343 4C63.3543 4.544 63.2263 4.984 63.0503 5.32H62.6662C62.8902 4.792 63.0023 4.056 63.0023 3.112C63.0023 2.632 62.9783 2.24 62.9303 1.936L62.8582 1.24H75.7703L75.6983 1.936ZM79.6866 18.4C80.0066 18.496 80.2786 18.544 80.5026 18.544C81.1266 18.544 81.4386 18.216 81.4386 17.56V10.696L77.2146 2.68C77.0386 2.344 76.8386 2.096 76.6146 1.936C76.4066 1.76 76.1506 1.672 75.8466 1.672C75.6866 1.672 75.4066 1.728 75.0066 1.84V1.24H80.7906V1.84C80.4066 1.728 80.1106 1.672 79.9026 1.672C79.6466 1.672 79.4386 1.72 79.2786 1.816C79.1346 1.912 79.0626 2.056 79.0626 2.248C79.0626 2.392 79.1026 2.536 79.1826 2.68L83.0226 10.12L86.8386 3.28L87.1266 2.728C87.2066 2.584 87.2466 2.44 87.2466 2.296C87.2466 2.088 87.1426 1.928 86.9346 1.816C86.7266 1.704 86.4626 1.648 86.1426 1.648C85.8226 1.648 85.4706 1.712 85.0866 1.84V1.24H89.7906V1.84C89.5026 1.744 89.2466 1.696 89.0226 1.696C88.6066 1.696 88.2866 1.864 88.0626 2.2C87.3266 3.4 86.3986 5.048 85.2786 7.144C84.4466 8.696 83.7986 9.88 83.3346 10.696V17.56C83.3346 18.216 83.6466 18.544 84.2706 18.544C84.5106 18.544 84.7826 18.496 85.0866 18.4V19H79.6866V18.4ZM90.0225 18.4C90.3265 18.496 90.6065 18.544 90.8625 18.544C91.1665 18.544 91.3985 18.464 91.5585 18.304C91.7345 18.128 91.8225 17.88 91.8225 17.56V2.68C91.8225 2.36 91.7345 2.12 91.5585 1.96C91.3985 1.784 91.1665 1.696 90.8625 1.696C90.6065 1.696 90.3265 1.744 90.0225 1.84V1.24H93.6465L93.6225 17.56C93.6225 17.88 93.7025 18.128 93.8625 18.304C94.0385 18.464 94.2785 18.544 94.5825 18.544C94.8385 18.544 95.1185 18.496 95.4225 18.4V19H90.0225V18.4ZM94.8225 11.416C94.9825 11.432 95.2145 11.44 95.5185 11.44C96.9905 11.44 98.1105 11.016 98.8785 10.168C99.6465 9.304 100.031 8.216 100.031 6.904C100.031 6.072 99.8385 5.24 99.4545 4.408C99.0705 3.56 98.5105 2.864 97.7745 2.32C97.0385 1.76 96.1665 1.48 95.1585 1.48C94.7905 1.48 94.5105 1.488 94.3185 1.504C94.1265 1.52 93.9025 1.576 93.6465 1.672V1.24H95.5665C96.6545 1.24 97.6945 1.448 98.6865 1.864C99.6945 2.28 100.519 2.904 101.159 3.736C101.799 4.568 102.119 5.576 102.119 6.76C102.119 7.672 101.847 8.528 101.303 9.328C100.759 10.112 100.023 10.736 99.0945 11.2C98.1665 11.664 97.1745 11.896 96.1185 11.896C95.6065 11.896 95.1745 11.856 94.8225 11.776V11.416ZM116.524 13.576C116.3 13.784 116.148 14.112 116.068 14.56C116.004 15.008 115.972 15.672 115.972 16.552V19H103.804V18.4C104.108 18.496 104.388 18.544 104.644 18.544C104.948 18.544 105.18 18.464 105.34 18.304C105.516 18.128 105.604 17.88 105.604 17.56V2.68C105.604 2.36 105.516 2.12 105.34 1.96C105.18 1.784 104.948 1.696 104.644 1.696C104.388 1.696 104.108 1.744 103.804 1.84V1.24H114.964L114.892 1.936C114.844 2.24 114.82 2.632 114.82 3.112C114.82 4.056 114.932 4.792 115.156 5.32H114.772C114.596 4.984 114.468 4.544 114.388 4C114.276 3.424 114.124 2.976 113.932 2.656C113.74 2.32 113.348 2.04 112.756 1.816C112.164 1.592 111.276 1.48 110.092 1.48C109.244 1.48 108.628 1.624 108.244 1.912C107.86 2.2 107.628 2.512 107.548 2.848C107.484 3.168 107.436 3.632 107.404 4.24V8.8H110.716C111.18 8.8 111.5 8.792 111.676 8.776C111.868 8.744 112.012 8.672 112.108 8.56C112.204 8.448 112.252 8.256 112.252 7.984C112.252 7.504 112.22 7.144 112.156 6.904C112.108 6.664 111.948 6.544 111.676 6.544V6.232H112.612V11.8H111.676V11.464C111.948 11.464 112.108 11.336 112.156 11.08C112.22 10.808 112.252 10.424 112.252 9.928C112.252 9.672 112.14 9.504 111.916 9.424C111.708 9.328 111.308 9.272 110.716 9.256H107.404V16C107.436 16.544 107.5 17 107.596 17.368C107.692 17.72 107.94 18.04 108.34 18.328C108.756 18.616 109.388 18.76 110.236 18.76C111.612 18.76 112.66 18.616 113.38 18.328C114.1 18.024 114.588 17.656 114.844 17.224C115.1 16.776 115.324 16.176 115.516 15.424C115.708 14.608 115.932 13.992 116.188 13.576H116.524Z" fill="black"/>
<path d="M11.088 13.576L11.4282 13.9424L12.3613 13.076H11.088V13.576ZM10.632 14.56L10.1398 14.4721L10.1383 14.4807L10.137 14.4893L10.632 14.56ZM10.536 19V19.5H11.036V19H10.536ZM0.96 19H0.46V19.5H0.96V19ZM0.96 18.4L1.11057 17.9232L0.46 17.7178V18.4H0.96ZM2.496 18.304L2.14245 17.9504L2.496 18.304ZM2.496 1.96L2.12603 2.29634L2.14205 2.31395L2.15966 2.32997L2.496 1.96ZM0.96 1.84H0.46V2.52223L1.11057 2.31679L0.96 1.84ZM0.96 1.24V0.74H0.46V1.24H0.96ZM6.36 1.24H6.86V0.74H6.36V1.24ZM6.36 1.84L6.20943 2.31679L6.86 2.52223V1.84H6.36ZM4.8 1.96L4.44645 1.60645L4.44645 1.60645L4.8 1.96ZM5.04 18.088L5.44687 17.7974L5.04 18.088ZM8.736 18.4L8.9722 18.8409L8.98407 18.8341L8.736 18.4ZM9.624 17.464L10.0897 17.6462L10.0922 17.6396L9.624 17.464ZM9.984 15.856L10.4793 15.9251L10.4804 15.9162L9.984 15.856ZM10.2 14.56L10.6864 14.6758L10.2 14.56ZM10.632 13.576V13.076H10.3607L10.2128 13.3035L10.632 13.576ZM10.7478 13.2096C10.4138 13.5198 10.23 13.9671 10.1398 14.4721L11.1242 14.6479C11.194 14.2569 11.3142 14.0482 11.4282 13.9424L10.7478 13.2096ZM10.137 14.4893C10.0679 14.9734 10.036 15.666 10.036 16.552H11.036C11.036 15.678 11.0681 15.0426 11.127 14.6307L10.137 14.4893ZM10.036 16.552V19H11.036V16.552H10.036ZM10.536 18.5H0.96V19.5H10.536V18.5ZM1.46 19V18.4H0.46V19H1.46ZM0.809434 18.8768C1.15072 18.9846 1.48218 19.044 1.8 19.044V18.044C1.60582 18.044 1.37728 18.0074 1.11057 17.9232L0.809434 18.8768ZM1.8 19.044C2.18968 19.044 2.56713 18.94 2.84955 18.6576L2.14245 17.9504C2.10487 17.988 2.01832 18.044 1.8 18.044V19.044ZM2.84955 18.6576C3.14405 18.3631 3.26 17.973 3.26 17.56H2.26C2.26 17.787 2.19995 17.8929 2.14245 17.9504L2.84955 18.6576ZM3.26 17.56V2.68H2.26V17.56H3.26ZM3.26 2.68C3.26 2.27 3.14506 1.87432 2.83234 1.59003L2.15966 2.32997C2.19894 2.36568 2.26 2.45 2.26 2.68H3.26ZM2.86597 1.62366C2.58638 1.31611 2.20317 1.196 1.8 1.196V2.196C2.00483 2.196 2.08562 2.25188 2.12603 2.29634L2.86597 1.62366ZM1.8 1.196C1.48218 1.196 1.15072 1.25543 0.809435 1.36321L1.11057 2.31679C1.37728 2.23257 1.60582 2.196 1.8 2.196V1.196ZM1.46 1.84V1.24H0.46V1.84H1.46ZM0.96 1.74H6.36V0.74H0.96V1.74ZM5.86 1.24V1.84H6.86V1.24H5.86ZM6.51057 1.36321C6.16928 1.25543 5.83782 1.196 5.52 1.196V2.196C5.71418 2.196 5.94272 2.23257 6.20943 2.31679L6.51057 1.36321ZM5.52 1.196C5.11463 1.196 4.73621 1.31668 4.44645 1.60645L5.15355 2.31355C5.21579 2.25132 5.31737 2.196 5.52 2.196V1.196ZM4.44645 1.60645C4.15961 1.89329 4.06 2.28293 4.06 2.68H5.06C5.06 2.43707 5.12039 2.34671 5.15355 2.31355L4.44645 1.60645ZM4.06 2.68V16H5.06V2.68H4.06ZM4.06 16C4.06 16.9816 4.22285 17.8042 4.63313 18.3786L5.44687 17.7974C5.21715 17.4758 5.06 16.9064 5.06 16H4.06ZM4.63313 18.3786C5.08443 19.0104 5.83601 19.26 6.72 19.26V18.26C6.00399 18.26 5.63557 18.0616 5.44687 17.7974L4.63313 18.3786ZM6.72 19.26C7.64431 19.26 8.41538 19.139 8.97211 18.8407L8.49989 17.9593C8.16062 18.141 7.58769 18.26 6.72 18.26V19.26ZM8.98407 18.8341C9.50063 18.5389 9.89276 18.1493 10.0896 17.6462L9.15838 17.2818C9.06724 17.5147 8.86737 17.7491 8.48793 17.9659L8.98407 18.8341ZM10.0922 17.6396C10.2549 17.2056 10.3811 16.6281 10.4792 15.9251L9.4888 15.7869C9.3949 16.4599 9.2811 16.9544 9.15584 17.2884L10.0922 17.6396ZM10.4804 15.9162C10.5432 15.3981 10.6124 14.9865 10.6864 14.6758L9.7136 14.4442C9.62757 14.8055 9.55283 15.2579 9.48763 15.7958L10.4804 15.9162ZM10.6864 14.6758C10.7518 14.401 10.8712 14.1255 11.0512 13.8485L10.2128 13.3035C9.97684 13.6665 9.80818 14.047 9.7136 14.4442L10.6864 14.6758ZM10.632 14.076H11.088V13.076H10.632V14.076ZM15.9339 18.208L15.6392 18.6119L15.6428 18.6145L15.9339 18.208ZM13.2219 14.752L12.7613 14.9465L12.7632 14.9508L13.2219 14.752ZM12.2859 10L12.7859 9.99537L12.7859 9.99412L12.2859 10ZM13.0299 5.848L13.4998 6.01887L13.5004 6.01717L13.0299 5.848ZM15.5019 2.248L15.8278 2.62726L15.8308 2.62462L15.5019 2.248ZM24.3339 2.176L24.017 2.56278L24.0229 2.56748L24.3339 2.176ZM26.8539 5.68L26.384 5.85088L26.3858 5.85556L26.8539 5.68ZM26.8059 14.776L27.2713 14.959L27.2719 14.9572L26.8059 14.776ZM24.2619 18.208L24.5638 18.6066L24.5646 18.606L24.2619 18.208ZM24.3339 16.504L23.891 16.272L23.8902 16.2736L24.3339 16.504ZM25.6299 10L26.1299 9.99699L26.1299 9.99419L25.6299 10ZM24.9819 5.92L24.5027 6.06264L24.5043 6.06784L24.9819 5.92ZM23.0859 2.584L22.7227 2.92775L22.7292 2.93429L23.0859 2.584ZM16.7019 2.704L17.0798 3.03148L17.0824 3.02837L16.7019 2.704ZM14.8779 6.232L14.3959 6.09903L14.3945 6.10421L14.8779 6.232ZM14.9499 14.68L14.4733 14.8311L14.475 14.8364L14.9499 14.68ZM16.8939 17.824L16.5579 18.1943L16.5613 18.1973L16.8939 17.824ZM20.1339 18.98C18.6104 18.98 17.3149 18.5821 16.2251 17.8015L15.6428 18.6145C16.921 19.5299 18.4255 19.98 20.1339 19.98V18.98ZM16.2287 17.8041C15.1218 16.9964 14.2719 15.9174 13.6807 14.5532L12.7632 14.9508C13.42 16.4666 14.3781 17.6916 15.6392 18.6119L16.2287 17.8041ZM13.6826 14.5575C13.1025 13.1837 12.8014 11.665 12.7859 9.99537L11.786 10.0046C11.8025 11.791 12.1254 13.4403 12.7613 14.9465L13.6826 14.5575ZM12.7859 9.99412C12.7707 8.70019 13.0063 7.37599 13.4998 6.01887L12.56 5.67713C12.0295 7.13601 11.7692 8.57981 11.786 10.0059L12.7859 9.99412ZM13.5004 6.01717C13.9835 4.67364 14.7581 3.5463 15.8278 2.62725L15.1761 1.86875C13.9738 2.9017 13.1004 4.17436 12.5594 5.67883L13.5004 6.01717ZM15.8308 2.62462C16.8592 1.72662 18.1989 1.26 19.8939 1.26V0.259999C18.0049 0.259999 16.4167 0.785379 15.1731 1.87138L15.8308 2.62462ZM19.8939 1.26C21.612 1.26 22.9724 1.70672 24.017 2.56274L24.6509 1.78926C23.3915 0.757282 21.7919 0.259999 19.8939 0.259999V1.26ZM24.0229 2.56748C25.1183 3.43776 25.9035 4.52927 26.384 5.85087L27.3238 5.50913C26.7804 4.01473 25.8856 2.77024 24.645 1.78452L24.0229 2.56748ZM26.3858 5.85556C26.8932 7.20866 27.1459 8.58926 27.1459 10H28.1459C28.1459 8.46674 27.8707 6.96734 27.3221 5.50444L26.3858 5.85556ZM27.1459 10C27.1459 11.6899 26.8748 13.2195 26.3399 14.5948L27.2719 14.9572C27.8571 13.4525 28.1459 11.7981 28.1459 10H27.1459ZM26.3406 14.593C25.8116 15.9382 25.0171 17.0055 23.9593 17.81L24.5646 18.606C25.7788 17.6825 26.6803 16.4618 27.2712 14.959L26.3406 14.593ZM23.9601 17.8094C22.9405 18.5813 21.6753 18.98 20.1339 18.98V19.98C21.8566 19.98 23.3433 19.5307 24.5638 18.6066L23.9601 17.8094ZM20.1339 19.5C21.1748 19.5 22.1006 19.2758 22.8914 18.8058C23.683 18.3354 24.3094 17.6364 24.7777 16.7344L23.8902 16.2736C23.4945 17.0356 22.9888 17.5846 22.3805 17.9462C21.7713 18.3082 21.0291 18.5 20.1339 18.5V19.5ZM24.7769 16.736C25.707 14.9603 26.1462 12.7039 26.1299 9.99699L25.1299 10.003C25.1456 12.6081 24.7209 14.6877 23.891 16.272L24.7769 16.736ZM26.1299 9.99419C26.1133 8.56894 25.8895 7.16114 25.4596 5.77216L24.5043 6.06784C24.9064 7.36686 25.1145 8.67906 25.13 10.0058L26.1299 9.99419ZM25.4612 5.77737C25.0411 4.36602 24.3713 3.17946 23.4427 2.2337L22.7292 2.93429C23.5286 3.74854 24.1228 4.78598 24.5027 6.06263L25.4612 5.77737ZM23.4491 2.24031C22.5027 1.24038 21.3055 0.74 19.8939 0.74V1.74C21.0424 1.74 21.9731 2.13562 22.7228 2.92769L23.4491 2.24031ZM19.8939 0.74C18.4533 0.74 17.2496 1.29085 16.3214 2.37963L17.0824 3.02837C17.8183 2.16515 18.7426 1.74 19.8939 1.74V0.74ZM16.3241 2.37653C15.4371 3.40004 14.797 4.64509 14.3959 6.09904L15.3599 6.36496C15.7268 5.03491 16.3028 3.92796 17.0798 3.03146L16.3241 2.37653ZM14.3945 6.10421C14.0167 7.53335 13.8259 8.92039 13.8259 10.264H14.8259C14.8259 9.01561 15.0032 7.71465 15.3613 6.35979L14.3945 6.10421ZM13.8259 10.264C13.8259 11.938 14.0393 13.4621 14.4733 14.8311L15.4266 14.5289C15.0286 13.2738 14.8259 11.854 14.8259 10.264H13.8259ZM14.475 14.8364C14.9291 16.2153 15.6191 17.3423 16.5579 18.1943L17.2299 17.4537C16.4408 16.7377 15.8348 15.7687 15.4249 14.5236L14.475 14.8364ZM16.5613 18.1973C17.5411 19.0702 18.7427 19.5 20.1339 19.5V18.5C18.9652 18.5 18.0068 18.1458 17.2265 17.4507L16.5613 18.1973ZM34.0116 18.208L33.7219 18.6156L33.7281 18.6199L34.0116 18.208ZM31.1076 14.776L30.6583 14.9956L30.6614 15.0016L31.1076 14.776ZM31.0356 5.464L30.5825 5.25255L30.5814 5.25479L31.0356 5.464ZM33.8196 2.032L33.531 1.62366L33.5284 1.6255L33.8196 2.032ZM40.9716 1.624L40.7205 2.0564L40.7235 2.05812L40.9716 1.624ZM43.2516 3.52L42.8504 3.8185L43.5648 4.77838L43.7458 3.59565L43.2516 3.52ZM43.6116 1.168V0.667999H43.1823L43.1173 1.09235L43.6116 1.168ZM44.0196 1.168H44.5196V0.667999H44.0196V1.168ZM44.0196 6.52V7.02H44.5196V6.52H44.0196ZM43.2516 6.52H42.7516V7.02H43.2516V6.52ZM42.6276 4L42.1821 4.2271L42.184 4.23068L42.6276 4ZM40.7316 2.008L40.4695 2.43384L40.4731 2.43603L40.7316 2.008ZM32.7636 5.704L32.2892 5.54589V5.54589L32.7636 5.704ZM32.7156 14.488L32.2374 14.6343L32.2379 14.6358L32.7156 14.488ZM34.7076 17.752L34.3706 18.1214L34.3738 18.1243L34.7076 17.752ZM40.8516 18.16L40.5488 17.7621L40.8516 18.16ZM42.5076 16.048L42.0506 15.8449L42.0489 15.849L42.5076 16.048ZM42.9156 11.776L42.4305 11.8973L42.4328 11.9067L42.4356 11.916L42.9156 11.776ZM42.3396 11.2L42.3327 11.7H42.3396V11.2ZM40.5876 11.176L40.5944 10.676H40.5876V11.176ZM38.8596 11.32L38.6201 10.8811L38.8596 11.32ZM38.5956 11.896H38.0956V11.9099L38.0963 11.9237L38.5956 11.896ZM38.7156 13.312L38.241 13.4702L38.2457 13.4829L38.7156 13.312ZM39.1476 13.6H39.6476V13.1344L39.1832 13.1013L39.1476 13.6ZM39.1476 13.912V14.412H39.6476V13.912H39.1476ZM38.2116 13.912H37.7116V14.412H38.2116V13.912ZM38.2116 10.72V10.22H37.7116V10.72H38.2116ZM44.6676 10.72H45.1676V10.22H44.6676V10.72ZM44.6676 16.648V17.148H45.1676V16.648H44.6676ZM43.6116 16.984L43.3745 16.5438L43.3662 16.5482L43.3581 16.553L43.6116 16.984ZM42.7476 17.536L43.0285 17.9496L43.0299 17.9487L42.7476 17.536ZM40.3716 18.952L40.5873 19.4031L40.5952 19.3992L40.3716 18.952ZM38.0916 18.98C36.7054 18.98 35.4441 18.587 34.2951 17.7961L33.7281 18.6199C35.043 19.525 36.5018 19.98 38.0916 19.98V18.98ZM34.3012 17.8004C33.156 16.9867 32.2397 15.9071 31.5538 14.5504L30.6614 15.0016C31.4154 16.4929 32.4352 17.7013 33.722 18.6156L34.3012 17.8004ZM31.5568 14.5564C30.8875 13.1874 30.5516 11.7109 30.5516 10.12H29.5516C29.5516 11.8571 29.9197 13.4846 30.6584 14.9956L31.5568 14.5564ZM30.5516 10.12C30.5516 8.50697 30.866 7.02699 31.4897 5.67321L30.5814 5.25479C29.8931 6.74901 29.5516 8.37303 29.5516 10.12H30.5516ZM31.4887 5.67544C32.1277 4.306 33.0028 3.23199 34.1107 2.43849L33.5284 1.6255C32.2683 2.52801 31.2874 3.74199 30.5825 5.25256L31.4887 5.67544ZM34.1081 2.44033C35.2216 1.65346 36.4723 1.26 37.8756 1.26V0.259999C36.2708 0.259999 34.8175 0.71454 33.531 1.62367L34.1081 2.44033ZM37.8756 1.26C38.8532 1.26 39.7992 1.52146 40.7205 2.05639L41.2226 1.1916C40.1599 0.574535 39.0419 0.259999 37.8756 0.259999V1.26ZM40.7235 2.05812C41.6916 2.61134 42.3914 3.20163 42.8504 3.8185L43.6527 3.22149C43.0877 2.46237 42.2675 1.78866 41.2196 1.18988L40.7235 2.05812ZM43.7458 3.59565L44.1058 1.24365L43.1173 1.09235L42.7573 3.44435L43.7458 3.59565ZM43.6116 1.668H44.0196V0.667999H43.6116V1.668ZM43.5196 1.168V6.52H44.5196V1.168H43.5196ZM44.0196 6.02H43.2516V7.02H44.0196V6.02ZM43.7516 6.52C43.7516 5.55766 43.5233 4.63875 43.0712 3.76932L42.184 4.23068C42.5639 4.96125 42.7516 5.72233 42.7516 6.52H43.7516ZM43.073 3.77291C42.6112 2.86702 41.9111 2.1361 40.99 1.57997L40.4731 2.43603C41.248 2.9039 41.8119 3.50098 42.1821 4.22709L43.073 3.77291ZM40.9936 1.58217C40.0646 1.0105 38.9362 0.74 37.6356 0.74V1.74C38.799 1.74 39.7345 1.9815 40.4695 2.43383L40.9936 1.58217ZM37.6356 0.74C36.3932 0.74 35.2953 1.20459 34.3609 2.10371L35.0543 2.82429C35.8159 2.09141 36.6699 1.74 37.6356 1.74V0.74ZM34.3609 2.10371C33.4439 2.98613 32.7576 4.14068 32.2892 5.54589L33.2379 5.86211C33.6655 4.57932 34.2753 3.57387 35.0543 2.82429L34.3609 2.10371ZM32.2892 5.54589C31.8229 6.94498 31.5916 8.43878 31.5916 10.024H32.5916C32.5916 8.53722 32.8083 7.15101 33.2379 5.86211L32.2892 5.54589ZM31.5916 10.024C31.5916 11.6829 31.8051 13.2209 32.2374 14.6343L33.1937 14.3417C32.794 13.0351 32.5916 11.5971 32.5916 10.024H31.5916ZM32.2379 14.6358C32.6765 16.0528 33.384 17.2214 34.3706 18.1214L35.0445 17.3826C34.2071 16.6186 33.5866 15.6112 33.1932 14.3402L32.2379 14.6358ZM34.3738 18.1243C35.4055 19.0493 36.6975 19.5 38.2116 19.5V18.5C36.9096 18.5 35.8656 18.1187 35.0413 17.3797L34.3738 18.1243ZM38.2116 19.5C39.3326 19.5 40.3219 19.1913 41.1543 18.5579L40.5488 17.7621C39.9092 18.2487 39.1386 18.5 38.2116 18.5V19.5ZM41.1543 18.5579C41.9584 17.9461 42.5641 17.1736 42.9662 16.247L42.0489 15.849C41.715 16.6184 41.2167 17.2539 40.5488 17.7621L41.1543 18.5579ZM42.9645 16.2511C43.3747 15.328 43.5836 14.3871 43.5836 13.432H42.5836C42.5836 14.2369 42.4084 15.04 42.0507 15.8449L42.9645 16.2511ZM43.5836 13.432C43.5836 12.696 43.5274 12.0881 43.3956 11.636L42.4356 11.916C42.5277 12.2319 42.5836 12.728 42.5836 13.432H43.5836ZM43.4006 11.6547C43.3401 11.4126 43.236 11.1734 43.0531 10.9904C42.8572 10.7945 42.6072 10.7 42.3396 10.7V11.7C42.3552 11.7 42.3573 11.7024 42.3519 11.7002C42.3458 11.6978 42.3434 11.695 42.346 11.6976C42.3551 11.7066 42.395 11.7554 42.4305 11.8973L43.4006 11.6547ZM42.3464 10.7L40.5944 10.676L40.5807 11.676L42.3327 11.7L42.3464 10.7ZM40.5876 10.676C40.0937 10.676 39.69 10.6881 39.382 10.7137C39.2283 10.7265 39.0902 10.7434 38.9725 10.7659C38.8651 10.7865 38.734 10.8189 38.6201 10.8811L39.099 11.7589C39.0731 11.7731 39.0801 11.7635 39.1606 11.7481C39.2309 11.7346 39.3308 11.7215 39.4651 11.7103C39.7331 11.6879 40.1054 11.676 40.5876 11.676V10.676ZM38.6201 10.8811C38.218 11.1004 38.0956 11.5144 38.0956 11.896H39.0956C39.0956 11.7992 39.1109 11.7557 39.1161 11.7443C39.1181 11.7399 39.1176 11.7424 39.1126 11.7479C39.1075 11.7535 39.102 11.7573 39.099 11.7589L38.6201 10.8811ZM38.0963 11.9237C38.1124 12.2124 38.1196 12.3996 38.1196 12.496H39.1196C39.1196 12.3684 39.1108 12.1556 39.0948 11.8683L38.0963 11.9237ZM38.1196 12.496C38.1196 12.8682 38.1521 13.2029 38.2412 13.4701L39.1899 13.1539C39.151 13.0371 39.1196 12.8278 39.1196 12.496H38.1196ZM38.2457 13.4829C38.3109 13.6623 38.4261 13.82 38.5942 13.932C38.7566 14.0403 38.9386 14.0863 39.1119 14.0987L39.1832 13.1013C39.1325 13.0977 39.1305 13.0877 39.1489 13.1C39.1583 13.1062 39.1679 13.115 39.1757 13.1253C39.1833 13.1352 39.1857 13.1419 39.1855 13.1411L38.2457 13.4829ZM38.6476 13.6V13.912H39.6476V13.6H38.6476ZM39.1476 13.412H38.2116V14.412H39.1476V13.412ZM38.7116 13.912V10.72H37.7116V13.912H38.7116ZM38.2116 11.22H44.6676V10.22H38.2116V11.22ZM44.1676 10.72V16.648H45.1676V10.72H44.1676ZM44.6676 16.148C44.2599 16.148 43.8219 16.3028 43.3745 16.5438L43.8486 17.4242C44.2332 17.2172 44.4992 17.148 44.6676 17.148V16.148ZM43.3581 16.553C43.0748 16.7197 42.7771 16.9099 42.4652 17.1233L43.0299 17.9487C43.326 17.7461 43.6043 17.5683 43.8651 17.415L43.3581 16.553ZM42.4666 17.1224C41.6327 17.6888 40.86 18.1488 40.148 18.5048L40.5952 19.3992C41.3551 19.0192 42.1664 18.5352 43.0285 17.9496L42.4666 17.1224ZM40.1558 18.5009C39.4844 18.8221 38.7978 18.98 38.0916 18.98V19.98C38.9533 19.98 39.7867 19.7859 40.5873 19.4031L40.1558 18.5009ZM50.7152 18.208L50.4204 18.6119L50.424 18.6145L50.7152 18.208ZM48.0032 14.752L47.5425 14.9465L47.5444 14.9508L48.0032 14.752ZM47.0672 10L47.5672 9.99537L47.5672 9.99412L47.0672 10ZM47.8112 5.848L48.2811 6.01887L48.2817 6.01717L47.8112 5.848ZM50.2832 2.248L50.609 2.62726L50.6121 2.62462L50.2832 2.248ZM59.1152 2.176L58.7982 2.56278L58.8041 2.56748L59.1152 2.176ZM61.6352 5.68L61.1653 5.85088L61.167 5.85556L61.6352 5.68ZM61.5872 14.776L62.0525 14.959L62.0532 14.9572L61.5872 14.776ZM59.0432 18.208L59.345 18.6066L59.3459 18.606L59.0432 18.208ZM59.1152 16.504L58.6723 16.272L58.6714 16.2736L59.1152 16.504ZM60.4112 10L60.9112 9.99699L60.9112 9.99419L60.4112 10ZM59.7632 5.92L59.2839 6.06264L59.2855 6.06784L59.7632 5.92ZM57.8672 2.584L57.504 2.92775L57.5104 2.93429L57.8672 2.584ZM51.4832 2.704L51.861 3.03148L51.8637 3.02837L51.4832 2.704ZM49.6592 6.232L49.1772 6.09903L49.1758 6.10421L49.6592 6.232ZM49.7312 14.68L49.2545 14.8311L49.2563 14.8364L49.7312 14.68ZM51.6752 17.824L51.3392 18.1943L51.3426 18.1973L51.6752 17.824ZM54.9152 18.98C53.3916 18.98 52.0962 18.5821 51.0063 17.8015L50.424 18.6145C51.7022 19.5299 53.2067 19.98 54.9152 19.98V18.98ZM51.0099 17.8041C49.903 16.9964 49.0531 15.9174 48.462 14.5532L47.5444 14.9508C48.2012 16.4666 49.1594 17.6916 50.4205 18.6119L51.0099 17.8041ZM48.4638 14.5575C47.8837 13.1837 47.5826 11.665 47.5672 9.99537L46.5672 10.0046C46.5837 11.791 46.9066 13.4403 47.5426 14.9465L48.4638 14.5575ZM47.5672 9.99412C47.5519 8.70019 47.7876 7.37599 48.2811 6.01887L47.3413 5.67713C46.8108 7.13601 46.5504 8.57981 46.5672 10.0059L47.5672 9.99412ZM48.2817 6.01717C48.7648 4.67364 49.5393 3.5463 50.609 2.62725L49.9574 1.86875C48.7551 2.9017 47.8816 4.17436 47.3407 5.67883L48.2817 6.01717ZM50.6121 2.62462C51.6404 1.72662 52.9802 1.26 54.6752 1.26V0.259999C52.7862 0.259999 51.198 0.785379 49.9543 1.87138L50.6121 2.62462ZM54.6752 1.26C56.3933 1.26 57.7536 1.70672 58.7983 2.56274L59.4321 1.78926C58.1727 0.757282 56.5731 0.259999 54.6752 0.259999V1.26ZM58.8041 2.56748C59.8995 3.43776 60.6847 4.52927 61.1653 5.85087L62.1051 5.50913C61.5617 4.01473 60.6669 2.77024 59.4262 1.78452L58.8041 2.56748ZM61.167 5.85556C61.6744 7.20866 61.9272 8.58926 61.9272 10H62.9272C62.9272 8.46674 62.6519 6.96734 62.1034 5.50444L61.167 5.85556ZM61.9272 10C61.9272 11.6899 61.656 13.2195 61.1212 14.5948L62.0532 14.9572C62.6384 13.4525 62.9272 11.7981 62.9272 10H61.9272ZM61.1219 14.593C60.5929 15.9382 59.7984 17.0055 58.7405 17.81L59.3459 18.606C60.56 17.6825 61.4615 16.4618 62.0525 14.959L61.1219 14.593ZM58.7414 17.8094C57.7218 18.5813 56.4566 18.98 54.9152 18.98V19.98C56.6378 19.98 58.1246 19.5307 59.345 18.6066L58.7414 17.8094ZM54.9152 19.5C55.956 19.5 56.8819 19.2758 57.6726 18.8058C58.4643 18.3354 59.0906 17.6364 59.5589 16.7344L58.6714 16.2736C58.2758 17.0356 57.7701 17.5846 57.1617 17.9462C56.5525 18.3082 55.8104 18.5 54.9152 18.5V19.5ZM59.5581 16.736C60.4882 14.9603 60.9275 12.7039 60.9112 9.99699L59.9112 10.003C59.9269 12.6081 59.5022 14.6877 58.6723 16.272L59.5581 16.736ZM60.9112 9.99419C60.8946 8.56894 60.6708 7.16114 60.2408 5.77216L59.2855 6.06784C59.6876 7.36686 59.8958 8.67906 59.9112 10.0058L60.9112 9.99419ZM60.2424 5.77737C59.8224 4.36602 59.1525 3.17946 58.224 2.2337L57.5104 2.93429C58.3098 3.74854 58.904 4.78598 59.284 6.06263L60.2424 5.77737ZM58.2303 2.24031C57.284 1.24038 56.0868 0.74 54.6752 0.74V1.74C55.8236 1.74 56.7544 2.13562 57.504 2.92769L58.2303 2.24031ZM54.6752 0.74C53.2345 0.74 52.0308 1.29085 51.1027 2.37963L51.8637 3.02837C52.5995 2.16515 53.5238 1.74 54.6752 1.74V0.74ZM51.1053 2.37653C50.2183 3.40004 49.5783 4.64509 49.1772 6.09904L50.1412 6.36496C50.5081 5.03491 51.0841 3.92796 51.861 3.03146L51.1053 2.37653ZM49.1758 6.10421C48.798 7.53335 48.6072 8.92039 48.6072 10.264H49.6072C49.6072 9.01561 49.7844 7.71465 50.1426 6.35979L49.1758 6.10421ZM48.6072 10.264C48.6072 11.938 48.8205 13.4621 49.2546 14.8311L50.2078 14.5289C49.8099 13.2738 49.6072 11.854 49.6072 10.264H48.6072ZM49.2563 14.8364C49.7103 16.2153 50.4003 17.3423 51.3392 18.1943L52.0112 17.4537C51.2221 16.7377 50.6161 15.7687 50.2061 14.5236L49.2563 14.8364ZM51.3426 18.1973C52.3224 19.0702 53.524 19.5 54.9152 19.5V18.5C53.7464 18.5 52.788 18.1458 52.0078 17.4507L51.3426 18.1973ZM75.6982 1.936L76.1921 2.01398L76.1942 2.00076L76.1956 1.98745L75.6982 1.936ZM75.9622 5.32V5.82H76.7175L76.4225 5.12472L75.9622 5.32ZM75.5782 5.32L75.1353 5.552L75.2757 5.82H75.5782V5.32ZM75.1943 4L75.6889 3.92725L75.6873 3.91586L75.6851 3.90456L75.1943 4ZM74.7383 2.656L74.304 2.90412L74.3095 2.91325L74.7383 2.656ZM73.5622 1.816L73.7392 1.34836L73.5622 1.816ZM70.2022 1.528L70.1402 1.03186L69.7022 1.08661V1.528H70.2022ZM70.4423 18.304L70.0723 18.6403L70.0883 18.658L70.1059 18.674L70.4423 18.304ZM72.0023 18.4H72.5023V17.7178L71.8517 17.9232L72.0023 18.4ZM72.0023 19V19.5H72.5023V19H72.0023ZM66.6022 19H66.1022V19.5H66.6022V19ZM66.6022 18.4L66.7459 17.9211L66.1022 17.728V18.4H66.6022ZM68.1383 18.304L68.4918 18.6576L68.1383 18.304ZM68.4023 1.528H68.9023V1.08661L68.4643 1.03186L68.4023 1.528ZM63.8903 2.656L64.3191 2.9133L64.3244 2.90407L63.8903 2.656ZM63.4342 4L62.9434 3.90456L62.9412 3.91586L62.9396 3.92725L63.4342 4ZM63.0503 5.32V5.82H63.3528L63.4932 5.552L63.0503 5.32ZM62.6662 5.32L62.206 5.12472L61.911 5.82H62.6662V5.32ZM62.9302 1.936L62.4329 1.98745L62.4343 2.00076L62.4364 2.01398L62.9302 1.936ZM62.8582 1.24V0.74H62.3039L62.3609 1.29145L62.8582 1.24ZM75.7702 1.24L76.2676 1.29145L76.3246 0.74H75.7702V1.24ZM75.2044 1.85802C75.1507 2.1979 75.1263 2.61861 75.1263 3.112H76.1263C76.1263 2.64539 76.1498 2.2821 76.1921 2.01398L75.2044 1.85802ZM75.1263 3.112C75.1263 4.08525 75.2402 4.89824 75.502 5.51527L76.4225 5.12472C76.2363 4.68575 76.1263 4.02675 76.1263 3.112H75.1263ZM75.9622 4.82H75.5782V5.82H75.9622V4.82ZM76.0212 5.088C75.8801 4.81875 75.7641 4.4384 75.6889 3.92725L74.6996 4.07275C74.7844 4.6496 74.9244 5.14925 75.1353 5.552L76.0212 5.088ZM75.6851 3.90456C75.5676 3.30031 75.4011 2.78885 75.167 2.39875L74.3095 2.91325C74.4594 3.16315 74.5969 3.54768 74.7034 4.09544L75.6851 3.90456ZM75.1724 2.40793C74.8961 1.92438 74.3757 1.58921 73.7392 1.34836L73.3853 2.28364C73.9328 2.49079 74.1964 2.71562 74.3041 2.90407L75.1724 2.40793ZM73.7392 1.34836C73.0609 1.09169 72.0995 0.98 70.8982 0.98V1.98C72.065 1.98 72.8796 2.09231 73.3853 2.28364L73.7392 1.34836ZM70.8982 0.98C70.6653 0.98 70.4121 0.997872 70.1402 1.03186L70.2643 2.02414C70.5044 1.99413 70.7152 1.98 70.8982 1.98V0.98ZM69.7022 1.528V17.56H70.7022V1.528H69.7022ZM69.7022 17.56C69.7022 17.9608 69.8033 18.3445 70.0723 18.6403L70.8122 17.9677C70.7612 17.9115 70.7022 17.7992 70.7022 17.56H69.7022ZM70.1059 18.674C70.3974 18.9389 70.7696 19.044 71.1622 19.044V18.044C70.9469 18.044 70.8391 17.9891 70.7786 17.934L70.1059 18.674ZM71.1622 19.044C71.4801 19.044 71.8115 18.9846 72.1528 18.8768L71.8517 17.9232C71.585 18.0074 71.3564 18.044 71.1622 18.044V19.044ZM71.5023 18.4V19H72.5023V18.4H71.5023ZM72.0023 18.5H66.6022V19.5H72.0023V18.5ZM67.1022 19V18.4H66.1022V19H67.1022ZM66.4586 18.8789C66.8084 18.9839 67.1387 19.044 67.4423 19.044V18.044C67.2658 18.044 67.0361 18.0081 66.7459 17.9211L66.4586 18.8789ZM67.4423 19.044C67.8319 19.044 68.2094 18.94 68.4918 18.6576L67.7847 17.9504C67.7471 17.988 67.6606 18.044 67.4423 18.044V19.044ZM68.4918 18.6576C68.7863 18.3631 68.9023 17.973 68.9023 17.56H67.9023C67.9023 17.787 67.8422 17.8929 67.7847 17.9504L68.4918 18.6576ZM68.9023 17.56V1.528H67.9023V17.56H68.9023ZM68.4643 1.03186C68.1942 0.998101 67.9486 0.98 67.7302 0.98V1.98C67.8959 1.98 68.0983 1.9939 68.3402 2.02414L68.4643 1.03186ZM67.7302 0.98C66.529 0.98 65.5676 1.09169 64.8893 1.34836L65.2432 2.28364C65.7489 2.09231 66.5635 1.98 67.7302 1.98V0.98ZM64.8893 1.34836C64.2528 1.58921 63.7324 1.92438 63.4561 2.40793L64.3244 2.90407C64.4321 2.71562 64.6957 2.49079 65.2432 2.28364L64.8893 1.34836ZM63.4615 2.39875C63.2274 2.78885 63.0609 3.30031 62.9434 3.90456L63.9251 4.09544C64.0316 3.54768 64.1691 3.16315 64.319 2.91325L63.4615 2.39875ZM62.9396 3.92725C62.8644 4.4384 62.7484 4.81875 62.6073 5.08799L63.4932 5.552C63.7041 5.14925 63.8441 4.6496 63.9289 4.07275L62.9396 3.92725ZM63.0503 4.82H62.6662V5.82H63.0503V4.82ZM63.1265 5.51527C63.3883 4.89824 63.5023 4.08525 63.5023 3.112H62.5023C62.5023 4.02675 62.3922 4.68575 62.206 5.12472L63.1265 5.51527ZM63.5023 3.112C63.5023 2.61861 63.4778 2.1979 63.4241 1.85802L62.4364 2.01398C62.4787 2.2821 62.5023 2.64539 62.5023 3.112H63.5023ZM63.4276 1.88455L63.3556 1.18855L62.3609 1.29145L62.4329 1.98745L63.4276 1.88455ZM62.8582 1.74H75.7702V0.74H62.8582V1.74ZM75.2729 1.18855L75.2009 1.88455L76.1956 1.98745L76.2676 1.29145L75.2729 1.18855ZM79.6866 18.4L79.8302 17.9211L79.1866 17.728V18.4H79.6866ZM81.4386 10.696H81.9386V10.5723L81.8809 10.4629L81.4386 10.696ZM77.2146 2.68L76.7716 2.912L76.7722 2.91309L77.2146 2.68ZM76.6146 1.936L76.2916 2.31769L76.3073 2.33094L76.3239 2.34287L76.6146 1.936ZM75.0066 1.84H74.5066V2.49923L75.1414 2.32148L75.0066 1.84ZM75.0066 1.24V0.74H74.5066V1.24H75.0066ZM80.7906 1.24H81.2906V0.74H80.7906V1.24ZM80.7906 1.84L80.6506 2.32L81.2906 2.50667V1.84H80.7906ZM79.2786 1.816L79.0213 1.38725L79.0111 1.39337L79.0012 1.39997L79.2786 1.816ZM79.1826 2.68L79.6269 2.45068L79.6234 2.44387L79.6196 2.43718L79.1826 2.68ZM83.0226 10.12L82.5783 10.3493L83.0054 11.177L83.4592 10.3636L83.0226 10.12ZM86.8386 3.28L87.2754 3.5237L87.2819 3.51128L86.8386 3.28ZM87.1266 2.728L86.6893 2.4851L86.6833 2.49672L87.1266 2.728ZM86.9346 1.816L86.6975 2.25623L86.6975 2.25624L86.9346 1.816ZM85.0866 1.84H84.5866V2.53371L85.2447 2.31434L85.0866 1.84ZM85.0866 1.24V0.74H84.5866V1.24H85.0866ZM89.7906 1.24H90.2906V0.74H89.7906V1.24ZM89.7906 1.84L89.6324 2.31434L90.2906 2.53371V1.84H89.7906ZM88.0626 2.2L87.6465 1.92265L87.6413 1.93052L87.6363 1.93858L88.0626 2.2ZM85.2786 7.144L85.7192 7.38024L85.7196 7.37964L85.2786 7.144ZM83.3346 10.696L82.8999 10.4488L82.8346 10.5638V10.696H83.3346ZM85.0866 18.4H85.5866V17.7178L84.936 17.9232L85.0866 18.4ZM85.0866 19V19.5H85.5866V19H85.0866ZM79.6866 19H79.1866V19.5H79.6866V19ZM79.5429 18.8789C79.889 18.9827 80.2123 19.044 80.5026 19.044V18.044C80.3448 18.044 80.1241 18.0093 79.8302 17.9211L79.5429 18.8789ZM80.5026 19.044C80.8982 19.044 81.2851 18.9388 81.5668 18.6426C81.8441 18.3511 81.9386 17.959 81.9386 17.56H80.9386C80.9386 17.817 80.877 17.9169 80.8423 17.9534C80.812 17.9852 80.7309 18.044 80.5026 18.044V19.044ZM81.9386 17.56V10.696H80.9386V17.56H81.9386ZM81.8809 10.4629L77.6569 2.44691L76.7722 2.91309L80.9962 10.9291L81.8809 10.4629ZM77.6575 2.448C77.4581 2.06739 77.2124 1.74856 76.9052 1.52913L76.3239 2.34287C76.4647 2.44343 76.619 2.62061 76.7716 2.912L77.6575 2.448ZM76.9375 1.55431C76.6287 1.29298 76.2542 1.172 75.8466 1.172V2.172C76.0469 2.172 76.1844 2.22702 76.2916 2.31769L76.9375 1.55431ZM75.8466 1.172C75.6091 1.172 75.2675 1.24772 74.8717 1.35852L75.1414 2.32148C75.5457 2.20828 75.764 2.172 75.8466 2.172V1.172ZM75.5066 1.84V1.24H74.5066V1.84H75.5066ZM75.0066 1.74H80.7906V0.74H75.0066V1.74ZM80.2906 1.24V1.84H81.2906V1.24H80.2906ZM80.9306 1.36C80.5348 1.24457 80.1835 1.172 79.9026 1.172V2.172C80.0376 2.172 80.2783 2.21143 80.6506 2.32L80.9306 1.36ZM79.9026 1.172C79.5883 1.172 79.2827 1.23039 79.0213 1.38725L79.5358 2.24475C79.5944 2.20961 79.7048 2.172 79.9026 2.172V1.172ZM79.0012 1.39997C78.7011 1.60004 78.5626 1.91035 78.5626 2.248H79.5626C79.5626 2.23116 79.5641 2.22158 79.565 2.21776C79.5657 2.21422 79.5658 2.21547 79.5638 2.21961C79.5616 2.2239 79.5587 2.22818 79.5557 2.23148C79.5529 2.23463 79.5521 2.23454 79.5559 2.23203L79.0012 1.39997ZM78.5626 2.248C78.5626 2.48855 78.6302 2.71537 78.7455 2.92282L79.6196 2.43718C79.5749 2.35663 79.5626 2.29545 79.5626 2.248H78.5626ZM78.7383 2.90932L82.5783 10.3493L83.4669 9.89068L79.6269 2.45068L78.7383 2.90932ZM83.4592 10.3636L87.2752 3.5236L86.4019 3.0364L82.5859 9.8764L83.4592 10.3636ZM87.2819 3.51128L87.5699 2.95928L86.6833 2.49672L86.3953 3.04872L87.2819 3.51128ZM87.5636 2.97082C87.6789 2.76337 87.7466 2.53655 87.7466 2.296H86.7466C86.7466 2.34345 86.7342 2.40463 86.6895 2.48518L87.5636 2.97082ZM87.7466 2.296C87.7466 1.87553 87.5148 1.56056 87.1716 1.37576L86.6975 2.25624C86.745 2.28181 86.7527 2.29764 86.7493 2.29249C86.7479 2.29027 86.7465 2.28724 86.7459 2.28498C86.7454 2.28304 86.7466 2.28597 86.7466 2.296H87.7466ZM87.1716 1.37576C86.8695 1.2131 86.5173 1.148 86.1426 1.148V2.148C86.4079 2.148 86.5836 2.1949 86.6975 2.25623L87.1716 1.37576ZM86.1426 1.148C85.7568 1.148 85.3506 1.22495 84.9285 1.36566L85.2447 2.31434C85.5906 2.19905 85.8884 2.148 86.1426 2.148V1.148ZM85.5866 1.84V1.24H84.5866V1.84H85.5866ZM85.0866 1.74H89.7906V0.74H85.0866V1.74ZM89.2906 1.24V1.84H90.2906V1.24H89.2906ZM89.9487 1.36566C89.6266 1.25828 89.3156 1.196 89.0226 1.196V2.196C89.1775 2.196 89.3786 2.22972 89.6324 2.31434L89.9487 1.36566ZM89.0226 1.196C88.4454 1.196 87.9666 1.44258 87.6465 1.92265L88.4786 2.47735C88.6065 2.28541 88.7677 2.196 89.0226 2.196V1.196ZM87.6363 1.93858C86.8929 3.1508 85.9595 4.80867 84.8376 6.90836L85.7196 7.37964C86.8376 5.28733 87.7603 3.6492 88.4888 2.46141L87.6363 1.93858ZM84.8379 6.90776C84.0065 8.45867 83.3608 9.63833 82.8999 10.4488L83.7692 10.9432C84.2363 10.1217 84.8867 8.93333 85.7192 7.38024L84.8379 6.90776ZM82.8346 10.696V17.56H83.8346V10.696H82.8346ZM82.8346 17.56C82.8346 17.959 82.929 18.3511 83.2063 18.6426C83.488 18.9388 83.8749 19.044 84.2706 19.044V18.044C84.0422 18.044 83.9611 17.9852 83.9308 17.9534C83.8961 17.9169 83.8346 17.817 83.8346 17.56H82.8346ZM84.2706 19.044C84.5753 19.044 84.8994 18.9834 85.2371 18.8768L84.936 17.9232C84.6657 18.0086 84.4459 18.044 84.2706 18.044V19.044ZM84.5866 18.4V19H85.5866V18.4H84.5866ZM85.0866 18.5H79.6866V19.5H85.0866V18.5ZM80.1866 19V18.4H79.1866V19H80.1866ZM90.0225 18.4L90.1731 17.9232L89.5225 17.7178V18.4H90.0225ZM91.5585 18.304L91.2049 17.9504L91.5585 18.304ZM91.5585 1.96L91.1885 2.29634L91.2045 2.31395L91.2222 2.32997L91.5585 1.96ZM90.0225 1.84H89.5225V2.52223L90.1731 2.31679L90.0225 1.84ZM90.0225 1.24V0.74H89.5225V1.24H90.0225ZM93.6465 1.24L94.1465 1.24074L94.1472 0.74H93.6465V1.24ZM93.6225 17.56L93.1225 17.5593V17.56H93.6225ZM93.8625 18.304L93.4925 18.6403L93.5085 18.658L93.5262 18.674L93.8625 18.304ZM95.4225 18.4H95.9225V17.7178L95.2719 17.9232L95.4225 18.4ZM95.4225 19V19.5H95.9225V19H95.4225ZM90.0225 19H89.5225V19.5H90.0225V19ZM94.8225 11.416L94.8723 10.9185L94.3225 10.8635V11.416H94.8225ZM98.8785 10.168L99.2491 10.5037L99.2522 10.5002L98.8785 10.168ZM99.4545 4.408L98.999 4.61426L99.0005 4.61753L99.4545 4.408ZM97.7745 2.32L97.4717 2.71795L97.4773 2.72209L97.7745 2.32ZM93.6465 1.672H93.1465V2.3935L93.8221 2.14016L93.6465 1.672ZM93.6465 1.24V0.74H93.1465V1.24H93.6465ZM98.6865 1.864L98.4931 2.3251L98.4958 2.32619L98.6865 1.864ZM101.159 3.736L100.762 4.04085L101.159 3.736ZM101.302 9.328L101.713 9.61305L101.716 9.60915L101.302 9.328ZM99.0945 11.2L98.8709 10.7528L99.0945 11.2ZM94.8225 11.776H94.3225V12.1751L94.7117 12.2636L94.8225 11.776ZM89.8719 18.8768C90.2132 18.9846 90.5447 19.044 90.8625 19.044V18.044C90.6683 18.044 90.4398 18.0074 90.1731 17.9232L89.8719 18.8768ZM90.8625 19.044C91.2522 19.044 91.6296 18.94 91.9121 18.6576L91.2049 17.9504C91.1674 17.988 91.0808 18.044 90.8625 18.044V19.044ZM91.9121 18.6576C92.2066 18.3631 92.3225 17.973 92.3225 17.56H91.3225C91.3225 17.787 91.2625 17.8929 91.2049 17.9504L91.9121 18.6576ZM92.3225 17.56V2.68H91.3225V17.56H92.3225ZM92.3225 2.68C92.3225 2.27 92.2076 1.87432 91.8948 1.59003L91.2222 2.32997C91.2614 2.36568 91.3225 2.45 91.3225 2.68H92.3225ZM91.9285 1.62366C91.6489 1.31611 91.2657 1.196 90.8625 1.196V2.196C91.0673 2.196 91.1481 2.25188 91.1885 2.29634L91.9285 1.62366ZM90.8625 1.196C90.5447 1.196 90.2132 1.25543 89.8719 1.36321L90.1731 2.31679C90.4398 2.23257 90.6683 2.196 90.8625 2.196V1.196ZM90.5225 1.84V1.24H89.5225V1.84H90.5225ZM90.0225 1.74H93.6465V0.74H90.0225V1.74ZM93.1465 1.23926L93.1225 17.5593L94.1225 17.5607L94.1465 1.24074L93.1465 1.23926ZM93.1225 17.56C93.1225 17.9608 93.2235 18.3445 93.4925 18.6403L94.2325 17.9677C94.1815 17.9115 94.1225 17.7992 94.1225 17.56H93.1225ZM93.5262 18.674C93.8176 18.9389 94.1899 19.044 94.5825 19.044V18.044C94.3671 18.044 94.2594 17.9891 94.1988 17.934L93.5262 18.674ZM94.5825 19.044C94.9003 19.044 95.2318 18.9846 95.5731 18.8768L95.2719 17.9232C95.0052 18.0074 94.7767 18.044 94.5825 18.044V19.044ZM94.9225 18.4V19H95.9225V18.4H94.9225ZM95.4225 18.5H90.0225V19.5H95.4225V18.5ZM90.5225 19V18.4H89.5225V19H90.5225ZM94.7728 11.9135C94.9579 11.932 95.2097 11.94 95.5185 11.94V10.94C95.2193 10.94 95.0071 10.932 94.8723 10.9185L94.7728 11.9135ZM95.5185 11.94C97.0887 11.94 98.3608 11.4844 99.2491 10.5036L98.5079 9.83236C97.8602 10.5476 96.8923 10.94 95.5185 10.94V11.94ZM99.2522 10.5002C100.113 9.53225 100.531 8.32078 100.531 6.904H99.5305C99.5305 8.11122 99.1804 9.07575 98.5048 9.83582L99.2522 10.5002ZM100.531 6.904C100.531 5.99259 100.32 5.08944 99.9085 4.19847L99.0005 4.61753C99.3573 5.39056 99.5305 6.15141 99.5305 6.904H100.531ZM99.91 4.20175C99.4914 3.27743 98.8775 2.51352 98.0717 1.91791L97.4773 2.72209C98.1435 3.21448 98.6496 3.84257 98.999 4.61425L99.91 4.20175ZM98.0773 1.92208C97.2463 1.28981 96.2654 0.98 95.1585 0.98V1.98C96.0676 1.98 96.8307 2.23019 97.4717 2.71791L98.0773 1.92208ZM95.1585 0.98C94.7867 0.98 94.4901 0.987967 94.277 1.00573L94.36 2.00227C94.5309 1.98803 94.7943 1.98 95.1585 1.98V0.98ZM94.277 1.00573C94.0244 1.02677 93.7536 1.09785 93.4709 1.20383L93.8221 2.14016C94.0514 2.05415 94.2286 2.01322 94.36 2.00227L94.277 1.00573ZM94.1465 1.672V1.24H93.1465V1.672H94.1465ZM93.6465 1.74H95.5665V0.74H93.6465V1.74ZM95.5665 1.74C96.5889 1.74 97.5631 1.93507 98.4931 2.3251L98.8799 1.4029C97.8259 0.960924 96.7201 0.74 95.5665 0.74V1.74ZM98.4958 2.32619C99.4259 2.71006 100.178 3.2812 100.762 4.04085L101.555 3.43114C100.859 2.5268 99.9631 1.84994 98.8772 1.40181L98.4958 2.32619ZM100.762 4.04085C101.326 4.77438 101.618 5.67144 101.618 6.76H102.618C102.618 5.48056 102.271 4.36162 101.555 3.43114L100.762 4.04085ZM101.618 6.76C101.618 7.56549 101.38 8.32445 100.889 9.04684L101.716 9.60915C102.313 8.73155 102.618 7.77851 102.618 6.76H101.618ZM100.892 9.04296C100.4 9.75214 99.7306 10.3229 98.8709 10.7528L99.3181 11.6472C100.314 11.1491 101.117 10.4719 101.713 9.61304L100.892 9.04296ZM98.8709 10.7528C98.0136 11.1814 97.0983 11.396 96.1185 11.396V12.396C97.2507 12.396 98.3194 12.1466 99.3181 11.6472L98.8709 10.7528ZM96.1185 11.396C95.6296 11.396 95.2374 11.3575 94.9333 11.2884L94.7117 12.2636C95.1116 12.3545 95.5834 12.396 96.1185 12.396V11.396ZM95.3225 11.776V11.416H94.3225V11.776H95.3225ZM116.524 13.576L116.864 13.9424L117.797 13.076H116.524V13.576ZM116.068 14.56L115.576 14.4721L115.574 14.4807L115.573 14.4893L116.068 14.56ZM115.972 19V19.5H116.472V19H115.972ZM103.804 19H103.304V19.5H103.804V19ZM103.804 18.4L103.954 17.9232L103.304 17.7178V18.4H103.804ZM105.34 18.304L104.986 17.9504L105.34 18.304ZM105.34 1.96L104.97 2.29634L104.986 2.31395L105.003 2.32997L105.34 1.96ZM103.804 1.84H103.304V2.52223L103.954 2.31679L103.804 1.84ZM103.804 1.24V0.74H103.304V1.24H103.804ZM114.964 1.24L115.461 1.29145L115.518 0.74H114.964V1.24ZM114.892 1.936L115.386 2.01398L115.388 2.00076L115.389 1.98745L114.892 1.936ZM115.156 5.32V5.82H115.911L115.616 5.12472L115.156 5.32ZM114.772 5.32L114.329 5.552L114.469 5.82H114.772V5.32ZM114.388 4L114.882 3.92725L114.881 3.91586L114.879 3.90456L114.388 4ZM113.932 2.656L113.498 2.90412L113.503 2.91325L113.932 2.656ZM107.548 2.848L107.061 2.73219L107.059 2.74103L107.057 2.74994L107.548 2.848ZM107.404 4.24L106.904 4.21372L106.904 4.22685V4.24H107.404ZM107.404 8.8H106.904V9.3H107.404V8.8ZM111.676 8.776L111.721 9.27395L111.74 9.27226L111.758 9.2692L111.676 8.776ZM112.108 8.56L111.728 8.2346V8.2346L112.108 8.56ZM112.156 6.904L111.665 7.00206L111.669 7.01756L111.673 7.03283L112.156 6.904ZM111.676 6.544H111.176V7.044H111.676V6.544ZM111.676 6.232V5.732H111.176V6.232H111.676ZM112.612 6.232H113.112V5.732H112.612V6.232ZM112.612 11.8V12.3H113.112V11.8H112.612ZM111.676 11.8H111.176V12.3H111.676V11.8ZM111.676 11.464V10.964H111.176V11.464H111.676ZM112.156 11.08L111.669 10.9655L111.666 10.9766L111.664 10.9879L112.156 11.08ZM111.916 9.424L111.706 9.87798L111.727 9.88735L111.748 9.89487L111.916 9.424ZM110.716 9.256L110.729 8.756H110.716V9.256ZM107.404 9.256V8.756H106.904V9.256H107.404ZM107.404 16H106.904V16.0147L106.905 16.0294L107.404 16ZM107.596 17.368L107.112 17.4942L107.113 17.4996L107.596 17.368ZM108.34 18.328L108.048 18.7338L108.055 18.7391L108.34 18.328ZM113.38 18.328L113.565 18.7923L113.574 18.7886L113.38 18.328ZM114.844 17.224L115.274 17.4789L115.278 17.4721L114.844 17.224ZM115.516 15.424L116 15.5477L116.002 15.5385L115.516 15.424ZM116.188 13.576V13.076H115.908L115.762 13.314L116.188 13.576ZM116.184 13.2096C115.85 13.5198 115.666 13.9671 115.576 14.4721L116.56 14.6479C116.63 14.2569 116.75 14.0482 116.864 13.9424L116.184 13.2096ZM115.573 14.4893C115.504 14.9734 115.472 15.666 115.472 16.552H116.472C116.472 15.678 116.504 15.0426 116.563 14.6307L115.573 14.4893ZM115.472 16.552V19H116.472V16.552H115.472ZM115.972 18.5H103.804V19.5H115.972V18.5ZM104.304 19V18.4H103.304V19H104.304ZM103.653 18.8768C103.994 18.9846 104.326 19.044 104.644 19.044V18.044C104.45 18.044 104.221 18.0074 103.954 17.9232L103.653 18.8768ZM104.644 19.044C105.033 19.044 105.411 18.94 105.693 18.6576L104.986 17.9504C104.949 17.988 104.862 18.044 104.644 18.044V19.044ZM105.693 18.6576C105.988 18.3631 106.104 17.973 106.104 17.56H105.104C105.104 17.787 105.044 17.8929 104.986 17.9504L105.693 18.6576ZM106.104 17.56V2.68H105.104V17.56H106.104ZM106.104 2.68C106.104 2.27 105.989 1.87432 105.676 1.59003L105.003 2.32997C105.043 2.36568 105.104 2.45 105.104 2.68H106.104ZM105.71 1.62366C105.43 1.31611 105.047 1.196 104.644 1.196V2.196C104.849 2.196 104.929 2.25188 104.97 2.29634L105.71 1.62366ZM104.644 1.196C104.326 1.196 103.994 1.25543 103.653 1.36321L103.954 2.31679C104.221 2.23257 104.45 2.196 104.644 2.196V1.196ZM104.304 1.84V1.24H103.304V1.84H104.304ZM103.804 1.74H114.964V0.74H103.804V1.74ZM114.466 1.18855L114.394 1.88455L115.389 1.98745L115.461 1.29145L114.466 1.18855ZM114.398 1.85802C114.344 2.1979 114.32 2.61861 114.32 3.112H115.32C115.32 2.64539 115.343 2.2821 115.386 2.01398L114.398 1.85802ZM114.32 3.112C114.32 4.08525 114.434 4.89824 114.695 5.51527L115.616 5.12472C115.43 4.68575 115.32 4.02675 115.32 3.112H114.32ZM115.156 4.82H114.772V5.82H115.156V4.82ZM115.215 5.088C115.074 4.81875 114.958 4.4384 114.882 3.92725L113.893 4.07275C113.978 4.6496 114.118 5.14925 114.329 5.552L115.215 5.088ZM114.879 3.90456C114.761 3.30031 114.595 2.78885 114.36 2.39875L113.503 2.91325C113.653 3.16315 113.79 3.54768 113.897 4.09544L114.879 3.90456ZM114.366 2.40793C114.09 1.92438 113.569 1.58921 112.933 1.34836L112.579 2.28364C113.126 2.49079 113.39 2.71562 113.498 2.90407L114.366 2.40793ZM112.933 1.34836C112.254 1.09169 111.293 0.98 110.092 0.98V1.98C111.259 1.98 112.073 2.09231 112.579 2.28364L112.933 1.34836ZM110.092 0.98C109.209 0.98 108.459 1.12567 107.944 1.512L108.544 2.312C108.797 2.12233 109.278 1.98 110.092 1.98V0.98ZM107.944 1.512C107.502 1.843 107.177 2.24533 107.061 2.73219L108.034 2.96381C108.078 2.77866 108.217 2.557 108.544 2.312L107.944 1.512ZM107.057 2.74994C106.986 3.10581 106.937 3.59844 106.904 4.21372L107.903 4.26628C107.935 3.66556 107.981 3.23019 108.038 2.94606L107.057 2.74994ZM106.904 4.24V8.8H107.904V4.24H106.904ZM107.404 9.3H110.716V8.3H107.404V9.3ZM110.716 9.3C111.178 9.3 111.519 9.29227 111.721 9.27395L111.63 8.27805C111.48 8.29173 111.181 8.3 110.716 8.3V9.3ZM111.758 9.2692C112.028 9.22413 112.294 9.11157 112.487 8.88539L111.728 8.2346C111.727 8.23555 111.722 8.24185 111.704 8.25079C111.685 8.26041 111.65 8.27334 111.594 8.2828L111.758 9.2692ZM112.487 8.8854C112.704 8.6326 112.752 8.28632 112.752 7.984H111.752C111.752 8.09318 111.742 8.16604 111.731 8.21073C111.719 8.25597 111.711 8.25414 111.728 8.2346L112.487 8.8854ZM112.752 7.984C112.752 7.49295 112.72 7.07994 112.639 6.77517L111.673 7.03283C111.719 7.20806 111.752 7.51505 111.752 7.984H112.752ZM112.646 6.80594C112.604 6.59355 112.499 6.38343 112.3 6.234C112.107 6.08931 111.882 6.044 111.676 6.044V7.044C111.708 7.044 111.723 7.04761 111.725 7.04826C111.726 7.0486 111.715 7.04561 111.7 7.034C111.692 7.02844 111.685 7.02196 111.679 7.01494C111.673 7.00795 111.669 7.00154 111.666 6.99664C111.66 6.98688 111.662 6.98629 111.665 7.00206L112.646 6.80594ZM112.176 6.544V6.232H111.176V6.544H112.176ZM111.676 6.732H112.612V5.732H111.676V6.732ZM112.112 6.232V11.8H113.112V6.232H112.112ZM112.612 11.3H111.676V12.3H112.612V11.3ZM112.176 11.8V11.464H111.176V11.8H112.176ZM111.676 11.964C111.888 11.964 112.118 11.9136 112.312 11.7584C112.509 11.6012 112.607 11.385 112.647 11.1721L111.664 10.9879C111.66 11.0103 111.656 11.0154 111.659 11.0099C111.661 11.007 111.664 11.002 111.669 10.9958C111.674 10.9896 111.68 10.9833 111.687 10.9776C111.695 10.9718 111.701 10.9676 111.707 10.9647C111.713 10.9618 111.716 10.9607 111.717 10.9606C111.717 10.9605 111.705 10.964 111.676 10.964V11.964ZM112.642 11.1945C112.72 10.8668 112.752 10.4378 112.752 9.928H111.752C111.752 10.4102 111.72 10.7492 111.669 10.9655L112.642 11.1945ZM112.752 9.928C112.752 9.72765 112.708 9.51827 112.584 9.33265C112.458 9.14399 112.279 9.02265 112.084 8.95313L111.748 9.89487C111.764 9.90067 111.768 9.90453 111.766 9.90279C111.763 9.90055 111.757 9.89523 111.752 9.88735C111.747 9.87974 111.746 9.87588 111.747 9.88019C111.749 9.88525 111.752 9.90009 111.752 9.928H112.752ZM112.125 8.97002C111.955 8.89157 111.747 8.84528 111.529 8.81483C111.304 8.78335 111.036 8.76448 110.729 8.75618L110.702 9.75582C110.987 9.76352 111.215 9.78065 111.39 9.80517C111.573 9.83071 111.668 9.86042 111.706 9.87798L112.125 8.97002ZM110.716 8.756H107.404V9.756H110.716V8.756ZM106.904 9.256V16H107.904V9.256H106.904ZM106.905 16.0294C106.938 16.5933 107.005 17.0842 107.112 17.4942L108.08 17.2418C107.995 16.9158 107.934 16.4947 107.903 15.9706L106.905 16.0294ZM107.113 17.4996C107.249 17.9954 107.587 18.4023 108.048 18.7338L108.632 17.9222C108.292 17.6777 108.135 17.4446 108.078 17.2364L107.113 17.4996ZM108.055 18.7391C108.594 19.1123 109.348 19.26 110.236 19.26V18.26C109.428 18.26 108.917 18.1197 108.624 17.9169L108.055 18.7391ZM110.236 19.26C111.634 19.26 112.757 19.1155 113.565 18.7922L113.194 17.8638C112.562 18.1165 111.59 18.26 110.236 18.26V19.26ZM113.574 18.7886C114.342 18.4647 114.941 18.0414 115.274 17.4789L114.414 16.9691C114.235 17.2706 113.858 17.5833 113.185 17.8674L113.574 18.7886ZM115.278 17.4721C115.564 16.9707 115.802 16.3237 116 15.5477L115.031 15.3003C114.845 16.0283 114.635 16.5813 114.41 16.9759L115.278 17.4721ZM116.002 15.5385C116.19 14.743 116.399 14.1872 116.614 13.838L115.762 13.314C115.465 13.7968 115.226 14.473 115.029 15.3095L116.002 15.5385ZM116.188 14.076H116.524V13.076H116.188V14.076Z" fill="black" mask="url(#path-1-outside-1_17_39)"/>
</svg>
