<svg width="135" height="20" viewBox="0 0 135 20" fill="none" xmlns="http://www.w3.org/2000/svg">
<mask id="path-1-outside-1_17_44" maskUnits="userSpaceOnUse" x="0" y="0" width="135" height="20" fill="black">
<rect fill="white" width="135" height="20"/>
<path d="M20.44 1.84C20.136 1.744 19.856 1.696 19.6 1.696C19.296 1.696 19.056 1.784 18.88 1.96C18.72 2.12 18.64 2.36 18.64 2.68V17.56C18.64 17.88 18.72 18.128 18.88 18.304C19.056 18.464 19.296 18.544 19.6 18.544C19.856 18.544 20.136 18.496 20.44 18.4V19H15.04V18.4C15.36 18.496 15.64 18.544 15.88 18.544C16.184 18.544 16.416 18.464 16.576 18.304C16.752 18.128 16.84 17.88 16.84 17.56V2.176L10.936 19.48H10.576L4.144 3.712L4.168 17.56C4.168 17.864 4.312 18.104 4.6 18.28C4.904 18.456 5.272 18.544 5.704 18.544C6.024 18.544 6.344 18.496 6.664 18.4V19H1.24V18.4C1.544 18.496 1.856 18.544 2.176 18.544C2.592 18.544 2.936 18.456 3.208 18.28C3.48 18.104 3.616 17.864 3.616 17.56V2.68C3.616 2.376 3.504 2.136 3.28 1.96C3.056 1.784 2.752 1.696 2.368 1.696C2.096 1.696 1.8 1.744 1.48 1.84V1.24H5.2L11.392 16.552L16.36 1.24H20.44V1.84ZM35.0466 18.04C35.1586 18.456 35.4466 18.664 35.9106 18.664C36.2146 18.664 36.6146 18.576 37.1106 18.4V19H31.3266V18.4C31.7906 18.56 32.1906 18.64 32.5266 18.64C32.9106 18.64 33.1026 18.504 33.1026 18.232C33.1026 18.152 33.0946 18.088 33.0786 18.04L30.9186 11.2H25.8306C25.2546 13.12 24.7026 15.04 24.1746 16.96L24.0066 17.56C23.9746 17.656 23.9586 17.776 23.9586 17.92C23.9586 18.384 24.2466 18.616 24.8226 18.616C25.1426 18.616 25.5106 18.544 25.9266 18.4V19H20.9106V18.4C21.2946 18.544 21.6626 18.616 22.0146 18.616C22.4946 18.616 22.8386 18.424 23.0466 18.04C23.1586 17.816 23.2546 17.584 23.3346 17.344L28.4226 0.759999H29.8146L35.0466 18.04ZM25.9506 10.768H30.7746L28.2786 2.896L25.9506 10.768ZM50.833 19.48C49.937 19.48 49.217 19.296 48.673 18.928C48.145 18.544 47.737 18.088 47.449 17.56C47.177 17.016 46.881 16.272 46.561 15.328C46.241 14.352 45.929 13.584 45.625 13.024C45.337 12.448 44.897 11.96 44.305 11.56C43.729 11.16 42.945 10.96 41.953 10.96V10.744C44.001 10.744 45.473 10.384 46.369 9.664C47.265 8.944 47.713 7.888 47.713 6.496C47.713 5.104 47.313 3.92 46.513 2.944C45.729 1.968 44.457 1.48 42.697 1.48C42.217 1.48 41.721 1.544 41.209 1.672L41.185 17.56C41.185 17.864 41.329 18.104 41.617 18.28C41.905 18.456 42.265 18.544 42.697 18.544C43.017 18.544 43.329 18.496 43.633 18.4V19H37.585V18.4C37.889 18.496 38.169 18.544 38.425 18.544C38.729 18.544 38.961 18.464 39.121 18.304C39.297 18.128 39.385 17.88 39.385 17.56V2.68C39.385 2.36 39.297 2.12 39.121 1.96C38.961 1.784 38.729 1.696 38.425 1.696C38.169 1.696 37.889 1.744 37.585 1.84V1.24H43.753C45.465 1.24 46.889 1.656 48.025 2.488C49.161 3.32 49.729 4.608 49.729 6.352C49.729 7.472 49.313 8.408 48.481 9.16C47.665 9.912 46.617 10.432 45.337 10.72C45.785 10.736 46.177 10.92 46.513 11.272C46.865 11.624 47.169 12.064 47.425 12.592C47.681 13.104 47.977 13.784 48.313 14.632C48.681 15.56 49.001 16.304 49.273 16.864C49.545 17.424 49.881 17.896 50.281 18.28C50.681 18.664 51.153 18.856 51.697 18.856C52.129 18.856 52.545 18.672 52.945 18.304C53.361 17.92 53.681 17.528 53.905 17.128L54.097 17.44C53.665 18.16 53.201 18.68 52.705 19C52.225 19.32 51.601 19.48 50.833 19.48ZM66.6299 17.56C66.8539 17.912 67.0619 18.168 67.2539 18.328C67.4619 18.488 67.7099 18.568 67.9979 18.568C68.2379 18.568 68.5179 18.512 68.8379 18.4V19H63.0539V18.4C63.3739 18.496 63.6539 18.544 63.8939 18.544C64.1659 18.544 64.3819 18.496 64.5419 18.4C64.7179 18.288 64.8059 18.144 64.8059 17.968C64.8059 17.84 64.7579 17.704 64.6619 17.56L59.1899 8.704L56.9819 11.104V17.56C56.9819 17.88 57.0619 18.128 57.2219 18.304C57.3979 18.464 57.6379 18.544 57.9419 18.544C58.1979 18.544 58.4779 18.496 58.7819 18.4V19H53.3819V18.4C53.6859 18.496 53.9659 18.544 54.2219 18.544C54.5259 18.544 54.7579 18.464 54.9179 18.304C55.0939 18.128 55.1819 17.88 55.1819 17.56V2.68C55.1819 2.36 55.0939 2.12 54.9179 1.96C54.7579 1.784 54.5259 1.696 54.2219 1.696C53.9659 1.696 53.6859 1.744 53.3819 1.84V1.24H58.7819V1.84C58.4779 1.744 58.1979 1.696 57.9419 1.696C57.6379 1.696 57.3979 1.784 57.2219 1.96C57.0619 2.12 56.9819 2.36 56.9819 2.68V10.432L63.8459 2.68C63.9899 2.504 64.0619 2.352 64.0619 2.224C64.0619 2.064 63.9979 1.936 63.8699 1.84C63.7419 1.744 63.5659 1.696 63.3419 1.696C63.1339 1.696 62.9019 1.744 62.6459 1.84V1.24H67.4699V1.84C67.1979 1.76 66.9579 1.72 66.7499 1.72C66.4139 1.72 66.0779 1.8 65.7419 1.96C65.4059 2.104 65.1019 2.312 64.8299 2.584L60.4619 7.312L66.6299 17.56ZM81.5472 13.576C81.3232 13.784 81.1712 14.112 81.0912 14.56C81.0272 15.008 80.9952 15.672 80.9952 16.552V19H68.8272V18.4C69.1312 18.496 69.4112 18.544 69.6672 18.544C69.9712 18.544 70.2032 18.464 70.3632 18.304C70.5392 18.128 70.6272 17.88 70.6272 17.56V2.68C70.6272 2.36 70.5392 2.12 70.3632 1.96C70.2032 1.784 69.9712 1.696 69.6672 1.696C69.4112 1.696 69.1312 1.744 68.8272 1.84V1.24H79.9872L79.9152 1.936C79.8672 2.24 79.8432 2.632 79.8432 3.112C79.8432 4.056 79.9552 4.792 80.1792 5.32H79.7952C79.6192 4.984 79.4912 4.544 79.4112 4C79.2992 3.424 79.1472 2.976 78.9552 2.656C78.7632 2.32 78.3712 2.04 77.7792 1.816C77.1872 1.592 76.2992 1.48 75.1152 1.48C74.2672 1.48 73.6512 1.624 73.2672 1.912C72.8832 2.2 72.6512 2.512 72.5712 2.848C72.5072 3.168 72.4592 3.632 72.4272 4.24V8.8H75.7392C76.2032 8.8 76.5232 8.792 76.6992 8.776C76.8912 8.744 77.0352 8.672 77.1312 8.56C77.2272 8.448 77.2752 8.256 77.2752 7.984C77.2752 7.504 77.2432 7.144 77.1792 6.904C77.1312 6.664 76.9712 6.544 76.6992 6.544V6.232H77.6352V11.8H76.6992V11.464C76.9712 11.464 77.1312 11.336 77.1792 11.08C77.2432 10.808 77.2752 10.424 77.2752 9.928C77.2752 9.672 77.1632 9.504 76.9392 9.424C76.7312 9.328 76.3312 9.272 75.7392 9.256H72.4272V16C72.4592 16.544 72.5232 17 72.6192 17.368C72.7152 17.72 72.9632 18.04 73.3632 18.328C73.7792 18.616 74.4112 18.76 75.2592 18.76C76.6352 18.76 77.6832 18.616 78.4032 18.328C79.1232 18.024 79.6112 17.656 79.8672 17.224C80.1232 16.776 80.3472 16.176 80.5392 15.424C80.7312 14.608 80.9552 13.992 81.2112 13.576H81.5472ZM94.8154 1.936C94.7674 2.24 94.7434 2.632 94.7434 3.112C94.7434 4.056 94.8554 4.792 95.0794 5.32H94.6954C94.5194 4.984 94.3914 4.544 94.3114 4C94.1994 3.424 94.0474 2.976 93.8554 2.656C93.6634 2.32 93.2714 2.04 92.6794 1.816C92.0874 1.592 91.1994 1.48 90.0154 1.48C89.8074 1.48 89.5754 1.496 89.3194 1.528V17.56C89.3194 17.88 89.3994 18.128 89.5594 18.304C89.7354 18.464 89.9754 18.544 90.2794 18.544C90.5354 18.544 90.8154 18.496 91.1194 18.4V19H85.7194V18.4C86.0394 18.496 86.3194 18.544 86.5594 18.544C86.8634 18.544 87.0954 18.464 87.2554 18.304C87.4314 18.128 87.5194 17.88 87.5194 17.56V1.528C87.2634 1.496 87.0394 1.48 86.8474 1.48C85.6634 1.48 84.7754 1.592 84.1834 1.816C83.5914 2.04 83.1994 2.32 83.0074 2.656C82.8154 2.976 82.6634 3.424 82.5514 4C82.4714 4.544 82.3434 4.984 82.1674 5.32H81.7834C82.0074 4.792 82.1194 4.056 82.1194 3.112C82.1194 2.632 82.0954 2.24 82.0474 1.936L81.9754 1.24H94.8874L94.8154 1.936ZM95.8038 18.4C96.1078 18.496 96.3878 18.544 96.6438 18.544C96.9478 18.544 97.1798 18.464 97.3398 18.304C97.5158 18.128 97.6038 17.88 97.6038 17.56V2.68C97.6038 2.36 97.5158 2.12 97.3398 1.96C97.1798 1.784 96.9478 1.696 96.6438 1.696C96.3878 1.696 96.1078 1.744 95.8038 1.84V1.24H101.204V1.84C100.9 1.744 100.62 1.696 100.364 1.696C100.06 1.696 99.8198 1.784 99.6438 1.96C99.4838 2.12 99.4038 2.36 99.4038 2.68V17.56C99.4038 17.88 99.4838 18.128 99.6438 18.304C99.8198 18.464 100.06 18.544 100.364 18.544C100.62 18.544 100.9 18.496 101.204 18.4V19H95.8038V18.4ZM118.524 1.216V1.816C118.204 1.72 117.9 1.672 117.612 1.672C117.212 1.672 116.884 1.76 116.628 1.936C116.388 2.112 116.268 2.352 116.268 2.656V19.48H115.716L105.108 2.992L105.132 17.56C105.132 17.864 105.276 18.104 105.564 18.28C105.868 18.456 106.236 18.544 106.668 18.544C107.004 18.544 107.324 18.496 107.628 18.4V19H102.396V18.4C102.7 18.496 103.004 18.544 103.308 18.544C103.692 18.544 103.996 18.456 104.22 18.28C104.46 18.104 104.58 17.864 104.58 17.56V2.68C104.58 2.376 104.46 2.136 104.22 1.96C103.98 1.784 103.668 1.696 103.284 1.696C103.012 1.696 102.716 1.744 102.396 1.84V1.24H106.164L115.716 15.712V2.656C115.716 2.352 115.58 2.112 115.308 1.936C115.036 1.76 114.692 1.672 114.276 1.672C113.956 1.672 113.644 1.72 113.34 1.816V1.216H118.524ZM127.779 19.48C126.291 19.48 124.931 19.056 123.699 18.208C122.483 17.344 121.515 16.2 120.795 14.776C120.091 13.336 119.739 11.784 119.739 10.12C119.739 8.44 120.067 6.888 120.723 5.464C121.395 4.024 122.323 2.88 123.507 2.032C124.707 1.184 126.059 0.759999 127.563 0.759999C128.635 0.759999 129.667 1.048 130.659 1.624C131.667 2.2 132.427 2.832 132.939 3.52L133.299 1.168H133.707V6.52H132.939C132.939 5.64 132.731 4.8 132.315 4C131.899 3.184 131.267 2.52 130.419 2.008C129.587 1.496 128.555 1.24 127.323 1.24C126.219 1.24 125.243 1.648 124.395 2.464C123.547 3.28 122.899 4.36 122.451 5.704C122.003 7.048 121.779 8.488 121.779 10.024C121.779 11.64 121.987 13.128 122.403 14.488C122.819 15.832 123.483 16.92 124.395 17.752C125.323 18.584 126.491 19 127.899 19C128.923 19 129.803 18.72 130.539 18.16C131.275 17.6 131.827 16.896 132.195 16.048C132.579 15.184 132.771 14.312 132.771 13.432C132.771 12.712 132.715 12.16 132.603 11.776C132.507 11.392 132.315 11.2 132.027 11.2L130.275 11.176C129.299 11.176 128.723 11.224 128.547 11.32C128.371 11.416 128.283 11.608 128.283 11.896C128.299 12.184 128.307 12.384 128.307 12.496C128.307 12.848 128.339 13.12 128.403 13.312C128.467 13.488 128.611 13.584 128.835 13.6V13.912H127.899V10.72H134.355V16.648C134.067 16.648 133.715 16.76 133.299 16.984C133.027 17.144 132.739 17.328 132.435 17.536C131.587 18.112 130.795 18.584 130.059 18.952C129.323 19.304 128.563 19.48 127.779 19.48Z"/>
</mask>
<path d="M20.44 1.84C20.136 1.744 19.856 1.696 19.6 1.696C19.296 1.696 19.056 1.784 18.88 1.96C18.72 2.12 18.64 2.36 18.64 2.68V17.56C18.64 17.88 18.72 18.128 18.88 18.304C19.056 18.464 19.296 18.544 19.6 18.544C19.856 18.544 20.136 18.496 20.44 18.4V19H15.04V18.4C15.36 18.496 15.64 18.544 15.88 18.544C16.184 18.544 16.416 18.464 16.576 18.304C16.752 18.128 16.84 17.88 16.84 17.56V2.176L10.936 19.48H10.576L4.144 3.712L4.168 17.56C4.168 17.864 4.312 18.104 4.6 18.28C4.904 18.456 5.272 18.544 5.704 18.544C6.024 18.544 6.344 18.496 6.664 18.4V19H1.24V18.4C1.544 18.496 1.856 18.544 2.176 18.544C2.592 18.544 2.936 18.456 3.208 18.28C3.48 18.104 3.616 17.864 3.616 17.56V2.68C3.616 2.376 3.504 2.136 3.28 1.96C3.056 1.784 2.752 1.696 2.368 1.696C2.096 1.696 1.8 1.744 1.48 1.84V1.24H5.2L11.392 16.552L16.36 1.24H20.44V1.84ZM35.0466 18.04C35.1586 18.456 35.4466 18.664 35.9106 18.664C36.2146 18.664 36.6146 18.576 37.1106 18.4V19H31.3266V18.4C31.7906 18.56 32.1906 18.64 32.5266 18.64C32.9106 18.64 33.1026 18.504 33.1026 18.232C33.1026 18.152 33.0946 18.088 33.0786 18.04L30.9186 11.2H25.8306C25.2546 13.12 24.7026 15.04 24.1746 16.96L24.0066 17.56C23.9746 17.656 23.9586 17.776 23.9586 17.92C23.9586 18.384 24.2466 18.616 24.8226 18.616C25.1426 18.616 25.5106 18.544 25.9266 18.4V19H20.9106V18.4C21.2946 18.544 21.6626 18.616 22.0146 18.616C22.4946 18.616 22.8386 18.424 23.0466 18.04C23.1586 17.816 23.2546 17.584 23.3346 17.344L28.4226 0.759999H29.8146L35.0466 18.04ZM25.9506 10.768H30.7746L28.2786 2.896L25.9506 10.768ZM50.833 19.48C49.937 19.48 49.217 19.296 48.673 18.928C48.145 18.544 47.737 18.088 47.449 17.56C47.177 17.016 46.881 16.272 46.561 15.328C46.241 14.352 45.929 13.584 45.625 13.024C45.337 12.448 44.897 11.96 44.305 11.56C43.729 11.16 42.945 10.96 41.953 10.96V10.744C44.001 10.744 45.473 10.384 46.369 9.664C47.265 8.944 47.713 7.888 47.713 6.496C47.713 5.104 47.313 3.92 46.513 2.944C45.729 1.968 44.457 1.48 42.697 1.48C42.217 1.48 41.721 1.544 41.209 1.672L41.185 17.56C41.185 17.864 41.329 18.104 41.617 18.28C41.905 18.456 42.265 18.544 42.697 18.544C43.017 18.544 43.329 18.496 43.633 18.4V19H37.585V18.4C37.889 18.496 38.169 18.544 38.425 18.544C38.729 18.544 38.961 18.464 39.121 18.304C39.297 18.128 39.385 17.88 39.385 17.56V2.68C39.385 2.36 39.297 2.12 39.121 1.96C38.961 1.784 38.729 1.696 38.425 1.696C38.169 1.696 37.889 1.744 37.585 1.84V1.24H43.753C45.465 1.24 46.889 1.656 48.025 2.488C49.161 3.32 49.729 4.608 49.729 6.352C49.729 7.472 49.313 8.408 48.481 9.16C47.665 9.912 46.617 10.432 45.337 10.72C45.785 10.736 46.177 10.92 46.513 11.272C46.865 11.624 47.169 12.064 47.425 12.592C47.681 13.104 47.977 13.784 48.313 14.632C48.681 15.56 49.001 16.304 49.273 16.864C49.545 17.424 49.881 17.896 50.281 18.28C50.681 18.664 51.153 18.856 51.697 18.856C52.129 18.856 52.545 18.672 52.945 18.304C53.361 17.92 53.681 17.528 53.905 17.128L54.097 17.44C53.665 18.16 53.201 18.68 52.705 19C52.225 19.32 51.601 19.48 50.833 19.48ZM66.6299 17.56C66.8539 17.912 67.0619 18.168 67.2539 18.328C67.4619 18.488 67.7099 18.568 67.9979 18.568C68.2379 18.568 68.5179 18.512 68.8379 18.4V19H63.0539V18.4C63.3739 18.496 63.6539 18.544 63.8939 18.544C64.1659 18.544 64.3819 18.496 64.5419 18.4C64.7179 18.288 64.8059 18.144 64.8059 17.968C64.8059 17.84 64.7579 17.704 64.6619 17.56L59.1899 8.704L56.9819 11.104V17.56C56.9819 17.88 57.0619 18.128 57.2219 18.304C57.3979 18.464 57.6379 18.544 57.9419 18.544C58.1979 18.544 58.4779 18.496 58.7819 18.4V19H53.3819V18.4C53.6859 18.496 53.9659 18.544 54.2219 18.544C54.5259 18.544 54.7579 18.464 54.9179 18.304C55.0939 18.128 55.1819 17.88 55.1819 17.56V2.68C55.1819 2.36 55.0939 2.12 54.9179 1.96C54.7579 1.784 54.5259 1.696 54.2219 1.696C53.9659 1.696 53.6859 1.744 53.3819 1.84V1.24H58.7819V1.84C58.4779 1.744 58.1979 1.696 57.9419 1.696C57.6379 1.696 57.3979 1.784 57.2219 1.96C57.0619 2.12 56.9819 2.36 56.9819 2.68V10.432L63.8459 2.68C63.9899 2.504 64.0619 2.352 64.0619 2.224C64.0619 2.064 63.9979 1.936 63.8699 1.84C63.7419 1.744 63.5659 1.696 63.3419 1.696C63.1339 1.696 62.9019 1.744 62.6459 1.84V1.24H67.4699V1.84C67.1979 1.76 66.9579 1.72 66.7499 1.72C66.4139 1.72 66.0779 1.8 65.7419 1.96C65.4059 2.104 65.1019 2.312 64.8299 2.584L60.4619 7.312L66.6299 17.56ZM81.5472 13.576C81.3232 13.784 81.1712 14.112 81.0912 14.56C81.0272 15.008 80.9952 15.672 80.9952 16.552V19H68.8272V18.4C69.1312 18.496 69.4112 18.544 69.6672 18.544C69.9712 18.544 70.2032 18.464 70.3632 18.304C70.5392 18.128 70.6272 17.88 70.6272 17.56V2.68C70.6272 2.36 70.5392 2.12 70.3632 1.96C70.2032 1.784 69.9712 1.696 69.6672 1.696C69.4112 1.696 69.1312 1.744 68.8272 1.84V1.24H79.9872L79.9152 1.936C79.8672 2.24 79.8432 2.632 79.8432 3.112C79.8432 4.056 79.9552 4.792 80.1792 5.32H79.7952C79.6192 4.984 79.4912 4.544 79.4112 4C79.2992 3.424 79.1472 2.976 78.9552 2.656C78.7632 2.32 78.3712 2.04 77.7792 1.816C77.1872 1.592 76.2992 1.48 75.1152 1.48C74.2672 1.48 73.6512 1.624 73.2672 1.912C72.8832 2.2 72.6512 2.512 72.5712 2.848C72.5072 3.168 72.4592 3.632 72.4272 4.24V8.8H75.7392C76.2032 8.8 76.5232 8.792 76.6992 8.776C76.8912 8.744 77.0352 8.672 77.1312 8.56C77.2272 8.448 77.2752 8.256 77.2752 7.984C77.2752 7.504 77.2432 7.144 77.1792 6.904C77.1312 6.664 76.9712 6.544 76.6992 6.544V6.232H77.6352V11.8H76.6992V11.464C76.9712 11.464 77.1312 11.336 77.1792 11.08C77.2432 10.808 77.2752 10.424 77.2752 9.928C77.2752 9.672 77.1632 9.504 76.9392 9.424C76.7312 9.328 76.3312 9.272 75.7392 9.256H72.4272V16C72.4592 16.544 72.5232 17 72.6192 17.368C72.7152 17.72 72.9632 18.04 73.3632 18.328C73.7792 18.616 74.4112 18.76 75.2592 18.76C76.6352 18.76 77.6832 18.616 78.4032 18.328C79.1232 18.024 79.6112 17.656 79.8672 17.224C80.1232 16.776 80.3472 16.176 80.5392 15.424C80.7312 14.608 80.9552 13.992 81.2112 13.576H81.5472ZM94.8154 1.936C94.7674 2.24 94.7434 2.632 94.7434 3.112C94.7434 4.056 94.8554 4.792 95.0794 5.32H94.6954C94.5194 4.984 94.3914 4.544 94.3114 4C94.1994 3.424 94.0474 2.976 93.8554 2.656C93.6634 2.32 93.2714 2.04 92.6794 1.816C92.0874 1.592 91.1994 1.48 90.0154 1.48C89.8074 1.48 89.5754 1.496 89.3194 1.528V17.56C89.3194 17.88 89.3994 18.128 89.5594 18.304C89.7354 18.464 89.9754 18.544 90.2794 18.544C90.5354 18.544 90.8154 18.496 91.1194 18.4V19H85.7194V18.4C86.0394 18.496 86.3194 18.544 86.5594 18.544C86.8634 18.544 87.0954 18.464 87.2554 18.304C87.4314 18.128 87.5194 17.88 87.5194 17.56V1.528C87.2634 1.496 87.0394 1.48 86.8474 1.48C85.6634 1.48 84.7754 1.592 84.1834 1.816C83.5914 2.04 83.1994 2.32 83.0074 2.656C82.8154 2.976 82.6634 3.424 82.5514 4C82.4714 4.544 82.3434 4.984 82.1674 5.32H81.7834C82.0074 4.792 82.1194 4.056 82.1194 3.112C82.1194 2.632 82.0954 2.24 82.0474 1.936L81.9754 1.24H94.8874L94.8154 1.936ZM95.8038 18.4C96.1078 18.496 96.3878 18.544 96.6438 18.544C96.9478 18.544 97.1798 18.464 97.3398 18.304C97.5158 18.128 97.6038 17.88 97.6038 17.56V2.68C97.6038 2.36 97.5158 2.12 97.3398 1.96C97.1798 1.784 96.9478 1.696 96.6438 1.696C96.3878 1.696 96.1078 1.744 95.8038 1.84V1.24H101.204V1.84C100.9 1.744 100.62 1.696 100.364 1.696C100.06 1.696 99.8198 1.784 99.6438 1.96C99.4838 2.12 99.4038 2.36 99.4038 2.68V17.56C99.4038 17.88 99.4838 18.128 99.6438 18.304C99.8198 18.464 100.06 18.544 100.364 18.544C100.62 18.544 100.9 18.496 101.204 18.4V19H95.8038V18.4ZM118.524 1.216V1.816C118.204 1.72 117.9 1.672 117.612 1.672C117.212 1.672 116.884 1.76 116.628 1.936C116.388 2.112 116.268 2.352 116.268 2.656V19.48H115.716L105.108 2.992L105.132 17.56C105.132 17.864 105.276 18.104 105.564 18.28C105.868 18.456 106.236 18.544 106.668 18.544C107.004 18.544 107.324 18.496 107.628 18.4V19H102.396V18.4C102.7 18.496 103.004 18.544 103.308 18.544C103.692 18.544 103.996 18.456 104.22 18.28C104.46 18.104 104.58 17.864 104.58 17.56V2.68C104.58 2.376 104.46 2.136 104.22 1.96C103.98 1.784 103.668 1.696 103.284 1.696C103.012 1.696 102.716 1.744 102.396 1.84V1.24H106.164L115.716 15.712V2.656C115.716 2.352 115.58 2.112 115.308 1.936C115.036 1.76 114.692 1.672 114.276 1.672C113.956 1.672 113.644 1.72 113.34 1.816V1.216H118.524ZM127.779 19.48C126.291 19.48 124.931 19.056 123.699 18.208C122.483 17.344 121.515 16.2 120.795 14.776C120.091 13.336 119.739 11.784 119.739 10.12C119.739 8.44 120.067 6.888 120.723 5.464C121.395 4.024 122.323 2.88 123.507 2.032C124.707 1.184 126.059 0.759999 127.563 0.759999C128.635 0.759999 129.667 1.048 130.659 1.624C131.667 2.2 132.427 2.832 132.939 3.52L133.299 1.168H133.707V6.52H132.939C132.939 5.64 132.731 4.8 132.315 4C131.899 3.184 131.267 2.52 130.419 2.008C129.587 1.496 128.555 1.24 127.323 1.24C126.219 1.24 125.243 1.648 124.395 2.464C123.547 3.28 122.899 4.36 122.451 5.704C122.003 7.048 121.779 8.488 121.779 10.024C121.779 11.64 121.987 13.128 122.403 14.488C122.819 15.832 123.483 16.92 124.395 17.752C125.323 18.584 126.491 19 127.899 19C128.923 19 129.803 18.72 130.539 18.16C131.275 17.6 131.827 16.896 132.195 16.048C132.579 15.184 132.771 14.312 132.771 13.432C132.771 12.712 132.715 12.16 132.603 11.776C132.507 11.392 132.315 11.2 132.027 11.2L130.275 11.176C129.299 11.176 128.723 11.224 128.547 11.32C128.371 11.416 128.283 11.608 128.283 11.896C128.299 12.184 128.307 12.384 128.307 12.496C128.307 12.848 128.339 13.12 128.403 13.312C128.467 13.488 128.611 13.584 128.835 13.6V13.912H127.899V10.72H134.355V16.648C134.067 16.648 133.715 16.76 133.299 16.984C133.027 17.144 132.739 17.328 132.435 17.536C131.587 18.112 130.795 18.584 130.059 18.952C129.323 19.304 128.563 19.48 127.779 19.48Z" fill="black"/>
<path d="M20.44 1.84L20.2894 2.31679L20.94 2.52223V1.84H20.44ZM18.88 1.96L19.2336 2.31355L19.2336 2.31355L18.88 1.96ZM18.88 18.304L18.51 18.6403L18.526 18.658L18.5437 18.674L18.88 18.304ZM20.44 18.4H20.94V17.7178L20.2894 17.9232L20.44 18.4ZM20.44 19V19.5H20.94V19H20.44ZM15.04 19H14.54V19.5H15.04V19ZM15.04 18.4L15.1837 17.9211L14.54 17.728V18.4H15.04ZM16.576 18.304L16.9296 18.6576L16.576 18.304ZM16.84 2.176H17.34L16.3668 2.01454L16.84 2.176ZM10.936 19.48V19.98H11.2937L11.4092 19.6415L10.936 19.48ZM10.576 19.48L10.113 19.6688L10.24 19.98H10.576V19.48ZM4.144 3.712L4.60696 3.52315L3.644 3.71287L4.144 3.712ZM4.168 17.56H4.668L4.668 17.5591L4.168 17.56ZM4.6 18.28L4.3392 18.7068L4.34948 18.7127L4.6 18.28ZM6.664 18.4H7.164V17.728L6.52033 17.9211L6.664 18.4ZM6.664 19V19.5H7.164V19H6.664ZM1.24 19H0.74V19.5H1.24V19ZM1.24 18.4L1.39057 17.9232L0.74 17.7178V18.4H1.24ZM3.208 18.28L3.47963 18.6998H3.47963L3.208 18.28ZM3.28 1.96L3.58891 1.56684H3.58891L3.28 1.96ZM1.48 1.84H0.98V2.51201L1.62367 2.31891L1.48 1.84ZM1.48 1.24V0.74H0.98V1.24H1.48ZM5.2 1.24L5.66353 1.05255L5.53714 0.74H5.2V1.24ZM11.392 16.552L10.9285 16.7394L11.4436 18.0132L11.8676 16.7063L11.392 16.552ZM16.36 1.24V0.74H15.9966L15.8844 1.08569L16.36 1.24ZM20.44 1.24H20.94V0.74H20.44V1.24ZM20.5906 1.36321C20.2493 1.25543 19.9178 1.196 19.6 1.196V2.196C19.7942 2.196 20.0227 2.23257 20.2894 2.31679L20.5906 1.36321ZM19.6 1.196C19.1946 1.196 18.8162 1.31668 18.5264 1.60645L19.2336 2.31355C19.2958 2.25132 19.3974 2.196 19.6 2.196V1.196ZM18.5264 1.60644C18.2396 1.89328 18.14 2.28293 18.14 2.68H19.14C19.14 2.43707 19.2004 2.34671 19.2336 2.31355L18.5264 1.60644ZM18.14 2.68V17.56H19.14V2.68H18.14ZM18.14 17.56C18.14 17.9608 18.241 18.3445 18.51 18.6403L19.25 17.9677C19.199 17.9115 19.14 17.7992 19.14 17.56H18.14ZM18.5437 18.674C18.8351 18.9389 19.2074 19.044 19.6 19.044V18.044C19.3846 18.044 19.2769 17.9891 19.2163 17.934L18.5437 18.674ZM19.6 19.044C19.9178 19.044 20.2493 18.9846 20.5906 18.8768L20.2894 17.9232C20.0227 18.0074 19.7942 18.044 19.6 18.044V19.044ZM19.94 18.4V19H20.94V18.4H19.94ZM20.44 18.5H15.04V19.5H20.44V18.5ZM15.54 19V18.4H14.54V19H15.54ZM14.8963 18.8789C15.2461 18.9839 15.5765 19.044 15.88 19.044V18.044C15.7035 18.044 15.4739 18.0081 15.1837 17.9211L14.8963 18.8789ZM15.88 19.044C16.2697 19.044 16.6471 18.94 16.9296 18.6576L16.2224 17.9504C16.1849 17.988 16.0983 18.044 15.88 18.044V19.044ZM16.9296 18.6576C17.2241 18.3631 17.34 17.973 17.34 17.56H16.34C16.34 17.787 16.2799 17.8929 16.2224 17.9504L16.9296 18.6576ZM17.34 17.56V2.176H16.34V17.56H17.34ZM16.3668 2.01454L10.4628 19.3185L11.4092 19.6415L17.3132 2.33746L16.3668 2.01454ZM10.936 18.98H10.576V19.98H10.936V18.98ZM11.039 19.2912L4.60696 3.52315L3.68104 3.90085L10.113 19.6688L11.039 19.2912ZM3.644 3.71287L3.668 17.5609L4.668 17.5591L4.644 3.71113L3.644 3.71287ZM3.668 17.56C3.668 18.06 3.92225 18.4518 4.33928 18.7066L4.86073 17.8534C4.70175 17.7562 4.668 17.668 4.668 17.56H3.668ZM4.34948 18.7127C4.74529 18.9419 5.20411 19.044 5.704 19.044V18.044C5.33989 18.044 5.06271 17.9701 4.85052 17.8473L4.34948 18.7127ZM5.704 19.044C6.07477 19.044 6.44313 18.9883 6.80767 18.8789L6.52033 17.9211C6.24487 18.0037 5.97323 18.044 5.704 18.044V19.044ZM6.164 18.4V19H7.164V18.4H6.164ZM6.664 18.5H1.24V19.5H6.664V18.5ZM1.74 19V18.4H0.74V19H1.74ZM1.08943 18.8768C1.44233 18.9882 1.80512 19.044 2.176 19.044V18.044C1.90688 18.044 1.64567 18.0038 1.39057 17.9232L1.08943 18.8768ZM2.176 19.044C2.66128 19.044 3.10662 18.9411 3.47963 18.6998L2.93637 17.8602C2.76538 17.9709 2.52272 18.044 2.176 18.044V19.044ZM3.47963 18.6998C3.88282 18.4389 4.116 18.0465 4.116 17.56H3.116C3.116 17.6815 3.07718 17.7691 2.93637 17.8602L3.47963 18.6998ZM4.116 17.56V2.68H3.116V17.56H4.116ZM4.116 2.68C4.116 2.23446 3.94261 1.84474 3.58891 1.56684L2.97109 2.35316C3.06539 2.42725 3.116 2.51754 3.116 2.68H4.116ZM3.58891 1.56684C3.25053 1.30097 2.82525 1.196 2.368 1.196V2.196C2.67875 2.196 2.86147 2.26703 2.97109 2.35316L3.58891 1.56684ZM2.368 1.196C2.03773 1.196 1.69274 1.25416 1.33633 1.36109L1.62367 2.31891C1.90726 2.23384 2.15427 2.196 2.368 2.196V1.196ZM1.98 1.84V1.24H0.98V1.84H1.98ZM1.48 1.74H5.2V0.74H1.48V1.74ZM4.73647 1.42745L10.9285 16.7394L11.8555 16.3646L5.66353 1.05255L4.73647 1.42745ZM11.8676 16.7063L16.8356 1.39431L15.8844 1.08569L10.9164 16.3977L11.8676 16.7063ZM16.36 1.74H20.44V0.74H16.36V1.74ZM19.94 1.24V1.84H20.94V1.24H19.94ZM35.0466 18.04L35.5294 17.91L35.5274 17.9025L35.5252 17.8951L35.0466 18.04ZM37.1106 18.4H37.6106V17.692L36.9434 17.9288L37.1106 18.4ZM37.1106 19V19.5H37.6106V19H37.1106ZM31.3266 19H30.8266V19.5H31.3266V19ZM31.3266 18.4L31.4896 17.9273L30.8266 17.6987V18.4H31.3266ZM33.0786 18.04L32.6018 18.1906L32.6043 18.1981L33.0786 18.04ZM30.9186 11.2L31.3954 11.0494L31.2851 10.7H30.9186V11.2ZM25.8306 11.2V10.7H25.4586L25.3517 11.0563L25.8306 11.2ZM24.1746 16.96L24.6561 17.0948L24.6567 17.0926L24.1746 16.96ZM24.0066 17.56L24.481 17.7181L24.4848 17.7066L24.4881 17.6948L24.0066 17.56ZM25.9266 18.4H26.4266V17.6978L25.7631 17.9275L25.9266 18.4ZM25.9266 19V19.5H26.4266V19H25.9266ZM20.9106 19H20.4106V19.5H20.9106V19ZM20.9106 18.4L21.0862 17.9318L20.4106 17.6785V18.4H20.9106ZM23.0466 18.04L23.4863 18.2781L23.4902 18.2709L23.4938 18.2636L23.0466 18.04ZM23.3346 17.344L23.8091 17.5022L23.8126 17.4907L23.3346 17.344ZM28.4226 0.759999V0.259999H28.053L27.9446 0.613345L28.4226 0.759999ZM29.8146 0.759999L30.2932 0.615106L30.1857 0.259999H29.8146V0.759999ZM25.9506 10.768L25.4712 10.6262L25.2814 11.268H25.9506V10.768ZM30.7746 10.768V11.268H31.4577L31.2512 10.6169L30.7746 10.768ZM28.2786 2.896L28.7552 2.74488L28.262 1.1892L27.7992 2.7542L28.2786 2.896ZM34.5638 18.17C34.6431 18.4645 34.7982 18.7287 35.0539 18.9133C35.3058 19.0953 35.6056 19.164 35.9106 19.164V18.164C35.7517 18.164 35.6754 18.1287 35.6394 18.1027C35.6071 18.0793 35.5622 18.0315 35.5294 17.91L34.5638 18.17ZM35.9106 19.164C36.2986 19.164 36.7614 19.0545 37.2778 18.8712L36.9434 17.9288C36.4678 18.0975 36.1307 18.164 35.9106 18.164V19.164ZM36.6106 18.4V19H37.6106V18.4H36.6106ZM37.1106 18.5H31.3266V19.5H37.1106V18.5ZM31.8266 19V18.4H30.8266V19H31.8266ZM31.1636 18.8727C31.6582 19.0432 32.1159 19.14 32.5266 19.14V18.14C32.2653 18.14 31.9231 18.0768 31.4896 17.9273L31.1636 18.8727ZM32.5266 19.14C32.7625 19.14 33.0289 19.101 33.2476 18.946C33.498 18.7686 33.6026 18.5011 33.6026 18.232H32.6026C32.6026 18.2413 32.6011 18.2255 32.6142 18.1976C32.6286 18.1671 32.6504 18.1436 32.6696 18.13C32.6857 18.1186 32.6887 18.122 32.6637 18.1279C32.6386 18.1338 32.5947 18.14 32.5266 18.14V19.14ZM33.6026 18.232C33.6026 18.1257 33.5929 18.0016 33.553 17.8819L32.6043 18.1981C32.5995 18.1837 32.5995 18.1783 32.6005 18.186C32.6014 18.1933 32.6026 18.208 32.6026 18.232H33.6026ZM33.5554 17.8894L31.3954 11.0494L30.4418 11.3506L32.6018 18.1906L33.5554 17.8894ZM30.9186 10.7H25.8306V11.7H30.9186V10.7ZM25.3517 11.0563C24.7746 12.98 24.2215 14.9037 23.6925 16.8274L24.6567 17.0926C25.1837 15.1763 25.7346 13.26 26.3095 11.3437L25.3517 11.0563ZM23.6931 16.8252L23.5251 17.4252L24.4881 17.6948L24.6561 17.0948L23.6931 16.8252ZM23.5323 17.4019C23.4778 17.5654 23.4586 17.7431 23.4586 17.92H24.4586C24.4586 17.8089 24.4715 17.7466 24.481 17.7181L23.5323 17.4019ZM23.4586 17.92C23.4586 18.2612 23.5698 18.5969 23.861 18.8314C24.1314 19.0493 24.4806 19.116 24.8226 19.116V18.116C24.5887 18.116 24.5058 18.0667 24.4883 18.0526C24.4828 18.0482 24.4792 18.0444 24.4746 18.0333C24.4688 18.0192 24.4586 17.9852 24.4586 17.92H23.4586ZM24.8226 19.116C25.2148 19.116 25.6399 19.0284 26.0902 18.8725L25.7631 17.9275C25.3813 18.0596 25.0704 18.116 24.8226 18.116V19.116ZM25.4266 18.4V19H26.4266V18.4H25.4266ZM25.9266 18.5H20.9106V19.5H25.9266V18.5ZM21.4106 19V18.4H20.4106V19H21.4106ZM20.7351 18.8682C21.1661 19.0298 21.5937 19.116 22.0146 19.116V18.116C21.7316 18.116 21.4232 18.0582 21.0862 17.9318L20.7351 18.8682ZM22.0146 19.116C22.3214 19.116 22.6152 19.0543 22.8763 18.9086C23.14 18.7614 23.3422 18.5442 23.4863 18.2781L22.607 17.8019C22.5431 17.9198 22.4693 17.9906 22.3889 18.0354C22.3061 18.0817 22.1878 18.116 22.0146 18.116V19.116ZM23.4938 18.2636C23.6165 18.0182 23.7216 17.7643 23.809 17.5021L22.8603 17.1859C22.7877 17.4037 22.7007 17.6138 22.5994 17.8164L23.4938 18.2636ZM23.8126 17.4907L28.9006 0.906653L27.9446 0.613345L22.8566 17.1973L23.8126 17.4907ZM28.4226 1.26H29.8146V0.259999H28.4226V1.26ZM29.3361 0.904892L34.5681 18.1849L35.5252 17.8951L30.2932 0.615106L29.3361 0.904892ZM25.9506 11.268H30.7746V10.268H25.9506V11.268ZM31.2512 10.6169L28.7552 2.74488L27.802 3.04712L30.298 10.9191L31.2512 10.6169ZM27.7992 2.7542L25.4712 10.6262L26.4301 10.9098L28.7581 3.0378L27.7992 2.7542ZM48.673 18.928L48.3789 19.3324L48.3858 19.3374L48.3928 19.3421L48.673 18.928ZM47.449 17.56L47.0018 17.7836L47.0058 17.7916L47.0101 17.7994L47.449 17.56ZM46.561 15.328L46.0859 15.4838L46.0875 15.4885L46.561 15.328ZM45.625 13.024L45.1778 13.2476L45.1816 13.2551L45.1856 13.2625L45.625 13.024ZM44.305 11.56L44.0198 11.9707L44.0251 11.9743L44.305 11.56ZM41.953 10.96H41.453V11.46H41.953V10.96ZM41.953 10.744V10.244H41.453V10.744H41.953ZM46.369 9.664L46.0558 9.27425L46.369 9.664ZM46.513 2.944L46.1232 3.25714L46.1263 3.26096L46.513 2.944ZM41.209 1.672L41.0877 1.18693L40.7096 1.28146L40.709 1.67124L41.209 1.672ZM41.185 17.56L40.685 17.5592V17.56H41.185ZM41.617 18.28L41.3563 18.7066L41.617 18.28ZM43.633 18.4H44.133V17.7178L43.4824 17.9232L43.633 18.4ZM43.633 19V19.5H44.133V19H43.633ZM37.585 19H37.085V19.5H37.585V19ZM37.585 18.4L37.7356 17.9232L37.085 17.7178V18.4H37.585ZM39.121 18.304L38.7674 17.9504L39.121 18.304ZM39.121 1.96L38.751 2.29634L38.767 2.31395L38.7847 2.32997L39.121 1.96ZM37.585 1.84H37.085V2.52223L37.7356 2.31679L37.585 1.84ZM37.585 1.24V0.74H37.085V1.24H37.585ZM48.025 2.488L48.3204 2.08462L48.025 2.488ZM48.481 9.16L48.1457 8.78905L48.1422 8.79232L48.481 9.16ZM45.337 10.72L45.2272 10.2322L45.3192 11.2197L45.337 10.72ZM46.513 11.272L46.1512 11.6173L46.1594 11.6256L46.513 11.272ZM47.425 12.592L46.9751 12.8102L46.9778 12.8156L47.425 12.592ZM48.313 14.632L47.8482 14.8162L47.8482 14.8163L48.313 14.632ZM49.273 16.864L48.8232 17.0825V17.0825L49.273 16.864ZM50.281 18.28L49.9347 18.6407L50.281 18.28ZM52.945 18.304L53.2835 18.672L53.2841 18.6714L52.945 18.304ZM53.905 17.128L54.3308 16.866L53.8847 16.141L53.4687 16.8837L53.905 17.128ZM54.097 17.44L54.5257 17.6972L54.6821 17.4367L54.5228 17.1779L54.097 17.44ZM52.705 19L52.4339 18.5798L52.4277 18.584L52.705 19ZM50.833 18.98C50.0014 18.98 49.3893 18.8089 48.9532 18.5139L48.3928 19.3421C49.0447 19.7831 49.8726 19.98 50.833 19.98V18.98ZM48.9671 18.5236C48.4938 18.1794 48.1375 17.7781 47.8879 17.3206L47.0101 17.7994C47.3365 18.3979 47.7962 18.9086 48.3789 19.3324L48.9671 18.5236ZM47.8962 17.3364C47.6388 16.8215 47.3512 16.1016 47.0345 15.1675L46.0875 15.4885C46.4108 16.4424 46.7152 17.2105 47.0018 17.7836L47.8962 17.3364ZM47.0361 15.1722C46.7117 14.1827 46.3888 13.3829 46.0644 12.7855L45.1856 13.2625C45.4692 13.7851 45.7703 14.5213 46.0859 15.4838L47.0361 15.1722ZM46.0722 12.8004C45.7417 12.1393 45.2402 11.5884 44.5849 11.1457L44.0251 11.9743C44.5538 12.3316 44.9323 12.7567 45.1778 13.2476L46.0722 12.8004ZM44.5902 11.1493C43.9023 10.6716 43.0062 10.46 41.953 10.46V11.46C42.8838 11.46 43.5557 11.6484 44.0198 11.9707L44.5902 11.1493ZM42.453 10.96V10.744H41.453V10.96H42.453ZM41.953 11.244C44.0356 11.244 45.6508 10.8826 46.6822 10.0538L46.0558 9.27425C45.2952 9.88542 43.9664 10.244 41.953 10.244V11.244ZM46.6822 10.0538C47.7214 9.2187 48.213 8.00412 48.213 6.496H47.213C47.213 7.77188 46.8086 8.6693 46.0558 9.27425L46.6822 10.0538ZM48.213 6.496C48.213 5.00113 47.7806 3.70177 46.8997 2.62704L46.1263 3.26096C46.8454 4.13823 47.213 5.20687 47.213 6.496H48.213ZM46.9028 2.63087C45.9897 1.49418 44.5439 0.98 42.697 0.98V1.98C44.3701 1.98 45.4683 2.44182 46.1232 3.25713L46.9028 2.63087ZM42.697 0.98C42.1723 0.98 41.6355 1.04999 41.0877 1.18693L41.3303 2.15707C41.8065 2.03801 42.2617 1.98 42.697 1.98V0.98ZM40.709 1.67124L40.685 17.5592L41.685 17.5608L41.709 1.67275L40.709 1.67124ZM40.685 17.56C40.685 18.06 40.9393 18.4518 41.3563 18.7066L41.8777 17.8534C41.7188 17.7562 41.685 17.668 41.685 17.56H40.685ZM41.3563 18.7066C41.7419 18.9423 42.1984 19.044 42.697 19.044V18.044C42.3316 18.044 42.0681 17.9697 41.8777 17.8534L41.3563 18.7066ZM42.697 19.044C43.0679 19.044 43.4307 18.9882 43.7836 18.8768L43.4824 17.9232C43.2273 18.0038 42.9661 18.044 42.697 18.044V19.044ZM43.133 18.4V19H44.133V18.4H43.133ZM43.633 18.5H37.585V19.5H43.633V18.5ZM38.085 19V18.4H37.085V19H38.085ZM37.4344 18.8768C37.7757 18.9846 38.1072 19.044 38.425 19.044V18.044C38.2308 18.044 38.0023 18.0074 37.7356 17.9232L37.4344 18.8768ZM38.425 19.044C38.8147 19.044 39.1921 18.94 39.4746 18.6576L38.7674 17.9504C38.7299 17.988 38.6433 18.044 38.425 18.044V19.044ZM39.4746 18.6576C39.7691 18.3631 39.885 17.973 39.885 17.56H38.885C38.885 17.787 38.8249 17.8929 38.7674 17.9504L39.4746 18.6576ZM39.885 17.56V2.68H38.885V17.56H39.885ZM39.885 2.68C39.885 2.27 39.7701 1.87432 39.4573 1.59003L38.7847 2.32997C38.8239 2.36568 38.885 2.45 38.885 2.68H39.885ZM39.491 1.62366C39.2114 1.31611 38.8282 1.196 38.425 1.196V2.196C38.6298 2.196 38.7106 2.25188 38.751 2.29634L39.491 1.62366ZM38.425 1.196C38.1072 1.196 37.7757 1.25543 37.4344 1.36321L37.7356 2.31679C38.0023 2.23257 38.2308 2.196 38.425 2.196V1.196ZM38.085 1.84V1.24H37.085V1.84H38.085ZM37.585 1.74H43.753V0.74H37.585V1.74ZM43.753 1.74C45.3822 1.74 46.6964 2.13471 47.7296 2.89138L48.3204 2.08462C47.0816 1.17729 45.5478 0.74 43.753 0.74V1.74ZM47.7296 2.89138C48.7062 3.60664 49.229 4.72489 49.229 6.352H50.229C50.229 4.49111 49.6158 3.03335 48.3204 2.08462L47.7296 2.89138ZM49.229 6.352C49.229 7.33041 48.873 8.13172 48.1457 8.78906L48.8163 9.53094C49.753 8.68428 50.229 7.61359 50.229 6.352H49.229ZM48.1422 8.79232C47.4015 9.47485 46.4374 9.95992 45.2272 10.2322L45.4468 11.2078C46.7966 10.9041 47.9285 10.3491 48.8198 9.52768L48.1422 8.79232ZM45.3192 11.2197C45.625 11.2306 45.8969 11.3507 46.1513 11.6172L46.8747 10.9268C46.4571 10.4893 45.945 10.2414 45.3548 10.2203L45.3192 11.2197ZM46.1594 11.6256C46.4657 11.9318 46.7392 12.3236 46.9751 12.8101L47.8749 12.3739C47.5988 11.8044 47.2643 11.3162 46.8666 10.9184L46.1594 11.6256ZM46.9778 12.8156C47.2247 13.3095 47.5148 13.9747 47.8482 14.8162L48.7778 14.4478C48.4392 13.5933 48.1373 12.8985 47.8722 12.3684L46.9778 12.8156ZM47.8482 14.8163C48.2184 15.7499 48.5436 16.5067 48.8232 17.0825L49.7228 16.6455C49.4584 16.1013 49.1436 15.3701 48.7778 14.4477L47.8482 14.8163ZM48.8232 17.0825C49.1179 17.6891 49.4872 18.2111 49.9347 18.6407L50.6273 17.9193C50.2748 17.5809 49.9721 17.1589 49.7228 16.6455L48.8232 17.0825ZM49.9347 18.6407C50.4258 19.1122 51.0212 19.356 51.697 19.356V18.356C51.2848 18.356 50.9362 18.2158 50.6273 17.9193L49.9347 18.6407ZM51.697 19.356C52.2845 19.356 52.816 19.1021 53.2835 18.672L52.6065 17.936C52.274 18.2419 51.9735 18.356 51.697 18.356V19.356ZM53.2841 18.6714C53.7301 18.2598 54.0863 17.8275 54.3413 17.3723L53.4687 16.8837C53.2757 17.2285 52.9919 17.5802 52.6059 17.9366L53.2841 18.6714ZM53.4792 17.39L53.6712 17.702L54.5228 17.1779L54.3308 16.866L53.4792 17.39ZM53.6683 17.1828C53.2601 17.863 52.8443 18.3151 52.4339 18.5799L52.9761 19.4201C53.5577 19.0449 54.0699 18.457 54.5257 17.6972L53.6683 17.1828ZM52.4277 18.584C52.0529 18.8338 51.5344 18.98 50.833 18.98V19.98C51.6676 19.98 52.3971 19.8062 52.9823 19.416L52.4277 18.584ZM66.6299 17.56L66.2013 17.8179L66.208 17.8284L66.6299 17.56ZM67.2539 18.328L66.9338 18.7121L66.9413 18.7184L66.949 18.7243L67.2539 18.328ZM68.8379 18.4H69.3379V17.6953L68.6727 17.9281L68.8379 18.4ZM68.8379 19V19.5H69.3379V19H68.8379ZM63.0539 19H62.5539V19.5H63.0539V19ZM63.0539 18.4L63.1975 17.9211L62.5539 17.728V18.4H63.0539ZM64.5419 18.4L64.7992 18.8289L64.8103 18.8218L64.5419 18.4ZM64.6619 17.56L64.2365 17.8228L64.2411 17.8302L64.2458 17.8373L64.6619 17.56ZM59.1899 8.704L59.6152 8.44118L59.2685 7.88004L58.8219 8.36547L59.1899 8.704ZM56.9819 11.104L56.6139 10.7655L56.4819 10.909V11.104H56.9819ZM57.2219 18.304L56.8519 18.6403L56.8679 18.658L56.8855 18.674L57.2219 18.304ZM58.7819 18.4H59.2819V17.7178L58.6313 17.9232L58.7819 18.4ZM58.7819 19V19.5H59.2819V19H58.7819ZM53.3819 19H52.8819V19.5H53.3819V19ZM53.3819 18.4L53.5324 17.9232L52.8819 17.7178V18.4H53.3819ZM54.9179 18.304L54.5643 17.9504L54.9179 18.304ZM54.9179 1.96L54.5479 2.29634L54.5639 2.31395L54.5815 2.32997L54.9179 1.96ZM53.3819 1.84H52.8819V2.52223L53.5324 2.31679L53.3819 1.84ZM53.3819 1.24V0.74H52.8819V1.24H53.3819ZM58.7819 1.24H59.2819V0.74H58.7819V1.24ZM58.7819 1.84L58.6313 2.31679L59.2819 2.52223V1.84H58.7819ZM57.2219 1.96L56.8683 1.60645V1.60645L57.2219 1.96ZM56.9819 10.432H56.4819V11.7509L57.3562 10.7635L56.9819 10.432ZM63.8459 2.68L64.2202 3.01146L64.2267 3.00416L64.2329 2.99662L63.8459 2.68ZM63.8699 1.84L64.1699 1.44V1.44L63.8699 1.84ZM62.6459 1.84H62.1459V2.5615L62.8214 2.30816L62.6459 1.84ZM62.6459 1.24V0.74H62.1459V1.24H62.6459ZM67.4699 1.24H67.9699V0.74H67.4699V1.24ZM67.4699 1.84L67.3288 2.31968L67.9699 2.50823V1.84H67.4699ZM65.7419 1.96L65.9388 2.41957L65.9479 2.41568L65.9568 2.41143L65.7419 1.96ZM64.8299 2.584L64.4763 2.23045L64.4693 2.23744L64.4626 2.24471L64.8299 2.584ZM60.4619 7.312L60.0946 6.9727L59.84 7.24833L60.0335 7.56984L60.4619 7.312ZM66.208 17.8284C66.4439 18.199 66.6844 18.5043 66.9338 18.7121L67.574 17.9439C67.4394 17.8317 67.2639 17.625 67.0517 17.2916L66.208 17.8284ZM66.949 18.7243C67.253 18.9582 67.611 19.068 67.9979 19.068V18.068C67.8088 18.068 67.6707 18.0178 67.5587 17.9317L66.949 18.7243ZM67.9979 19.068C68.3121 19.068 68.6501 18.9955 69.0031 18.8719L68.6727 17.9281C68.3857 18.0285 68.1637 18.068 67.9979 18.068V19.068ZM68.3379 18.4V19H69.3379V18.4H68.3379ZM68.8379 18.5H63.0539V19.5H68.8379V18.5ZM63.5539 19V18.4H62.5539V19H63.5539ZM62.9102 18.8789C63.26 18.9839 63.5903 19.044 63.8939 19.044V18.044C63.7174 18.044 63.4877 18.0081 63.1975 17.9211L62.9102 18.8789ZM63.8939 19.044C64.2175 19.044 64.5337 18.988 64.7991 18.8287L64.2846 17.9713C64.23 18.004 64.1142 18.044 63.8939 18.044V19.044ZM64.8103 18.8218C65.0994 18.6378 65.3059 18.3488 65.3059 17.968H64.3059C64.3059 17.9699 64.3057 17.9672 64.3073 17.9614C64.3089 17.9556 64.3113 17.9505 64.3132 17.9473C64.3173 17.9407 64.312 17.9536 64.2734 17.9782L64.8103 18.8218ZM65.3059 17.968C65.3059 17.7121 65.2099 17.4806 65.0779 17.2826L64.2458 17.8373C64.3059 17.9274 64.3059 17.9679 64.3059 17.968H65.3059ZM65.0872 17.2972L59.6152 8.44118L58.7645 8.96682L64.2365 17.8228L65.0872 17.2972ZM58.8219 8.36547L56.6139 10.7655L57.3498 11.4425L59.5578 9.04253L58.8219 8.36547ZM56.4819 11.104V17.56H57.4819V11.104H56.4819ZM56.4819 17.56C56.4819 17.9608 56.5829 18.3445 56.8519 18.6403L57.5918 17.9677C57.5408 17.9115 57.4819 17.7992 57.4819 17.56H56.4819ZM56.8855 18.674C57.177 18.9389 57.5492 19.044 57.9419 19.044V18.044C57.7265 18.044 57.6188 17.9891 57.5582 17.934L56.8855 18.674ZM57.9419 19.044C58.2597 19.044 58.5912 18.9846 58.9324 18.8768L58.6313 17.9232C58.3646 18.0074 58.1361 18.044 57.9419 18.044V19.044ZM58.2819 18.4V19H59.2819V18.4H58.2819ZM58.7819 18.5H53.3819V19.5H58.7819V18.5ZM53.8819 19V18.4H52.8819V19H53.8819ZM53.2313 18.8768C53.5726 18.9846 53.9041 19.044 54.2219 19.044V18.044C54.0277 18.044 53.7992 18.0074 53.5324 17.9232L53.2313 18.8768ZM54.2219 19.044C54.6115 19.044 54.989 18.94 55.2714 18.6576L54.5643 17.9504C54.5267 17.988 54.4402 18.044 54.2219 18.044V19.044ZM55.2714 18.6576C55.5659 18.3631 55.6819 17.973 55.6819 17.56H54.6819C54.6819 17.787 54.6218 17.8929 54.5643 17.9504L55.2714 18.6576ZM55.6819 17.56V2.68H54.6819V17.56H55.6819ZM55.6819 2.68C55.6819 2.27 55.5669 1.87432 55.2542 1.59003L54.5815 2.32997C54.6208 2.36568 54.6819 2.45 54.6819 2.68H55.6819ZM55.2878 1.62366C55.0083 1.31611 54.625 1.196 54.2219 1.196V2.196C54.4267 2.196 54.5075 2.25188 54.5479 2.29634L55.2878 1.62366ZM54.2219 1.196C53.9041 1.196 53.5726 1.25543 53.2313 1.36321L53.5324 2.31679C53.7992 2.23257 54.0277 2.196 54.2219 2.196V1.196ZM53.8819 1.84V1.24H52.8819V1.84H53.8819ZM53.3819 1.74H58.7819V0.74H53.3819V1.74ZM58.2819 1.24V1.84H59.2819V1.24H58.2819ZM58.9324 1.36321C58.5912 1.25543 58.2597 1.196 57.9419 1.196V2.196C58.1361 2.196 58.3646 2.23257 58.6313 2.31679L58.9324 1.36321ZM57.9419 1.196C57.5365 1.196 57.1581 1.31668 56.8683 1.60645L57.5754 2.31355C57.6377 2.25132 57.7392 2.196 57.9419 2.196V1.196ZM56.8683 1.60645C56.5815 1.89329 56.4819 2.28293 56.4819 2.68H57.4819C57.4819 2.43707 57.5423 2.34671 57.5754 2.31355L56.8683 1.60645ZM56.4819 2.68V10.432H57.4819V2.68H56.4819ZM57.3562 10.7635L64.2202 3.01146L63.4715 2.34854L56.6075 10.1005L57.3562 10.7635ZM64.2329 2.99662C64.3992 2.79331 64.5619 2.52793 64.5619 2.224H63.5619C63.5619 2.19454 63.5698 2.19075 63.556 2.21996C63.5423 2.24898 63.5135 2.29659 63.4589 2.36338L64.2329 2.99662ZM64.5619 2.224C64.5619 1.90662 64.4238 1.63043 64.1699 1.44L63.5699 2.24C63.5751 2.24394 63.5759 2.24532 63.5742 2.24339C63.5725 2.24131 63.5695 2.23728 63.5667 2.23161C63.5638 2.22593 63.5624 2.22114 63.5618 2.21846C63.5612 2.21599 63.5619 2.21743 63.5619 2.224H64.5619ZM64.1699 1.44C63.9267 1.25765 63.6318 1.196 63.3419 1.196V2.196C63.4999 2.196 63.557 2.23035 63.5699 2.24L64.1699 1.44ZM63.3419 1.196C63.0584 1.196 62.7658 1.26104 62.4703 1.37183L62.8214 2.30816C63.038 2.22696 63.2094 2.196 63.3419 2.196V1.196ZM63.1459 1.84V1.24H62.1459V1.84H63.1459ZM62.6459 1.74H67.4699V0.74H62.6459V1.74ZM66.9699 1.24V1.84H67.9699V1.24H66.9699ZM67.611 1.36032C67.3085 1.27137 67.0194 1.22 66.7499 1.22V2.22C66.8964 2.22 67.0872 2.24863 67.3288 2.31968L67.611 1.36032ZM66.7499 1.22C66.3318 1.22 65.9228 1.32007 65.5269 1.50857L65.9568 2.41143C66.233 2.27993 66.4959 2.22 66.7499 2.22V1.22ZM65.5449 1.50043C65.1474 1.67078 64.7909 1.91585 64.4763 2.23045L65.1834 2.93755C65.4128 2.70815 65.6643 2.53722 65.9388 2.41957L65.5449 1.50043ZM64.4626 2.24471L60.0946 6.9727L60.8291 7.65129L65.1971 2.92329L64.4626 2.24471ZM60.0335 7.56984L66.2015 17.8178L67.0583 17.3022L60.8903 7.05416L60.0335 7.56984ZM81.5472 13.576L81.8874 13.9424L82.8205 13.076H81.5472V13.576ZM81.0912 14.56L80.599 14.4721L80.5974 14.4807L80.5962 14.4893L81.0912 14.56ZM80.9952 19V19.5H81.4952V19H80.9952ZM68.8272 19H68.3272V19.5H68.8272V19ZM68.8272 18.4L68.9778 17.9232L68.3272 17.7178V18.4H68.8272ZM70.3632 18.304L70.0096 17.9504L70.3632 18.304ZM70.3632 1.96L69.9932 2.29634L70.0092 2.31395L70.0268 2.32997L70.3632 1.96ZM68.8272 1.84H68.3272V2.52223L68.9778 2.31679L68.8272 1.84ZM68.8272 1.24V0.74H68.3272V1.24H68.8272ZM79.9872 1.24L80.4845 1.29145L80.5416 0.74H79.9872V1.24ZM79.9152 1.936L80.4091 2.01398L80.4112 2.00076L80.4125 1.98745L79.9152 1.936ZM80.1792 5.32V5.82H80.9344L80.6395 5.12472L80.1792 5.32ZM79.7952 5.32L79.3523 5.552L79.4927 5.82H79.7952V5.32ZM79.4112 4L79.9059 3.92725L79.9042 3.91586L79.902 3.90456L79.4112 4ZM78.9552 2.656L78.521 2.90412L78.5264 2.91325L78.9552 2.656ZM72.5712 2.848L72.0848 2.73219L72.0827 2.74103L72.0809 2.74994L72.5712 2.848ZM72.4272 4.24L71.9279 4.21372L71.9272 4.22685V4.24H72.4272ZM72.4272 8.8H71.9272V9.3H72.4272V8.8ZM76.6992 8.776L76.7445 9.27395L76.763 9.27226L76.7814 9.2692L76.6992 8.776ZM77.1312 8.56L76.7516 8.2346V8.2346L77.1312 8.56ZM77.1792 6.904L76.6889 7.00206L76.692 7.01756L76.6961 7.03283L77.1792 6.904ZM76.6992 6.544H76.1992V7.044H76.6992V6.544ZM76.6992 6.232V5.732H76.1992V6.232H76.6992ZM77.6352 6.232H78.1352V5.732H77.6352V6.232ZM77.6352 11.8V12.3H78.1352V11.8H77.6352ZM76.6992 11.8H76.1992V12.3H76.6992V11.8ZM76.6992 11.464V10.964H76.1992V11.464H76.6992ZM77.1792 11.08L76.6925 10.9655L76.6899 10.9766L76.6878 10.9879L77.1792 11.08ZM76.9392 9.424L76.7297 9.87798L76.75 9.88735L76.771 9.89487L76.9392 9.424ZM75.7392 9.256L75.7527 8.756H75.7392V9.256ZM72.4272 9.256V8.756H71.9272V9.256H72.4272ZM72.4272 16H71.9272V16.0147L71.928 16.0294L72.4272 16ZM72.6192 17.368L72.1354 17.4942L72.1368 17.4996L72.6192 17.368ZM73.3632 18.328L73.071 18.7338L73.0786 18.7391L73.3632 18.328ZM78.4032 18.328L78.5889 18.7923L78.5977 18.7886L78.4032 18.328ZM79.8672 17.224L80.2974 17.4789L80.3013 17.4721L79.8672 17.224ZM80.5392 15.424L81.0237 15.5477L81.0259 15.5385L80.5392 15.424ZM81.2112 13.576V13.076H80.9318L80.7854 13.314L81.2112 13.576ZM81.207 13.2096C80.8729 13.5198 80.6892 13.9671 80.599 14.4721L81.5834 14.6479C81.6532 14.2569 81.7734 14.0482 81.8874 13.9424L81.207 13.2096ZM80.5962 14.4893C80.5271 14.9734 80.4952 15.666 80.4952 16.552H81.4952C81.4952 15.678 81.5273 15.0426 81.5862 14.6307L80.5962 14.4893ZM80.4952 16.552V19H81.4952V16.552H80.4952ZM80.9952 18.5H68.8272V19.5H80.9952V18.5ZM69.3272 19V18.4H68.3272V19H69.3272ZM68.6766 18.8768C69.0179 18.9846 69.3494 19.044 69.6672 19.044V18.044C69.473 18.044 69.2445 18.0074 68.9778 17.9232L68.6766 18.8768ZM69.6672 19.044C70.0569 19.044 70.4343 18.94 70.7167 18.6576L70.0096 17.9504C69.9721 17.988 69.8855 18.044 69.6672 18.044V19.044ZM70.7167 18.6576C71.0112 18.3631 71.1272 17.973 71.1272 17.56H70.1272C70.1272 17.787 70.0671 17.8929 70.0096 17.9504L70.7167 18.6576ZM71.1272 17.56V2.68H70.1272V17.56H71.1272ZM71.1272 2.68C71.1272 2.27 71.0122 1.87432 70.6995 1.59003L70.0268 2.32997C70.0661 2.36568 70.1272 2.45 70.1272 2.68H71.1272ZM70.7332 1.62366C70.4536 1.31611 70.0704 1.196 69.6672 1.196V2.196C69.872 2.196 69.9528 2.25188 69.9932 2.29634L70.7332 1.62366ZM69.6672 1.196C69.3494 1.196 69.0179 1.25543 68.6766 1.36321L68.9778 2.31679C69.2445 2.23257 69.473 2.196 69.6672 2.196V1.196ZM69.3272 1.84V1.24H68.3272V1.84H69.3272ZM68.8272 1.74H79.9872V0.74H68.8272V1.74ZM79.4898 1.18855L79.4178 1.88455L80.4125 1.98745L80.4845 1.29145L79.4898 1.18855ZM79.4213 1.85802C79.3676 2.1979 79.3432 2.61861 79.3432 3.112H80.3432C80.3432 2.64539 80.3667 2.2821 80.4091 2.01398L79.4213 1.85802ZM79.3432 3.112C79.3432 4.08525 79.4571 4.89824 79.7189 5.51527L80.6395 5.12472C80.4532 4.68575 80.3432 4.02675 80.3432 3.112H79.3432ZM80.1792 4.82H79.7952V5.82H80.1792V4.82ZM80.2381 5.088C80.0971 4.81875 79.981 4.4384 79.9059 3.92725L78.9165 4.07275C79.0013 4.6496 79.1413 5.14925 79.3523 5.552L80.2381 5.088ZM79.902 3.90456C79.7845 3.30031 79.618 2.78885 79.3839 2.39875L78.5264 2.91325C78.6764 3.16315 78.8139 3.54768 78.9204 4.09544L79.902 3.90456ZM79.3893 2.40793C79.113 1.92438 78.5927 1.58921 77.9561 1.34836L77.6022 2.28364C78.1497 2.49079 78.4134 2.71562 78.5211 2.90407L79.3893 2.40793ZM77.9561 1.34836C77.2778 1.09169 76.3164 0.98 75.1152 0.98V1.98C76.282 1.98 77.0966 2.09231 77.6022 2.28364L77.9561 1.34836ZM75.1152 0.98C74.2326 0.98 73.4823 1.12567 72.9672 1.512L73.5672 2.312C73.8201 2.12233 74.3018 1.98 75.1152 1.98V0.98ZM72.9672 1.512C72.5259 1.843 72.2007 2.24533 72.0848 2.73219L73.0576 2.96381C73.1017 2.77866 73.2405 2.557 73.5672 2.312L72.9672 1.512ZM72.0809 2.74994C72.0097 3.10581 71.9603 3.59844 71.9279 4.21372L72.9265 4.26628C72.9581 3.66556 73.0047 3.23019 73.0615 2.94606L72.0809 2.74994ZM71.9272 4.24V8.8H72.9272V4.24H71.9272ZM72.4272 9.3H75.7392V8.3H72.4272V9.3ZM75.7392 9.3C76.2017 9.3 76.5429 9.29227 76.7445 9.27395L76.6539 8.27805C76.5035 8.29173 76.2047 8.3 75.7392 8.3V9.3ZM76.7814 9.2692C77.0518 9.22413 77.3169 9.11157 77.5108 8.88539L76.7516 8.2346C76.7507 8.23555 76.7455 8.24185 76.7276 8.25079C76.7083 8.26041 76.6737 8.27334 76.617 8.2828L76.7814 9.2692ZM77.5108 8.8854C77.7275 8.6326 77.7752 8.28632 77.7752 7.984H76.7752C76.7752 8.09318 76.7653 8.16604 76.7541 8.21073C76.7428 8.25597 76.7348 8.25414 76.7516 8.2346L77.5108 8.8854ZM77.7752 7.984C77.7752 7.49295 77.7436 7.07994 77.6623 6.77517L76.6961 7.03283C76.7428 7.20806 76.7752 7.51505 76.7752 7.984H77.7752ZM77.6695 6.80594C77.627 6.59355 77.5224 6.38343 77.3232 6.234C77.1303 6.08931 76.905 6.044 76.6992 6.044V7.044C76.7312 7.044 76.746 7.04761 76.7484 7.04826C76.7496 7.0486 76.7387 7.04561 76.7232 7.034C76.7158 7.02844 76.7088 7.02196 76.7026 7.01494C76.6964 7.00795 76.6921 7.00154 76.6893 6.99664C76.6836 6.98688 76.6857 6.98629 76.6889 7.00206L77.6695 6.80594ZM77.1992 6.544V6.232H76.1992V6.544H77.1992ZM76.6992 6.732H77.6352V5.732H76.6992V6.732ZM77.1352 6.232V11.8H78.1352V6.232H77.1352ZM77.6352 11.3H76.6992V12.3H77.6352V11.3ZM77.1992 11.8V11.464H76.1992V11.8H77.1992ZM76.6992 11.964C76.9114 11.964 77.1416 11.9136 77.3355 11.7584C77.5321 11.6012 77.6307 11.385 77.6706 11.1721L76.6878 10.9879C76.6835 11.0103 76.6796 11.0154 76.6825 11.0099C76.6841 11.007 76.6872 11.002 76.6923 10.9958C76.6974 10.9896 76.7036 10.9833 76.7108 10.9776C76.718 10.9718 76.7249 10.9676 76.7306 10.9647C76.7362 10.9618 76.7397 10.9607 76.7401 10.9606C76.7406 10.9605 76.7287 10.964 76.6992 10.964V11.964ZM77.6659 11.1945C77.743 10.8668 77.7752 10.4378 77.7752 9.928H76.7752C76.7752 10.4102 76.7434 10.7492 76.6925 10.9655L77.6659 11.1945ZM77.7752 9.928C77.7752 9.72765 77.731 9.51827 77.6072 9.33265C77.4814 9.14399 77.302 9.02265 77.1074 8.95313L76.771 9.89487C76.7873 9.90067 76.7916 9.90453 76.7893 9.90279C76.7862 9.90055 76.7804 9.89523 76.7752 9.88735C76.7701 9.87974 76.7696 9.87588 76.7708 9.88019C76.7721 9.88525 76.7752 9.90009 76.7752 9.928H77.7752ZM77.1487 8.97002C76.9788 8.89157 76.7701 8.84528 76.5525 8.81483C76.3277 8.78335 76.0596 8.76448 75.7527 8.75618L75.7257 9.75582C76.0107 9.76352 76.2387 9.78065 76.4139 9.80517C76.5963 9.83071 76.6916 9.86042 76.7297 9.87798L77.1487 8.97002ZM75.7392 8.756H72.4272V9.756H75.7392V8.756ZM71.9272 9.256V16H72.9272V9.256H71.9272ZM71.928 16.0294C71.9612 16.5933 72.0284 17.0842 72.1354 17.4942L73.103 17.2418C73.018 16.9158 72.9572 16.4947 72.9263 15.9706L71.928 16.0294ZM72.1368 17.4996C72.272 17.9954 72.6106 18.4023 73.071 18.7338L73.6553 17.9222C73.3157 17.6777 73.1583 17.4446 73.1016 17.2364L72.1368 17.4996ZM73.0786 18.7391C73.6177 19.1123 74.3714 19.26 75.2592 19.26V18.26C74.451 18.26 73.9407 18.1197 73.6478 17.9169L73.0786 18.7391ZM75.2592 19.26C76.6573 19.26 77.7807 19.1155 78.5889 18.7922L78.2175 17.8638C77.5857 18.1165 76.6131 18.26 75.2592 18.26V19.26ZM78.5977 18.7886C79.365 18.4647 79.964 18.0414 80.2973 17.4789L79.437 16.9691C79.2584 17.2706 78.8814 17.5833 78.2087 17.8674L78.5977 18.7886ZM80.3013 17.4721C80.5878 16.9707 80.8255 16.3237 81.0236 15.5477L80.0547 15.3003C79.8689 16.0283 79.6586 16.5813 79.4331 16.9759L80.3013 17.4721ZM81.0259 15.5385C81.2131 14.743 81.4222 14.1872 81.637 13.838L80.7854 13.314C80.4882 13.7968 80.2493 14.473 80.0525 15.3095L81.0259 15.5385ZM81.2112 14.076H81.5472V13.076H81.2112V14.076ZM94.8154 1.936L95.3093 2.01398L95.3114 2.00076L95.3128 1.98745L94.8154 1.936ZM95.0794 5.32V5.82H95.8347L95.5397 5.12472L95.0794 5.32ZM94.6954 5.32L94.2525 5.552L94.3929 5.82H94.6954V5.32ZM94.3114 4L94.8061 3.92725L94.8044 3.91586L94.8022 3.90456L94.3114 4ZM93.8554 2.656L93.4212 2.90412L93.4267 2.91325L93.8554 2.656ZM92.6794 1.816L92.8564 1.34836L92.6794 1.816ZM89.3194 1.528L89.2574 1.03186L88.8194 1.08661V1.528H89.3194ZM89.5594 18.304L89.1895 18.6403L89.2055 18.658L89.2231 18.674L89.5594 18.304ZM91.1194 18.4H91.6194V17.7178L90.9689 17.9232L91.1194 18.4ZM91.1194 19V19.5H91.6194V19H91.1194ZM85.7194 19H85.2194V19.5H85.7194V19ZM85.7194 18.4L85.8631 17.9211L85.2194 17.728V18.4H85.7194ZM87.2554 18.304L87.609 18.6576L87.2554 18.304ZM87.5194 1.528H88.0194V1.08661L87.5815 1.03186L87.5194 1.528ZM83.0074 2.656L83.4363 2.9133L83.4416 2.90407L83.0074 2.656ZM82.5514 4L82.0606 3.90456L82.0584 3.91586L82.0568 3.92725L82.5514 4ZM82.1674 5.32V5.82H82.47L82.6104 5.552L82.1674 5.32ZM81.7834 5.32L81.3231 5.12472L81.0282 5.82H81.7834V5.32ZM82.0474 1.936L81.5501 1.98745L81.5515 2.00076L81.5536 2.01398L82.0474 1.936ZM81.9754 1.24V0.74H81.421L81.4781 1.29145L81.9754 1.24ZM94.8874 1.24L95.3848 1.29145L95.4418 0.74H94.8874V1.24ZM94.3216 1.85802C94.2679 2.1979 94.2434 2.61861 94.2434 3.112H95.2434C95.2434 2.64539 95.267 2.2821 95.3093 2.01398L94.3216 1.85802ZM94.2434 3.112C94.2434 4.08525 94.3574 4.89824 94.6191 5.51527L95.5397 5.12472C95.3535 4.68575 95.2434 4.02675 95.2434 3.112H94.2434ZM95.0794 4.82H94.6954V5.82H95.0794V4.82ZM95.1384 5.088C94.9973 4.81875 94.8813 4.4384 94.8061 3.92725L93.8168 4.07275C93.9016 4.6496 94.0416 5.14925 94.2525 5.552L95.1384 5.088ZM94.8022 3.90456C94.6848 3.30031 94.5182 2.78885 94.2842 2.39875L93.4267 2.91325C93.5766 3.16315 93.7141 3.54768 93.8206 4.09544L94.8022 3.90456ZM94.2896 2.40793C94.0132 1.92438 93.4929 1.58921 92.8564 1.34836L92.5025 2.28364C93.0499 2.49079 93.3136 2.71562 93.4213 2.90407L94.2896 2.40793ZM92.8564 1.34836C92.1781 1.09169 91.2167 0.98 90.0154 0.98V1.98C91.1822 1.98 91.9968 2.09231 92.5025 2.28364L92.8564 1.34836ZM90.0154 0.98C89.7825 0.98 89.5293 0.997872 89.2574 1.03186L89.3815 2.02414C89.6215 1.99413 89.8324 1.98 90.0154 1.98V0.98ZM88.8194 1.528V17.56H89.8194V1.528H88.8194ZM88.8194 17.56C88.8194 17.9608 88.9205 18.3445 89.1895 18.6403L89.9294 17.9677C89.8784 17.9115 89.8194 17.7992 89.8194 17.56H88.8194ZM89.2231 18.674C89.5145 18.9389 89.8868 19.044 90.2794 19.044V18.044C90.0641 18.044 89.9563 17.9891 89.8958 17.934L89.2231 18.674ZM90.2794 19.044C90.5973 19.044 90.9287 18.9846 91.27 18.8768L90.9689 17.9232C90.7022 18.0074 90.4736 18.044 90.2794 18.044V19.044ZM90.6194 18.4V19H91.6194V18.4H90.6194ZM91.1194 18.5H85.7194V19.5H91.1194V18.5ZM86.2194 19V18.4H85.2194V19H86.2194ZM85.5758 18.8789C85.9256 18.9839 86.2559 19.044 86.5594 19.044V18.044C86.383 18.044 86.1533 18.0081 85.8631 17.9211L85.5758 18.8789ZM86.5594 19.044C86.9491 19.044 87.3266 18.94 87.609 18.6576L86.9019 17.9504C86.8643 17.988 86.7778 18.044 86.5594 18.044V19.044ZM87.609 18.6576C87.9035 18.3631 88.0194 17.973 88.0194 17.56H87.0194C87.0194 17.787 86.9594 17.8929 86.9019 17.9504L87.609 18.6576ZM88.0194 17.56V1.528H87.0194V17.56H88.0194ZM87.5815 1.03186C87.3114 0.998101 87.0658 0.98 86.8474 0.98V1.98C87.0131 1.98 87.2155 1.9939 87.4574 2.02414L87.5815 1.03186ZM86.8474 0.98C85.6462 0.98 84.6848 1.09169 84.0065 1.34836L84.3604 2.28364C84.8661 2.09231 85.6807 1.98 86.8474 1.98V0.98ZM84.0065 1.34836C83.3699 1.58921 82.8496 1.92438 82.5733 2.40793L83.4416 2.90407C83.5492 2.71562 83.8129 2.49079 84.3604 2.28364L84.0065 1.34836ZM82.5787 2.39875C82.3446 2.78885 82.1781 3.30031 82.0606 3.90456L83.0422 4.09544C83.1488 3.54768 83.2862 3.16315 83.4362 2.91325L82.5787 2.39875ZM82.0568 3.92725C81.9816 4.4384 81.8656 4.81875 81.7245 5.08799L82.6104 5.552C82.8213 5.14925 82.9613 4.6496 83.0461 4.07275L82.0568 3.92725ZM82.1674 4.82H81.7834V5.82H82.1674V4.82ZM82.2437 5.51527C82.5055 4.89824 82.6194 4.08525 82.6194 3.112H81.6194C81.6194 4.02675 81.5094 4.68575 81.3231 5.12472L82.2437 5.51527ZM82.6194 3.112C82.6194 2.61861 82.595 2.1979 82.5413 1.85802L81.5536 2.01398C81.5959 2.2821 81.6194 2.64539 81.6194 3.112H82.6194ZM82.5448 1.88455L82.4728 1.18855L81.4781 1.29145L81.5501 1.98745L82.5448 1.88455ZM81.9754 1.74H94.8874V0.74H81.9754V1.74ZM94.3901 1.18855L94.3181 1.88455L95.3128 1.98745L95.3848 1.29145L94.3901 1.18855ZM95.8037 18.4L95.9543 17.9232L95.3037 17.7178V18.4H95.8037ZM97.3398 18.304L96.9862 17.9504L97.3398 18.304ZM97.3398 1.96L96.9698 2.29634L96.9858 2.31395L97.0034 2.32997L97.3398 1.96ZM95.8037 1.84H95.3037V2.52223L95.9543 2.31679L95.8037 1.84ZM95.8037 1.24V0.74H95.3037V1.24H95.8037ZM101.204 1.24H101.704V0.74H101.204V1.24ZM101.204 1.84L101.053 2.31679L101.704 2.52223V1.84H101.204ZM99.6438 1.96L99.2902 1.60645V1.60645L99.6438 1.96ZM99.6438 18.304L99.2738 18.6403L99.2898 18.658L99.3074 18.674L99.6438 18.304ZM101.204 18.4H101.704V17.7178L101.053 17.9232L101.204 18.4ZM101.204 19V19.5H101.704V19H101.204ZM95.8037 19H95.3037V19.5H95.8037V19ZM95.6532 18.8768C95.9945 18.9846 96.3259 19.044 96.6438 19.044V18.044C96.4496 18.044 96.221 18.0074 95.9543 17.9232L95.6532 18.8768ZM96.6438 19.044C97.0334 19.044 97.4109 18.94 97.6933 18.6576L96.9862 17.9504C96.9486 17.988 96.8621 18.044 96.6438 18.044V19.044ZM97.6933 18.6576C97.9878 18.3631 98.1038 17.973 98.1038 17.56H97.1038C97.1038 17.787 97.0437 17.8929 96.9862 17.9504L97.6933 18.6576ZM98.1038 17.56V2.68H97.1038V17.56H98.1038ZM98.1038 2.68C98.1038 2.27 97.9888 1.87432 97.6761 1.59003L97.0034 2.32997C97.0427 2.36568 97.1038 2.45 97.1038 2.68H98.1038ZM97.7097 1.62366C97.4301 1.31611 97.0469 1.196 96.6438 1.196V2.196C96.8486 2.196 96.9294 2.25188 96.9698 2.29634L97.7097 1.62366ZM96.6438 1.196C96.3259 1.196 95.9945 1.25543 95.6532 1.36321L95.9543 2.31679C96.221 2.23257 96.4496 2.196 96.6438 2.196V1.196ZM96.3037 1.84V1.24H95.3037V1.84H96.3037ZM95.8037 1.74H101.204V0.74H95.8037V1.74ZM100.704 1.24V1.84H101.704V1.24H100.704ZM101.354 1.36321C101.013 1.25543 100.682 1.196 100.364 1.196V2.196C100.558 2.196 100.786 2.23257 101.053 2.31679L101.354 1.36321ZM100.364 1.196C99.9584 1.196 99.58 1.31668 99.2902 1.60645L99.9973 2.31355C100.06 2.25132 100.161 2.196 100.364 2.196V1.196ZM99.2902 1.60645C99.0034 1.89329 98.9037 2.28293 98.9037 2.68H99.9037C99.9037 2.43707 99.9641 2.34671 99.9973 2.31355L99.2902 1.60645ZM98.9037 2.68V17.56H99.9037V2.68H98.9037ZM98.9037 17.56C98.9037 17.9608 99.0048 18.3445 99.2738 18.6403L100.014 17.9677C99.9627 17.9115 99.9037 17.7992 99.9037 17.56H98.9037ZM99.3074 18.674C99.5989 18.9389 99.9711 19.044 100.364 19.044V18.044C100.148 18.044 100.041 17.9891 99.9801 17.934L99.3074 18.674ZM100.364 19.044C100.682 19.044 101.013 18.9846 101.354 18.8768L101.053 17.9232C100.786 18.0074 100.558 18.044 100.364 18.044V19.044ZM100.704 18.4V19H101.704V18.4H100.704ZM101.204 18.5H95.8037V19.5H101.204V18.5ZM96.3037 19V18.4H95.3037V19H96.3037ZM118.524 1.216H119.024V0.715999H118.524V1.216ZM118.524 1.816L118.381 2.29491L119.024 2.48802V1.816H118.524ZM116.628 1.936L116.345 1.52398L116.339 1.52829L116.333 1.5328L116.628 1.936ZM116.268 19.48V19.98H116.768V19.48H116.268ZM115.716 19.48L115.296 19.7505L115.443 19.98H115.716V19.48ZM105.108 2.992L105.529 2.72147L104.605 1.28638L104.608 2.99282L105.108 2.992ZM105.132 17.56H105.632V17.5592L105.132 17.56ZM105.564 18.28L105.303 18.7068L105.314 18.7127L105.564 18.28ZM107.628 18.4H108.128V17.7178L107.478 17.9232L107.628 18.4ZM107.628 19V19.5H108.128V19H107.628ZM102.396 19H101.896V19.5H102.396V19ZM102.396 18.4L102.547 17.9232L101.896 17.7178V18.4H102.396ZM104.22 18.28L103.925 17.8768L103.918 17.8817L103.911 17.8868L104.22 18.28ZM102.396 1.84H101.896V2.51201L102.54 2.31891L102.396 1.84ZM102.396 1.24V0.74H101.896V1.24H102.396ZM106.164 1.24L106.582 0.964569L106.433 0.74H106.164V1.24ZM115.716 15.712L115.299 15.9874L116.216 17.3772V15.712H115.716ZM115.308 1.936L115.037 2.35578H115.037L115.308 1.936ZM113.34 1.816H112.84V2.49823L113.491 2.29279L113.34 1.816ZM113.34 1.216V0.715999H112.84V1.216H113.34ZM118.024 1.216V1.816H119.024V1.216H118.024ZM118.668 1.33709C118.309 1.22929 117.956 1.172 117.612 1.172V2.172C117.845 2.172 118.1 2.21071 118.381 2.29491L118.668 1.33709ZM117.612 1.172C117.14 1.172 116.705 1.27622 116.345 1.52398L116.912 2.34802C117.063 2.24378 117.284 2.172 117.612 2.172V1.172ZM116.333 1.5328C115.961 1.80535 115.768 2.19677 115.768 2.656H116.768C116.768 2.50723 116.816 2.41865 116.924 2.3392L116.333 1.5328ZM115.768 2.656V19.48H116.768V2.656H115.768ZM116.268 18.98H115.716V19.98H116.268V18.98ZM116.137 19.2095L105.529 2.72147L104.688 3.26253L115.296 19.7505L116.137 19.2095ZM104.608 2.99282L104.632 17.5608L105.632 17.5592L105.608 2.99117L104.608 2.99282ZM104.632 17.56C104.632 18.06 104.886 18.4518 105.304 18.7066L105.825 17.8534C105.666 17.7562 105.632 17.668 105.632 17.56H104.632ZM105.314 18.7127C105.71 18.9419 106.168 19.044 106.668 19.044V18.044C106.304 18.044 106.027 17.9701 105.815 17.8473L105.314 18.7127ZM106.668 19.044C107.053 19.044 107.424 18.989 107.779 18.8768L107.478 17.9232C107.225 18.003 106.956 18.044 106.668 18.044V19.044ZM107.128 18.4V19H108.128V18.4H107.128ZM107.628 18.5H102.396V19.5H107.628V18.5ZM102.896 19V18.4H101.896V19H102.896ZM102.246 18.8768C102.596 18.9874 102.951 19.044 103.308 19.044V18.044C103.058 18.044 102.804 18.0046 102.547 17.9232L102.246 18.8768ZM103.308 19.044C103.765 19.044 104.191 18.939 104.529 18.6732L103.911 17.8868C103.802 17.973 103.619 18.044 103.308 18.044V19.044ZM104.516 18.6832C104.888 18.4107 105.08 18.0192 105.08 17.56H104.08C104.08 17.7088 104.033 17.7973 103.925 17.8768L104.516 18.6832ZM105.08 17.56V2.68H104.08V17.56H105.08ZM105.08 2.68C105.08 2.22077 104.888 1.82935 104.516 1.5568L103.925 2.3632C104.033 2.44265 104.08 2.53123 104.08 2.68H105.08ZM104.516 1.5568C104.168 1.3018 103.744 1.196 103.284 1.196V2.196C103.593 2.196 103.792 2.2662 103.925 2.3632L104.516 1.5568ZM103.284 1.196C102.954 1.196 102.609 1.25416 102.253 1.36109L102.54 2.31891C102.824 2.23384 103.071 2.196 103.284 2.196V1.196ZM102.896 1.84V1.24H101.896V1.84H102.896ZM102.396 1.74H106.164V0.74H102.396V1.74ZM105.747 1.51543L115.299 15.9874L116.134 15.4366L106.582 0.964569L105.747 1.51543ZM116.216 15.712V2.656H115.216V15.712H116.216ZM116.216 2.656C116.216 2.16947 115.983 1.77711 115.58 1.51621L115.037 2.35578C115.177 2.44689 115.216 2.53453 115.216 2.656H116.216ZM115.58 1.51621C115.207 1.27486 114.762 1.172 114.276 1.172V2.172C114.623 2.172 114.866 2.24514 115.037 2.35578L115.58 1.51621ZM114.276 1.172C113.905 1.172 113.543 1.22777 113.19 1.33921L113.491 2.29279C113.746 2.21223 114.007 2.172 114.276 2.172V1.172ZM113.84 1.816V1.216H112.84V1.816H113.84ZM113.34 1.716H118.524V0.715999H113.34V1.716ZM123.699 18.208L123.409 18.6156L123.416 18.6199L123.699 18.208ZM120.795 14.776L120.346 14.9956L120.349 15.0016L120.795 14.776ZM120.723 5.464L120.27 5.25255L120.269 5.25479L120.723 5.464ZM123.507 2.032L123.218 1.62366L123.216 1.6255L123.507 2.032ZM130.659 1.624L130.408 2.0564L130.411 2.05812L130.659 1.624ZM132.939 3.52L132.538 3.8185L133.252 4.77838L133.433 3.59565L132.939 3.52ZM133.299 1.168V0.667999H132.87L132.805 1.09235L133.299 1.168ZM133.707 1.168H134.207V0.667999H133.707V1.168ZM133.707 6.52V7.02H134.207V6.52H133.707ZM132.939 6.52H132.439V7.02H132.939V6.52ZM132.315 4L131.87 4.2271L131.871 4.23068L132.315 4ZM130.419 2.008L130.157 2.43384L130.161 2.43603L130.419 2.008ZM122.451 5.704L121.977 5.54589V5.54589L122.451 5.704ZM122.403 14.488L121.925 14.6343L121.925 14.6358L122.403 14.488ZM124.395 17.752L124.058 18.1214L124.061 18.1243L124.395 17.752ZM130.539 18.16L130.236 17.7621L130.539 18.16ZM132.195 16.048L131.738 15.8449L131.736 15.849L132.195 16.048ZM132.603 11.776L132.118 11.8973L132.12 11.9067L132.123 11.916L132.603 11.776ZM132.027 11.2L132.02 11.7H132.027V11.2ZM130.275 11.176L130.282 10.676H130.275V11.176ZM128.547 11.32L128.308 10.8811L128.547 11.32ZM128.283 11.896H127.783V11.9099L127.784 11.9237L128.283 11.896ZM128.403 13.312L127.929 13.4702L127.933 13.4829L128.403 13.312ZM128.835 13.6H129.335V13.1344L128.871 13.1013L128.835 13.6ZM128.835 13.912V14.412H129.335V13.912H128.835ZM127.899 13.912H127.399V14.412H127.899V13.912ZM127.899 10.72V10.22H127.399V10.72H127.899ZM134.355 10.72H134.855V10.22H134.355V10.72ZM134.355 16.648V17.148H134.855V16.648H134.355ZM133.299 16.984L133.062 16.5438L133.054 16.5482L133.046 16.553L133.299 16.984ZM132.435 17.536L132.716 17.9496L132.717 17.9487L132.435 17.536ZM130.059 18.952L130.275 19.4031L130.283 19.3992L130.059 18.952ZM127.779 18.98C126.393 18.98 125.132 18.587 123.983 17.7961L123.416 18.6199C124.731 19.525 126.189 19.98 127.779 19.98V18.98ZM123.989 17.8004C122.843 16.9867 121.927 15.9071 121.241 14.5504L120.349 15.0016C121.103 16.4929 122.123 17.7013 123.409 18.6156L123.989 17.8004ZM121.244 14.5564C120.575 13.1874 120.239 11.7109 120.239 10.12H119.239C119.239 11.8571 119.607 13.4846 120.346 14.9956L121.244 14.5564ZM120.239 10.12C120.239 8.50697 120.554 7.02699 121.177 5.67321L120.269 5.25479C119.581 6.74901 119.239 8.37303 119.239 10.12H120.239ZM121.176 5.67544C121.815 4.306 122.69 3.23199 123.798 2.43849L123.216 1.6255C121.956 2.52801 120.975 3.74199 120.27 5.25256L121.176 5.67544ZM123.796 2.44033C124.909 1.65346 126.16 1.26 127.563 1.26V0.259999C125.958 0.259999 124.505 0.71454 123.219 1.62367L123.796 2.44033ZM127.563 1.26C128.541 1.26 129.487 1.52146 130.408 2.05639L130.91 1.1916C129.847 0.574535 128.729 0.259999 127.563 0.259999V1.26ZM130.411 2.05812C131.379 2.61134 132.079 3.20163 132.538 3.8185L133.34 3.22149C132.775 2.46237 131.955 1.78866 130.907 1.18988L130.411 2.05812ZM133.433 3.59565L133.793 1.24365L132.805 1.09235L132.445 3.44435L133.433 3.59565ZM133.299 1.668H133.707V0.667999H133.299V1.668ZM133.207 1.168V6.52H134.207V1.168H133.207ZM133.707 6.02H132.939V7.02H133.707V6.02ZM133.439 6.52C133.439 5.55766 133.211 4.63875 132.759 3.76932L131.871 4.23068C132.251 4.96125 132.439 5.72233 132.439 6.52H133.439ZM132.761 3.77291C132.299 2.86702 131.599 2.1361 130.677 1.57997L130.161 2.43603C130.936 2.9039 131.499 3.50098 131.87 4.22709L132.761 3.77291ZM130.681 1.58217C129.752 1.0105 128.624 0.74 127.323 0.74V1.74C128.486 1.74 129.422 1.9815 130.157 2.43383L130.681 1.58217ZM127.323 0.74C126.081 0.74 124.983 1.20459 124.048 2.10371L124.742 2.82429C125.503 2.09141 126.357 1.74 127.323 1.74V0.74ZM124.048 2.10371C123.131 2.98613 122.445 4.14068 121.977 5.54589L122.925 5.86211C123.353 4.57932 123.963 3.57387 124.742 2.82429L124.048 2.10371ZM121.977 5.54589C121.51 6.94498 121.279 8.43878 121.279 10.024H122.279C122.279 8.53722 122.496 7.15101 122.925 5.86211L121.977 5.54589ZM121.279 10.024C121.279 11.6829 121.493 13.2209 121.925 14.6343L122.881 14.3417C122.482 13.0351 122.279 11.5971 122.279 10.024H121.279ZM121.925 14.6358C122.364 16.0528 123.072 17.2214 124.058 18.1214L124.732 17.3826C123.895 16.6186 123.274 15.6112 122.881 14.3402L121.925 14.6358ZM124.061 18.1243C125.093 19.0493 126.385 19.5 127.899 19.5V18.5C126.597 18.5 125.553 18.1187 124.729 17.3797L124.061 18.1243ZM127.899 19.5C129.02 19.5 130.009 19.1913 130.842 18.5579L130.236 17.7621C129.597 18.2487 128.826 18.5 127.899 18.5V19.5ZM130.842 18.5579C131.646 17.9461 132.252 17.1736 132.654 16.247L131.736 15.849C131.402 16.6184 130.904 17.2539 130.236 17.7621L130.842 18.5579ZM132.652 16.2511C133.062 15.328 133.271 14.3871 133.271 13.432H132.271C132.271 14.2369 132.096 15.04 131.738 15.8449L132.652 16.2511ZM133.271 13.432C133.271 12.696 133.215 12.0881 133.083 11.636L132.123 11.916C132.215 12.2319 132.271 12.728 132.271 13.432H133.271ZM133.088 11.6547C133.028 11.4126 132.924 11.1734 132.741 10.9904C132.545 10.7945 132.295 10.7 132.027 10.7V11.7C132.043 11.7 132.045 11.7024 132.039 11.7002C132.033 11.6978 132.031 11.695 132.034 11.6976C132.043 11.7066 132.083 11.7554 132.118 11.8973L133.088 11.6547ZM132.034 10.7L130.282 10.676L130.268 11.676L132.02 11.7L132.034 10.7ZM130.275 10.676C129.781 10.676 129.378 10.6881 129.07 10.7137C128.916 10.7265 128.778 10.7434 128.66 10.7659C128.553 10.7865 128.422 10.8189 128.308 10.8811L128.786 11.7589C128.761 11.7731 128.768 11.7635 128.848 11.7481C128.918 11.7346 129.018 11.7215 129.153 11.7103C129.421 11.6879 129.793 11.676 130.275 11.676V10.676ZM128.308 10.8811C127.905 11.1004 127.783 11.5144 127.783 11.896H128.783C128.783 11.7992 128.798 11.7557 128.804 11.7443C128.806 11.7399 128.805 11.7424 128.8 11.7479C128.795 11.7535 128.79 11.7573 128.786 11.7589L128.308 10.8811ZM127.784 11.9237C127.8 12.2124 127.807 12.3996 127.807 12.496H128.807C128.807 12.3684 128.798 12.1556 128.782 11.8683L127.784 11.9237ZM127.807 12.496C127.807 12.8682 127.84 13.2029 127.929 13.4701L128.877 13.1539C128.838 13.0371 128.807 12.8278 128.807 12.496H127.807ZM127.933 13.4829C127.998 13.6623 128.114 13.82 128.282 13.932C128.444 14.0403 128.626 14.0863 128.799 14.0987L128.871 13.1013C128.82 13.0977 128.818 13.0877 128.836 13.1C128.846 13.1062 128.855 13.115 128.863 13.1253C128.871 13.1352 128.873 13.1419 128.873 13.1411L127.933 13.4829ZM128.335 13.6V13.912H129.335V13.6H128.335ZM128.835 13.412H127.899V14.412H128.835V13.412ZM128.399 13.912V10.72H127.399V13.912H128.399ZM127.899 11.22H134.355V10.22H127.899V11.22ZM133.855 10.72V16.648H134.855V10.72H133.855ZM134.355 16.148C133.947 16.148 133.509 16.3028 133.062 16.5438L133.536 17.4242C133.921 17.2172 134.187 17.148 134.355 17.148V16.148ZM133.046 16.553C132.762 16.7197 132.465 16.9099 132.153 17.1233L132.717 17.9487C133.014 17.7461 133.292 17.5683 133.553 17.415L133.046 16.553ZM132.154 17.1224C131.32 17.6888 130.548 18.1488 129.835 18.5048L130.283 19.3992C131.043 19.0192 131.854 18.5352 132.716 17.9496L132.154 17.1224ZM129.843 18.5009C129.172 18.8221 128.485 18.98 127.779 18.98V19.98C128.641 19.98 129.474 19.7859 130.275 19.4031L129.843 18.5009Z" fill="black" mask="url(#path-1-outside-1_17_44)"/>
</svg>
